G04*
G04 #@! TF.GenerationSoftware,Altium Limited,Altium Designer,25.8.1 (18)*
G04*
G04 Layer_Physical_Order=2*
G04 Layer_Color=16711680*
%FSLAX25Y25*%
%MOIN*%
G70*
G04*
G04 #@! TF.SameCoordinates,B1D4E9D2-DA07-4CAB-BB94-732616643687*
G04*
G04*
G04 #@! TF.FilePolarity,Positive*
G04*
G01*
G75*
%ADD28C,0.07087*%
G36*
X267736Y377567D02*
X267886Y376810D01*
X268181Y376097D01*
X268610Y375455D01*
X269156Y374909D01*
X269798Y374481D01*
X270511Y374185D01*
X271268Y374035D01*
X271654Y374016D01*
X329568D01*
X331500Y373631D01*
X333319Y372878D01*
X334957Y371783D01*
X336350Y370390D01*
X337445Y368753D01*
X338198Y366933D01*
X338583Y365001D01*
Y364016D01*
Y360394D01*
Y359409D01*
X338198Y357477D01*
X337445Y355657D01*
X336350Y354019D01*
X334957Y352626D01*
X333319Y351532D01*
X331500Y350778D01*
X329568Y350394D01*
X253110D01*
X251178Y350778D01*
X249358Y351532D01*
X247720Y352626D01*
X246327Y354019D01*
X245233Y355657D01*
X244479Y357477D01*
X244094Y359409D01*
Y360394D01*
Y377953D01*
X267717D01*
X267736Y377567D01*
D02*
G37*
D28*
X295276Y381890D02*
D03*
X255906Y385827D02*
D03*
M02*
