G04*
G04 #@! TF.GenerationSoftware,Altium Limited,Altium Designer,25.8.1 (18)*
G04*
G04 Layer_Color=16711935*
%FSLAX25Y25*%
%MOIN*%
G70*
G04*
G04 #@! TF.SameCoordinates,B1D4E9D2-DA07-4CAB-BB94-732616643687*
G04*
G04*
G04 #@! TF.FilePolarity,Positive*
G04*
G01*
G75*
%ADD11C,0.00500*%
%ADD29C,0.00394*%
D11*
X259724Y353209D02*
Y371201D01*
X244213D02*
X259724D01*
X244213Y353209D02*
Y371201D01*
Y353209D02*
X259724D01*
D29*
X327411Y384941D02*
X332283Y380069D01*
Y358169D02*
Y380069D01*
X305512Y358169D02*
X332283D01*
X305512D02*
Y380069D01*
X310384Y384941D01*
X327411D01*
X268209Y383957D02*
Y387697D01*
X275098Y383957D02*
Y387697D01*
X268209D02*
X275098D01*
X268209Y383957D02*
X275098D01*
X291929Y367815D02*
X298622D01*
X291929Y356594D02*
X298622D01*
Y367815D01*
X291929Y356594D02*
Y367815D01*
X280118D02*
X286811D01*
X280118Y356594D02*
X286811D01*
Y367815D01*
X280118Y356594D02*
Y367815D01*
X265846Y350886D02*
X269587D01*
X265846Y357776D02*
X269587D01*
X265846Y350886D02*
Y357776D01*
X269587Y350886D02*
Y357776D01*
X277638Y371260D02*
Y376772D01*
X265669Y371260D02*
Y376772D01*
X277638D01*
X265669Y371260D02*
X277638D01*
M02*
