G04*
G04 #@! TF.GenerationSoftware,Altium Limited,Altium Designer,25.8.1 (18)*
G04*
G04 Layer_Color=16711935*
%FSLAX25Y25*%
%MOIN*%
G70*
G04*
G04 #@! TF.SameCoordinates,176DE027-2461-41C1-BE17-0132175279D7*
G04*
G04*
G04 #@! TF.FilePolarity,Positive*
G04*
G01*
G75*
%ADD13C,0.00500*%
%ADD15C,0.00394*%
D13*
X250118Y363051D02*
X265630D01*
X250118D02*
Y381043D01*
X265630D01*
Y363051D02*
Y381043D01*
D15*
X272146Y366240D02*
Y369980D01*
X279035Y366240D02*
Y369980D01*
X272146D02*
X279035D01*
X272146Y366240D02*
X279035D01*
X285039Y353642D02*
Y364862D01*
X291732Y353642D02*
Y364862D01*
X285039Y353642D02*
X291732D01*
X285039Y364862D02*
X291732D01*
X293898Y353642D02*
Y364862D01*
X300590Y353642D02*
Y364862D01*
X293898Y353642D02*
X300590D01*
X293898Y364862D02*
X300590D01*
X272835Y363268D02*
X278346D01*
X272835Y351299D02*
X278346D01*
X272835D02*
Y363268D01*
X278346Y351299D02*
Y363268D01*
X328396Y384449D02*
X333268Y379577D01*
Y357677D02*
Y379577D01*
X306496Y357677D02*
X333268D01*
X306496D02*
Y379577D01*
X311368Y384449D01*
X328396D01*
X257382Y351476D02*
Y355217D01*
X264272Y351476D02*
Y355217D01*
X257382D02*
X264272D01*
X257382Y351476D02*
X264272D01*
M02*
