G04*
G04 #@! TF.GenerationSoftware,Altium Limited,Altium Designer,25.8.1 (18)*
G04*
G04 Layer_Color=65535*
%FSLAX25Y25*%
%MOIN*%
G70*
G04*
G04 #@! TF.SameCoordinates,91817CEF-BC99-4B21-8299-74786D62B1AF*
G04*
G04*
G04 #@! TF.FilePolarity,Positive*
G04*
G01*
G75*
%ADD10C,0.00984*%
%ADD11C,0.00591*%
%ADD12C,0.01000*%
%ADD13C,0.00500*%
%ADD14C,0.00787*%
%ADD15C,0.00394*%
D10*
X280020Y349803D02*
G03*
X280020Y349803I-492J0D01*
G01*
D11*
X269882Y370110D02*
Y370866D01*
X275590Y365354D02*
Y370866D01*
X281299Y370110D02*
Y370866D01*
X269882D02*
X281299D01*
Y365354D02*
Y366110D01*
X269882Y365354D02*
Y366110D01*
Y365354D02*
X281299D01*
X255118Y356331D02*
Y357087D01*
X260827Y351575D02*
Y357087D01*
X266535Y356331D02*
Y357087D01*
X255118D02*
X266535D01*
Y351575D02*
Y352331D01*
X255118Y351575D02*
Y352331D01*
Y351575D02*
X266535D01*
D12*
X285039Y369094D02*
X291732D01*
X293898D02*
X300590D01*
D13*
X250118Y363051D02*
X252756D01*
X250118D02*
Y381043D01*
X252756D01*
X262992Y363051D02*
X265630D01*
Y381043D01*
X262992D02*
X265630D01*
D14*
X272835Y360433D02*
Y363189D01*
X276772D01*
X272835Y351378D02*
Y354134D01*
Y351378D02*
X276772D01*
X324705Y384449D02*
X328396D01*
X333268Y379577D01*
X306496D02*
X311368Y384449D01*
X315059D01*
X333268Y357677D02*
Y379577D01*
X324705Y357677D02*
X333268D01*
X306496D02*
X315059D01*
X306496D02*
Y379577D01*
D15*
X270178Y373032D02*
Y375000D01*
X271162D01*
X271490Y374672D01*
Y374016D01*
X271162Y373688D01*
X270178D01*
X270834D02*
X271490Y373032D01*
X272146D02*
X272802D01*
X272474D01*
Y375000D01*
X272146Y374672D01*
X273786Y375000D02*
X275098D01*
Y374672D01*
X273786Y373360D01*
Y373032D01*
X288714Y349409D02*
Y347441D01*
X289698D01*
X290026Y347769D01*
Y349081D01*
X289698Y349409D01*
X288714D01*
X290682Y349081D02*
X291010Y349409D01*
X291666D01*
X291994Y349081D01*
Y348753D01*
X291666Y348425D01*
X291338D01*
X291666D01*
X291994Y348097D01*
Y347769D01*
X291666Y347441D01*
X291010D01*
X290682Y347769D01*
X297573Y349409D02*
Y347441D01*
X298557D01*
X298885Y347769D01*
Y349081D01*
X298557Y349409D01*
X297573D01*
X300524Y347441D02*
Y349409D01*
X299541Y348425D01*
X300852D01*
X250329Y359527D02*
Y357559D01*
X251313D01*
X251641Y357887D01*
Y359199D01*
X251313Y359527D01*
X250329D01*
X253608Y357559D02*
X252296D01*
X253608Y358871D01*
Y359199D01*
X253280Y359527D01*
X252625D01*
X252296Y359199D01*
X270341Y347769D02*
Y349081D01*
X270013Y349409D01*
X269357D01*
X269029Y349081D01*
Y347769D01*
X269357Y347441D01*
X270013D01*
X269685Y348097D02*
X270341Y347441D01*
X270013D02*
X270341Y347769D01*
X272309Y347441D02*
X270997D01*
X272309Y348753D01*
Y349081D01*
X271981Y349409D01*
X271325D01*
X270997Y349081D01*
X297244Y373690D02*
X295276D01*
Y374674D01*
X295604Y375002D01*
X296260D01*
X296588Y374674D01*
Y373690D01*
X295932Y375658D02*
X297244D01*
X296588D01*
X296260Y375986D01*
X295932Y376314D01*
Y376642D01*
X297244Y377954D02*
Y378610D01*
X296916Y378938D01*
X296260D01*
X295932Y378610D01*
Y377954D01*
X296260Y377626D01*
X296916D01*
X297244Y377954D01*
X295604Y379922D02*
X295932D01*
Y379594D01*
Y380250D01*
Y379922D01*
X296916D01*
X297244Y380250D01*
Y382218D02*
Y381562D01*
X296916Y381234D01*
X296260D01*
X295932Y381562D01*
Y382218D01*
X296260Y382546D01*
X296588D01*
Y381234D01*
X295932Y384514D02*
Y383530D01*
X296260Y383202D01*
X296916D01*
X297244Y383530D01*
Y384514D01*
X295604Y385497D02*
X295932D01*
Y385170D01*
Y385825D01*
Y385497D01*
X296916D01*
X297244Y385825D01*
Y387793D02*
Y387137D01*
X296916Y386809D01*
X296260D01*
X295932Y387137D01*
Y387793D01*
X296260Y388121D01*
X296588D01*
Y386809D01*
X295276Y390089D02*
X297244D01*
Y389105D01*
X296916Y388777D01*
X296260D01*
X295932Y389105D01*
Y390089D01*
X327428Y349081D02*
X327100Y349409D01*
X326444D01*
X326116Y349081D01*
Y347769D01*
X326444Y347441D01*
X327100D01*
X327428Y347769D01*
X329396Y347441D02*
X328084D01*
X329396Y348753D01*
Y349081D01*
X329068Y349409D01*
X328412D01*
X328084Y349081D01*
X331364Y347441D02*
X330052D01*
X331364Y348753D01*
Y349081D01*
X331036Y349409D01*
X330380D01*
X330052Y349081D01*
X269357Y380743D02*
Y381399D01*
Y381071D01*
X271325D01*
Y380743D01*
Y381399D01*
Y382383D02*
X270013D01*
Y383367D01*
X270341Y383695D01*
X271325D01*
X271981Y384351D02*
X270013D01*
Y385334D01*
X270341Y385663D01*
X270997D01*
X271325Y385334D01*
Y384351D01*
X270013Y386318D02*
X270997D01*
X271325Y386646D01*
Y387630D01*
X270013D01*
X269685Y388614D02*
X270013D01*
Y388286D01*
Y388942D01*
Y388614D01*
X270997D01*
X271325Y388942D01*
X253242Y350810D02*
X251274D01*
Y351794D01*
X251603Y352122D01*
X252258D01*
X252587Y351794D01*
Y350810D01*
Y351466D02*
X253242Y352122D01*
Y352778D02*
Y353434D01*
Y353106D01*
X251274D01*
X251603Y352778D01*
Y354418D02*
X251274Y354746D01*
Y355402D01*
X251603Y355730D01*
X251930D01*
X252258Y355402D01*
X252587Y355730D01*
X252914D01*
X253242Y355402D01*
Y354746D01*
X252914Y354418D01*
X252587D01*
X252258Y354746D01*
X251930Y354418D01*
X251603D01*
X252258Y354746D02*
Y355402D01*
M02*
