G04*
G04 #@! TF.GenerationSoftware,Altium Limited,Altium Designer,25.8.1 (18)*
G04*
G04 Layer_Color=65535*
%FSLAX25Y25*%
%MOIN*%
G70*
G04*
G04 #@! TF.SameCoordinates,D5697FD0-A7FC-4AE5-996D-29E81799025A*
G04*
G04*
G04 #@! TF.FilePolarity,Positive*
G04*
G01*
G75*
%ADD10C,0.00984*%
%ADD11C,0.00591*%
%ADD12C,0.00787*%
%ADD13C,0.01000*%
%ADD14C,0.00500*%
D10*
X135865Y478161D02*
G03*
X135865Y478161I-492J0D01*
G01*
D11*
X137441Y450000D02*
Y450756D01*
X143150Y445244D02*
Y450756D01*
X148858Y450000D02*
Y450756D01*
X137441D02*
X148858D01*
Y445244D02*
Y446000D01*
X137441Y445244D02*
Y446000D01*
Y445244D02*
X148858D01*
X137244Y462291D02*
X138000D01*
X137244Y468000D02*
X142756D01*
X137244Y473709D02*
X138000D01*
X137244Y462291D02*
Y473709D01*
X142000D02*
X142756D01*
X142000Y462291D02*
X142756D01*
Y473709D01*
D12*
X146003Y484854D02*
X148759D01*
Y480917D02*
Y484854D01*
X136948D02*
X139704D01*
X136948Y480917D02*
Y484854D01*
X190625Y490758D02*
X194316D01*
X199188Y485886D01*
X172416D02*
X177288Y490758D01*
X180979D01*
X199188Y463986D02*
Y485886D01*
X190625Y463986D02*
X199188D01*
X172416D02*
X180979D01*
X172416D02*
Y485886D01*
D13*
X150654Y472157D02*
X157346D01*
X164043Y462653D02*
Y469347D01*
X150502Y443001D02*
Y448999D01*
X153501D01*
X154501Y447999D01*
Y446000D01*
X153501Y445000D01*
X150502D01*
X152502D02*
X154501Y443001D01*
X156500D02*
X158500D01*
X157500D01*
Y448999D01*
X156500Y447999D01*
X161499Y448999D02*
X165498D01*
Y447999D01*
X161499Y444001D01*
Y443001D01*
X159221Y496999D02*
X163219Y491001D01*
Y496999D02*
X159221Y491001D01*
X169217D02*
X165218D01*
X169217Y495000D01*
Y495999D01*
X168218Y496999D01*
X166218D01*
X165218Y495999D01*
X122001Y496999D02*
X126000Y491001D01*
Y496999D02*
X122001Y491001D01*
X127999D02*
X129999D01*
X128999D01*
Y496999D01*
X127999Y495999D01*
X134502Y455001D02*
Y460999D01*
X137502D01*
X138501Y459999D01*
Y458000D01*
X137502Y457000D01*
X134502D01*
X136502D02*
X138501Y455001D01*
X140500D02*
X142500D01*
X141500D01*
Y460999D01*
X140500Y459999D01*
X145499D02*
X146499Y460999D01*
X148498D01*
X149498Y459999D01*
Y459000D01*
X148498Y458000D01*
X149498Y457000D01*
Y456001D01*
X148498Y455001D01*
X146499D01*
X145499Y456001D01*
Y457000D01*
X146499Y458000D01*
X145499Y459000D01*
Y459999D01*
X146499Y458000D02*
X148498D01*
X141854Y492001D02*
Y495999D01*
X140854Y496999D01*
X138855D01*
X137855Y495999D01*
Y492001D01*
X138855Y491001D01*
X140854D01*
X139854Y493000D02*
X141854Y491001D01*
X140854D02*
X141854Y492001D01*
X147852Y491001D02*
X143853D01*
X147852Y495000D01*
Y495999D01*
X146852Y496999D01*
X144853D01*
X143853Y495999D01*
X159002Y476999D02*
Y471001D01*
X162001D01*
X163000Y472001D01*
Y475999D01*
X162001Y476999D01*
X159002D01*
X167999Y471001D02*
Y476999D01*
X165000Y474000D01*
X168998D01*
X163200Y460998D02*
X157202D01*
Y457999D01*
X158201Y457000D01*
X162200D01*
X163200Y457999D01*
Y460998D01*
X162200Y455000D02*
X163200Y454001D01*
Y452001D01*
X162200Y451002D01*
X161200D01*
X160201Y452001D01*
Y453001D01*
Y452001D01*
X159201Y451002D01*
X158201D01*
X157202Y452001D01*
Y454001D01*
X158201Y455000D01*
X121002Y450999D02*
Y445001D01*
X124001D01*
X125000Y446001D01*
Y449999D01*
X124001Y450999D01*
X121002D01*
X130998Y445001D02*
X127000D01*
X130998Y449000D01*
Y449999D01*
X129999Y450999D01*
X127999D01*
X127000Y449999D01*
X180056Y454755D02*
X179057Y455755D01*
X177057D01*
X176058Y454755D01*
Y450757D01*
X177057Y449757D01*
X179057D01*
X180056Y450757D01*
X186055Y449757D02*
X182056D01*
X186055Y453756D01*
Y454755D01*
X185055Y455755D01*
X183055D01*
X182056Y454755D01*
X192052Y449757D02*
X188054D01*
X192052Y453756D01*
Y454755D01*
X191053Y455755D01*
X189053D01*
X188054Y454755D01*
D14*
X117626Y455004D02*
X120264D01*
X117626D02*
Y472996D01*
X120264D01*
X130500Y455004D02*
X133138D01*
Y472996D01*
X130500D02*
X133138D01*
M02*
