G04*
G04 #@! TF.GenerationSoftware,Altium Limited,Altium Designer,25.8.1 (18)*
G04*
G04 Layer_Physical_Order=1*
G04 Layer_Color=255*
%FSLAX25Y25*%
%MOIN*%
G70*
G04*
G04 #@! TF.SameCoordinates,B1D4E9D2-DA07-4CAB-BB94-732616643687*
G04*
G04*
G04 #@! TF.FilePolarity,Positive*
G04*
G01*
G75*
%ADD14C,0.01000*%
%ADD15R,0.03150X0.04724*%
G04:AMPARAMS|DCode=16|XSize=37.4mil|YSize=35.43mil|CornerRadius=2.66mil|HoleSize=0mil|Usage=FLASHONLY|Rotation=0.000|XOffset=0mil|YOffset=0mil|HoleType=Round|Shape=RoundedRectangle|*
%AMROUNDEDRECTD16*
21,1,0.03740,0.03012,0,0,0.0*
21,1,0.03209,0.03543,0,0,0.0*
1,1,0.00532,0.01604,-0.01506*
1,1,0.00532,-0.01604,-0.01506*
1,1,0.00532,-0.01604,0.01506*
1,1,0.00532,0.01604,0.01506*
%
%ADD16ROUNDEDRECTD16*%
G04:AMPARAMS|DCode=17|XSize=39.37mil|YSize=37.4mil|CornerRadius=4.68mil|HoleSize=0mil|Usage=FLASHONLY|Rotation=90.000|XOffset=0mil|YOffset=0mil|HoleType=Round|Shape=RoundedRectangle|*
%AMROUNDEDRECTD17*
21,1,0.03937,0.02805,0,0,90.0*
21,1,0.03002,0.03740,0,0,90.0*
1,1,0.00935,0.01403,0.01501*
1,1,0.00935,0.01403,-0.01501*
1,1,0.00935,-0.01403,-0.01501*
1,1,0.00935,-0.01403,0.01501*
%
%ADD17ROUNDEDRECTD17*%
%ADD18R,0.07284X0.13976*%
G04:AMPARAMS|DCode=19|XSize=87.4mil|YSize=83.86mil|CornerRadius=6.29mil|HoleSize=0mil|Usage=FLASHONLY|Rotation=90.000|XOffset=0mil|YOffset=0mil|HoleType=Round|Shape=RoundedRectangle|*
%AMROUNDEDRECTD19*
21,1,0.08740,0.07128,0,0,90.0*
21,1,0.07482,0.08386,0,0,90.0*
1,1,0.01258,0.03564,0.03741*
1,1,0.01258,0.03564,-0.03741*
1,1,0.01258,-0.03564,-0.03741*
1,1,0.01258,-0.03564,0.03741*
%
%ADD19ROUNDEDRECTD19*%
G04:AMPARAMS|DCode=20|XSize=39.37mil|YSize=37.4mil|CornerRadius=4.68mil|HoleSize=0mil|Usage=FLASHONLY|Rotation=180.000|XOffset=0mil|YOffset=0mil|HoleType=Round|Shape=RoundedRectangle|*
%AMROUNDEDRECTD20*
21,1,0.03937,0.02805,0,0,180.0*
21,1,0.03002,0.03740,0,0,180.0*
1,1,0.00935,-0.01501,0.01403*
1,1,0.00935,0.01501,0.01403*
1,1,0.00935,0.01501,-0.01403*
1,1,0.00935,-0.01501,-0.01403*
%
%ADD20ROUNDEDRECTD20*%
%ADD28C,0.07087*%
G36*
X293746Y371202D02*
X293671D01*
X293177Y371104D01*
X292759Y370824D01*
X292479Y370405D01*
X292385Y369935D01*
X286355D01*
X286261Y370405D01*
X285981Y370824D01*
X285563Y371104D01*
X285069Y371202D01*
X284994D01*
Y374016D01*
X293746D01*
Y371202D01*
D02*
G37*
G36*
X267736Y377567D02*
X267886Y376810D01*
X268181Y376097D01*
X268610Y375455D01*
X269079Y374987D01*
Y374984D01*
X269081D01*
X269156Y374909D01*
X269798Y374481D01*
X270511Y374185D01*
X271268Y374035D01*
X271654Y374016D01*
X272743D01*
X272819Y373047D01*
X272819D01*
Y366323D01*
X277969D01*
Y366876D01*
X280574D01*
X280668Y366406D01*
X280948Y365987D01*
X281366Y365707D01*
X281860Y365609D01*
X285069D01*
X285563Y365707D01*
X285981Y365987D01*
X286261Y366406D01*
X286355Y366876D01*
X292385D01*
X292479Y366406D01*
X292759Y365987D01*
X293177Y365707D01*
X293671Y365609D01*
X296880D01*
X297374Y365707D01*
X297793Y365987D01*
X298072Y366406D01*
X298170Y366900D01*
Y369911D01*
X298072Y370405D01*
X297793Y370824D01*
X297374Y371104D01*
X296880Y371202D01*
X296805D01*
Y374016D01*
X314256D01*
Y373902D01*
X323539D01*
Y374016D01*
X331484D01*
X333005Y373713D01*
X334438Y373120D01*
X335728Y372258D01*
X336825Y371161D01*
X337686Y369871D01*
X338280Y368439D01*
X338583Y366917D01*
Y366142D01*
Y359409D01*
X338198Y357477D01*
X337445Y355657D01*
X336350Y354019D01*
X334957Y352626D01*
X333319Y351532D01*
X331500Y350778D01*
X329568Y350394D01*
X270714D01*
Y350681D01*
X267717D01*
X264719D01*
Y350394D01*
X257722D01*
X257452Y350732D01*
X257103Y351394D01*
X257193Y351849D01*
Y355091D01*
X251969D01*
X246398D01*
X245744Y354892D01*
X245233Y355657D01*
X244479Y357477D01*
X244094Y359409D01*
Y360394D01*
Y377953D01*
X250439D01*
Y374221D01*
X248405D01*
X247769Y374095D01*
X247230Y373734D01*
X246870Y373196D01*
X246744Y372560D01*
Y365078D01*
X246870Y364442D01*
X247230Y363903D01*
X247769Y363543D01*
X248405Y363417D01*
X255533D01*
X256168Y363543D01*
X256707Y363903D01*
X257067Y364442D01*
X257193Y365078D01*
Y372560D01*
X257067Y373196D01*
X256707Y373734D01*
X256168Y374095D01*
X255533Y374221D01*
X253498D01*
Y377953D01*
X267717D01*
X267736Y377567D01*
D02*
G37*
%LPC*%
G36*
X323539Y369209D02*
X319398D01*
Y361720D01*
X323539D01*
Y369209D01*
D02*
G37*
G36*
X296880Y358800D02*
X295776D01*
Y356504D01*
X298170D01*
Y357510D01*
X298072Y358004D01*
X297793Y358422D01*
X297374Y358702D01*
X296880Y358800D01*
D02*
G37*
G36*
X294776D02*
X293671D01*
X293177Y358702D01*
X292759Y358422D01*
X292479Y358004D01*
X292381Y357510D01*
Y356504D01*
X294776D01*
Y358800D01*
D02*
G37*
G36*
X255533Y360993D02*
X252468D01*
Y356091D01*
X257193D01*
Y359332D01*
X257067Y359967D01*
X256707Y360506D01*
X256168Y360866D01*
X255533Y360993D01*
D02*
G37*
G36*
X251468D02*
X248405D01*
X247769Y360866D01*
X247230Y360506D01*
X246870Y359967D01*
X246744Y359332D01*
Y356091D01*
X251468D01*
Y360993D01*
D02*
G37*
G36*
X323539Y360720D02*
X319398D01*
Y353232D01*
X323539D01*
Y360720D01*
D02*
G37*
G36*
X318398Y369209D02*
X314256D01*
Y364262D01*
X314219Y364075D01*
Y360728D01*
X314256Y360541D01*
Y353232D01*
X318398D01*
Y361221D01*
Y369209D01*
D02*
G37*
G36*
X298170Y355504D02*
X295776D01*
Y353207D01*
X296880D01*
X297374Y353306D01*
X297793Y353586D01*
X298072Y354004D01*
X298170Y354498D01*
Y355504D01*
D02*
G37*
G36*
X294776D02*
X292381D01*
Y354498D01*
X292479Y354004D01*
X292759Y353586D01*
X293177Y353306D01*
X293671Y353207D01*
X294776D01*
Y355504D01*
D02*
G37*
G36*
X270488Y373047D02*
X265339D01*
Y366323D01*
X266187D01*
Y360373D01*
X265643Y360265D01*
X265158Y359941D01*
X264833Y359455D01*
X264719Y358883D01*
Y356078D01*
X264833Y355505D01*
X265158Y355020D01*
X265357Y354886D01*
X265398Y354756D01*
Y353906D01*
X265357Y353775D01*
X265158Y353642D01*
X264833Y353156D01*
X264719Y352584D01*
Y351681D01*
X267717D01*
X270714D01*
Y352584D01*
X270600Y353156D01*
X270275Y353642D01*
X270076Y353775D01*
X270035Y353906D01*
Y354756D01*
X270076Y354886D01*
X270275Y355020D01*
X270600Y355505D01*
X270689Y355951D01*
X280570D01*
Y354498D01*
X280668Y354004D01*
X280948Y353586D01*
X281366Y353306D01*
X281860Y353207D01*
X285069D01*
X285563Y353306D01*
X285981Y353586D01*
X286261Y354004D01*
X286360Y354498D01*
Y357510D01*
X286261Y358004D01*
X285981Y358422D01*
X285563Y358702D01*
X285069Y358800D01*
X282614D01*
X282475Y358893D01*
X281890Y359010D01*
X270689D01*
X270600Y359455D01*
X270275Y359941D01*
X269790Y360265D01*
X269246Y360373D01*
Y366323D01*
X270488D01*
Y373047D01*
D02*
G37*
%LPD*%
D14*
X295276Y381890D02*
X318898D01*
X295276Y368406D02*
Y381890D01*
X276468Y368406D02*
X283465D01*
X275394Y369480D02*
X276468Y368406D01*
X275394Y369480D02*
Y369685D01*
X283465Y368406D02*
X295276D01*
X274803Y385728D02*
Y385827D01*
Y385728D02*
X283465Y377067D01*
Y368406D02*
Y377067D01*
X283366Y356004D02*
X283465D01*
X281890Y357480D02*
X283366Y356004D01*
X267717Y357480D02*
X281890D01*
X267717D02*
Y369488D01*
X267913Y369685D01*
X271654Y378346D02*
Y379134D01*
X268504Y382283D02*
X271654Y379134D01*
X268504Y382283D02*
Y385827D01*
X255906D02*
X268504D01*
X251969Y368819D02*
Y381890D01*
X255906Y385827D01*
X315748Y360728D02*
Y364075D01*
X251969Y355591D02*
X254409Y353150D01*
D15*
X275394Y369685D02*
D03*
X271654Y378346D02*
D03*
X267913Y369685D02*
D03*
D16*
X283465Y368406D02*
D03*
X295276D02*
D03*
Y356004D02*
D03*
X283465D02*
D03*
D17*
X274803Y385827D02*
D03*
X268504D02*
D03*
D18*
X318898Y381890D02*
D03*
Y361221D02*
D03*
D19*
X251969Y355591D02*
D03*
Y368819D02*
D03*
D20*
X267717Y357480D02*
D03*
Y351181D02*
D03*
D28*
X295276Y381890D02*
D03*
X255906Y385827D02*
D03*
M02*
