G04*
G04 #@! TF.GenerationSoftware,Altium Limited,Altium Designer,25.8.1 (18)*
G04*
G04 Layer_Color=32896*
%FSLAX25Y25*%
%MOIN*%
G70*
G04*
G04 #@! TF.SameCoordinates,09059175-875F-4311-9E3A-052BFA8C917B*
G04*
G04*
G04 #@! TF.FilePolarity,Positive*
G04*
G01*
G75*
%ADD14C,0.00787*%
%ADD15C,0.00394*%
G36*
X328558Y363522D02*
X328676D01*
Y363463D01*
X328794D01*
Y363404D01*
X328912D01*
Y363345D01*
X329030D01*
Y363286D01*
X329148D01*
Y363227D01*
X329265D01*
Y363168D01*
X329383D01*
Y363109D01*
X329501D01*
Y363050D01*
X329619D01*
Y362991D01*
X329737D01*
Y362932D01*
X329855D01*
Y362873D01*
X329973D01*
Y362814D01*
X330091D01*
Y362755D01*
X330150D01*
Y362696D01*
X330268D01*
Y362637D01*
X330385D01*
Y362578D01*
X330503D01*
Y362520D01*
X330621D01*
Y362460D01*
X330739D01*
Y362402D01*
X330857D01*
Y362343D01*
X330975D01*
Y362284D01*
X331093D01*
Y362225D01*
X331211D01*
Y362166D01*
X331329D01*
Y362107D01*
X331447D01*
Y362048D01*
X331564D01*
Y361989D01*
X331682D01*
Y361930D01*
X331800D01*
Y361871D01*
X331918D01*
Y361812D01*
X332036D01*
Y361753D01*
X332154D01*
Y361694D01*
X329855D01*
Y361753D01*
X329796D01*
Y361812D01*
X329678D01*
Y361871D01*
X329560D01*
Y361930D01*
X329442D01*
Y361989D01*
X329324D01*
Y362048D01*
X329206D01*
Y362107D01*
X329089D01*
Y362166D01*
X328971D01*
Y362225D01*
X328853D01*
Y362284D01*
X328735D01*
Y362343D01*
X328617D01*
Y362402D01*
X328499D01*
Y362460D01*
X328381D01*
Y362520D01*
X328322D01*
Y362578D01*
X328204D01*
Y362637D01*
X328086D01*
Y362696D01*
X327969D01*
Y362755D01*
X327851D01*
Y362814D01*
X327733D01*
Y362873D01*
X327615D01*
Y362932D01*
X327497D01*
Y362991D01*
X327379D01*
Y363050D01*
X327261D01*
Y363109D01*
X327143D01*
Y363168D01*
X327025D01*
Y363227D01*
X326907D01*
Y363286D01*
X326789D01*
Y363345D01*
X326731D01*
Y363404D01*
X326613D01*
Y363463D01*
X326495D01*
Y363522D01*
X326377D01*
Y363581D01*
X328558D01*
Y363522D01*
D02*
G37*
G36*
X324844D02*
X324962D01*
Y363463D01*
X325080D01*
Y363404D01*
X325198D01*
Y363345D01*
X325316D01*
Y363286D01*
X325434D01*
Y363227D01*
X325552D01*
Y363168D01*
X325670D01*
Y363109D01*
X325787D01*
Y363050D01*
X325905D01*
Y362991D01*
X326023D01*
Y362932D01*
X326141D01*
Y362873D01*
X326259D01*
Y362814D01*
X326377D01*
Y362755D01*
X326495D01*
Y362696D01*
X326613D01*
Y362637D01*
X326731D01*
Y362578D01*
X326849D01*
Y362520D01*
X326966D01*
Y362460D01*
X327025D01*
Y362402D01*
X327143D01*
Y362343D01*
X327261D01*
Y362284D01*
X327379D01*
Y362225D01*
X327497D01*
Y362166D01*
X327615D01*
Y362107D01*
X327733D01*
Y362048D01*
X327851D01*
Y361989D01*
X327969D01*
Y361930D01*
X328086D01*
Y361871D01*
X328204D01*
Y361812D01*
X328322D01*
Y361753D01*
X328440D01*
Y361694D01*
X326200D01*
Y361753D01*
X326082D01*
Y361812D01*
X325964D01*
Y361871D01*
X325846D01*
Y361930D01*
X325729D01*
Y361989D01*
X325611D01*
Y362048D01*
X325493D01*
Y362107D01*
X325375D01*
Y362166D01*
X325257D01*
Y362225D01*
X325139D01*
Y362284D01*
X325021D01*
Y362343D01*
X324962D01*
Y362402D01*
X324844D01*
Y362460D01*
X324726D01*
Y362520D01*
X324608D01*
Y362578D01*
X324490D01*
Y362637D01*
X324373D01*
Y362696D01*
X324255D01*
Y362755D01*
X324137D01*
Y362814D01*
X324019D01*
Y362873D01*
X323901D01*
Y362932D01*
X323783D01*
Y362991D01*
X323665D01*
Y363050D01*
X323547D01*
Y363109D01*
X323488D01*
Y363168D01*
X323371D01*
Y363227D01*
X323253D01*
Y363286D01*
X323135D01*
Y363345D01*
X323017D01*
Y363404D01*
X322899D01*
Y363463D01*
X322781D01*
Y363522D01*
X322663D01*
Y363581D01*
X324844D01*
Y363522D01*
D02*
G37*
G36*
X321248D02*
X321307D01*
Y363463D01*
X321425D01*
Y363404D01*
X321543D01*
Y363345D01*
X321661D01*
Y363286D01*
X321779D01*
Y363227D01*
X321897D01*
Y363168D01*
X322015D01*
Y363109D01*
X322132D01*
Y363050D01*
X322250D01*
Y362991D01*
X322368D01*
Y362932D01*
X322486D01*
Y362873D01*
X322604D01*
Y362814D01*
X322722D01*
Y362755D01*
X322840D01*
Y362696D01*
X322899D01*
Y362637D01*
X323017D01*
Y362578D01*
X323135D01*
Y362520D01*
X323253D01*
Y362460D01*
X323371D01*
Y362402D01*
X323488D01*
Y362343D01*
X323606D01*
Y362284D01*
X323724D01*
Y362225D01*
X323842D01*
Y362166D01*
X323960D01*
Y362107D01*
X324078D01*
Y362048D01*
X324196D01*
Y361989D01*
X324314D01*
Y361930D01*
X324373D01*
Y361871D01*
X324490D01*
Y361812D01*
X324608D01*
Y361753D01*
X324726D01*
Y361694D01*
X251393D01*
Y361753D01*
X252572D01*
Y361812D01*
X253810D01*
Y361871D01*
X254989D01*
Y361930D01*
X256227D01*
Y361989D01*
X257406D01*
Y362048D01*
X259056D01*
Y362107D01*
X261650D01*
Y362166D01*
X264244D01*
Y362225D01*
X266838D01*
Y362284D01*
X269490D01*
Y362343D01*
X272084D01*
Y362402D01*
X274678D01*
Y362460D01*
X277272D01*
Y362520D01*
X279866D01*
Y362578D01*
X282459D01*
Y362637D01*
X285053D01*
Y362696D01*
X287647D01*
Y362755D01*
X290241D01*
Y362814D01*
X292834D01*
Y362873D01*
X295428D01*
Y362932D01*
X298022D01*
Y362991D01*
X300380D01*
Y363050D01*
X302561D01*
Y363109D01*
X304742D01*
Y363168D01*
X306924D01*
Y363227D01*
X309105D01*
Y363286D01*
X311286D01*
Y363345D01*
X313467D01*
Y363404D01*
X315648D01*
Y363463D01*
X317829D01*
Y363522D01*
X320010D01*
Y363581D01*
X321248D01*
Y363522D01*
D02*
G37*
G36*
X289828Y360928D02*
X289887D01*
Y360869D01*
X289946D01*
Y360751D01*
X290005D01*
Y360633D01*
X290064D01*
Y360574D01*
X290123D01*
Y360456D01*
X290182D01*
Y360338D01*
X290241D01*
Y360220D01*
X290300D01*
Y360161D01*
X290358D01*
Y360044D01*
X290418D01*
Y359926D01*
X290476D01*
Y359808D01*
X290535D01*
Y359749D01*
X290594D01*
Y359631D01*
X290653D01*
Y359513D01*
X290712D01*
Y359454D01*
X290771D01*
Y359336D01*
X290830D01*
Y359277D01*
X288531D01*
Y359395D01*
X288472D01*
Y359454D01*
X288413D01*
Y359572D01*
X288354D01*
Y359690D01*
X288295D01*
Y359808D01*
X288236D01*
Y359867D01*
X288177D01*
Y359985D01*
X288118D01*
Y360103D01*
X288059D01*
Y360161D01*
X288000D01*
Y360279D01*
X287942D01*
Y360397D01*
X287883D01*
Y360515D01*
X287824D01*
Y360574D01*
X287765D01*
Y360692D01*
X287706D01*
Y360810D01*
X287647D01*
Y360928D01*
X287588D01*
Y360987D01*
X287529D01*
Y361046D01*
X289828D01*
Y360928D01*
D02*
G37*
G36*
X285171Y360987D02*
X285230D01*
Y360869D01*
X285289D01*
Y360810D01*
X285348D01*
Y360692D01*
X285407D01*
Y360574D01*
X285466D01*
Y360515D01*
X285525D01*
Y360397D01*
X285584D01*
Y360279D01*
X285643D01*
Y360161D01*
X285701D01*
Y360103D01*
X285760D01*
Y359985D01*
X285819D01*
Y359867D01*
X285878D01*
Y359749D01*
X285937D01*
Y359690D01*
X285996D01*
Y359572D01*
X286055D01*
Y359454D01*
X286114D01*
Y359395D01*
X286173D01*
Y359277D01*
X283933D01*
Y359336D01*
X283874D01*
Y359395D01*
X283815D01*
Y359513D01*
X283756D01*
Y359631D01*
X283697D01*
Y359749D01*
X283638D01*
Y359808D01*
X283579D01*
Y359926D01*
X283520D01*
Y360044D01*
X283461D01*
Y360103D01*
X283402D01*
Y360220D01*
X283344D01*
Y360338D01*
X283284D01*
Y360456D01*
X283226D01*
Y360515D01*
X283167D01*
Y360633D01*
X283108D01*
Y360751D01*
X283049D01*
Y360869D01*
X282990D01*
Y360928D01*
X282931D01*
Y361046D01*
X285171D01*
Y360987D01*
D02*
G37*
G36*
X280573D02*
Y360928D01*
X280632D01*
Y360810D01*
X280691D01*
Y360751D01*
X280750D01*
Y360633D01*
X280809D01*
Y360515D01*
X280868D01*
Y360397D01*
X280927D01*
Y360338D01*
X280985D01*
Y360220D01*
X281045D01*
Y360103D01*
X281103D01*
Y359985D01*
X281162D01*
Y359926D01*
X281221D01*
Y359808D01*
X281280D01*
Y359690D01*
X281339D01*
Y359631D01*
X281398D01*
Y359513D01*
X281457D01*
Y359395D01*
X281516D01*
Y359277D01*
X279276D01*
Y359336D01*
X279217D01*
Y359454D01*
X279158D01*
Y359572D01*
X279099D01*
Y359631D01*
X279040D01*
Y359749D01*
X278981D01*
Y359867D01*
X278922D01*
Y359985D01*
X278863D01*
Y360044D01*
X278804D01*
Y360161D01*
X278745D01*
Y360279D01*
X278686D01*
Y360338D01*
X278627D01*
Y360456D01*
X278569D01*
Y360574D01*
X278510D01*
Y360692D01*
X278451D01*
Y360751D01*
X278392D01*
Y360869D01*
X278333D01*
Y360987D01*
X278274D01*
Y361046D01*
X280573D01*
Y360987D01*
D02*
G37*
G36*
X275916Y360928D02*
X275975D01*
Y360869D01*
X276034D01*
Y360751D01*
X276093D01*
Y360633D01*
X276152D01*
Y360574D01*
X276211D01*
Y360456D01*
X276270D01*
Y360338D01*
X276328D01*
Y360220D01*
X276387D01*
Y360161D01*
X276446D01*
Y360044D01*
X276505D01*
Y359926D01*
X276564D01*
Y359867D01*
Y359808D01*
X276623D01*
Y359749D01*
X276682D01*
Y359631D01*
X276741D01*
Y359513D01*
X276800D01*
Y359454D01*
X276859D01*
Y359336D01*
X276918D01*
Y359277D01*
X274619D01*
Y359395D01*
X274560D01*
Y359454D01*
X274501D01*
Y359572D01*
X274442D01*
Y359690D01*
X274383D01*
Y359808D01*
X274324D01*
Y359867D01*
X274265D01*
Y359985D01*
X274206D01*
Y360103D01*
X274147D01*
Y360161D01*
X274088D01*
Y360279D01*
X274029D01*
Y360397D01*
X273971D01*
Y360515D01*
X273911D01*
Y360574D01*
X273853D01*
Y360692D01*
X273794D01*
Y360810D01*
X273735D01*
Y360928D01*
X273676D01*
Y360987D01*
X273617D01*
Y361046D01*
X275916D01*
Y360928D01*
D02*
G37*
G36*
X271259Y360987D02*
X271318D01*
Y360869D01*
X271377D01*
Y360810D01*
X271436D01*
Y360692D01*
X271495D01*
Y360574D01*
X271553D01*
Y360515D01*
X271613D01*
Y360397D01*
X271671D01*
Y360279D01*
X271730D01*
Y360161D01*
X271789D01*
Y360103D01*
X271848D01*
Y359985D01*
X271907D01*
Y359867D01*
X271966D01*
Y359749D01*
X272025D01*
Y359690D01*
X272084D01*
Y359572D01*
X272143D01*
Y359454D01*
X272202D01*
Y359395D01*
X272261D01*
Y359277D01*
X270021D01*
Y359336D01*
X269962D01*
Y359395D01*
X269903D01*
Y359454D01*
Y359513D01*
X269844D01*
Y359631D01*
X269785D01*
Y359749D01*
X269726D01*
Y359808D01*
X269667D01*
Y359926D01*
X269608D01*
Y360044D01*
X269549D01*
Y360103D01*
X269490D01*
Y360220D01*
X269431D01*
Y360338D01*
X269372D01*
Y360456D01*
X269313D01*
Y360515D01*
X269254D01*
Y360633D01*
X269196D01*
Y360751D01*
X269137D01*
Y360869D01*
X269078D01*
Y360928D01*
X269019D01*
Y361046D01*
X271259D01*
Y360987D01*
D02*
G37*
G36*
X266661Y360928D02*
X266720D01*
Y360810D01*
X266779D01*
Y360751D01*
X266838D01*
Y360633D01*
X266897D01*
Y360515D01*
X266955D01*
Y360397D01*
X267014D01*
Y360338D01*
X267073D01*
Y360220D01*
X267132D01*
Y360103D01*
X267191D01*
Y359985D01*
X267250D01*
Y359926D01*
X267309D01*
Y359808D01*
X267368D01*
Y359690D01*
X267427D01*
Y359631D01*
X267486D01*
Y359513D01*
X267545D01*
Y359395D01*
X267604D01*
Y359277D01*
X265364D01*
Y359336D01*
X265305D01*
Y359454D01*
X265246D01*
Y359572D01*
X265187D01*
Y359631D01*
X265128D01*
Y359749D01*
X265069D01*
Y359867D01*
X265010D01*
Y359985D01*
X264951D01*
Y360044D01*
X264892D01*
Y360161D01*
X264833D01*
Y360279D01*
X264774D01*
Y360338D01*
X264715D01*
Y360456D01*
X264656D01*
Y360574D01*
X264597D01*
Y360692D01*
X264539D01*
Y360751D01*
X264480D01*
Y360869D01*
X264421D01*
Y360987D01*
X264362D01*
Y361046D01*
X266661D01*
Y360928D01*
D02*
G37*
G36*
X262004Y360987D02*
X262063D01*
Y360869D01*
X262122D01*
Y360751D01*
X262180D01*
Y360633D01*
X262239D01*
Y360574D01*
X262298D01*
Y360456D01*
X262357D01*
Y360338D01*
X262416D01*
Y360279D01*
X262475D01*
Y360161D01*
X262534D01*
Y360044D01*
X262593D01*
Y359926D01*
X262652D01*
Y359867D01*
X262711D01*
Y359749D01*
X262770D01*
Y359631D01*
X262829D01*
Y359513D01*
X262888D01*
Y359454D01*
X262947D01*
Y359336D01*
X263006D01*
Y359277D01*
X260707D01*
Y359395D01*
X260648D01*
Y359513D01*
X260589D01*
Y359572D01*
X260530D01*
Y359690D01*
X260471D01*
Y359808D01*
X260412D01*
Y359867D01*
X260353D01*
Y359985D01*
X260294D01*
Y360103D01*
X260235D01*
Y360220D01*
X260176D01*
Y360279D01*
X260117D01*
Y360397D01*
X260058D01*
Y360515D01*
X259999D01*
Y360633D01*
X259940D01*
Y360692D01*
X259881D01*
Y360810D01*
X259823D01*
Y360928D01*
X259764D01*
Y360987D01*
X259705D01*
Y361046D01*
X262004D01*
Y360987D01*
D02*
G37*
G36*
X257347D02*
X257406D01*
Y360928D01*
X257465D01*
Y360810D01*
X257523D01*
Y360692D01*
X257582D01*
Y360574D01*
X257641D01*
Y360515D01*
X257700D01*
Y360397D01*
X257759D01*
Y360279D01*
X257818D01*
Y360220D01*
X257877D01*
Y360103D01*
X257936D01*
Y359985D01*
X257995D01*
Y359867D01*
X258054D01*
Y359808D01*
X258113D01*
Y359690D01*
X258172D01*
Y359572D01*
X258231D01*
Y359454D01*
X258290D01*
Y359395D01*
X258349D01*
Y359277D01*
X256109D01*
Y359336D01*
X256050D01*
Y359395D01*
X255991D01*
Y359513D01*
X255932D01*
Y359631D01*
X255873D01*
Y359749D01*
X255814D01*
Y359808D01*
X255755D01*
Y359926D01*
X255696D01*
Y360044D01*
X255637D01*
Y360161D01*
X255578D01*
Y360220D01*
X255519D01*
Y360338D01*
X255460D01*
Y360456D01*
X255401D01*
Y360574D01*
X255342D01*
Y360633D01*
X255283D01*
Y360751D01*
X255224D01*
Y360869D01*
X255166D01*
Y360928D01*
X255106D01*
Y361046D01*
X257347D01*
Y360987D01*
D02*
G37*
G36*
X252748Y360928D02*
X252807D01*
Y360810D01*
X252866D01*
Y360751D01*
X252925D01*
Y360633D01*
X252984D01*
Y360515D01*
X253043D01*
Y360456D01*
X253102D01*
Y360338D01*
X253161D01*
Y360220D01*
X253220D01*
Y360103D01*
X253279D01*
Y360044D01*
X253338D01*
Y359926D01*
X253397D01*
Y359808D01*
X253456D01*
Y359690D01*
X253515D01*
Y359631D01*
X253574D01*
Y359513D01*
X253633D01*
Y359395D01*
X253692D01*
Y359336D01*
X253751D01*
Y359277D01*
X251452D01*
Y359336D01*
X251393D01*
Y359454D01*
X251334D01*
Y359572D01*
X251275D01*
Y359690D01*
X251216D01*
Y359749D01*
X251157D01*
Y359867D01*
X251098D01*
Y359985D01*
X251039D01*
Y360044D01*
X250980D01*
Y360161D01*
X250921D01*
Y360279D01*
X250862D01*
Y360397D01*
X250803D01*
Y360456D01*
X250744D01*
Y360574D01*
X250685D01*
Y360692D01*
X250626D01*
Y360810D01*
X250567D01*
Y360869D01*
X250508D01*
Y360987D01*
X250449D01*
Y361046D01*
X252748D01*
Y360928D01*
D02*
G37*
G36*
X332626Y360987D02*
X332684D01*
Y360928D01*
X332744D01*
Y360810D01*
X332802D01*
Y360692D01*
X332861D01*
Y360633D01*
X332920D01*
Y360515D01*
X332979D01*
Y360397D01*
X333038D01*
Y360279D01*
X333097D01*
Y360220D01*
X333156D01*
Y360103D01*
X333215D01*
Y359985D01*
X333274D01*
Y359867D01*
X333333D01*
Y359808D01*
X333392D01*
Y359690D01*
X333451D01*
Y359572D01*
X333510D01*
Y359513D01*
X333569D01*
Y359395D01*
X333628D01*
Y359277D01*
X333687D01*
Y359159D01*
X333746D01*
Y359100D01*
X333805D01*
Y358982D01*
X333863D01*
Y358865D01*
X333923D01*
Y358806D01*
X333981D01*
Y358688D01*
X334040D01*
Y358570D01*
X334099D01*
Y358452D01*
X334158D01*
Y358393D01*
X334217D01*
Y358275D01*
X334276D01*
Y358157D01*
X334335D01*
Y358098D01*
X334394D01*
Y357980D01*
X334453D01*
Y357862D01*
X334512D01*
Y357745D01*
X334571D01*
Y357686D01*
X334630D01*
Y357568D01*
X334689D01*
Y357509D01*
X295075D01*
Y357568D01*
X295016D01*
Y357627D01*
X294957D01*
Y357745D01*
X294898D01*
Y357862D01*
X294839D01*
Y357980D01*
X294780D01*
Y358039D01*
X294721D01*
Y358157D01*
X294662D01*
Y358275D01*
X294603D01*
Y358334D01*
X294544D01*
Y358452D01*
X294485D01*
Y358570D01*
X294426D01*
Y358688D01*
X294367D01*
Y358747D01*
X294308D01*
Y358865D01*
X294249D01*
Y358982D01*
X294190D01*
Y359041D01*
X294131D01*
Y359159D01*
X294072D01*
Y359277D01*
X294013D01*
Y359395D01*
X293954D01*
Y359454D01*
X293896D01*
Y359572D01*
X293837D01*
Y359690D01*
X293778D01*
Y359749D01*
X293719D01*
Y359867D01*
X293660D01*
Y359985D01*
X293601D01*
Y360103D01*
X293542D01*
Y360161D01*
X293483D01*
Y360279D01*
X293424D01*
Y360397D01*
X293365D01*
Y360456D01*
X293306D01*
Y360574D01*
X293247D01*
Y360692D01*
X293188D01*
Y360810D01*
X293129D01*
Y360869D01*
X293070D01*
Y360987D01*
X293011D01*
Y361046D01*
X332626D01*
Y360987D01*
D02*
G37*
G36*
X293188Y359159D02*
X293247D01*
Y359041D01*
X293306D01*
Y358924D01*
X293365D01*
Y358865D01*
X293424D01*
Y358747D01*
X293483D01*
Y358629D01*
X293542D01*
Y358570D01*
X293601D01*
Y358452D01*
X293660D01*
Y358334D01*
X293719D01*
Y358216D01*
X293778D01*
Y358157D01*
X293837D01*
Y358039D01*
X293896D01*
Y357921D01*
X293954D01*
Y357804D01*
X294013D01*
Y357745D01*
X294072D01*
Y357627D01*
X294131D01*
Y357509D01*
X291891D01*
Y357568D01*
X291832D01*
Y357686D01*
X291773D01*
Y357745D01*
X291714D01*
Y357862D01*
X291655D01*
Y357980D01*
X291597D01*
Y358098D01*
X291537D01*
Y358157D01*
X291479D01*
Y358275D01*
X291420D01*
Y358393D01*
X291361D01*
Y358511D01*
X291302D01*
Y358570D01*
X291243D01*
Y358688D01*
X291184D01*
Y358806D01*
X291125D01*
Y358924D01*
X291066D01*
Y358982D01*
X291007D01*
Y359100D01*
X290948D01*
Y359218D01*
X290889D01*
Y359277D01*
X293188D01*
Y359159D01*
D02*
G37*
G36*
X288531Y359218D02*
X288590D01*
Y359100D01*
X288649D01*
Y358982D01*
X288708D01*
Y358865D01*
X288767D01*
Y358806D01*
X288826D01*
Y358688D01*
X288885D01*
Y358570D01*
X288944D01*
Y358452D01*
X289003D01*
Y358393D01*
X289062D01*
Y358275D01*
X289121D01*
Y358157D01*
X289179D01*
Y358098D01*
X289239D01*
Y358039D01*
Y357980D01*
X289297D01*
Y357862D01*
X289356D01*
Y357745D01*
X289415D01*
Y357686D01*
X289474D01*
Y357568D01*
X289533D01*
Y357509D01*
X287234D01*
Y357627D01*
X287175D01*
Y357686D01*
X287116D01*
Y357804D01*
X287057D01*
Y357921D01*
X286998D01*
Y358039D01*
X286939D01*
Y358098D01*
X286880D01*
Y358216D01*
X286822D01*
Y358334D01*
X286763D01*
Y358452D01*
X286704D01*
Y358511D01*
X286645D01*
Y358629D01*
X286586D01*
Y358747D01*
X286527D01*
Y358865D01*
X286468D01*
Y358924D01*
X286409D01*
Y359041D01*
X286350D01*
Y359159D01*
X286291D01*
Y359218D01*
X286232D01*
Y359277D01*
X288531D01*
Y359218D01*
D02*
G37*
G36*
X283874D02*
X283933D01*
Y359100D01*
X283992D01*
Y359041D01*
X284051D01*
Y358924D01*
X284110D01*
Y358806D01*
X284169D01*
Y358747D01*
X284228D01*
Y358629D01*
X284287D01*
Y358511D01*
X284346D01*
Y358393D01*
X284405D01*
Y358334D01*
X284464D01*
Y358216D01*
X284523D01*
Y358098D01*
X284581D01*
Y357980D01*
X284640D01*
Y357921D01*
X284699D01*
Y357804D01*
X284758D01*
Y357686D01*
X284817D01*
Y357627D01*
X284876D01*
Y357509D01*
X282636D01*
Y357568D01*
X282577D01*
Y357627D01*
X282518D01*
Y357745D01*
X282459D01*
Y357862D01*
X282400D01*
Y357980D01*
X282341D01*
Y358039D01*
X282282D01*
Y358157D01*
X282224D01*
Y358275D01*
X282165D01*
Y358334D01*
X282106D01*
Y358452D01*
X282047D01*
Y358570D01*
X281988D01*
Y358688D01*
X281929D01*
Y358747D01*
X281870D01*
Y358865D01*
X281811D01*
Y358982D01*
X281752D01*
Y359100D01*
X281693D01*
Y359159D01*
X281634D01*
Y359277D01*
X283874D01*
Y359218D01*
D02*
G37*
G36*
X279276Y359159D02*
X279335D01*
Y359041D01*
X279394D01*
Y358924D01*
X279453D01*
Y358865D01*
X279512D01*
Y358747D01*
X279571D01*
Y358629D01*
X279630D01*
Y358570D01*
X279689D01*
Y358452D01*
X279748D01*
Y358334D01*
X279806D01*
Y358216D01*
X279866D01*
Y358157D01*
X279924D01*
Y358039D01*
X279983D01*
Y357921D01*
X280042D01*
Y357804D01*
X280101D01*
Y357745D01*
X280160D01*
Y357627D01*
X280219D01*
Y357509D01*
X277979D01*
Y357568D01*
X277920D01*
Y357686D01*
X277861D01*
Y357745D01*
X277802D01*
Y357862D01*
X277743D01*
Y357980D01*
X277684D01*
Y358098D01*
X277625D01*
Y358157D01*
X277566D01*
Y358275D01*
X277507D01*
Y358393D01*
X277449D01*
Y358511D01*
X277390D01*
Y358570D01*
X277331D01*
Y358688D01*
X277272D01*
Y358806D01*
X277213D01*
Y358924D01*
X277154D01*
Y358982D01*
X277095D01*
Y359100D01*
X277036D01*
Y359218D01*
X276977D01*
Y359277D01*
X279276D01*
Y359159D01*
D02*
G37*
G36*
X274619Y359218D02*
X274678D01*
Y359100D01*
X274737D01*
Y358982D01*
X274796D01*
Y358865D01*
X274855D01*
Y358806D01*
X274914D01*
Y358688D01*
X274973D01*
Y358570D01*
X275032D01*
Y358452D01*
X275091D01*
Y358393D01*
X275149D01*
Y358275D01*
X275208D01*
Y358157D01*
X275267D01*
Y358098D01*
X275326D01*
Y357980D01*
X275385D01*
Y357862D01*
X275444D01*
Y357745D01*
X275503D01*
Y357686D01*
X275562D01*
Y357568D01*
X275621D01*
Y357509D01*
X273322D01*
Y357627D01*
X273263D01*
Y357686D01*
X273204D01*
Y357804D01*
X273145D01*
Y357921D01*
X273086D01*
Y358039D01*
X273027D01*
Y358098D01*
X272968D01*
Y358216D01*
X272909D01*
Y358334D01*
X272850D01*
Y358452D01*
X272792D01*
Y358511D01*
X272732D01*
Y358629D01*
X272674D01*
Y358747D01*
X272615D01*
Y358865D01*
X272556D01*
Y358924D01*
X272497D01*
Y359041D01*
X272438D01*
Y359159D01*
X272379D01*
Y359218D01*
X272320D01*
Y359277D01*
X274619D01*
Y359218D01*
D02*
G37*
G36*
X269962D02*
X270021D01*
Y359100D01*
X270080D01*
Y359041D01*
X270139D01*
Y358924D01*
X270198D01*
Y358806D01*
X270257D01*
Y358747D01*
X270316D01*
Y358629D01*
X270374D01*
Y358511D01*
X270433D01*
Y358393D01*
X270492D01*
Y358334D01*
X270551D01*
Y358216D01*
X270610D01*
Y358098D01*
X270669D01*
Y357980D01*
X270728D01*
Y357921D01*
X270787D01*
Y357804D01*
X270846D01*
Y357686D01*
X270905D01*
Y357627D01*
X270964D01*
Y357509D01*
X268724D01*
Y357568D01*
X268665D01*
Y357627D01*
X268606D01*
Y357745D01*
X268547D01*
Y357862D01*
X268488D01*
Y357980D01*
X268429D01*
Y358039D01*
X268370D01*
Y358157D01*
X268311D01*
Y358275D01*
X268252D01*
Y358334D01*
X268193D01*
Y358452D01*
X268134D01*
Y358570D01*
X268075D01*
Y358688D01*
X268017D01*
Y358747D01*
X267958D01*
Y358865D01*
X267899D01*
Y358982D01*
X267840D01*
Y359100D01*
X267781D01*
Y359159D01*
X267722D01*
Y359277D01*
X269962D01*
Y359218D01*
D02*
G37*
G36*
X265364Y359159D02*
X265423D01*
Y359041D01*
X265482D01*
Y358982D01*
X265541D01*
Y358865D01*
X265600D01*
Y358747D01*
X265659D01*
Y358629D01*
X265718D01*
Y358570D01*
X265776D01*
Y358452D01*
X265835D01*
Y358334D01*
X265894D01*
Y358216D01*
X265953D01*
Y358157D01*
X266012D01*
Y358039D01*
X266071D01*
Y357921D01*
X266130D01*
Y357862D01*
X266189D01*
Y357745D01*
X266248D01*
Y357627D01*
X266307D01*
Y357509D01*
X264067D01*
Y357568D01*
X264008D01*
Y357686D01*
X263949D01*
Y357804D01*
X263890D01*
Y357862D01*
X263831D01*
Y357980D01*
X263772D01*
Y358098D01*
X263713D01*
Y358216D01*
X263654D01*
Y358275D01*
X263595D01*
Y358393D01*
X263536D01*
Y358511D01*
X263477D01*
Y358570D01*
X263418D01*
Y358688D01*
X263359D01*
Y358806D01*
X263301D01*
Y358924D01*
X263242D01*
Y358982D01*
X263183D01*
Y359100D01*
X263124D01*
Y359218D01*
X263065D01*
Y359277D01*
X265364D01*
Y359159D01*
D02*
G37*
G36*
X260707Y359218D02*
X260766D01*
Y359100D01*
X260825D01*
Y358982D01*
X260884D01*
Y358924D01*
X260943D01*
Y358806D01*
X261001D01*
Y358688D01*
X261061D01*
Y358570D01*
X261119D01*
Y358511D01*
X261178D01*
Y358393D01*
X261237D01*
Y358275D01*
X261296D01*
Y358157D01*
X261355D01*
Y358098D01*
X261414D01*
Y357980D01*
X261473D01*
Y357862D01*
X261532D01*
Y357804D01*
X261591D01*
Y357686D01*
X261650D01*
Y357568D01*
X261709D01*
Y357509D01*
X259410D01*
Y357627D01*
X259351D01*
Y357745D01*
X259292D01*
Y357804D01*
X259233D01*
Y357921D01*
X259174D01*
Y358039D01*
X259115D01*
Y358157D01*
X259056D01*
Y358216D01*
X258997D01*
Y358334D01*
X258938D01*
Y358452D01*
X258879D01*
Y358511D01*
X258820D01*
Y358629D01*
X258761D01*
Y358747D01*
X258702D01*
Y358865D01*
X258644D01*
Y358924D01*
X258585D01*
Y359041D01*
X258526D01*
Y359159D01*
X258467D01*
Y359277D01*
X260707D01*
Y359218D01*
D02*
G37*
G36*
X256050D02*
X256109D01*
Y359159D01*
X256168D01*
Y359041D01*
X256227D01*
Y358924D01*
X256286D01*
Y358806D01*
X256345D01*
Y358747D01*
X256403D01*
Y358629D01*
X256462D01*
Y358511D01*
X256521D01*
Y358393D01*
X256580D01*
Y358334D01*
X256639D01*
Y358216D01*
X256698D01*
Y358098D01*
X256757D01*
Y358039D01*
X256816D01*
Y357921D01*
X256875D01*
Y357804D01*
X256934D01*
Y357686D01*
X256993D01*
Y357627D01*
X257052D01*
Y357509D01*
X254812D01*
Y357568D01*
X254753D01*
Y357627D01*
X254694D01*
Y357745D01*
X254635D01*
Y357862D01*
X254576D01*
Y357980D01*
X254517D01*
Y358039D01*
X254458D01*
Y358157D01*
X254399D01*
Y358275D01*
X254340D01*
Y358393D01*
X254281D01*
Y358452D01*
X254222D01*
Y358570D01*
X254163D01*
Y358688D01*
X254104D01*
Y358806D01*
X254045D01*
Y358865D01*
X253987D01*
Y358982D01*
X253927D01*
Y359100D01*
X253869D01*
Y359159D01*
X253810D01*
Y359277D01*
X256050D01*
Y359218D01*
D02*
G37*
G36*
X310519Y355917D02*
X310578D01*
Y355563D01*
X310637D01*
Y355151D01*
X310696D01*
Y354797D01*
X310755D01*
Y354384D01*
X310814D01*
Y354031D01*
X310873D01*
Y353677D01*
X310932D01*
Y353264D01*
X310991D01*
Y352911D01*
X311050D01*
Y352557D01*
X311109D01*
Y352144D01*
X311168D01*
Y351791D01*
X311227D01*
Y351437D01*
X311286D01*
Y351024D01*
X311345D01*
Y350671D01*
X308574D01*
Y350729D01*
X308515D01*
Y350788D01*
X308456D01*
Y350847D01*
X308397D01*
Y350906D01*
X308338D01*
Y350965D01*
X308279D01*
Y351024D01*
X308220D01*
Y351083D01*
X308161D01*
Y351142D01*
X308102D01*
Y351201D01*
X308044D01*
Y351260D01*
X307984D01*
Y351319D01*
X307926D01*
Y351378D01*
X307867D01*
Y351437D01*
X307808D01*
Y351496D01*
X307749D01*
Y351555D01*
X307690D01*
Y351614D01*
X307631D01*
Y351673D01*
X307572D01*
Y351732D01*
X307513D01*
Y351791D01*
X307454D01*
Y351850D01*
X307395D01*
Y351908D01*
X307336D01*
Y351968D01*
X307277D01*
Y352026D01*
X307218D01*
Y352085D01*
X307159D01*
Y352144D01*
X307100D01*
Y352203D01*
X307041D01*
Y352262D01*
X306982D01*
Y352321D01*
X306924D01*
Y352380D01*
X306865D01*
Y352439D01*
X306805D01*
Y352498D01*
X306747D01*
Y352557D01*
X306688D01*
Y352616D01*
X306629D01*
Y352675D01*
X306570D01*
Y352734D01*
X306511D01*
Y352793D01*
X306452D01*
Y352852D01*
X306393D01*
Y352911D01*
X306334D01*
Y352970D01*
X306275D01*
Y353028D01*
X306157D01*
Y353087D01*
X306098D01*
Y353146D01*
X306039D01*
Y353205D01*
X305980D01*
Y353264D01*
X305921D01*
Y353323D01*
X305862D01*
Y353382D01*
X305803D01*
Y353441D01*
X305745D01*
Y353500D01*
X305685D01*
Y353559D01*
X305627D01*
Y353618D01*
X305568D01*
Y353677D01*
X305509D01*
Y353736D01*
X305450D01*
Y353795D01*
X305391D01*
Y353854D01*
X305332D01*
Y353913D01*
X305273D01*
Y353972D01*
X305214D01*
Y354031D01*
X305155D01*
Y354090D01*
X305096D01*
Y354149D01*
X305037D01*
Y354207D01*
X304978D01*
Y354267D01*
X304919D01*
Y354325D01*
X304860D01*
Y354384D01*
X304801D01*
Y354443D01*
X304742D01*
Y354502D01*
X304683D01*
Y354561D01*
X304624D01*
Y354620D01*
X304566D01*
Y354679D01*
X304506D01*
Y354738D01*
X304448D01*
Y354797D01*
X304389D01*
Y354856D01*
X304330D01*
Y354915D01*
X304271D01*
Y354974D01*
X304212D01*
Y355033D01*
X304153D01*
Y355092D01*
X304094D01*
Y355151D01*
X304035D01*
Y355210D01*
X303976D01*
Y355269D01*
X303917D01*
Y355328D01*
X303858D01*
Y355386D01*
X303799D01*
Y355446D01*
X303740D01*
Y355504D01*
X303622D01*
Y355563D01*
X303563D01*
Y355622D01*
X303504D01*
Y355681D01*
X303445D01*
Y355740D01*
X303386D01*
Y355799D01*
X303327D01*
Y355858D01*
X303269D01*
Y355917D01*
X303210D01*
Y355976D01*
X303151D01*
Y356035D01*
X305509D01*
Y355976D01*
X305568D01*
Y355917D01*
X305627D01*
Y355858D01*
X305685D01*
Y355799D01*
X305745D01*
Y355740D01*
X305803D01*
Y355681D01*
X305862D01*
Y355622D01*
X305921D01*
Y355563D01*
X305980D01*
Y355446D01*
X306039D01*
Y355386D01*
X306098D01*
Y355328D01*
X306157D01*
Y355269D01*
X308397D01*
Y355504D01*
X308338D01*
Y355740D01*
X308279D01*
Y355976D01*
X308220D01*
Y356035D01*
X310519D01*
Y355917D01*
D02*
G37*
G36*
X302797D02*
X302856D01*
Y355799D01*
X302915D01*
Y355681D01*
X302974D01*
Y355622D01*
X303033D01*
Y355504D01*
X303092D01*
Y355386D01*
X303151D01*
Y355328D01*
X303210D01*
Y355210D01*
X303269D01*
Y355092D01*
X303327D01*
Y354974D01*
X303386D01*
Y354915D01*
X303445D01*
Y354797D01*
X303504D01*
Y354679D01*
X303563D01*
Y354620D01*
X303622D01*
Y354502D01*
X303681D01*
Y354384D01*
X303740D01*
Y354325D01*
X303799D01*
Y354207D01*
X303858D01*
Y353795D01*
X303799D01*
Y353677D01*
X303681D01*
Y353618D01*
X303563D01*
Y353559D01*
X303681D01*
Y353500D01*
X303858D01*
Y353441D01*
X303976D01*
Y353382D01*
X304094D01*
Y353323D01*
X304153D01*
Y353264D01*
X304212D01*
Y353205D01*
X304330D01*
Y353146D01*
X304389D01*
Y353087D01*
X304448D01*
Y352970D01*
X304506D01*
Y352911D01*
X304566D01*
Y352852D01*
X304624D01*
Y352734D01*
X304683D01*
Y352616D01*
X304742D01*
Y352557D01*
X304801D01*
Y352439D01*
X304860D01*
Y352321D01*
X304919D01*
Y352262D01*
X304978D01*
Y352144D01*
X305037D01*
Y352026D01*
X305096D01*
Y351968D01*
X305155D01*
Y351850D01*
X305214D01*
Y351732D01*
X305273D01*
Y351614D01*
X305332D01*
Y351496D01*
X305391D01*
Y351319D01*
X305450D01*
Y351142D01*
Y351083D01*
X305391D01*
Y350965D01*
X305332D01*
Y350906D01*
X305214D01*
Y350847D01*
X305096D01*
Y350788D01*
X304919D01*
Y350729D01*
X304389D01*
Y350671D01*
X299083D01*
Y350729D01*
X299024D01*
Y350847D01*
X298965D01*
Y350965D01*
X298906D01*
Y351024D01*
X298847D01*
Y351142D01*
X298788D01*
Y351260D01*
X298729D01*
Y351378D01*
X298671D01*
Y351437D01*
X298611D01*
Y351555D01*
X298553D01*
Y351673D01*
X298494D01*
Y351732D01*
X298435D01*
Y351850D01*
X298376D01*
Y351968D01*
X298317D01*
Y352026D01*
X298258D01*
Y352144D01*
X298199D01*
Y352262D01*
X298140D01*
Y352321D01*
X298081D01*
Y352439D01*
X298022D01*
Y352557D01*
X297963D01*
Y352675D01*
X297904D01*
Y352734D01*
X297845D01*
Y352852D01*
X297786D01*
Y352970D01*
X297727D01*
Y353028D01*
X297668D01*
Y353146D01*
X297609D01*
Y353264D01*
X297550D01*
Y353323D01*
X297492D01*
Y353441D01*
X297432D01*
Y353559D01*
X297374D01*
Y353618D01*
X297315D01*
Y353736D01*
X297256D01*
Y353854D01*
X297197D01*
Y353972D01*
X297138D01*
Y354031D01*
X297079D01*
Y354149D01*
X297020D01*
Y354267D01*
X296961D01*
Y354325D01*
X296902D01*
Y354443D01*
X296843D01*
Y354561D01*
X296784D01*
Y354620D01*
X296725D01*
Y354738D01*
X296666D01*
Y354856D01*
X296607D01*
Y354915D01*
X296548D01*
Y355033D01*
X296489D01*
Y355151D01*
X296430D01*
Y355269D01*
X296371D01*
Y355328D01*
X296312D01*
Y355446D01*
X296253D01*
Y355563D01*
X296195D01*
Y355622D01*
X296136D01*
Y355740D01*
X296077D01*
Y355858D01*
X296018D01*
Y355917D01*
X295959D01*
Y356035D01*
X298081D01*
Y355976D01*
X298140D01*
Y355858D01*
X298199D01*
Y355740D01*
X298258D01*
Y355681D01*
X298317D01*
Y355563D01*
X298376D01*
Y355446D01*
X298435D01*
Y355386D01*
X298494D01*
Y355269D01*
X298553D01*
Y355151D01*
X298611D01*
Y355092D01*
X298671D01*
Y354974D01*
X298729D01*
Y354856D01*
X298788D01*
Y354738D01*
X298847D01*
Y354679D01*
X298906D01*
Y354561D01*
X298965D01*
Y354443D01*
X299024D01*
Y354384D01*
X299083D01*
Y354267D01*
X299142D01*
Y354207D01*
X301500D01*
Y354267D01*
X301559D01*
Y354502D01*
X301500D01*
Y354620D01*
X301441D01*
Y354679D01*
X301382D01*
Y354797D01*
X301323D01*
Y354915D01*
X301264D01*
Y354974D01*
X301205D01*
Y355092D01*
X301146D01*
Y355210D01*
X301087D01*
Y355269D01*
X301028D01*
Y355386D01*
X300970D01*
Y355504D01*
X300911D01*
Y355622D01*
X300852D01*
Y355681D01*
X300793D01*
Y355799D01*
X300734D01*
Y355917D01*
X300675D01*
Y355976D01*
X300616D01*
Y356035D01*
X302797D01*
Y355917D01*
D02*
G37*
G36*
X327851Y355976D02*
X327910D01*
Y355858D01*
X327969D01*
Y355740D01*
X328028D01*
Y355622D01*
X328086D01*
Y355563D01*
X328145D01*
Y355446D01*
X328204D01*
Y355328D01*
X328263D01*
Y355269D01*
X328322D01*
Y355151D01*
X328381D01*
Y355033D01*
X328440D01*
Y354974D01*
X328499D01*
Y354856D01*
X328558D01*
Y354738D01*
X328617D01*
Y354620D01*
X328676D01*
Y354561D01*
X328735D01*
Y354443D01*
X328794D01*
Y354325D01*
X328853D01*
Y354267D01*
X328912D01*
Y354149D01*
X328971D01*
Y354031D01*
X329030D01*
Y353972D01*
X329089D01*
Y353854D01*
X329148D01*
Y353736D01*
X329206D01*
Y353677D01*
X329265D01*
Y353559D01*
X329324D01*
Y353441D01*
X329383D01*
Y353323D01*
X329442D01*
Y353264D01*
X329501D01*
Y353146D01*
X329560D01*
Y353028D01*
X329619D01*
Y352970D01*
X329678D01*
Y352852D01*
X329737D01*
Y352734D01*
X329796D01*
Y352675D01*
X329855D01*
Y352557D01*
X329914D01*
Y352439D01*
X329973D01*
Y352380D01*
X330032D01*
Y352262D01*
X330091D01*
Y352144D01*
X330150D01*
Y352026D01*
X330209D01*
Y351968D01*
X330268D01*
Y351850D01*
X330327D01*
Y351732D01*
X330385D01*
Y351673D01*
X330444D01*
Y351555D01*
X330503D01*
Y351437D01*
X330562D01*
Y351378D01*
X330621D01*
Y351260D01*
X330680D01*
Y351142D01*
X330739D01*
Y351083D01*
X330798D01*
Y350965D01*
X330857D01*
Y350847D01*
X330916D01*
Y350729D01*
X330975D01*
Y350671D01*
X328912D01*
Y350788D01*
X328853D01*
Y350906D01*
X328794D01*
Y350965D01*
X328735D01*
Y351083D01*
X328676D01*
Y351201D01*
X328617D01*
Y351319D01*
X328558D01*
Y351378D01*
X328499D01*
Y351496D01*
X328440D01*
Y351614D01*
X328381D01*
Y351673D01*
X328322D01*
Y351791D01*
X328263D01*
Y351908D01*
X328204D01*
Y351968D01*
X328145D01*
Y352085D01*
X328086D01*
Y352203D01*
X328028D01*
Y352262D01*
X327969D01*
Y352380D01*
X327910D01*
Y352498D01*
X327851D01*
Y352616D01*
X327792D01*
Y352675D01*
X327733D01*
Y352793D01*
X327674D01*
Y352911D01*
X327615D01*
Y352970D01*
X327556D01*
Y353087D01*
X327497D01*
Y353205D01*
X327438D01*
Y353264D01*
X327379D01*
Y353382D01*
X327261D01*
Y353146D01*
X327202D01*
Y352970D01*
X327143D01*
Y352793D01*
X327084D01*
Y352557D01*
X327025D01*
Y352380D01*
X326966D01*
Y352203D01*
X326907D01*
Y351968D01*
X326849D01*
Y351791D01*
X326789D01*
Y351614D01*
X326731D01*
Y351378D01*
X326672D01*
Y351201D01*
X326613D01*
Y351024D01*
X326554D01*
Y350788D01*
X326495D01*
Y350671D01*
X324255D01*
Y350729D01*
X324196D01*
Y350847D01*
X324137D01*
Y350965D01*
X324078D01*
Y351024D01*
X324019D01*
Y351142D01*
X323960D01*
Y351260D01*
X323901D01*
Y351319D01*
X323842D01*
Y351437D01*
X323783D01*
Y351555D01*
X323724D01*
Y351673D01*
X323665D01*
Y351732D01*
X323606D01*
Y351850D01*
X323547D01*
Y351968D01*
X323488D01*
Y352026D01*
X323429D01*
Y352144D01*
X323371D01*
Y352262D01*
X323311D01*
Y352321D01*
X323253D01*
Y352439D01*
X323194D01*
Y352557D01*
X323135D01*
Y352675D01*
X323076D01*
Y352734D01*
X323017D01*
Y352852D01*
X322958D01*
Y352970D01*
X322899D01*
Y353028D01*
X322840D01*
Y353146D01*
X322781D01*
Y353264D01*
X322722D01*
Y353323D01*
X322663D01*
Y353441D01*
X322604D01*
Y353559D01*
X322545D01*
Y353618D01*
X322486D01*
Y353736D01*
X322427D01*
Y353854D01*
X322368D01*
Y353972D01*
X322309D01*
Y354031D01*
X322250D01*
Y354149D01*
X322192D01*
Y354267D01*
X322132D01*
Y354325D01*
X322074D01*
Y354443D01*
X322015D01*
Y354561D01*
X321956D01*
Y354620D01*
X321897D01*
Y354738D01*
X321838D01*
Y354856D01*
X321779D01*
Y354915D01*
X321720D01*
Y355033D01*
X321661D01*
Y355151D01*
X321602D01*
Y355269D01*
X321543D01*
Y355328D01*
X321484D01*
Y355446D01*
X321425D01*
Y355563D01*
X321366D01*
Y355622D01*
X321307D01*
Y355740D01*
X321248D01*
Y355858D01*
X321189D01*
Y355917D01*
X321130D01*
Y356035D01*
X323135D01*
Y355976D01*
X323194D01*
Y355917D01*
X323253D01*
Y355799D01*
X323311D01*
Y355681D01*
X323371D01*
Y355563D01*
X323429D01*
Y355504D01*
X323488D01*
Y355386D01*
X323547D01*
Y355269D01*
X323606D01*
Y355210D01*
X323665D01*
Y355151D01*
Y355092D01*
X323724D01*
Y354974D01*
X323783D01*
Y354915D01*
X323842D01*
Y354797D01*
X323901D01*
Y354679D01*
X323960D01*
Y354620D01*
X324019D01*
Y354502D01*
X324078D01*
Y354384D01*
X324137D01*
Y354267D01*
X324196D01*
Y354207D01*
X324255D01*
Y354090D01*
X324314D01*
Y353972D01*
X324373D01*
Y353913D01*
X324432D01*
Y353795D01*
X324490D01*
Y353677D01*
X324550D01*
Y353618D01*
X324608D01*
Y353500D01*
X324667D01*
Y353441D01*
X324726D01*
Y353618D01*
X324785D01*
Y353736D01*
X324844D01*
Y353913D01*
X324903D01*
Y354031D01*
X324962D01*
Y354207D01*
X325021D01*
Y354325D01*
X325080D01*
Y354502D01*
X325139D01*
Y354620D01*
X325198D01*
Y354797D01*
X325257D01*
Y354915D01*
X325316D01*
Y355092D01*
X325375D01*
Y355210D01*
X325434D01*
Y355386D01*
X325493D01*
Y355504D01*
X325552D01*
Y355681D01*
X325611D01*
Y355799D01*
X325670D01*
Y355976D01*
X325729D01*
Y356035D01*
X327851D01*
Y355976D01*
D02*
G37*
G36*
X335573Y355917D02*
X335632D01*
Y355858D01*
X335691D01*
Y355740D01*
X335750D01*
Y355622D01*
X335809D01*
Y355563D01*
X335868D01*
Y355446D01*
X335927D01*
Y355328D01*
X335986D01*
Y355210D01*
X336045D01*
Y355151D01*
X336104D01*
Y355033D01*
X336163D01*
Y354915D01*
X336222D01*
Y354856D01*
X336280D01*
Y354738D01*
X336339D01*
Y354620D01*
X336398D01*
Y354561D01*
X336457D01*
Y354443D01*
X336516D01*
Y354325D01*
X336575D01*
Y354267D01*
X336634D01*
Y354149D01*
X336693D01*
Y354031D01*
X336752D01*
Y353913D01*
X336811D01*
Y353854D01*
X336870D01*
Y353736D01*
X336929D01*
Y353618D01*
X336988D01*
Y353559D01*
X337047D01*
Y353441D01*
X337106D01*
Y353323D01*
X337165D01*
Y353264D01*
X337224D01*
Y353146D01*
X337283D01*
Y353028D01*
X337342D01*
Y352970D01*
X337401D01*
Y352852D01*
X337459D01*
Y352734D01*
X337518D01*
Y352675D01*
X333510D01*
Y352793D01*
X333451D01*
Y352911D01*
X333392D01*
Y353028D01*
X333333D01*
Y353087D01*
X333274D01*
Y353205D01*
X333215D01*
Y353323D01*
X333156D01*
Y353382D01*
X333097D01*
Y353500D01*
X333038D01*
Y353618D01*
X332979D01*
Y353677D01*
X332920D01*
Y353795D01*
X332861D01*
Y353913D01*
X332802D01*
Y353972D01*
X334689D01*
Y354031D01*
X334630D01*
Y354149D01*
X334571D01*
Y354267D01*
X334512D01*
Y354325D01*
X334453D01*
Y354443D01*
X334394D01*
Y354561D01*
X334335D01*
Y354620D01*
X334276D01*
Y354679D01*
X331918D01*
Y354620D01*
X331800D01*
Y354384D01*
X331859D01*
Y354267D01*
X331918D01*
Y354207D01*
X331977D01*
Y354090D01*
X332036D01*
Y353972D01*
X332095D01*
Y353913D01*
X332154D01*
Y353795D01*
X332213D01*
Y353677D01*
X332272D01*
Y353559D01*
X332331D01*
Y353500D01*
X332390D01*
Y353382D01*
X332449D01*
Y353264D01*
X332508D01*
Y353205D01*
X332567D01*
Y353087D01*
X332626D01*
Y352970D01*
X332684D01*
Y352911D01*
X332744D01*
Y352793D01*
X332802D01*
Y352675D01*
X332861D01*
Y352616D01*
X332920D01*
Y352498D01*
X332979D01*
Y352380D01*
X333038D01*
Y352321D01*
X333097D01*
Y352203D01*
X333156D01*
Y352144D01*
X333274D01*
Y352085D01*
X333392D01*
Y352026D01*
X337931D01*
Y351908D01*
X337990D01*
Y351850D01*
X338049D01*
Y351732D01*
X338108D01*
Y351614D01*
X338167D01*
Y351555D01*
X338226D01*
Y351437D01*
X338285D01*
Y351319D01*
X338344D01*
Y351260D01*
X338403D01*
Y351142D01*
X338462D01*
Y351024D01*
X338521D01*
Y350965D01*
X338580D01*
Y350847D01*
X338638D01*
Y350729D01*
X338697D01*
Y350671D01*
X333510D01*
Y350729D01*
X332920D01*
Y350788D01*
X332567D01*
Y350847D01*
X332390D01*
Y350906D01*
X332213D01*
Y350965D01*
X332095D01*
Y351024D01*
X331977D01*
Y351083D01*
X331859D01*
Y351142D01*
X331800D01*
Y351201D01*
X331741D01*
Y351260D01*
X331623D01*
Y351319D01*
X331564D01*
Y351378D01*
X331505D01*
Y351496D01*
X331447D01*
Y351555D01*
X331388D01*
Y351614D01*
X331329D01*
Y351673D01*
X331270D01*
Y351791D01*
X331211D01*
Y351850D01*
X331152D01*
Y351968D01*
X331093D01*
Y352085D01*
X331034D01*
Y352144D01*
X330975D01*
Y352262D01*
X330916D01*
Y352380D01*
X330857D01*
Y352439D01*
X330798D01*
Y352557D01*
X330739D01*
Y352675D01*
X330680D01*
Y352793D01*
X330621D01*
Y352852D01*
X330562D01*
Y352970D01*
X330503D01*
Y353087D01*
X330444D01*
Y353146D01*
X330385D01*
Y353264D01*
X330327D01*
Y353382D01*
X330268D01*
Y353441D01*
X330209D01*
Y353559D01*
X330150D01*
Y353677D01*
X330091D01*
Y353736D01*
X330032D01*
Y353854D01*
X329973D01*
Y353972D01*
X329914D01*
Y354090D01*
X329855D01*
Y354149D01*
X329796D01*
Y354267D01*
X329737D01*
Y354384D01*
X329678D01*
Y354443D01*
X329619D01*
Y354561D01*
X329560D01*
Y354679D01*
X329501D01*
Y354738D01*
X329442D01*
Y354856D01*
X329383D01*
Y354974D01*
X329324D01*
Y355092D01*
X329265D01*
Y355269D01*
X329206D01*
Y355622D01*
X329265D01*
Y355740D01*
X329324D01*
Y355799D01*
X329442D01*
Y355858D01*
X329560D01*
Y355917D01*
X329796D01*
Y355976D01*
X330385D01*
Y356035D01*
X335573D01*
Y355917D01*
D02*
G37*
G36*
X320246Y355976D02*
X320305D01*
Y355858D01*
X320364D01*
Y355740D01*
X320423D01*
Y355681D01*
X320482D01*
Y355563D01*
X320541D01*
Y355446D01*
X320600D01*
Y355386D01*
X320659D01*
Y355269D01*
X320718D01*
Y355151D01*
X320777D01*
Y355092D01*
X320836D01*
Y354974D01*
X320895D01*
Y354856D01*
X320953D01*
Y354797D01*
X321012D01*
Y354679D01*
X321071D01*
Y354561D01*
X321130D01*
Y354443D01*
X321189D01*
Y354384D01*
X321248D01*
Y354267D01*
X321307D01*
Y354149D01*
X321366D01*
Y354090D01*
X321425D01*
Y353972D01*
X321484D01*
Y353854D01*
X321543D01*
Y353795D01*
X321602D01*
Y353677D01*
X321661D01*
Y353559D01*
X321720D01*
Y353500D01*
X321779D01*
Y353441D01*
Y353382D01*
X321838D01*
Y353264D01*
X321897D01*
Y353146D01*
X321956D01*
Y353087D01*
X322015D01*
Y352970D01*
X322074D01*
Y352852D01*
X322132D01*
Y352793D01*
X322192D01*
Y352675D01*
X322250D01*
Y352557D01*
X322309D01*
Y352498D01*
X322368D01*
Y352380D01*
X322427D01*
Y352262D01*
X322486D01*
Y352144D01*
X322545D01*
Y352085D01*
X322604D01*
Y351968D01*
X322663D01*
Y351850D01*
X322722D01*
Y351791D01*
X322781D01*
Y351673D01*
X322840D01*
Y351555D01*
X322899D01*
Y351496D01*
X322958D01*
Y351378D01*
X323017D01*
Y351260D01*
X323076D01*
Y351201D01*
X323135D01*
Y351083D01*
X323194D01*
Y350965D01*
X323253D01*
Y350847D01*
X323311D01*
Y350788D01*
X323371D01*
Y350671D01*
X321248D01*
Y350729D01*
X321189D01*
Y350847D01*
X321130D01*
Y350965D01*
X321071D01*
Y351024D01*
X321012D01*
Y351142D01*
X320953D01*
Y351260D01*
X320895D01*
Y351319D01*
X320836D01*
Y351437D01*
X320777D01*
Y351555D01*
X320718D01*
Y351673D01*
X320659D01*
Y351732D01*
X320600D01*
Y351850D01*
X320541D01*
Y351968D01*
X320482D01*
Y352026D01*
X320423D01*
Y352144D01*
X320364D01*
Y352262D01*
X320305D01*
Y352321D01*
X320246D01*
Y352439D01*
X320187D01*
Y352557D01*
X320128D01*
Y352675D01*
X320069D01*
Y352734D01*
X320010D01*
Y352852D01*
X319951D01*
Y352970D01*
X319892D01*
Y353028D01*
X319833D01*
Y353146D01*
X319775D01*
Y353264D01*
X319716D01*
Y353323D01*
X319657D01*
Y353441D01*
X319598D01*
Y353559D01*
X319539D01*
Y353618D01*
X319480D01*
Y353736D01*
X319421D01*
Y353854D01*
X319362D01*
Y353972D01*
X319303D01*
Y354031D01*
X319244D01*
Y354149D01*
X319185D01*
Y354267D01*
X319126D01*
Y354325D01*
X319067D01*
Y354443D01*
X319008D01*
Y354561D01*
X318949D01*
Y354620D01*
X318890D01*
Y354738D01*
X318831D01*
Y354856D01*
X318772D01*
Y354915D01*
X318713D01*
Y355033D01*
X318654D01*
Y355151D01*
X318596D01*
Y355269D01*
X318537D01*
Y355328D01*
X318478D01*
Y355446D01*
X318419D01*
Y355563D01*
X318360D01*
Y355622D01*
X318301D01*
Y355740D01*
X318242D01*
Y355858D01*
X318183D01*
Y355917D01*
X318124D01*
Y356035D01*
X320246D01*
Y355976D01*
D02*
G37*
G36*
X317358D02*
X317417D01*
Y355917D01*
X317476D01*
Y355799D01*
X317534D01*
Y355681D01*
X317593D01*
Y355563D01*
X317652D01*
Y355504D01*
X317711D01*
Y355386D01*
X317770D01*
Y355269D01*
X317829D01*
Y355210D01*
X317888D01*
Y355092D01*
X317947D01*
Y354974D01*
X318006D01*
Y354915D01*
X318065D01*
Y354797D01*
X318124D01*
Y354679D01*
X314056D01*
Y354620D01*
X313938D01*
Y354325D01*
X313997D01*
Y354207D01*
X314056D01*
Y354149D01*
X314115D01*
Y354031D01*
X314174D01*
Y353913D01*
X314233D01*
Y353854D01*
X314292D01*
Y353736D01*
X314351D01*
Y353618D01*
X314410D01*
Y353500D01*
X314469D01*
Y353441D01*
X314528D01*
Y353323D01*
X314587D01*
Y353205D01*
X314646D01*
Y353146D01*
X314705D01*
Y353028D01*
X314764D01*
Y352911D01*
X314823D01*
Y352852D01*
X314882D01*
Y352734D01*
X314941D01*
Y352616D01*
X315000D01*
Y352557D01*
X315058D01*
Y352439D01*
X315118D01*
Y352321D01*
X315176D01*
Y352262D01*
X315235D01*
Y352203D01*
X315294D01*
Y352144D01*
X315412D01*
Y352085D01*
X315530D01*
Y352026D01*
X319716D01*
Y351968D01*
X319775D01*
Y351908D01*
X319833D01*
Y351791D01*
X319892D01*
Y351673D01*
X319951D01*
Y351614D01*
X320010D01*
Y351496D01*
X320069D01*
Y351378D01*
X320128D01*
Y351319D01*
X320187D01*
Y351201D01*
X320246D01*
Y351083D01*
X320305D01*
Y351024D01*
X320364D01*
Y350906D01*
X320423D01*
Y350788D01*
X320482D01*
Y350729D01*
X320541D01*
Y350671D01*
X315589D01*
Y350729D01*
X314941D01*
Y350788D01*
X314646D01*
Y350847D01*
X314469D01*
Y350906D01*
X314292D01*
Y350965D01*
X314174D01*
Y351024D01*
X314056D01*
Y351083D01*
X313938D01*
Y351142D01*
X313879D01*
Y351201D01*
X313821D01*
Y351260D01*
X313703D01*
Y351319D01*
X313644D01*
Y351378D01*
X313585D01*
Y351437D01*
X313526D01*
Y351555D01*
X313467D01*
Y351614D01*
X313408D01*
Y351673D01*
X313349D01*
Y351791D01*
X313290D01*
Y351850D01*
X313231D01*
Y351968D01*
X313172D01*
Y352085D01*
X313113D01*
Y352144D01*
X313054D01*
Y352262D01*
X312995D01*
Y352380D01*
X312936D01*
Y352439D01*
X312877D01*
Y352557D01*
X312818D01*
Y352675D01*
X312759D01*
Y352793D01*
X312701D01*
Y352852D01*
X312642D01*
Y352970D01*
X312583D01*
Y353087D01*
X312524D01*
Y353146D01*
X312465D01*
Y353264D01*
X312406D01*
Y353382D01*
X312347D01*
Y353441D01*
X312288D01*
Y353559D01*
X312229D01*
Y353677D01*
X312170D01*
Y353736D01*
X312111D01*
Y353854D01*
X312052D01*
Y353972D01*
X311993D01*
Y354090D01*
X311934D01*
Y354149D01*
X311875D01*
Y354267D01*
X311816D01*
Y354384D01*
X311757D01*
Y354443D01*
X311698D01*
Y354561D01*
X311639D01*
Y354679D01*
X311580D01*
Y354738D01*
X311522D01*
Y354856D01*
X311463D01*
Y354974D01*
X311404D01*
Y355092D01*
X311345D01*
Y355269D01*
X311286D01*
Y355622D01*
X311345D01*
Y355740D01*
X311404D01*
Y355799D01*
X311522D01*
Y355858D01*
X311639D01*
Y355917D01*
X311875D01*
Y355976D01*
X312465D01*
Y356035D01*
X317358D01*
Y355976D01*
D02*
G37*
G36*
X294662Y356742D02*
X294721D01*
Y356625D01*
X294780D01*
Y356565D01*
X294839D01*
Y356448D01*
X294898D01*
Y356330D01*
X294957D01*
Y356212D01*
X295016D01*
Y356153D01*
X295075D01*
Y356035D01*
X295133D01*
Y355917D01*
X295192D01*
Y355799D01*
X295251D01*
Y355740D01*
X295310D01*
Y355622D01*
X295369D01*
Y355504D01*
X295428D01*
Y355386D01*
X295487D01*
Y355328D01*
X295546D01*
Y355210D01*
X295605D01*
Y355092D01*
X295664D01*
Y354974D01*
X295723D01*
Y354856D01*
X295782D01*
Y354797D01*
X295841D01*
Y354679D01*
X295900D01*
Y354561D01*
X295959D01*
Y354443D01*
X296018D01*
Y354384D01*
X296077D01*
Y354267D01*
X296136D01*
Y354149D01*
X296195D01*
Y354031D01*
X296253D01*
Y353972D01*
X296312D01*
Y353854D01*
X296371D01*
Y353736D01*
X296430D01*
Y353618D01*
X296489D01*
Y353559D01*
X296548D01*
Y353441D01*
X296607D01*
Y353323D01*
X296666D01*
Y353205D01*
X296725D01*
Y353146D01*
X296784D01*
Y353028D01*
X296843D01*
Y352911D01*
X296902D01*
Y352793D01*
X296961D01*
Y352734D01*
X297020D01*
Y352616D01*
X297079D01*
Y352498D01*
X297138D01*
Y352380D01*
X297197D01*
Y352262D01*
X297256D01*
Y352203D01*
X297315D01*
Y352085D01*
X297374D01*
Y351968D01*
X297432D01*
Y351850D01*
X297492D01*
Y351791D01*
X297550D01*
Y351673D01*
X297609D01*
Y351555D01*
X297668D01*
Y351437D01*
X297727D01*
Y351378D01*
X297786D01*
Y351260D01*
X297845D01*
Y351142D01*
X297904D01*
Y351024D01*
X297963D01*
Y350965D01*
X298022D01*
Y350847D01*
X298081D01*
Y350729D01*
X298140D01*
Y350612D01*
X298199D01*
Y350553D01*
X298258D01*
Y350435D01*
X298317D01*
Y350317D01*
X298376D01*
Y350199D01*
X298435D01*
Y350081D01*
X298494D01*
Y350022D01*
X298553D01*
Y349904D01*
X298611D01*
Y349786D01*
X256993D01*
Y349845D01*
X256934D01*
Y349963D01*
X256875D01*
Y350022D01*
X256816D01*
Y350140D01*
X256757D01*
Y350258D01*
X256698D01*
Y350317D01*
X256639D01*
Y350435D01*
X256580D01*
Y350553D01*
X256521D01*
Y350671D01*
X256462D01*
Y350729D01*
X256403D01*
Y350847D01*
X256345D01*
Y350965D01*
X256286D01*
Y351083D01*
X256227D01*
Y351142D01*
X256168D01*
Y351260D01*
X256109D01*
Y351378D01*
X256050D01*
Y351437D01*
X255991D01*
Y351555D01*
X255932D01*
Y351673D01*
X255873D01*
Y351791D01*
X255814D01*
Y351850D01*
X255755D01*
Y351968D01*
X255696D01*
Y352085D01*
X255637D01*
Y352144D01*
X255578D01*
Y352262D01*
X255519D01*
Y352380D01*
X255460D01*
Y352498D01*
X255401D01*
Y352557D01*
X255342D01*
Y352675D01*
X255283D01*
Y352793D01*
X255224D01*
Y352911D01*
X255166D01*
Y352970D01*
X255106D01*
Y353087D01*
X255048D01*
Y353205D01*
X254989D01*
Y353264D01*
X254930D01*
Y353382D01*
X254871D01*
Y353500D01*
X254812D01*
Y353618D01*
X254753D01*
Y353677D01*
X254694D01*
Y353795D01*
X254635D01*
Y353913D01*
X254576D01*
Y353972D01*
X254517D01*
Y354090D01*
X254458D01*
Y354207D01*
X254399D01*
Y354325D01*
X254340D01*
Y354384D01*
X254281D01*
Y354502D01*
X254222D01*
Y354620D01*
X254163D01*
Y354679D01*
X254104D01*
Y354797D01*
X254045D01*
Y354915D01*
X253987D01*
Y355033D01*
X253927D01*
Y355092D01*
X253869D01*
Y355210D01*
X253810D01*
Y355328D01*
X253751D01*
Y355446D01*
X253692D01*
Y355504D01*
X253633D01*
Y355622D01*
X253574D01*
Y355740D01*
X253515D01*
Y355799D01*
X253456D01*
Y355917D01*
X253397D01*
Y356035D01*
X253338D01*
Y356153D01*
X253279D01*
Y356212D01*
X253220D01*
Y356330D01*
X253161D01*
Y356448D01*
X253102D01*
Y356507D01*
X253043D01*
Y356625D01*
X252984D01*
Y356742D01*
X252925D01*
Y356860D01*
X294662D01*
Y356742D01*
D02*
G37*
%LPC*%
G36*
X301618Y360220D02*
X301205D01*
Y359867D01*
X300085D01*
Y359926D01*
X300026D01*
Y359985D01*
X299967D01*
Y360044D01*
X299908D01*
Y360103D01*
X299850D01*
Y360161D01*
X299791D01*
Y360220D01*
X299319D01*
Y360161D01*
X299378D01*
Y360103D01*
X299437D01*
Y360044D01*
X299496D01*
Y359985D01*
X299555D01*
Y359926D01*
X299614D01*
Y359867D01*
X299673D01*
Y359808D01*
X299732D01*
Y359749D01*
X299791D01*
Y359690D01*
X299850D01*
Y359631D01*
X299908D01*
Y359572D01*
X299967D01*
Y359513D01*
X300026D01*
Y359454D01*
X300144D01*
Y359395D01*
X300203D01*
Y359336D01*
X300262D01*
Y359277D01*
X300321D01*
Y359218D01*
X300380D01*
Y359159D01*
X300439D01*
Y359100D01*
X300498D01*
Y359041D01*
X300557D01*
Y358982D01*
X300616D01*
Y358924D01*
X300675D01*
Y358865D01*
X300734D01*
Y358806D01*
X300793D01*
Y358747D01*
X300911D01*
Y358688D01*
X300970D01*
Y358629D01*
X301028D01*
Y358570D01*
X301087D01*
Y358511D01*
X301146D01*
Y358452D01*
X301205D01*
Y358393D01*
X301264D01*
Y358334D01*
X301795D01*
Y358865D01*
X301736D01*
Y359513D01*
X301677D01*
Y360161D01*
X301618D01*
Y360220D01*
D02*
G37*
G36*
X304271D02*
X303799D01*
Y360044D01*
X303740D01*
Y359926D01*
X303681D01*
Y359808D01*
X303622D01*
Y359631D01*
X303563D01*
Y359513D01*
X303504D01*
Y359336D01*
X303445D01*
Y359218D01*
X303386D01*
Y359100D01*
X303327D01*
Y358924D01*
X303269D01*
Y358982D01*
X303210D01*
Y359100D01*
X303151D01*
Y359218D01*
X303092D01*
Y359277D01*
X303033D01*
Y359395D01*
X302974D01*
Y359513D01*
X302915D01*
Y359572D01*
X302856D01*
Y359690D01*
X302797D01*
Y359808D01*
X302738D01*
Y359867D01*
X302679D01*
Y359985D01*
X302620D01*
Y360103D01*
X302561D01*
Y360220D01*
X302149D01*
Y360044D01*
X302207D01*
Y359985D01*
X302266D01*
Y359867D01*
X302325D01*
Y359749D01*
X302384D01*
Y359690D01*
X302443D01*
Y359572D01*
X302502D01*
Y359454D01*
X302561D01*
Y359395D01*
X302620D01*
Y359277D01*
X302679D01*
Y359159D01*
X302738D01*
Y359041D01*
X302797D01*
Y358982D01*
X302856D01*
Y358865D01*
X302915D01*
Y358747D01*
X302974D01*
Y358688D01*
X303033D01*
Y358570D01*
X303092D01*
Y358452D01*
X303151D01*
Y358393D01*
X303210D01*
Y358334D01*
X303622D01*
Y358393D01*
X303681D01*
Y358570D01*
X303740D01*
Y358688D01*
X303799D01*
Y358865D01*
X303858D01*
Y359041D01*
X303917D01*
Y359159D01*
X303976D01*
Y359336D01*
X304035D01*
Y359513D01*
X304094D01*
Y359690D01*
X304153D01*
Y359572D01*
X304212D01*
Y359513D01*
X304271D01*
Y359395D01*
X304330D01*
Y359277D01*
X304389D01*
Y359218D01*
X304448D01*
Y359100D01*
X304506D01*
Y358982D01*
X304566D01*
Y358924D01*
X304624D01*
Y358806D01*
X304683D01*
Y358688D01*
X304742D01*
Y358570D01*
X304801D01*
Y358511D01*
X304860D01*
Y358393D01*
X304919D01*
Y358334D01*
X305332D01*
Y358452D01*
X305273D01*
Y358511D01*
X305214D01*
Y358629D01*
X305155D01*
Y358747D01*
X305096D01*
Y358806D01*
X305037D01*
Y358924D01*
X304978D01*
Y359041D01*
X304919D01*
Y359100D01*
X304860D01*
Y359218D01*
X304801D01*
Y359336D01*
X304742D01*
Y359454D01*
X304683D01*
Y359513D01*
X304624D01*
Y359631D01*
X304566D01*
Y359749D01*
X304506D01*
Y359808D01*
X304448D01*
Y359926D01*
X304389D01*
Y360044D01*
X304330D01*
Y360161D01*
X304271D01*
Y360220D01*
D02*
G37*
G36*
X329678D02*
X328086D01*
Y360161D01*
X327910D01*
Y360103D01*
X327851D01*
Y359926D01*
X327910D01*
Y359808D01*
X327969D01*
Y359690D01*
X328028D01*
Y359572D01*
X328086D01*
Y359513D01*
X328145D01*
Y359395D01*
X328204D01*
Y359277D01*
X328263D01*
Y359218D01*
X328322D01*
Y359100D01*
X328381D01*
Y358982D01*
X328440D01*
Y358865D01*
X328499D01*
Y358806D01*
X328558D01*
Y358688D01*
X328617D01*
Y358629D01*
X328676D01*
Y358570D01*
X328735D01*
Y358511D01*
X328794D01*
Y358452D01*
X328912D01*
Y358393D01*
X329206D01*
Y358334D01*
X330680D01*
Y358393D01*
X330857D01*
Y358452D01*
X330916D01*
Y358688D01*
X330857D01*
Y358806D01*
X330798D01*
Y358924D01*
X330739D01*
Y359041D01*
X330680D01*
Y359100D01*
X330621D01*
Y359218D01*
X330562D01*
Y359336D01*
X330503D01*
Y359395D01*
X330444D01*
Y359513D01*
X330385D01*
Y359631D01*
X330327D01*
Y359749D01*
X330268D01*
Y359808D01*
X330209D01*
Y359926D01*
X330150D01*
Y359985D01*
X330091D01*
Y360044D01*
X330032D01*
Y360103D01*
X329914D01*
Y360161D01*
X329678D01*
Y360220D01*
D02*
G37*
G36*
X325493D02*
X325080D01*
Y360103D01*
X325139D01*
Y359985D01*
X325198D01*
Y359867D01*
X325257D01*
Y359749D01*
X325316D01*
Y359690D01*
X325375D01*
Y359572D01*
X325434D01*
Y359454D01*
X325493D01*
Y359395D01*
X325552D01*
Y359277D01*
X325611D01*
Y359159D01*
X325670D01*
Y359100D01*
X325729D01*
Y358982D01*
X325787D01*
Y358865D01*
X325846D01*
Y358747D01*
X325905D01*
Y358688D01*
X325964D01*
Y358570D01*
X326023D01*
Y358452D01*
X326082D01*
Y358393D01*
X326141D01*
Y358334D01*
X327851D01*
Y358393D01*
X328086D01*
Y358452D01*
X328145D01*
Y358629D01*
X328086D01*
Y358747D01*
X328028D01*
Y358865D01*
X327969D01*
Y358982D01*
X327910D01*
Y359100D01*
X327851D01*
Y359159D01*
X327792D01*
Y359277D01*
X327733D01*
Y359336D01*
X327674D01*
Y359395D01*
X327615D01*
Y359454D01*
X327497D01*
Y359513D01*
X327261D01*
Y359572D01*
X325846D01*
Y359631D01*
X325787D01*
Y359749D01*
X325729D01*
Y359808D01*
X325670D01*
Y359926D01*
X325611D01*
Y360044D01*
X325552D01*
Y360161D01*
X325493D01*
Y360220D01*
D02*
G37*
G36*
X324255D02*
X322368D01*
Y360161D01*
X322427D01*
Y360044D01*
X322486D01*
Y359926D01*
X324196D01*
Y359867D01*
X324314D01*
Y359808D01*
X324373D01*
Y359690D01*
X324432D01*
Y359572D01*
X324490D01*
Y359454D01*
X324373D01*
Y359395D01*
X323017D01*
Y359336D01*
X322958D01*
Y359100D01*
X323017D01*
Y358982D01*
X323076D01*
Y358924D01*
X323135D01*
Y358806D01*
X323194D01*
Y358688D01*
X323253D01*
Y358629D01*
X323311D01*
Y358570D01*
X323371D01*
Y358511D01*
X323429D01*
Y358452D01*
X323547D01*
Y358393D01*
X323783D01*
Y358334D01*
X325434D01*
Y358511D01*
X325375D01*
Y358629D01*
X323783D01*
Y358688D01*
X323665D01*
Y358747D01*
X323606D01*
Y358806D01*
X323547D01*
Y358924D01*
X323488D01*
Y359041D01*
X323429D01*
Y359100D01*
X323488D01*
Y359159D01*
X324903D01*
Y359218D01*
X324962D01*
Y359513D01*
X324903D01*
Y359631D01*
X324844D01*
Y359690D01*
X324785D01*
Y359808D01*
X324726D01*
Y359926D01*
X324667D01*
Y359985D01*
X324608D01*
Y360044D01*
X324550D01*
Y360103D01*
X324432D01*
Y360161D01*
X324255D01*
Y360220D01*
D02*
G37*
G36*
X321838D02*
X321425D01*
Y360044D01*
X321484D01*
Y359985D01*
X321543D01*
Y359926D01*
Y359867D01*
X321602D01*
Y359749D01*
X321661D01*
Y359690D01*
X321720D01*
Y359572D01*
X321779D01*
Y359454D01*
X321838D01*
Y359336D01*
X321897D01*
Y359277D01*
X321956D01*
Y359159D01*
X322015D01*
Y359041D01*
X322074D01*
Y358982D01*
X322132D01*
Y358865D01*
X322192D01*
Y358747D01*
X322250D01*
Y358688D01*
X322309D01*
Y358570D01*
X322368D01*
Y358452D01*
X322427D01*
Y358334D01*
X322899D01*
Y358393D01*
X322840D01*
Y358511D01*
X322781D01*
Y358629D01*
X322722D01*
Y358688D01*
X322663D01*
Y358806D01*
X322604D01*
Y358924D01*
X322545D01*
Y359041D01*
X322486D01*
Y359100D01*
X322427D01*
Y359218D01*
X322368D01*
Y359336D01*
X322309D01*
Y359395D01*
X322250D01*
Y359513D01*
X322192D01*
Y359631D01*
X322132D01*
Y359690D01*
X322074D01*
Y359808D01*
X322015D01*
Y359926D01*
X321956D01*
Y360044D01*
X321897D01*
Y360103D01*
X321838D01*
Y360220D01*
D02*
G37*
G36*
X320482D02*
X318654D01*
Y360103D01*
X318713D01*
Y360044D01*
X318772D01*
Y359926D01*
X318831D01*
Y359808D01*
X318890D01*
Y359749D01*
X318949D01*
Y359631D01*
X319008D01*
Y359513D01*
X319067D01*
Y359454D01*
X319126D01*
Y359336D01*
X319185D01*
Y359218D01*
X319244D01*
Y359100D01*
X319303D01*
Y359041D01*
X319362D01*
Y358924D01*
X319421D01*
Y358806D01*
X319480D01*
Y358747D01*
X319539D01*
Y358629D01*
X319598D01*
Y358511D01*
X319657D01*
Y358452D01*
X319716D01*
Y358334D01*
X321484D01*
Y358393D01*
X321661D01*
Y358452D01*
X321720D01*
Y358688D01*
X321661D01*
Y358806D01*
X321602D01*
Y358924D01*
X321543D01*
Y359041D01*
X321484D01*
Y359100D01*
X321425D01*
Y359159D01*
X321366D01*
Y359218D01*
X321248D01*
Y359513D01*
X321189D01*
Y359631D01*
X321130D01*
Y359749D01*
X321071D01*
Y359867D01*
X321012D01*
Y359926D01*
X320953D01*
Y359985D01*
X320895D01*
Y360044D01*
X320836D01*
Y360103D01*
X320718D01*
Y360161D01*
X320482D01*
Y360220D01*
D02*
G37*
G36*
X317770D02*
X316120D01*
Y360161D01*
X316002D01*
Y360103D01*
X315943D01*
Y359926D01*
X316002D01*
Y359749D01*
X316061D01*
Y359690D01*
X316120D01*
Y359572D01*
X316179D01*
Y359454D01*
X316237D01*
Y359395D01*
X316297D01*
Y359277D01*
X316355D01*
Y359159D01*
X316414D01*
Y359100D01*
X316473D01*
Y358982D01*
X316532D01*
Y358865D01*
X316591D01*
Y358747D01*
X316650D01*
Y358688D01*
X316709D01*
Y358629D01*
X316768D01*
Y358570D01*
X316827D01*
Y358511D01*
X316886D01*
Y358452D01*
X317004D01*
Y358393D01*
X317299D01*
Y358334D01*
X318713D01*
Y358393D01*
X318949D01*
Y358452D01*
X319008D01*
Y358688D01*
X318949D01*
Y358806D01*
X318890D01*
Y358924D01*
X318831D01*
Y358982D01*
X318772D01*
Y359100D01*
X318713D01*
Y359218D01*
X318654D01*
Y359277D01*
X318596D01*
Y359395D01*
X318537D01*
Y359513D01*
X318478D01*
Y359631D01*
X318419D01*
Y359690D01*
X318360D01*
Y359808D01*
X318301D01*
Y359867D01*
X318242D01*
Y359985D01*
X318183D01*
Y360044D01*
X318065D01*
Y360103D01*
X318006D01*
Y360161D01*
X317770D01*
Y360220D01*
D02*
G37*
G36*
X313821D02*
X311934D01*
Y360161D01*
X311993D01*
Y360044D01*
X312052D01*
Y359926D01*
X313762D01*
Y359867D01*
X313879D01*
Y359808D01*
X313938D01*
Y359690D01*
X313997D01*
Y359631D01*
X314056D01*
Y359454D01*
X313997D01*
Y359395D01*
X312583D01*
Y359336D01*
X312524D01*
Y359100D01*
X312583D01*
Y358982D01*
X312642D01*
Y358924D01*
X312701D01*
Y358806D01*
X312759D01*
Y358688D01*
X312818D01*
Y358629D01*
X312877D01*
Y358570D01*
X312936D01*
Y358511D01*
X312995D01*
Y358452D01*
X313113D01*
Y358393D01*
X313349D01*
Y358334D01*
X315058D01*
Y358393D01*
X315000D01*
Y358511D01*
X314941D01*
Y358629D01*
X313349D01*
Y358688D01*
X313231D01*
Y358747D01*
X313172D01*
Y358806D01*
X313113D01*
Y358924D01*
X313054D01*
Y359041D01*
X312995D01*
Y359100D01*
X313113D01*
Y359159D01*
X314469D01*
Y359218D01*
X314528D01*
Y359513D01*
X314469D01*
Y359631D01*
X314410D01*
Y359749D01*
X314351D01*
Y359808D01*
X314292D01*
Y359926D01*
X314233D01*
Y359985D01*
X314174D01*
Y360044D01*
X314115D01*
Y360103D01*
X313997D01*
Y360161D01*
X313821D01*
Y360220D01*
D02*
G37*
G36*
X311404D02*
X310991D01*
Y360044D01*
X311050D01*
Y359985D01*
X311109D01*
Y359867D01*
X311168D01*
Y359808D01*
Y359749D01*
X311227D01*
Y359690D01*
X311286D01*
Y359572D01*
X311345D01*
Y359454D01*
X311404D01*
Y359395D01*
X311463D01*
Y359277D01*
X311522D01*
Y359159D01*
X311580D01*
Y359041D01*
X311639D01*
Y358982D01*
X311698D01*
Y358865D01*
X311757D01*
Y358747D01*
X311816D01*
Y358688D01*
X311875D01*
Y358570D01*
X311934D01*
Y358452D01*
X311993D01*
Y358393D01*
X312052D01*
Y358334D01*
X312465D01*
Y358393D01*
X312406D01*
Y358511D01*
X312347D01*
Y358629D01*
X312288D01*
Y358747D01*
X312229D01*
Y358806D01*
X312170D01*
Y358924D01*
X312111D01*
Y359041D01*
X312052D01*
Y359100D01*
X311993D01*
Y359218D01*
X311934D01*
Y359336D01*
X311875D01*
Y359395D01*
X311816D01*
Y359513D01*
X311757D01*
Y359631D01*
X311698D01*
Y359749D01*
X311639D01*
Y359808D01*
X311580D01*
Y359926D01*
X311522D01*
Y360044D01*
X311463D01*
Y360103D01*
X311404D01*
Y360220D01*
D02*
G37*
G36*
X310048D02*
X308456D01*
Y360161D01*
X308279D01*
Y359867D01*
X308338D01*
Y359749D01*
X308397D01*
Y359631D01*
X308456D01*
Y359513D01*
X308515D01*
Y359454D01*
X308574D01*
Y359336D01*
X308633D01*
Y359218D01*
X308692D01*
Y359159D01*
X308751D01*
Y359041D01*
X308810D01*
Y358924D01*
X308869D01*
Y358806D01*
X308928D01*
Y358747D01*
X308987D01*
Y358629D01*
X309046D01*
Y358511D01*
X309105D01*
Y358452D01*
X309163D01*
Y358334D01*
X309576D01*
Y358511D01*
X309517D01*
Y358570D01*
X309458D01*
Y358688D01*
X309399D01*
Y358806D01*
X309340D01*
Y358865D01*
X309281D01*
Y358982D01*
X309223D01*
Y359100D01*
X309163D01*
Y359218D01*
X309105D01*
Y359277D01*
X309046D01*
Y359395D01*
X308987D01*
Y359513D01*
X308928D01*
Y359572D01*
X308869D01*
Y359690D01*
X308810D01*
Y359808D01*
X308751D01*
Y359867D01*
X308810D01*
Y359926D01*
X309989D01*
Y359867D01*
X310107D01*
Y359808D01*
X310166D01*
Y359749D01*
X310225D01*
Y359690D01*
X310284D01*
Y359572D01*
X310343D01*
Y359454D01*
X310402D01*
Y359395D01*
X310460D01*
Y359277D01*
X310519D01*
Y359159D01*
X310578D01*
Y359100D01*
X310637D01*
Y358982D01*
X310696D01*
Y358865D01*
X310755D01*
Y358747D01*
X310814D01*
Y358688D01*
X310873D01*
Y358570D01*
X310932D01*
Y358452D01*
X310991D01*
Y358393D01*
X311050D01*
Y358334D01*
X311463D01*
Y358393D01*
Y358452D01*
X311404D01*
Y358511D01*
X311345D01*
Y358629D01*
X311286D01*
Y358747D01*
X311227D01*
Y358806D01*
X311168D01*
Y358924D01*
X311109D01*
Y359041D01*
X311050D01*
Y359100D01*
X310991D01*
Y359218D01*
X310932D01*
Y359336D01*
X310873D01*
Y359454D01*
X310814D01*
Y359513D01*
X310755D01*
Y359631D01*
X310696D01*
Y359749D01*
X310637D01*
Y359808D01*
X310578D01*
Y359926D01*
X310519D01*
Y359985D01*
X310460D01*
Y360044D01*
X310402D01*
Y360103D01*
X310284D01*
Y360161D01*
X310048D01*
Y360220D01*
D02*
G37*
G36*
X307690D02*
X306039D01*
Y360103D01*
X306098D01*
Y359985D01*
X306157D01*
Y359926D01*
X306216D01*
Y359808D01*
X306275D01*
Y359690D01*
X306334D01*
Y359572D01*
X306393D01*
Y359513D01*
X306452D01*
Y359395D01*
X306511D01*
Y359277D01*
X306570D01*
Y359218D01*
X306629D01*
Y359100D01*
X306688D01*
Y358982D01*
X306747D01*
Y358924D01*
X306805D01*
Y358806D01*
X306865D01*
Y358688D01*
X306924D01*
Y358570D01*
X306982D01*
Y358511D01*
X307041D01*
Y358393D01*
X307100D01*
Y358334D01*
X307513D01*
Y358452D01*
X307454D01*
Y358570D01*
X307395D01*
Y358629D01*
X307336D01*
Y358747D01*
X307277D01*
Y358865D01*
X307218D01*
Y358982D01*
X307159D01*
Y359041D01*
X307100D01*
Y359159D01*
X307041D01*
Y359277D01*
X306982D01*
Y359336D01*
X306924D01*
Y359454D01*
X306865D01*
Y359572D01*
X306805D01*
Y359631D01*
X306747D01*
Y359749D01*
X306688D01*
Y359867D01*
X306629D01*
Y359926D01*
X307808D01*
Y359985D01*
X307749D01*
Y360103D01*
X307690D01*
Y360220D01*
D02*
G37*
G36*
X298671D02*
X296784D01*
Y360103D01*
X296843D01*
Y359985D01*
X296902D01*
Y359926D01*
X298611D01*
Y359867D01*
X298729D01*
Y359749D01*
X298788D01*
Y359690D01*
X298847D01*
Y359572D01*
X298906D01*
Y359454D01*
X298788D01*
Y359395D01*
X297432D01*
Y359336D01*
X297374D01*
Y359100D01*
X297432D01*
Y358982D01*
X297492D01*
Y358865D01*
X297550D01*
Y358806D01*
X297609D01*
Y358688D01*
X297668D01*
Y358629D01*
X297727D01*
Y358511D01*
X297845D01*
Y358452D01*
X297904D01*
Y358393D01*
X298140D01*
Y358334D01*
X299850D01*
Y358511D01*
X299791D01*
Y358570D01*
X299732D01*
Y358629D01*
X298199D01*
Y358688D01*
X298081D01*
Y358747D01*
X298022D01*
Y358806D01*
X297963D01*
Y358865D01*
X297904D01*
Y358982D01*
X297845D01*
Y359100D01*
X297904D01*
Y359159D01*
X299319D01*
Y359218D01*
X299378D01*
Y359513D01*
X299319D01*
Y359572D01*
X299260D01*
Y359690D01*
X299201D01*
Y359808D01*
X299142D01*
Y359867D01*
X299083D01*
Y359985D01*
X299024D01*
Y360044D01*
X298965D01*
Y360103D01*
X298847D01*
Y360161D01*
X298671D01*
Y360220D01*
D02*
G37*
%LPD*%
G36*
X301264Y359336D02*
X301323D01*
Y359159D01*
Y359100D01*
Y358865D01*
X301382D01*
Y358688D01*
X301323D01*
Y358747D01*
X301264D01*
Y358806D01*
X301205D01*
Y358865D01*
X301146D01*
Y358924D01*
X301087D01*
Y358982D01*
X301028D01*
Y359041D01*
X300970D01*
Y359100D01*
X300911D01*
Y359159D01*
X300852D01*
Y359218D01*
X300793D01*
Y359277D01*
X300734D01*
Y359336D01*
X300675D01*
Y359395D01*
X300616D01*
Y359454D01*
X300498D01*
Y359513D01*
X300439D01*
Y359572D01*
X301264D01*
Y359336D01*
D02*
G37*
G36*
X329619Y359867D02*
X329737D01*
Y359808D01*
X329796D01*
Y359749D01*
X329855D01*
Y359690D01*
X329914D01*
Y359572D01*
X329973D01*
Y359454D01*
X330032D01*
Y359395D01*
X330091D01*
Y359277D01*
X330150D01*
Y359159D01*
X330209D01*
Y359100D01*
X330268D01*
Y358982D01*
X330327D01*
Y358865D01*
X330385D01*
Y358688D01*
X330327D01*
Y358629D01*
X329206D01*
Y358688D01*
X329089D01*
Y358747D01*
X328971D01*
Y358865D01*
X328912D01*
Y358924D01*
X328853D01*
Y359041D01*
X328794D01*
Y359159D01*
X328735D01*
Y359218D01*
X328676D01*
Y359336D01*
X328617D01*
Y359454D01*
X328558D01*
Y359572D01*
X328499D01*
Y359631D01*
X328440D01*
Y359749D01*
X328381D01*
Y359867D01*
X328440D01*
Y359926D01*
X329619D01*
Y359867D01*
D02*
G37*
G36*
X327202Y359218D02*
X327320D01*
Y359159D01*
X327379D01*
Y359100D01*
X327438D01*
Y359041D01*
X327497D01*
Y358924D01*
X327556D01*
Y358806D01*
X327615D01*
Y358688D01*
X327556D01*
Y358629D01*
X326377D01*
Y358747D01*
X326318D01*
Y358806D01*
X326259D01*
Y358924D01*
X326200D01*
Y359041D01*
X326141D01*
Y359159D01*
X326082D01*
Y359218D01*
X326023D01*
Y359277D01*
X327202D01*
Y359218D01*
D02*
G37*
G36*
X320482Y359867D02*
X320600D01*
Y359808D01*
X320659D01*
Y359690D01*
X320718D01*
Y359631D01*
X320777D01*
Y359395D01*
X319539D01*
Y359513D01*
X319480D01*
Y359572D01*
X319421D01*
Y359690D01*
X319362D01*
Y359808D01*
X319303D01*
Y359867D01*
X319244D01*
Y359926D01*
X320482D01*
Y359867D01*
D02*
G37*
G36*
X320895Y359100D02*
X321012D01*
Y359041D01*
X321071D01*
Y358982D01*
X321130D01*
Y358865D01*
X321189D01*
Y358747D01*
X321248D01*
Y358688D01*
X321130D01*
Y358629D01*
X320010D01*
Y358688D01*
X319951D01*
Y358806D01*
X319892D01*
Y358865D01*
X319833D01*
Y358982D01*
X319775D01*
Y359100D01*
X319716D01*
Y359159D01*
X320895D01*
Y359100D01*
D02*
G37*
G36*
X317711Y359867D02*
X317829D01*
Y359808D01*
X317888D01*
Y359749D01*
X317947D01*
Y359631D01*
X318006D01*
Y359572D01*
X318065D01*
Y359454D01*
X318124D01*
Y359336D01*
X318183D01*
Y359277D01*
X318242D01*
Y359159D01*
X318301D01*
Y359041D01*
X318360D01*
Y358982D01*
X318419D01*
Y358865D01*
X318478D01*
Y358806D01*
Y358747D01*
Y358688D01*
X318419D01*
Y358629D01*
X317299D01*
Y358688D01*
X317181D01*
Y358747D01*
X317063D01*
Y358806D01*
X317004D01*
Y358924D01*
X316945D01*
Y359041D01*
X316886D01*
Y359100D01*
X316827D01*
Y359218D01*
X316768D01*
Y359336D01*
X316709D01*
Y359454D01*
X316650D01*
Y359513D01*
X316591D01*
Y359631D01*
X316532D01*
Y359749D01*
X316473D01*
Y359867D01*
X316532D01*
Y359926D01*
X317711D01*
Y359867D01*
D02*
G37*
%LPC*%
G36*
X305803Y354384D02*
X305745D01*
Y354267D01*
X305862D01*
Y354325D01*
X305803D01*
Y354384D01*
D02*
G37*
G36*
X308692Y353972D02*
X307454D01*
Y353913D01*
X307513D01*
Y353854D01*
X307572D01*
Y353795D01*
X307631D01*
Y353736D01*
X307690D01*
Y353677D01*
X307749D01*
Y353618D01*
X307808D01*
Y353559D01*
X307867D01*
Y353500D01*
X307926D01*
Y353441D01*
X307984D01*
Y353323D01*
X308044D01*
Y353264D01*
X308102D01*
Y353205D01*
X308161D01*
Y353146D01*
X308220D01*
Y353087D01*
X308279D01*
Y353028D01*
X308338D01*
Y352970D01*
X308397D01*
Y352911D01*
X308456D01*
Y352852D01*
X308515D01*
Y352793D01*
X308574D01*
Y352734D01*
X308633D01*
Y352675D01*
X308692D01*
Y352616D01*
X308751D01*
Y352557D01*
X308810D01*
Y352498D01*
X308869D01*
Y352439D01*
X308928D01*
Y352321D01*
X308987D01*
Y352262D01*
X309105D01*
Y352380D01*
X309046D01*
Y352675D01*
X308987D01*
Y352911D01*
X308928D01*
Y353146D01*
X308869D01*
Y353382D01*
X308810D01*
Y353677D01*
X308751D01*
Y353913D01*
X308692D01*
Y353972D01*
D02*
G37*
G36*
X302325Y352970D02*
X299908D01*
Y352852D01*
X299967D01*
Y352793D01*
X300026D01*
Y352675D01*
X300085D01*
Y352557D01*
X300144D01*
Y352498D01*
X300203D01*
Y352380D01*
X300262D01*
Y352262D01*
X300321D01*
Y352203D01*
Y352144D01*
X300380D01*
Y352085D01*
X300439D01*
Y352026D01*
X302797D01*
Y352085D01*
X302856D01*
Y352262D01*
X302797D01*
Y352380D01*
X302738D01*
Y352498D01*
X302679D01*
Y352616D01*
X302620D01*
Y352675D01*
X302561D01*
Y352793D01*
X302502D01*
Y352852D01*
X302443D01*
Y352911D01*
X302325D01*
Y352970D01*
D02*
G37*
G36*
X266189Y355446D02*
X264362D01*
Y355328D01*
X264421D01*
Y355092D01*
X264480D01*
Y354856D01*
X264539D01*
Y354797D01*
X262888D01*
Y354856D01*
X262829D01*
Y354915D01*
X262770D01*
Y354974D01*
X262711D01*
Y355033D01*
X262652D01*
Y355092D01*
X262593D01*
Y355151D01*
X262534D01*
Y355210D01*
X262475D01*
Y355269D01*
X262416D01*
Y355328D01*
X262357D01*
Y355446D01*
X260471D01*
Y355328D01*
X260530D01*
Y355269D01*
X260589D01*
Y355210D01*
X260648D01*
Y355151D01*
X260707D01*
Y355092D01*
X260766D01*
Y355033D01*
X260825D01*
Y354974D01*
X260884D01*
Y354915D01*
X260943D01*
Y354856D01*
X261001D01*
Y354797D01*
X261061D01*
Y354738D01*
X261119D01*
Y354679D01*
X261178D01*
Y354620D01*
X261296D01*
Y354561D01*
X261355D01*
Y354502D01*
X261414D01*
Y354443D01*
X261473D01*
Y354384D01*
X261532D01*
Y354325D01*
X261591D01*
Y354267D01*
X261650D01*
Y354207D01*
X261709D01*
Y354149D01*
X261768D01*
Y354090D01*
X261827D01*
Y354031D01*
X261886D01*
Y353972D01*
X261945D01*
Y353913D01*
X262004D01*
Y353854D01*
X262063D01*
Y353795D01*
X262122D01*
Y353736D01*
X262180D01*
Y353677D01*
X262239D01*
Y353618D01*
X262298D01*
Y353559D01*
X262357D01*
Y353500D01*
X262416D01*
Y353441D01*
X262475D01*
Y353382D01*
X262534D01*
Y353323D01*
X262593D01*
Y353264D01*
X262652D01*
Y353205D01*
X262711D01*
Y353146D01*
X262770D01*
Y353087D01*
X262829D01*
Y353028D01*
X262888D01*
Y352970D01*
X262947D01*
Y352911D01*
X263006D01*
Y352852D01*
X263065D01*
Y352793D01*
X263124D01*
Y352734D01*
X263183D01*
Y352675D01*
X263242D01*
Y352616D01*
X263301D01*
Y352557D01*
X263359D01*
Y352498D01*
X263418D01*
Y352439D01*
X263477D01*
Y352380D01*
X263536D01*
Y352321D01*
X263595D01*
Y352262D01*
X263654D01*
Y352203D01*
X263772D01*
Y352144D01*
X263831D01*
Y352085D01*
X263890D01*
Y352026D01*
X263949D01*
Y351968D01*
X264008D01*
Y351908D01*
X264067D01*
Y351850D01*
X264126D01*
Y351791D01*
X264185D01*
Y351732D01*
X264244D01*
Y351673D01*
X264303D01*
Y351614D01*
X264362D01*
Y351555D01*
X264421D01*
Y351496D01*
X264480D01*
Y351437D01*
X264539D01*
Y351378D01*
X264597D01*
Y351319D01*
X264656D01*
Y351260D01*
X266838D01*
Y351496D01*
X266779D01*
Y351908D01*
X266720D01*
Y352262D01*
X266661D01*
Y352616D01*
Y352675D01*
X266602D01*
Y353028D01*
X266543D01*
Y353382D01*
X266484D01*
Y353795D01*
X266425D01*
Y354149D01*
X266366D01*
Y354561D01*
X266307D01*
Y354915D01*
X266248D01*
Y355269D01*
X266189D01*
Y355446D01*
D02*
G37*
G36*
X294131D02*
X294013D01*
Y355386D01*
X293778D01*
Y355328D01*
X293719D01*
Y355269D01*
X293660D01*
Y355210D01*
X293601D01*
Y355151D01*
X293542D01*
Y355033D01*
X293483D01*
Y354620D01*
X293542D01*
Y354502D01*
X293601D01*
Y354443D01*
X293660D01*
Y354384D01*
X293719D01*
Y354325D01*
X293896D01*
Y354267D01*
X294249D01*
Y354325D01*
X294426D01*
Y354384D01*
X294485D01*
Y354443D01*
X294544D01*
Y354502D01*
X294603D01*
Y354679D01*
X294662D01*
Y354974D01*
Y355033D01*
X294603D01*
Y355151D01*
X294544D01*
Y355210D01*
X294485D01*
Y355269D01*
X294426D01*
Y355328D01*
X294367D01*
Y355386D01*
X294131D01*
Y355446D01*
D02*
G37*
G36*
X291773D02*
X290064D01*
Y355328D01*
X290123D01*
Y355210D01*
X290182D01*
Y355092D01*
X290241D01*
Y355033D01*
X290300D01*
Y354915D01*
X290358D01*
Y354797D01*
X290418D01*
Y354738D01*
X290476D01*
Y354620D01*
X290535D01*
Y354502D01*
X290594D01*
Y354384D01*
X290653D01*
Y354325D01*
X290712D01*
Y354207D01*
X290771D01*
Y354090D01*
X290830D01*
Y354031D01*
X290889D01*
Y353913D01*
X290948D01*
Y353795D01*
X291007D01*
Y353382D01*
X290948D01*
Y353087D01*
X290889D01*
Y352734D01*
X290830D01*
Y352439D01*
X290771D01*
Y352085D01*
X290712D01*
Y351791D01*
X290653D01*
Y351437D01*
X290594D01*
Y351260D01*
X292599D01*
Y352144D01*
X292658D01*
Y352439D01*
X292717D01*
Y352380D01*
X292776D01*
Y352321D01*
X292834D01*
Y352262D01*
X292952D01*
Y352203D01*
X293011D01*
Y352144D01*
X293070D01*
Y352085D01*
X293129D01*
Y352026D01*
X293247D01*
Y351968D01*
X293306D01*
Y351908D01*
X293365D01*
Y351850D01*
X293424D01*
Y351791D01*
X293542D01*
Y351732D01*
X293601D01*
Y351673D01*
X293660D01*
Y351614D01*
X293719D01*
Y351555D01*
X293837D01*
Y351496D01*
X293896D01*
Y351437D01*
X293954D01*
Y351378D01*
X294072D01*
Y351319D01*
X294131D01*
Y351260D01*
X296018D01*
Y351378D01*
X295900D01*
Y351437D01*
X295841D01*
Y351496D01*
X295782D01*
Y351555D01*
X295664D01*
Y351614D01*
X295605D01*
Y351673D01*
X295546D01*
Y351732D01*
X295428D01*
Y351791D01*
X295369D01*
Y351850D01*
X295310D01*
Y351908D01*
X295192D01*
Y351968D01*
X295133D01*
Y352026D01*
X295016D01*
Y352085D01*
X294957D01*
Y352144D01*
X294898D01*
Y352203D01*
X294780D01*
Y352262D01*
X294721D01*
Y352321D01*
X294662D01*
Y352380D01*
X294544D01*
Y352439D01*
X294485D01*
Y352498D01*
X294426D01*
Y352557D01*
X294308D01*
Y352616D01*
X294249D01*
Y352675D01*
X294131D01*
Y352734D01*
X294072D01*
Y352793D01*
X294013D01*
Y352852D01*
X293896D01*
Y352911D01*
X293837D01*
Y352970D01*
X293778D01*
Y353028D01*
X293660D01*
Y353087D01*
X293601D01*
Y353146D01*
X293542D01*
Y353205D01*
X293424D01*
Y353264D01*
X293365D01*
Y353323D01*
X293247D01*
Y353382D01*
X293188D01*
Y353441D01*
X293129D01*
Y353500D01*
X293011D01*
Y353559D01*
X292952D01*
Y353618D01*
X292893D01*
Y353677D01*
X292776D01*
Y353736D01*
X292717D01*
Y353854D01*
X292658D01*
Y353972D01*
X292599D01*
Y354031D01*
X292540D01*
Y354149D01*
X292481D01*
Y354267D01*
X292422D01*
Y354325D01*
X292363D01*
Y354443D01*
X292304D01*
Y354561D01*
X292245D01*
Y354620D01*
X292186D01*
Y354738D01*
X292127D01*
Y354856D01*
X292068D01*
Y354915D01*
X292009D01*
Y355033D01*
X291950D01*
Y355151D01*
X291891D01*
Y355269D01*
X291832D01*
Y355328D01*
X291773D01*
Y355446D01*
D02*
G37*
G36*
X289121D02*
X285112D01*
Y355328D01*
X285171D01*
Y355210D01*
X285230D01*
Y355092D01*
X285289D01*
Y355033D01*
X285348D01*
Y354915D01*
X285407D01*
Y354797D01*
X285466D01*
Y354738D01*
X285525D01*
Y354620D01*
X285584D01*
Y354502D01*
X285643D01*
Y354384D01*
X285701D01*
Y354325D01*
X285760D01*
Y354207D01*
X285819D01*
Y354090D01*
X285878D01*
Y354031D01*
X285937D01*
Y353913D01*
X285996D01*
Y353795D01*
X286055D01*
Y353736D01*
X286114D01*
Y353618D01*
X286173D01*
Y353500D01*
X286232D01*
Y353441D01*
X286291D01*
Y353323D01*
X286350D01*
Y353205D01*
X286409D01*
Y353087D01*
X286468D01*
Y353028D01*
X286527D01*
Y352911D01*
X286586D01*
Y352793D01*
X286645D01*
Y352734D01*
X286704D01*
Y352616D01*
X286763D01*
Y352498D01*
X286822D01*
Y352439D01*
X286880D01*
Y352321D01*
X286939D01*
Y352203D01*
X286998D01*
Y352085D01*
X287057D01*
Y352026D01*
X287116D01*
Y351908D01*
X287175D01*
Y351791D01*
X287234D01*
Y351732D01*
X287293D01*
Y351614D01*
X287352D01*
Y351496D01*
X287411D01*
Y351437D01*
X287470D01*
Y351319D01*
X287529D01*
Y351260D01*
X289239D01*
Y351378D01*
X289179D01*
Y351496D01*
X289121D01*
Y351555D01*
X289062D01*
Y351673D01*
X289003D01*
Y351791D01*
X288944D01*
Y351850D01*
X288885D01*
Y351968D01*
X288826D01*
Y352085D01*
X288767D01*
Y352144D01*
X288708D01*
Y352262D01*
X288649D01*
Y352380D01*
X288590D01*
Y352439D01*
X288531D01*
Y352557D01*
X288472D01*
Y352675D01*
X288413D01*
Y352734D01*
X288354D01*
Y352852D01*
X288295D01*
Y352970D01*
X288236D01*
Y353087D01*
X288177D01*
Y353146D01*
X288118D01*
Y353264D01*
X288059D01*
Y353382D01*
X288000D01*
Y353441D01*
X287942D01*
Y353559D01*
X287883D01*
Y353677D01*
X287824D01*
Y353736D01*
X287765D01*
Y353854D01*
X287706D01*
Y353972D01*
X287647D01*
Y354031D01*
X287588D01*
Y354149D01*
X287529D01*
Y354267D01*
X287470D01*
Y354325D01*
X289710D01*
Y354443D01*
X289651D01*
Y354502D01*
X289592D01*
Y354620D01*
X289533D01*
Y354738D01*
X289474D01*
Y354797D01*
X289415D01*
Y354915D01*
X289356D01*
Y355033D01*
X289297D01*
Y355151D01*
X289239D01*
Y355210D01*
X289179D01*
Y355328D01*
X289121D01*
Y355446D01*
D02*
G37*
G36*
X283167D02*
X280219D01*
Y355386D01*
X279630D01*
Y355328D01*
X279453D01*
Y355269D01*
X279335D01*
Y355210D01*
X279276D01*
Y354738D01*
X279335D01*
Y354561D01*
X279394D01*
Y354502D01*
X279453D01*
Y354384D01*
X279512D01*
Y354267D01*
X279571D01*
Y354149D01*
X279630D01*
Y354090D01*
X279689D01*
Y353972D01*
X279748D01*
Y353854D01*
X279806D01*
Y353795D01*
X279866D01*
Y353677D01*
X279924D01*
Y353559D01*
X279983D01*
Y353500D01*
X280042D01*
Y353382D01*
X280101D01*
Y353264D01*
X280160D01*
Y353146D01*
X280219D01*
Y353087D01*
X280278D01*
Y352970D01*
X280337D01*
Y352852D01*
X280396D01*
Y352793D01*
X280455D01*
Y352675D01*
X280514D01*
Y352557D01*
X280573D01*
Y352498D01*
X280632D01*
Y352380D01*
X280691D01*
Y352262D01*
X280750D01*
Y352203D01*
X280809D01*
Y352085D01*
X280868D01*
Y352026D01*
X280927D01*
Y351908D01*
X280985D01*
Y351850D01*
X281045D01*
Y351791D01*
X281103D01*
Y351732D01*
X281162D01*
Y351673D01*
X281221D01*
Y351614D01*
X281339D01*
Y351555D01*
X281457D01*
Y351496D01*
X281575D01*
Y351437D01*
X281693D01*
Y351378D01*
X281929D01*
Y351319D01*
X282400D01*
Y351260D01*
X285819D01*
Y351319D01*
X286232D01*
Y351378D01*
X286409D01*
Y351437D01*
X286468D01*
Y351496D01*
X286527D01*
Y351555D01*
X286586D01*
Y351850D01*
X286527D01*
Y352026D01*
X286468D01*
Y352144D01*
X286409D01*
Y352262D01*
X286350D01*
Y352380D01*
X286291D01*
Y352498D01*
X286232D01*
Y352557D01*
X286173D01*
Y352675D01*
X286114D01*
Y352793D01*
X286055D01*
Y352852D01*
X285996D01*
Y352970D01*
X285937D01*
Y353087D01*
X285878D01*
Y353146D01*
X285819D01*
Y353264D01*
X285760D01*
Y353382D01*
X285701D01*
Y353441D01*
X285643D01*
Y353559D01*
X285584D01*
Y353677D01*
X285525D01*
Y353795D01*
X285466D01*
Y353854D01*
X285407D01*
Y353972D01*
X285348D01*
Y354090D01*
X285289D01*
Y354149D01*
X285230D01*
Y354267D01*
X285171D01*
Y354384D01*
X285112D01*
Y354443D01*
X285053D01*
Y354561D01*
X284994D01*
Y354620D01*
X284935D01*
Y354738D01*
X284876D01*
Y354797D01*
X284817D01*
Y354856D01*
X284758D01*
Y354915D01*
X284699D01*
Y354974D01*
X284640D01*
Y355033D01*
X284581D01*
Y355092D01*
X284464D01*
Y355151D01*
X284405D01*
Y355210D01*
X284228D01*
Y355269D01*
X284051D01*
Y355328D01*
X283815D01*
Y355386D01*
X283167D01*
Y355446D01*
D02*
G37*
G36*
X274914D02*
X273204D01*
Y355269D01*
X273263D01*
Y355210D01*
X273322D01*
Y355092D01*
X273381D01*
Y354974D01*
X273440D01*
Y354856D01*
X273499D01*
Y354797D01*
X273558D01*
Y354679D01*
X273617D01*
Y354561D01*
X273676D01*
Y354502D01*
X273735D01*
Y354384D01*
X273794D01*
Y354267D01*
X273853D01*
Y354207D01*
X273911D01*
Y354090D01*
X273971D01*
Y353972D01*
X274029D01*
Y353913D01*
X274088D01*
Y353795D01*
X274147D01*
Y353677D01*
X274206D01*
Y353559D01*
X274265D01*
Y353500D01*
X274324D01*
Y353382D01*
X274383D01*
Y353264D01*
X274442D01*
Y353205D01*
X274501D01*
Y353087D01*
X274560D01*
Y352970D01*
X274619D01*
Y352911D01*
X274678D01*
Y352793D01*
X274737D01*
Y352675D01*
X274796D01*
Y352616D01*
X274855D01*
Y352498D01*
X274914D01*
Y352380D01*
X274973D01*
Y352262D01*
X275032D01*
Y352203D01*
X275091D01*
Y352085D01*
X275149D01*
Y351968D01*
X275208D01*
Y351908D01*
X275267D01*
Y351791D01*
X275326D01*
Y351673D01*
X275385D01*
Y351614D01*
X275444D01*
Y351496D01*
X275503D01*
Y351378D01*
X275562D01*
Y351319D01*
X275621D01*
Y351260D01*
X279748D01*
Y351319D01*
X280160D01*
Y351378D01*
X280337D01*
Y351437D01*
X280455D01*
Y351496D01*
X280514D01*
Y351968D01*
X280455D01*
Y352085D01*
X280396D01*
Y352203D01*
X280337D01*
Y352321D01*
X280278D01*
Y352439D01*
X280219D01*
Y352498D01*
X280160D01*
Y352616D01*
X280101D01*
Y352734D01*
X280042D01*
Y352793D01*
X279983D01*
Y352911D01*
X279924D01*
Y353028D01*
X279866D01*
Y353087D01*
X279806D01*
Y353205D01*
X279748D01*
Y353323D01*
X279689D01*
Y353382D01*
X279630D01*
Y353441D01*
X279571D01*
Y353500D01*
X279512D01*
Y353559D01*
X279453D01*
Y353618D01*
X279394D01*
Y353677D01*
X279335D01*
Y353736D01*
X279276D01*
Y353795D01*
X279158D01*
Y353854D01*
X279040D01*
Y353913D01*
X278863D01*
Y353972D01*
X278627D01*
Y354031D01*
X278215D01*
Y354090D01*
X275680D01*
Y354149D01*
X275621D01*
Y354207D01*
X275562D01*
Y354325D01*
X275503D01*
Y354443D01*
X275444D01*
Y354502D01*
X275385D01*
Y354620D01*
X275326D01*
Y354738D01*
X275267D01*
Y354797D01*
X275208D01*
Y354915D01*
X275149D01*
Y355033D01*
X275091D01*
Y355151D01*
X275032D01*
Y355210D01*
X274973D01*
Y355328D01*
X274914D01*
Y355446D01*
D02*
G37*
G36*
X270551D02*
X266543D01*
Y355328D01*
X266602D01*
Y355269D01*
X266661D01*
Y355151D01*
X266720D01*
Y355033D01*
X266779D01*
Y354915D01*
X266838D01*
Y354856D01*
X266897D01*
Y354738D01*
X266955D01*
Y354620D01*
X267014D01*
Y354561D01*
X267073D01*
Y354443D01*
X267132D01*
Y354325D01*
X267191D01*
Y354267D01*
X267250D01*
Y354149D01*
X267309D01*
Y354031D01*
X267368D01*
Y353972D01*
X267427D01*
Y353854D01*
X267486D01*
Y353736D01*
X267545D01*
Y353618D01*
X267604D01*
Y353559D01*
X267663D01*
Y353441D01*
X267722D01*
Y353323D01*
X267781D01*
Y353264D01*
X267840D01*
Y353146D01*
X267899D01*
Y353028D01*
X267958D01*
Y352970D01*
X268017D01*
Y352852D01*
X268075D01*
Y352734D01*
X268134D01*
Y352616D01*
X268193D01*
Y352557D01*
X268252D01*
Y352439D01*
X268311D01*
Y352321D01*
X268370D01*
Y352262D01*
X268429D01*
Y352144D01*
X268488D01*
Y352026D01*
X268547D01*
Y351968D01*
X268606D01*
Y351850D01*
X268665D01*
Y351732D01*
X268724D01*
Y351673D01*
X268783D01*
Y351555D01*
X268842D01*
Y351437D01*
X268901D01*
Y351319D01*
X268960D01*
Y351260D01*
X270669D01*
Y351378D01*
X270610D01*
Y351496D01*
X270551D01*
Y351614D01*
X270492D01*
Y351673D01*
X270433D01*
Y351791D01*
X270374D01*
Y351908D01*
X270316D01*
Y352026D01*
X270257D01*
Y352085D01*
X270198D01*
Y352203D01*
X270139D01*
Y352321D01*
X270080D01*
Y352380D01*
X270021D01*
Y352498D01*
X269962D01*
Y352616D01*
X269903D01*
Y352675D01*
X269844D01*
Y352793D01*
X269785D01*
Y352911D01*
X269726D01*
Y352970D01*
X269667D01*
Y353087D01*
X269608D01*
Y353205D01*
X269549D01*
Y353264D01*
X269490D01*
Y353382D01*
X269431D01*
Y353500D01*
X269372D01*
Y353618D01*
X269313D01*
Y353677D01*
X269254D01*
Y353795D01*
X269196D01*
Y353913D01*
X269137D01*
Y353972D01*
X269078D01*
Y354090D01*
X269019D01*
Y354207D01*
X268960D01*
Y354267D01*
X268901D01*
Y354325D01*
X271141D01*
Y354443D01*
X271082D01*
Y354561D01*
X271023D01*
Y354679D01*
X270964D01*
Y354738D01*
X270905D01*
Y354856D01*
X270846D01*
Y354974D01*
X270787D01*
Y355033D01*
X270728D01*
Y355151D01*
X270669D01*
Y355269D01*
X270610D01*
Y355386D01*
X270551D01*
Y355446D01*
D02*
G37*
G36*
X260176D02*
X256462D01*
Y355386D01*
X255873D01*
Y355328D01*
X255637D01*
Y355269D01*
X255578D01*
Y355210D01*
X255519D01*
Y355151D01*
X255460D01*
Y354738D01*
X255519D01*
Y354620D01*
X255578D01*
Y354502D01*
X255637D01*
Y354384D01*
X255696D01*
Y354267D01*
X255755D01*
Y354207D01*
X255814D01*
Y354090D01*
X255873D01*
Y353972D01*
X255932D01*
Y353854D01*
X255991D01*
Y353795D01*
X256050D01*
Y353677D01*
X256109D01*
Y353559D01*
X256168D01*
Y353500D01*
X256227D01*
Y353382D01*
X256286D01*
Y353264D01*
X256345D01*
Y353205D01*
X256403D01*
Y353087D01*
X256462D01*
Y352970D01*
X256521D01*
Y352911D01*
X256580D01*
Y352793D01*
X256639D01*
Y352675D01*
X256698D01*
Y352557D01*
X256757D01*
Y352498D01*
X256816D01*
Y352380D01*
X256875D01*
Y352262D01*
X256934D01*
Y352203D01*
X256993D01*
Y352085D01*
X257052D01*
Y352026D01*
X257111D01*
Y351908D01*
X257170D01*
Y351850D01*
X257229D01*
Y351791D01*
X257288D01*
Y351732D01*
X257347D01*
Y351673D01*
X257465D01*
Y351614D01*
X257523D01*
Y351555D01*
X257641D01*
Y351496D01*
X257759D01*
Y351437D01*
X257936D01*
Y351378D01*
X258172D01*
Y351319D01*
X258644D01*
Y351260D01*
X262593D01*
Y351378D01*
X262534D01*
Y351496D01*
X262475D01*
Y351614D01*
X262416D01*
Y351673D01*
X262357D01*
Y351791D01*
X262298D01*
Y351908D01*
X262239D01*
Y351968D01*
X262180D01*
Y352085D01*
X262122D01*
Y352203D01*
X262063D01*
Y352262D01*
X262004D01*
Y352321D01*
X258997D01*
Y352380D01*
X258702D01*
Y352439D01*
X258585D01*
Y352498D01*
X258526D01*
Y352557D01*
X258467D01*
Y352616D01*
X258408D01*
Y352734D01*
X258349D01*
Y352852D01*
X258290D01*
Y352970D01*
X258231D01*
Y353028D01*
X258172D01*
Y353146D01*
X258113D01*
Y353264D01*
X258054D01*
Y353323D01*
X257995D01*
Y353441D01*
X257936D01*
Y353559D01*
X257877D01*
Y353618D01*
X257818D01*
Y353736D01*
X257759D01*
Y353854D01*
X257700D01*
Y353913D01*
X257641D01*
Y354031D01*
X257582D01*
Y354149D01*
X257523D01*
Y354267D01*
X257582D01*
Y354325D01*
X260766D01*
Y354502D01*
X260707D01*
Y354561D01*
X260648D01*
Y354679D01*
X260589D01*
Y354797D01*
X260530D01*
Y354856D01*
X260471D01*
Y354974D01*
X260412D01*
Y355092D01*
X260353D01*
Y355210D01*
X260294D01*
Y355269D01*
X260235D01*
Y355386D01*
X260176D01*
Y355446D01*
D02*
G37*
%LPD*%
G36*
X264774Y353559D02*
X264833D01*
Y353264D01*
X264892D01*
Y353028D01*
X264951D01*
Y352793D01*
X265010D01*
Y352616D01*
X264951D01*
Y352675D01*
X264892D01*
Y352734D01*
X264833D01*
Y352793D01*
X264774D01*
Y352852D01*
X264715D01*
Y352911D01*
X264656D01*
Y352970D01*
X264597D01*
Y353028D01*
X264539D01*
Y353087D01*
X264480D01*
Y353146D01*
X264421D01*
Y353205D01*
X264362D01*
Y353264D01*
X264303D01*
Y353323D01*
X264244D01*
Y353441D01*
X264185D01*
Y353500D01*
X264126D01*
Y353559D01*
X264067D01*
Y353618D01*
X264008D01*
Y353677D01*
X263949D01*
Y353736D01*
X263890D01*
Y353795D01*
X264774D01*
Y353559D01*
D02*
G37*
G36*
X294249Y355210D02*
X294308D01*
Y355151D01*
X294190D01*
Y355092D01*
X294131D01*
Y354915D01*
X294013D01*
Y355151D01*
X293837D01*
Y355210D01*
X293954D01*
Y355269D01*
X294249D01*
Y355210D01*
D02*
G37*
G36*
X294131Y354679D02*
X294013D01*
Y354797D01*
X294131D01*
Y354679D01*
D02*
G37*
G36*
X293837Y354561D02*
X294308D01*
Y354620D01*
X294249D01*
Y354679D01*
X294308D01*
Y355033D01*
X294367D01*
Y355092D01*
X294426D01*
Y354974D01*
X294485D01*
Y354679D01*
X294426D01*
Y354561D01*
X294367D01*
Y354502D01*
X294308D01*
Y354443D01*
X294131D01*
Y354384D01*
X294013D01*
Y354443D01*
X293837D01*
Y354502D01*
X293778D01*
Y354561D01*
X293719D01*
Y354679D01*
X293660D01*
Y354974D01*
X293719D01*
Y355092D01*
X293778D01*
Y355151D01*
X293837D01*
Y354561D01*
D02*
G37*
G36*
X283344Y354267D02*
X283461D01*
Y354207D01*
X283520D01*
Y354149D01*
X283579D01*
Y354031D01*
X283638D01*
Y353972D01*
X283697D01*
Y353854D01*
X283756D01*
Y353736D01*
X283815D01*
Y353677D01*
X283874D01*
Y353559D01*
X283933D01*
Y353441D01*
X283992D01*
Y353382D01*
X284051D01*
Y353264D01*
X284110D01*
Y353146D01*
X284169D01*
Y353028D01*
X284228D01*
Y352970D01*
X284287D01*
Y352852D01*
X284346D01*
Y352734D01*
X284405D01*
Y352675D01*
X284464D01*
Y352557D01*
X284523D01*
Y352498D01*
Y352380D01*
X284228D01*
Y352321D01*
X282813D01*
Y352380D01*
X282459D01*
Y352439D01*
X282400D01*
Y352498D01*
X282341D01*
Y352557D01*
X282282D01*
Y352616D01*
X282224D01*
Y352734D01*
X282165D01*
Y352793D01*
X282106D01*
Y352911D01*
X282047D01*
Y353028D01*
X281988D01*
Y353087D01*
X281929D01*
Y353205D01*
X281870D01*
Y353323D01*
X281811D01*
Y353382D01*
X281752D01*
Y353500D01*
X281693D01*
Y353618D01*
X281634D01*
Y353736D01*
X281575D01*
Y353795D01*
X281516D01*
Y353913D01*
X281457D01*
Y354031D01*
X281398D01*
Y354090D01*
X281339D01*
Y354325D01*
X283344D01*
Y354267D01*
D02*
G37*
G36*
X277979Y353028D02*
X278097D01*
Y352970D01*
X278156D01*
Y352911D01*
X278215D01*
Y352852D01*
X278274D01*
Y352793D01*
X278333D01*
Y352675D01*
X278392D01*
Y352616D01*
X278451D01*
Y352380D01*
X278274D01*
Y352321D01*
X276682D01*
Y352439D01*
X276623D01*
Y352498D01*
X276564D01*
Y352616D01*
X276505D01*
Y352734D01*
X276446D01*
Y352852D01*
X276387D01*
Y352911D01*
X276328D01*
Y353028D01*
X276270D01*
Y353087D01*
X277979D01*
Y353028D01*
D02*
G37*
D14*
X251160Y369050D02*
Y365902D01*
X252734D01*
X253259Y366426D01*
Y367476D01*
X252734Y368001D01*
X251160D01*
X254833Y369050D02*
X255883D01*
X256408Y368526D01*
Y367476D01*
X255883Y366951D01*
X254833D01*
X254309Y367476D01*
Y368526D01*
X254833Y369050D01*
X257457Y366951D02*
Y368526D01*
X257982Y369050D01*
X258507Y368526D01*
X259032Y369050D01*
X259556Y368526D01*
Y366951D01*
X262180Y369050D02*
X261131D01*
X260606Y368526D01*
Y367476D01*
X261131Y366951D01*
X262180D01*
X262705Y367476D01*
Y368001D01*
X260606D01*
X263754Y366951D02*
Y369050D01*
Y368001D01*
X264279Y367476D01*
X264804Y366951D01*
X265329D01*
X270052Y369050D02*
Y365902D01*
X271626D01*
X272151Y366426D01*
Y367476D01*
X271626Y368001D01*
X270052D01*
X273200Y366951D02*
Y369050D01*
Y368001D01*
X273725Y367476D01*
X274250Y366951D01*
X274775D01*
X276873Y369050D02*
X277923D01*
X278448Y368526D01*
Y367476D01*
X277923Y366951D01*
X276873D01*
X276349Y367476D01*
Y368526D01*
X276873Y369050D01*
X280022Y366426D02*
Y366951D01*
X279497D01*
X280547D01*
X280022D01*
Y368526D01*
X280547Y369050D01*
X283696D02*
X282646D01*
X282121Y368526D01*
Y367476D01*
X282646Y366951D01*
X283696D01*
X284220Y367476D01*
Y368001D01*
X282121D01*
X287369Y366951D02*
X285794D01*
X285270Y367476D01*
Y368526D01*
X285794Y369050D01*
X287369D01*
X288943Y366426D02*
Y366951D01*
X288418D01*
X289468D01*
X288943D01*
Y368526D01*
X289468Y369050D01*
X291042D02*
X292092D01*
X291567D01*
Y366951D01*
X291042D01*
X294191Y369050D02*
X295240D01*
X295765Y368526D01*
Y367476D01*
X295240Y366951D01*
X294191D01*
X293666Y367476D01*
Y368526D01*
X294191Y369050D01*
X296815D02*
Y366951D01*
X298389D01*
X298914Y367476D01*
Y369050D01*
X303112Y365902D02*
Y369050D01*
X304686D01*
X305211Y368526D01*
Y368001D01*
X304686Y367476D01*
X303112D01*
X304686D01*
X305211Y366951D01*
Y366426D01*
X304686Y365902D01*
X303112D01*
X306785Y369050D02*
X307835D01*
X308360Y368526D01*
Y367476D01*
X307835Y366951D01*
X306785D01*
X306260Y367476D01*
Y368526D01*
X306785Y369050D01*
X309934Y366951D02*
X310983D01*
X311508Y367476D01*
Y369050D01*
X309934D01*
X309409Y368526D01*
X309934Y368001D01*
X311508D01*
X312558Y366951D02*
Y369050D01*
Y368001D01*
X313082Y367476D01*
X313607Y366951D01*
X314132D01*
X317805Y365902D02*
Y369050D01*
X316231D01*
X315706Y368526D01*
Y367476D01*
X316231Y366951D01*
X317805D01*
D15*
X250766Y374760D02*
Y375940D01*
X251357D01*
X251554Y375743D01*
Y374956D01*
X251357Y374760D01*
X250766D01*
X252537Y375940D02*
X252144D01*
X251947Y375743D01*
Y375350D01*
X252144Y375153D01*
X252537D01*
X252734Y375350D01*
Y375547D01*
X251947D01*
X253128Y375940D02*
X253718D01*
X253915Y375743D01*
X253718Y375547D01*
X253325D01*
X253128Y375350D01*
X253325Y375153D01*
X253915D01*
X254309Y375940D02*
X254702D01*
X254505D01*
Y375153D01*
X254309D01*
X255686Y376334D02*
X255883D01*
X256080Y376137D01*
Y375153D01*
X255489D01*
X255292Y375350D01*
Y375743D01*
X255489Y375940D01*
X256080D01*
X256473D02*
Y375153D01*
X257064D01*
X257260Y375350D01*
Y375940D01*
X258244D02*
X257851D01*
X257654Y375743D01*
Y375350D01*
X257851Y375153D01*
X258244D01*
X258441Y375350D01*
Y375547D01*
X257654D01*
X259622Y374760D02*
Y375940D01*
X259031D01*
X258835Y375743D01*
Y375350D01*
X259031Y375153D01*
X259622D01*
X261196Y374760D02*
Y375940D01*
X261786D01*
X261983Y375743D01*
Y375547D01*
Y375350D01*
X261786Y375153D01*
X261196D01*
X262377D02*
Y375743D01*
X262574Y375940D01*
X263164D01*
Y376137D01*
X262967Y376334D01*
X262770D01*
X263164Y375940D02*
Y375153D01*
X265525Y374956D02*
X265329Y374760D01*
X264935D01*
X264738Y374956D01*
Y375153D01*
X264935Y375350D01*
X265329D01*
X265525Y375547D01*
Y375743D01*
X265329Y375940D01*
X264935D01*
X264738Y375743D01*
X266116Y375940D02*
X266509D01*
X266706Y375743D01*
Y375350D01*
X266509Y375153D01*
X266116D01*
X265919Y375350D01*
Y375743D01*
X266116Y375940D01*
X267100D02*
Y375153D01*
X267296D01*
X267493Y375350D01*
Y375940D01*
Y375350D01*
X267690Y375153D01*
X267887Y375350D01*
Y375940D01*
X268871D02*
X268477D01*
X268280Y375743D01*
Y375350D01*
X268477Y375153D01*
X268871D01*
X269068Y375350D01*
Y375547D01*
X268280D01*
X269658Y375940D02*
X270051D01*
X270248Y375743D01*
Y375350D01*
X270051Y375153D01*
X269658D01*
X269461Y375350D01*
Y375743D01*
X269658Y375940D01*
X270642D02*
Y375153D01*
X271232D01*
X271429Y375350D01*
Y375940D01*
X272413D02*
X272019D01*
X271823Y375743D01*
Y375350D01*
X272019Y375153D01*
X272413D01*
X272610Y375350D01*
Y375547D01*
X271823D01*
X274971Y374760D02*
X274184D01*
Y375940D01*
X274971D01*
X274184Y375350D02*
X274577D01*
X275365Y375940D02*
X275758D01*
X275561D01*
Y374760D01*
X275365D01*
X276349Y375940D02*
X276939D01*
X277136Y375743D01*
X276939Y375547D01*
X276545D01*
X276349Y375350D01*
X276545Y375153D01*
X277136D01*
X278120Y375940D02*
X277726D01*
X277529Y375743D01*
Y375350D01*
X277726Y375153D01*
X278120D01*
X278316Y375350D01*
Y375547D01*
X277529D01*
X251422Y373381D02*
X250766Y372725D01*
Y372069D01*
X251422Y371413D01*
X252406Y373381D02*
X253062D01*
X252734D01*
Y371413D01*
X252406Y371741D01*
X254046Y373381D02*
X254702D01*
X254374D01*
Y371413D01*
X254046Y371741D01*
X255686Y373381D02*
X256998Y372069D01*
X258966Y373381D02*
X257654D01*
X258966Y372069D01*
Y371741D01*
X258638Y371413D01*
X257982D01*
X257654Y371741D01*
X259622D02*
X259950Y371413D01*
X260606D01*
X260934Y371741D01*
Y373053D01*
X260606Y373381D01*
X259950D01*
X259622Y373053D01*
Y371741D01*
X262901Y373381D02*
X261590D01*
X262901Y372069D01*
Y371741D01*
X262574Y371413D01*
X261918D01*
X261590Y371741D01*
X264869Y371413D02*
X263557D01*
Y372397D01*
X264213Y372069D01*
X264541D01*
X264869Y372397D01*
Y373053D01*
X264541Y373381D01*
X263885D01*
X263557Y373053D01*
X265525Y373381D02*
X266181Y372725D01*
Y372069D01*
X265525Y371413D01*
X250766Y377712D02*
Y378893D01*
X251554D01*
X252144Y378106D02*
X252537D01*
X252734Y378303D01*
Y378893D01*
X252144D01*
X251947Y378696D01*
X252144Y378499D01*
X252734D01*
X253128Y378106D02*
Y378696D01*
X253325Y378893D01*
X253915D01*
Y379090D01*
X253718Y379287D01*
X253521D01*
X253915Y378893D02*
Y378106D01*
X254505Y378893D02*
X254899D01*
X255096Y378696D01*
Y378303D01*
X254899Y378106D01*
X254505D01*
X254309Y378303D01*
Y378696D01*
X254505Y378893D01*
X255489Y378106D02*
Y378696D01*
X255686Y378893D01*
X256276D01*
Y378106D01*
X256867Y377909D02*
Y378106D01*
X256670D01*
X257064D01*
X256867D01*
Y378696D01*
X257064Y378893D01*
X258835Y377712D02*
Y378893D01*
X259425D01*
X259622Y378696D01*
Y378499D01*
Y378303D01*
X259425Y378106D01*
X258835D01*
X260015D02*
Y378696D01*
X260212Y378893D01*
X260802D01*
Y379090D01*
X260606Y379287D01*
X260409D01*
X260802Y378893D02*
Y378106D01*
X262377Y377712D02*
Y378893D01*
X262967D01*
X263164Y378696D01*
Y378499D01*
X262967Y378303D01*
X262377D01*
X262967D01*
X263164Y378106D01*
Y377909D01*
X262967Y377712D01*
X262377D01*
X263558Y378106D02*
Y378893D01*
Y378499D01*
X263754Y378303D01*
X263951Y378106D01*
X264148D01*
X264935D02*
X265329D01*
X265525Y378303D01*
Y378893D01*
X264935D01*
X264738Y378696D01*
X264935Y378499D01*
X265525D01*
X266706Y377712D02*
Y378893D01*
X266116D01*
X265919Y378696D01*
Y378303D01*
X266116Y378106D01*
X266706D01*
X267690Y378893D02*
X267296D01*
X267100Y378696D01*
Y378303D01*
X267296Y378106D01*
X267690D01*
X267887Y378303D01*
Y378499D01*
X267100D01*
X268280Y378893D02*
Y378106D01*
X268871D01*
X269068Y378303D01*
Y378893D01*
X271429Y377909D02*
X271232Y377712D01*
X270839D01*
X270642Y377909D01*
Y378696D01*
X270839Y378893D01*
X271232D01*
X271429Y378696D01*
M02*
