G04*
G04 #@! TF.GenerationSoftware,Altium Limited,Altium Designer,25.8.1 (18)*
G04*
G04 Layer_Color=65535*
%FSLAX25Y25*%
%MOIN*%
G70*
G04*
G04 #@! TF.SameCoordinates,B1D4E9D2-DA07-4CAB-BB94-732616643687*
G04*
G04*
G04 #@! TF.FilePolarity,Positive*
G04*
G01*
G75*
%ADD10C,0.00984*%
%ADD11C,0.00500*%
%ADD12C,0.00787*%
%ADD13C,0.00591*%
%ADD14C,0.01000*%
D10*
X264665Y370079D02*
X263927Y370505D01*
Y369653D01*
X264665Y370079D01*
D11*
X257087Y371201D02*
X259724D01*
Y353209D02*
Y371201D01*
X257087Y353209D02*
X259724D01*
X244213Y371201D02*
X246850D01*
X244213Y353209D02*
Y371201D01*
Y353209D02*
X246850D01*
X293276Y391263D02*
X292277D01*
X291777Y390763D01*
Y388764D01*
X292277Y388264D01*
X293276D01*
X293776Y388764D01*
Y390763D01*
X293276Y391263D01*
X294776Y390264D02*
Y388764D01*
X295276Y388264D01*
X296775D01*
Y390264D01*
X298275Y390763D02*
Y390264D01*
X297775D01*
X298775D01*
X298275D01*
Y388764D01*
X298775Y388264D01*
X246032Y377610D02*
Y378610D01*
Y378110D01*
X249031D01*
Y377610D01*
Y378610D01*
Y380110D02*
X247032D01*
Y381609D01*
X247532Y382109D01*
X249031D01*
X250031Y383108D02*
X247032D01*
Y384608D01*
X247532Y385108D01*
X248531D01*
X249031Y384608D01*
Y383108D01*
X247032Y386107D02*
X248531D01*
X249031Y386607D01*
Y388107D01*
X247032D01*
X246532Y389606D02*
X247032D01*
Y389107D01*
Y390106D01*
Y389606D01*
X248531D01*
X249031Y390106D01*
X272123Y356111D02*
X275122D01*
Y354611D01*
X274622Y354112D01*
X273622D01*
X273122Y354611D01*
Y356111D01*
Y355111D02*
X272123Y354112D01*
Y353112D02*
Y352112D01*
Y352612D01*
X275122D01*
X274622Y353112D01*
Y350613D02*
X275122Y350113D01*
Y349113D01*
X274622Y348613D01*
X274122D01*
X273622Y349113D01*
X273122Y348613D01*
X272622D01*
X272123Y349113D01*
Y350113D01*
X272622Y350613D01*
X273122D01*
X273622Y350113D01*
X274122Y350613D01*
X274622D01*
X273622Y350113D02*
Y349113D01*
X267905Y390233D02*
Y393232D01*
X269404D01*
X269904Y392732D01*
Y391732D01*
X269404Y391232D01*
X267905D01*
X268904D02*
X269904Y390233D01*
X270904D02*
X271903D01*
X271404D01*
Y393232D01*
X270904Y392732D01*
X273403Y393232D02*
X275402D01*
Y392732D01*
X273403Y390733D01*
Y390233D01*
X274107Y363174D02*
Y365173D01*
X273607Y365673D01*
X272607D01*
X272107Y365173D01*
Y363174D01*
X272607Y362674D01*
X273607D01*
X273107Y363673D02*
X274107Y362674D01*
X273607D02*
X274107Y363174D01*
X277105Y362674D02*
X275106D01*
X277105Y364673D01*
Y365173D01*
X276606Y365673D01*
X275606D01*
X275106Y365173D01*
X291989Y351893D02*
Y348894D01*
X293489D01*
X293988Y349394D01*
Y351393D01*
X293489Y351893D01*
X291989D01*
X296488Y348894D02*
Y351893D01*
X294988Y350394D01*
X296987D01*
X280572Y351893D02*
Y348894D01*
X282071D01*
X282571Y349394D01*
Y351393D01*
X282071Y351893D01*
X280572D01*
X283571Y351393D02*
X284071Y351893D01*
X285070D01*
X285570Y351393D01*
Y350893D01*
X285070Y350394D01*
X284570D01*
X285070D01*
X285570Y349894D01*
Y349394D01*
X285070Y348894D01*
X284071D01*
X283571Y349394D01*
X253406Y379452D02*
Y376453D01*
X254906D01*
X255406Y376953D01*
Y378952D01*
X254906Y379452D01*
X253406D01*
X258405Y376453D02*
X256405D01*
X258405Y378453D01*
Y378952D01*
X257905Y379452D01*
X256905D01*
X256405Y378952D01*
X307056Y354346D02*
X306556Y354846D01*
X305556D01*
X305056Y354346D01*
Y352347D01*
X305556Y351847D01*
X306556D01*
X307056Y352347D01*
X310055Y351847D02*
X308055D01*
X310055Y353846D01*
Y354346D01*
X309555Y354846D01*
X308555D01*
X308055Y354346D01*
X313054Y351847D02*
X311054D01*
X313054Y353846D01*
Y354346D01*
X312554Y354846D01*
X311554D01*
X311054Y354346D01*
D12*
X323721Y384941D02*
X327411D01*
X332283Y380069D01*
X305512D02*
X310384Y384941D01*
X314075D01*
X332283Y358169D02*
Y380069D01*
X323721Y358169D02*
X332283D01*
X305512D02*
X314075D01*
X305512D02*
Y380069D01*
X274803Y376772D02*
X277559D01*
Y372835D02*
Y376772D01*
X265748D02*
X268504D01*
X265748Y372835D02*
Y376772D01*
D13*
X265945Y387827D02*
Y388583D01*
X271654Y383071D02*
Y388583D01*
X277362Y387827D02*
Y388583D01*
X265945D02*
X277362D01*
Y383071D02*
Y383827D01*
X265945Y383071D02*
Y383827D01*
Y383071D02*
X277362D01*
X264961Y348622D02*
X265717D01*
X264961Y354331D02*
X270472D01*
X264961Y360039D02*
X265717D01*
X264961Y348622D02*
Y360039D01*
X269717D02*
X270472D01*
X269717Y348622D02*
X270472D01*
Y360039D01*
D14*
X291929Y372047D02*
X298622D01*
X280118D02*
X286811D01*
M02*
