G04*
G04 #@! TF.GenerationSoftware,Altium Limited,Altium Designer,25.8.1 (18)*
G04*
G04 Layer_Color=32768*
%FSLAX25Y25*%
%MOIN*%
G70*
G04*
G04 #@! TF.SameCoordinates,176DE027-2461-41C1-BE17-0132175279D7*
G04*
G04*
G04 #@! TF.FilePolarity,Positive*
G04*
G01*
G75*
%ADD15C,0.00394*%
%ADD28C,0.00197*%
%ADD29C,0.00300*%
D15*
X273721Y368110D02*
X277461D01*
X275590Y366240D02*
Y369980D01*
X286417Y359252D02*
X290354D01*
X288386Y357283D02*
Y361221D01*
X295276Y359252D02*
X299213D01*
X297244Y357283D02*
Y361221D01*
X275590Y355315D02*
Y359252D01*
X273622Y357283D02*
X277559D01*
X319882Y369094D02*
Y373031D01*
X317913Y371063D02*
X321850D01*
X258957Y353346D02*
X262697D01*
X260827Y351476D02*
Y355217D01*
D28*
X269685Y365158D02*
Y371063D01*
Y365158D02*
X281496D01*
X269685Y371063D02*
X281496D01*
Y365158D02*
Y371063D01*
X284449Y350197D02*
Y368307D01*
X292323Y350197D02*
Y368307D01*
X284449Y350197D02*
X292323D01*
X284449Y368307D02*
X292323D01*
X293307Y350197D02*
Y368307D01*
X301181Y350197D02*
Y368307D01*
X293307Y350197D02*
X301181D01*
X293307Y368307D02*
X301181D01*
X249134Y360079D02*
Y384016D01*
X266614D01*
Y360079D02*
Y384016D01*
X249134Y360079D02*
X266614D01*
X268012Y364173D02*
X283169D01*
X268012Y350394D02*
X283169D01*
X268012D02*
Y364173D01*
X283169Y350394D02*
Y364173D01*
X302559Y392323D02*
X337205D01*
X302559Y349803D02*
X337205D01*
Y392323D01*
X302559Y349803D02*
Y392323D01*
X254921Y350394D02*
Y356299D01*
Y350394D02*
X266732D01*
X254921Y356299D02*
X266732D01*
Y350394D02*
Y356299D01*
D29*
X284370Y381811D02*
Y391811D01*
Y381811D02*
X294370D01*
Y391811D01*
X289370D02*
X294370D01*
X284370D02*
X289370D01*
X272559Y381811D02*
Y391811D01*
Y381811D02*
X282559D01*
Y391811D01*
X277559D02*
X282559D01*
X272559D02*
X277559D01*
M02*
