G04*
G04 #@! TF.GenerationSoftware,Altium Limited,Altium Designer,25.8.1 (18)*
G04*
G04 Layer_Physical_Order=1*
G04 Layer_Color=255*
%FSLAX25Y25*%
%MOIN*%
G70*
G04*
G04 #@! TF.SameCoordinates,09059175-875F-4311-9E3A-052BFA8C917B*
G04*
G04*
G04 #@! TF.FilePolarity,Positive*
G04*
G01*
G75*
%ADD10C,0.00984*%
%ADD12C,0.01000*%
G04:AMPARAMS|DCode=16|XSize=39.37mil|YSize=37.4mil|CornerRadius=4.68mil|HoleSize=0mil|Usage=FLASHONLY|Rotation=90.000|XOffset=0mil|YOffset=0mil|HoleType=Round|Shape=RoundedRectangle|*
%AMROUNDEDRECTD16*
21,1,0.03937,0.02805,0,0,90.0*
21,1,0.03002,0.03740,0,0,90.0*
1,1,0.00935,0.01403,0.01501*
1,1,0.00935,0.01403,-0.01501*
1,1,0.00935,-0.01403,-0.01501*
1,1,0.00935,-0.01403,0.01501*
%
%ADD16ROUNDEDRECTD16*%
G04:AMPARAMS|DCode=17|XSize=37.4mil|YSize=35.43mil|CornerRadius=2.66mil|HoleSize=0mil|Usage=FLASHONLY|Rotation=0.000|XOffset=0mil|YOffset=0mil|HoleType=Round|Shape=RoundedRectangle|*
%AMROUNDEDRECTD17*
21,1,0.03740,0.03012,0,0,0.0*
21,1,0.03209,0.03543,0,0,0.0*
1,1,0.00532,0.01604,-0.01506*
1,1,0.00532,-0.01604,-0.01506*
1,1,0.00532,-0.01604,0.01506*
1,1,0.00532,0.01604,0.01506*
%
%ADD17ROUNDEDRECTD17*%
G04:AMPARAMS|DCode=18|XSize=87.4mil|YSize=83.86mil|CornerRadius=6.29mil|HoleSize=0mil|Usage=FLASHONLY|Rotation=90.000|XOffset=0mil|YOffset=0mil|HoleType=Round|Shape=RoundedRectangle|*
%AMROUNDEDRECTD18*
21,1,0.08740,0.07128,0,0,90.0*
21,1,0.07482,0.08386,0,0,90.0*
1,1,0.01258,0.03564,0.03741*
1,1,0.01258,0.03564,-0.03741*
1,1,0.01258,-0.03564,-0.03741*
1,1,0.01258,-0.03564,0.03741*
%
%ADD18ROUNDEDRECTD18*%
%ADD19R,0.04724X0.03150*%
%ADD20R,0.07284X0.13976*%
%ADD27C,0.01968*%
%ADD28C,0.03937*%
%ADD29C,0.07874*%
%ADD30C,0.07087*%
G36*
X333468Y391348D02*
X335288Y390594D01*
X336926Y389500D01*
X338319Y388107D01*
X339413Y386469D01*
X340167Y384649D01*
X340551Y382717D01*
Y381732D01*
Y358425D01*
Y357440D01*
X340167Y355508D01*
X339413Y353688D01*
X338319Y352051D01*
X336926Y350658D01*
X335288Y349563D01*
X333468Y348810D01*
X331536Y348425D01*
X259015D01*
X257083Y348810D01*
X255263Y349563D01*
X253625Y350658D01*
X252233Y352051D01*
X251138Y353688D01*
X250384Y355508D01*
X250000Y357440D01*
Y358425D01*
Y381732D01*
Y382717D01*
X250384Y384649D01*
X251138Y386469D01*
X252233Y388107D01*
X253625Y389500D01*
X255263Y390594D01*
X257083Y391348D01*
X259015Y391732D01*
X331536D01*
X333468Y391348D01*
D02*
G37*
%LPC*%
G36*
X324524Y389386D02*
X315240D01*
Y386372D01*
X293664D01*
X293604Y386596D01*
X293006Y387632D01*
X292160Y388478D01*
X291124Y389076D01*
X289968Y389386D01*
X288772D01*
X287616Y389076D01*
X286580Y388478D01*
X285735Y387632D01*
X285136Y386596D01*
X284827Y385441D01*
Y384244D01*
X285136Y383089D01*
X285735Y382053D01*
X286580Y381207D01*
X287616Y380609D01*
X287841Y380549D01*
Y369477D01*
X286841Y369062D01*
X286711Y369192D01*
X286215Y369523D01*
X285630Y369640D01*
X281633D01*
X281525Y370184D01*
X281201Y370669D01*
X280715Y370994D01*
X280143Y371108D01*
X277338D01*
X276765Y370994D01*
X276280Y370669D01*
X276146Y370469D01*
X276016Y370429D01*
X275165D01*
X275035Y370469D01*
X274902Y370669D01*
X274416Y370994D01*
X273970Y371082D01*
Y379091D01*
X275604Y380725D01*
X275805Y380609D01*
X276961Y380299D01*
X278157D01*
X279313Y380609D01*
X280349Y381207D01*
X281195Y382053D01*
X281793Y383089D01*
X282102Y384244D01*
Y385441D01*
X281793Y386596D01*
X281195Y387632D01*
X280349Y388478D01*
X279313Y389076D01*
X278157Y389386D01*
X276961D01*
X275805Y389076D01*
X274769Y388478D01*
X273923Y387632D01*
X273325Y386596D01*
X273016Y385441D01*
Y384244D01*
X273325Y383089D01*
X273442Y382888D01*
X271359Y380806D01*
X271028Y380310D01*
X270912Y379724D01*
Y373207D01*
X269988Y372825D01*
X266311Y376502D01*
X265815Y376833D01*
X265229Y376950D01*
X263099D01*
Y382403D01*
X262972Y383038D01*
X262612Y383577D01*
X262074Y383937D01*
X261438Y384063D01*
X254310D01*
X253675Y383937D01*
X253136Y383577D01*
X252776Y383038D01*
X252649Y382403D01*
Y374920D01*
X252776Y374285D01*
X253136Y373746D01*
X253675Y373386D01*
X254310Y373259D01*
X261438D01*
X262074Y373386D01*
X262612Y373746D01*
X262709Y373891D01*
X264596D01*
X269542Y368945D01*
Y366609D01*
X269656Y366037D01*
X269980Y365551D01*
X270466Y365227D01*
X270912Y365138D01*
Y359858D01*
X267898D01*
Y355860D01*
X266870D01*
X266761Y356404D01*
X266437Y356890D01*
X265951Y357214D01*
X265379Y357328D01*
X262574D01*
X262001Y357214D01*
X261516Y356890D01*
X261382Y356690D01*
X261252Y356649D01*
X260402D01*
X260271Y356690D01*
X260138Y356890D01*
X259652Y357214D01*
X259080Y357328D01*
X258177D01*
Y354331D01*
Y351333D01*
X259080D01*
X259652Y351447D01*
X260138Y351772D01*
X260271Y351971D01*
X260402Y352012D01*
X261252D01*
X261382Y351971D01*
X261516Y351772D01*
X262001Y351447D01*
X262574Y351333D01*
X265379D01*
X265951Y351447D01*
X266437Y351772D01*
X266761Y352257D01*
X266801Y352457D01*
X267691Y352796D01*
X268276Y352679D01*
X276559D01*
Y350969D01*
X283283D01*
Y351522D01*
X285496D01*
X285589Y351051D01*
X285869Y350633D01*
X286288Y350353D01*
X286782Y350255D01*
X289990D01*
X290484Y350353D01*
X290903Y350633D01*
X291182Y351051D01*
X291281Y351545D01*
Y354557D01*
X291182Y355051D01*
X290903Y355470D01*
X290484Y355749D01*
X289990Y355848D01*
X286782D01*
X286288Y355749D01*
X285869Y355470D01*
X285589Y355051D01*
X285496Y354581D01*
X283283D01*
Y356118D01*
X276559D01*
Y355738D01*
X274622D01*
Y359858D01*
X273970D01*
Y365138D01*
X274416Y365227D01*
X274902Y365551D01*
X275035Y365751D01*
X275165Y365791D01*
X276016D01*
X276146Y365751D01*
X276280Y365551D01*
X276765Y365227D01*
X277211Y365138D01*
Y363598D01*
X276559D01*
Y358449D01*
X283283D01*
Y363598D01*
X280270D01*
Y365138D01*
X280715Y365227D01*
X281201Y365551D01*
X281525Y366037D01*
X281633Y366581D01*
X284997D01*
X285491Y366086D01*
Y363947D01*
X285589Y363453D01*
X285869Y363034D01*
X286288Y362755D01*
X286782Y362656D01*
X289990D01*
X290484Y362755D01*
X290903Y363034D01*
X291182Y363453D01*
X291276Y363923D01*
X294354D01*
X294447Y363453D01*
X294727Y363034D01*
X295146Y362755D01*
X295640Y362656D01*
X298848D01*
X299342Y362755D01*
X299761Y363034D01*
X300041Y363453D01*
X300139Y363947D01*
Y366959D01*
X300041Y367453D01*
X299761Y367871D01*
X299342Y368151D01*
X298848Y368249D01*
X295640D01*
X295146Y368151D01*
X294727Y367871D01*
X294447Y367453D01*
X294354Y366982D01*
X291276D01*
X291182Y367453D01*
X290903Y367871D01*
X290899Y367873D01*
Y380549D01*
X291124Y380609D01*
X292160Y381207D01*
X293006Y382053D01*
X293604Y383089D01*
X293664Y383313D01*
X315240D01*
Y373410D01*
X324524D01*
Y389386D01*
D02*
G37*
G36*
X261438Y370835D02*
X258374D01*
Y365933D01*
X263099D01*
Y369174D01*
X262972Y369810D01*
X262612Y370349D01*
X262074Y370709D01*
X261438Y370835D01*
D02*
G37*
G36*
X257374D02*
X254310D01*
X253675Y370709D01*
X253136Y370349D01*
X252776Y369810D01*
X252649Y369174D01*
Y365933D01*
X257374D01*
Y370835D01*
D02*
G37*
G36*
X324524Y368717D02*
X320382D01*
Y361228D01*
X324524D01*
Y368717D01*
D02*
G37*
G36*
X319382D02*
X315240D01*
Y361228D01*
X319382D01*
Y368717D01*
D02*
G37*
G36*
X263099Y364933D02*
X258374D01*
Y360031D01*
X261438D01*
X262074Y360157D01*
X262612Y360518D01*
X262972Y361056D01*
X263099Y361692D01*
Y364933D01*
D02*
G37*
G36*
X257374D02*
X252649D01*
Y361692D01*
X252776Y361056D01*
X253136Y360518D01*
X253675Y360157D01*
X254310Y360031D01*
X257374D01*
Y364933D01*
D02*
G37*
G36*
X257177Y357328D02*
X256275D01*
X255702Y357214D01*
X255217Y356890D01*
X254892Y356404D01*
X254778Y355832D01*
Y354831D01*
X257177D01*
Y357328D01*
D02*
G37*
G36*
X298848Y355848D02*
X297744D01*
Y353551D01*
X300139D01*
Y354557D01*
X300041Y355051D01*
X299761Y355470D01*
X299342Y355749D01*
X298848Y355848D01*
D02*
G37*
G36*
X296744D02*
X295640D01*
X295146Y355749D01*
X294727Y355470D01*
X294447Y355051D01*
X294349Y354557D01*
Y353551D01*
X296744D01*
Y355848D01*
D02*
G37*
G36*
X324524Y360228D02*
X320382D01*
Y352740D01*
X324524D01*
Y360228D01*
D02*
G37*
G36*
X319382D02*
X315240D01*
Y352740D01*
X319382D01*
Y360228D01*
D02*
G37*
G36*
X257177Y353831D02*
X254778D01*
Y352830D01*
X254892Y352257D01*
X255217Y351772D01*
X255702Y351447D01*
X256275Y351333D01*
X257177D01*
Y353831D01*
D02*
G37*
G36*
X300139Y352551D02*
X297744D01*
Y350255D01*
X298848D01*
X299342Y350353D01*
X299761Y350633D01*
X300041Y351051D01*
X300139Y351545D01*
Y352551D01*
D02*
G37*
G36*
X296744D02*
X294349D01*
Y351545D01*
X294447Y351051D01*
X294727Y350633D01*
X295146Y350353D01*
X295640Y350255D01*
X296744D01*
Y352551D01*
D02*
G37*
%LPD*%
D10*
X274606Y401575D02*
X312992D01*
D12*
X279256Y354209D02*
X279921Y353543D01*
X268276Y354209D02*
X279256D01*
X268154Y354331D02*
X268276Y354209D01*
X263976Y354331D02*
X268154D01*
X319882Y381398D02*
Y381701D01*
X316740Y384842D02*
X319882Y381701D01*
X289370Y384842D02*
X316740D01*
X288386Y365453D02*
X289370Y366437D01*
Y384842D01*
X272441Y368110D02*
Y379724D01*
X277559Y384842D01*
X272441Y358358D02*
Y368110D01*
X271366Y357283D02*
X272441Y358358D01*
X271260Y357283D02*
X271366D01*
X270276Y358268D02*
X271260Y357283D01*
X288386Y365453D02*
X297244D01*
X288287D02*
X288386D01*
X285630Y368110D02*
X288287Y365453D01*
X278740Y368110D02*
X285630D01*
X279815Y361024D02*
X279921D01*
X278740Y362098D02*
X279815Y361024D01*
X278740Y362098D02*
Y368110D01*
X279921Y353543D02*
X280413Y353051D01*
X288386D01*
X272441Y368110D02*
Y368209D01*
X265229Y375420D02*
X272441Y368209D01*
X261115Y375420D02*
X265229D01*
X257874Y378661D02*
X261115Y375420D01*
D16*
X278740Y368110D02*
D03*
X272441D02*
D03*
X263976Y354331D02*
D03*
X257677D02*
D03*
D17*
X288386Y353051D02*
D03*
Y365453D02*
D03*
X297244Y353051D02*
D03*
Y365453D02*
D03*
D18*
X257874Y365433D02*
D03*
Y378661D02*
D03*
D19*
X271260Y357283D02*
D03*
X279921Y361024D02*
D03*
Y353543D02*
D03*
D20*
X319882Y381398D02*
D03*
Y360728D02*
D03*
D27*
X274606Y418307D02*
X312992D01*
D28*
X274606Y435039D02*
X312992D01*
D29*
X274606Y451772D02*
X312992D01*
D30*
D03*
X274606D02*
D03*
X312992Y435039D02*
D03*
X274606D02*
D03*
X312992Y418307D02*
D03*
X274606D02*
D03*
X312992Y401575D02*
D03*
X274606D02*
D03*
X289370Y384842D02*
D03*
X277559D02*
D03*
M02*
