G04*
G04 #@! TF.GenerationSoftware,Altium Limited,Altium Designer,25.8.1 (18)*
G04*
G04 Layer_Physical_Order=2*
G04 Layer_Color=16711680*
%FSLAX25Y25*%
%MOIN*%
G70*
G04*
G04 #@! TF.SameCoordinates,176DE027-2461-41C1-BE17-0132175279D7*
G04*
G04*
G04 #@! TF.FilePolarity,Positive*
G04*
G01*
G75*
%ADD27C,0.07087*%
G36*
X333468Y391348D02*
X335288Y390594D01*
X336926Y389500D01*
X338319Y388107D01*
X339413Y386469D01*
X340167Y384649D01*
X340551Y382717D01*
Y381732D01*
Y358425D01*
Y357440D01*
X340167Y355508D01*
X339413Y353688D01*
X338319Y352051D01*
X336926Y350658D01*
X335288Y349563D01*
X333468Y348810D01*
X331536Y348425D01*
X259015D01*
X257083Y348810D01*
X255263Y349563D01*
X253625Y350658D01*
X252233Y352051D01*
X251138Y353688D01*
X250384Y355508D01*
X250000Y357440D01*
Y358425D01*
Y381732D01*
Y382717D01*
X250384Y384649D01*
X251138Y386469D01*
X252233Y388107D01*
X253625Y389500D01*
X255263Y390594D01*
X257083Y391348D01*
X259015Y391732D01*
X274996D01*
X275264Y390732D01*
X274769Y390447D01*
X273923Y389601D01*
X273325Y388565D01*
X273016Y387409D01*
Y386213D01*
X273325Y385057D01*
X273923Y384021D01*
X274769Y383175D01*
X275805Y382577D01*
X276961Y382268D01*
X278157D01*
X279313Y382577D01*
X280349Y383175D01*
X281195Y384021D01*
X281793Y385057D01*
X282102Y386213D01*
Y387409D01*
X281793Y388565D01*
X281195Y389601D01*
X280349Y390447D01*
X279854Y390732D01*
X280122Y391732D01*
X286807D01*
X287075Y390732D01*
X286580Y390447D01*
X285735Y389601D01*
X285136Y388565D01*
X284827Y387409D01*
Y386213D01*
X285136Y385057D01*
X285735Y384021D01*
X286580Y383175D01*
X287616Y382577D01*
X288772Y382268D01*
X289968D01*
X291124Y382577D01*
X292160Y383175D01*
X293006Y384021D01*
X293604Y385057D01*
X293913Y386213D01*
Y387409D01*
X293604Y388565D01*
X293006Y389601D01*
X292160Y390447D01*
X291665Y390732D01*
X291933Y391732D01*
X331536D01*
X333468Y391348D01*
D02*
G37*
D27*
X289370Y386811D02*
D03*
X277559D02*
D03*
M02*
