G04*
G04 #@! TF.GenerationSoftware,Altium Limited,Altium Designer,25.8.1 (18)*
G04*
G04 Layer_Color=65535*
%FSLAX25Y25*%
%MOIN*%
G70*
G04*
G04 #@! TF.SameCoordinates,7D9F33CA-476B-410A-A55E-DCFD45E977FB*
G04*
G04*
G04 #@! TF.FilePolarity,Positive*
G04*
G01*
G75*
%ADD10C,0.00984*%
%ADD11C,0.00787*%
%ADD12C,0.01000*%
%ADD13C,0.00591*%
%ADD14C,0.00500*%
D10*
X134924Y481299D02*
G03*
X134924Y481299I-492J0D01*
G01*
D11*
X171653Y464468D02*
Y486368D01*
Y464468D02*
X180217D01*
X189862D02*
X198425D01*
Y486368D01*
X176526Y491240D02*
X180217D01*
X171653Y486368D02*
X176526Y491240D01*
X193553D02*
X198425Y486368D01*
X189862Y491240D02*
X193553D01*
X136007Y484055D02*
Y487992D01*
X138763D01*
X147818Y484055D02*
Y487992D01*
X145062D02*
X147818D01*
D12*
X168307Y466904D02*
Y473597D01*
X149213Y476083D02*
X155905D01*
X180041Y522684D02*
X184040Y516686D01*
Y522684D02*
X180041Y516686D01*
X190038Y522684D02*
X188038Y521684D01*
X186039Y519685D01*
Y517686D01*
X187039Y516686D01*
X189038D01*
X190038Y517686D01*
Y518685D01*
X189038Y519685D01*
X186039D01*
X120986Y546306D02*
X124985Y540308D01*
Y546306D02*
X120986Y540308D01*
X126984Y541308D02*
X127984Y540308D01*
X129983D01*
X130983Y541308D01*
Y545306D01*
X129983Y546306D01*
X127984D01*
X126984Y545306D01*
Y544307D01*
X127984Y543307D01*
X130983D01*
X179510Y546306D02*
X183509Y540308D01*
Y546306D02*
X179510Y540308D01*
X185508D02*
X187508D01*
X186508D01*
Y546306D01*
X185508Y545306D01*
X190507D02*
X191506Y546306D01*
X193506D01*
X194505Y545306D01*
Y541308D01*
X193506Y540308D01*
X191506D01*
X190507Y541308D01*
Y545306D01*
X120986Y534495D02*
X124985Y528497D01*
Y534495D02*
X120986Y528497D01*
X126984Y534495D02*
X130983D01*
Y533495D01*
X126984Y529497D01*
Y528497D01*
X180041Y534495D02*
X184040Y528497D01*
Y534495D02*
X180041Y528497D01*
X186039Y533495D02*
X187039Y534495D01*
X189038D01*
X190038Y533495D01*
Y532496D01*
X189038Y531496D01*
X190038Y530496D01*
Y529497D01*
X189038Y528497D01*
X187039D01*
X186039Y529497D01*
Y530496D01*
X187039Y531496D01*
X186039Y532496D01*
Y533495D01*
X187039Y531496D02*
X189038D01*
X120986Y522684D02*
X124985Y516686D01*
Y522684D02*
X120986Y516686D01*
X130983Y522684D02*
X126984D01*
Y519685D01*
X128983Y520685D01*
X129983D01*
X130983Y519685D01*
Y517686D01*
X129983Y516686D01*
X127984D01*
X126984Y517686D01*
X180041Y510873D02*
X184040Y504875D01*
Y510873D02*
X180041Y504875D01*
X189038D02*
Y510873D01*
X186039Y507874D01*
X190038D01*
X120986Y510873D02*
X124985Y504875D01*
Y510873D02*
X120986Y504875D01*
X126984Y509873D02*
X127984Y510873D01*
X129983D01*
X130983Y509873D01*
Y508874D01*
X129983Y507874D01*
X128983D01*
X129983D01*
X130983Y506874D01*
Y505875D01*
X129983Y504875D01*
X127984D01*
X126984Y505875D01*
X160356Y497251D02*
X164355Y491253D01*
Y497251D02*
X160356Y491253D01*
X170353D02*
X166354D01*
X170353Y495252D01*
Y496251D01*
X169353Y497251D01*
X167354D01*
X166354Y496251D01*
X136203Y443851D02*
Y449849D01*
X139202D01*
X140202Y448850D01*
Y446850D01*
X139202Y445851D01*
X136203D01*
X138203D02*
X140202Y443851D01*
X142201D02*
X144201D01*
X143201D01*
Y449849D01*
X142201Y448850D01*
X147200Y449849D02*
X151198D01*
Y448850D01*
X147200Y444851D01*
Y443851D01*
X121985Y497251D02*
X125984Y491253D01*
Y497251D02*
X121985Y491253D01*
X127984D02*
X129983D01*
X128983D01*
Y497251D01*
X127984Y496251D01*
X144077Y459599D02*
Y465597D01*
X147076D01*
X148076Y464598D01*
Y462598D01*
X147076Y461599D01*
X144077D01*
X146077D02*
X148076Y459599D01*
X150075D02*
X152075D01*
X151075D01*
Y465597D01*
X150075Y464598D01*
X155074D02*
X156073Y465597D01*
X158073D01*
X159072Y464598D01*
Y463598D01*
X158073Y462598D01*
X159072Y461599D01*
Y460599D01*
X158073Y459599D01*
X156073D01*
X155074Y460599D01*
Y461599D01*
X156073Y462598D01*
X155074Y463598D01*
Y464598D01*
X156073Y462598D02*
X158073D01*
X140716Y492686D02*
Y496684D01*
X139716Y497684D01*
X137717D01*
X136717Y496684D01*
Y492686D01*
X137717Y491686D01*
X139716D01*
X138716Y493685D02*
X140716Y491686D01*
X139716D02*
X140716Y492686D01*
X146714Y491686D02*
X142715D01*
X146714Y495685D01*
Y496684D01*
X145714Y497684D01*
X143715D01*
X142715Y496684D01*
X157403Y479377D02*
Y473379D01*
X160402D01*
X161402Y474379D01*
Y478377D01*
X160402Y479377D01*
X157403D01*
X166400Y473379D02*
Y479377D01*
X163401Y476378D01*
X167400D01*
X168353Y465628D02*
X162355D01*
Y462629D01*
X163355Y461630D01*
X167354D01*
X168353Y462629D01*
Y465628D01*
X167354Y459630D02*
X168353Y458631D01*
Y456631D01*
X167354Y455631D01*
X166354D01*
X165354Y456631D01*
Y457631D01*
Y456631D01*
X164355Y455631D01*
X163355D01*
X162355Y456631D01*
Y458631D01*
X163355Y459630D01*
X120620Y450582D02*
Y444584D01*
X123619D01*
X124618Y445583D01*
Y449582D01*
X123619Y450582D01*
X120620D01*
X130617Y444584D02*
X126618D01*
X130617Y448582D01*
Y449582D01*
X129617Y450582D01*
X127618D01*
X126618Y449582D01*
X181041Y456724D02*
X180041Y457723D01*
X178042D01*
X177042Y456724D01*
Y452725D01*
X178042Y451725D01*
X180041D01*
X181041Y452725D01*
X187039Y451725D02*
X183040D01*
X187039Y455724D01*
Y456724D01*
X186039Y457723D01*
X184040D01*
X183040Y456724D01*
X193037Y451725D02*
X189038D01*
X193037Y455724D01*
Y456724D01*
X192037Y457723D01*
X190038D01*
X189038Y456724D01*
D13*
X137008Y452953D02*
X148425D01*
X137008D02*
Y453709D01*
X148425Y452953D02*
Y453709D01*
X137008Y458465D02*
X148425D01*
Y457709D02*
Y458465D01*
X142717Y452953D02*
Y458465D01*
X137008Y457709D02*
Y458465D01*
X142520Y461811D02*
Y473228D01*
X141764Y461811D02*
X142520D01*
X141764Y473228D02*
X142520D01*
X137008Y461811D02*
Y473228D01*
X137764D01*
X137008Y467520D02*
X142520D01*
X137008Y461811D02*
X137764D01*
D14*
X130118Y472579D02*
X132756D01*
Y454587D02*
Y472579D01*
X130118Y454587D02*
X132756D01*
X117244Y472579D02*
X119882D01*
X117244Y454587D02*
Y472579D01*
Y454587D02*
X119882D01*
M02*
