G04*
G04 #@! TF.GenerationSoftware,Altium Limited,Altium Designer,25.8.1 (18)*
G04*
G04 Layer_Color=32896*
%FSLAX25Y25*%
%MOIN*%
G70*
G04*
G04 #@! TF.SameCoordinates,CEB4CDF7-1973-4ED8-B396-1C5FF8A1C19E*
G04*
G04*
G04 #@! TF.FilePolarity,Positive*
G04*
G01*
G75*
%ADD32C,0.00492*%
G36*
X177815Y460794D02*
X177833D01*
Y460757D01*
X177851D01*
Y460739D01*
X177869D01*
Y460703D01*
X177887D01*
Y460666D01*
X177906D01*
Y460648D01*
X177924D01*
Y460612D01*
X177942D01*
Y460575D01*
X177960D01*
Y460557D01*
X177979D01*
Y460521D01*
X177997D01*
Y460484D01*
X178015D01*
Y460448D01*
X178033D01*
Y460430D01*
X178051D01*
Y460393D01*
X178070D01*
Y460357D01*
X178088D01*
Y460338D01*
X178106D01*
Y460302D01*
X178124D01*
Y460266D01*
X178142D01*
Y460247D01*
X178161D01*
Y460211D01*
X178179D01*
Y460175D01*
X178197D01*
Y460138D01*
X178215D01*
Y460120D01*
X178234D01*
Y460083D01*
X178252D01*
Y460047D01*
X178270D01*
Y460029D01*
X178288D01*
Y459992D01*
X178306D01*
Y459956D01*
X178325D01*
Y459938D01*
X178343D01*
Y459901D01*
X178361D01*
Y459865D01*
X178379D01*
Y459847D01*
X178398D01*
Y459810D01*
X178416D01*
Y459774D01*
X178434D01*
Y459737D01*
X178452D01*
Y459719D01*
X178470D01*
Y459683D01*
X178489D01*
Y459646D01*
X178507D01*
Y459628D01*
X178525D01*
Y459592D01*
X178543D01*
Y459555D01*
X178561D01*
Y459537D01*
X178580D01*
Y459501D01*
X178598D01*
Y459464D01*
X178616D01*
Y459446D01*
X178634D01*
Y459410D01*
X178653D01*
Y459373D01*
X178671D01*
Y459337D01*
X178689D01*
Y459318D01*
X178707D01*
Y459282D01*
X178725D01*
Y459246D01*
X178744D01*
Y459227D01*
X178762D01*
Y459191D01*
X178780D01*
Y459173D01*
X178124D01*
Y459209D01*
X178106D01*
Y459227D01*
X178088D01*
Y459264D01*
X178070D01*
Y459282D01*
X178051D01*
Y459318D01*
X178033D01*
Y459355D01*
X178015D01*
Y459391D01*
X177997D01*
Y459410D01*
X177979D01*
Y459446D01*
X177960D01*
Y459482D01*
X177942D01*
Y459501D01*
X177924D01*
Y459537D01*
X177906D01*
Y459574D01*
X177887D01*
Y459610D01*
X177869D01*
Y459628D01*
X177851D01*
Y459664D01*
X177833D01*
Y459701D01*
X177815D01*
Y459719D01*
X177796D01*
Y459756D01*
X177778D01*
Y459792D01*
X177760D01*
Y459810D01*
X177742D01*
Y459847D01*
X177724D01*
Y459883D01*
X177705D01*
Y459901D01*
X177687D01*
Y459938D01*
X177651D01*
Y459901D01*
X177632D01*
Y459847D01*
X177614D01*
Y459810D01*
X177596D01*
Y459756D01*
X177578D01*
Y459719D01*
X177560D01*
Y459664D01*
X177541D01*
Y459628D01*
X177523D01*
Y459574D01*
X177505D01*
Y459537D01*
X177487D01*
Y459482D01*
X177469D01*
Y459446D01*
X177450D01*
Y459391D01*
X177432D01*
Y459355D01*
X177414D01*
Y459300D01*
X177396D01*
Y459264D01*
X177377D01*
Y459209D01*
X177359D01*
Y459173D01*
X176667D01*
Y459209D01*
X176649D01*
Y459246D01*
X176631D01*
Y459264D01*
X176612D01*
Y459300D01*
X176594D01*
Y459337D01*
X176576D01*
Y459373D01*
X176558D01*
Y459391D01*
X176540D01*
Y459428D01*
X176521D01*
Y459464D01*
X176503D01*
Y459482D01*
X176485D01*
Y459519D01*
X176467D01*
Y459555D01*
X176449D01*
Y459574D01*
X176430D01*
Y459610D01*
X176412D01*
Y459646D01*
X176394D01*
Y459664D01*
X176376D01*
Y459701D01*
X176357D01*
Y459737D01*
X176339D01*
Y459774D01*
X176321D01*
Y459792D01*
X176303D01*
Y459829D01*
X176285D01*
Y459865D01*
X176266D01*
Y459901D01*
X176248D01*
Y459920D01*
X176230D01*
Y459956D01*
X176212D01*
Y459992D01*
X176193D01*
Y460011D01*
X176175D01*
Y460047D01*
X176157D01*
Y460083D01*
X176139D01*
Y460102D01*
X176121D01*
Y460138D01*
X176102D01*
Y460175D01*
X176084D01*
Y460193D01*
X176066D01*
Y460229D01*
X176048D01*
Y460266D01*
X176030D01*
Y460302D01*
X176011D01*
Y460320D01*
X175993D01*
Y460357D01*
X175975D01*
Y460375D01*
X175957D01*
Y460411D01*
X175938D01*
Y460448D01*
X175920D01*
Y460484D01*
X175902D01*
Y460502D01*
X175884D01*
Y460539D01*
X175866D01*
Y460575D01*
X175847D01*
Y460594D01*
X175829D01*
Y460630D01*
X175811D01*
Y460666D01*
X175793D01*
Y460685D01*
X175775D01*
Y460721D01*
X175756D01*
Y460757D01*
X175738D01*
Y460794D01*
X175720D01*
Y460812D01*
X175702D01*
Y460830D01*
X176357D01*
Y460812D01*
X176376D01*
Y460776D01*
X176394D01*
Y460757D01*
X176412D01*
Y460721D01*
X176430D01*
Y460685D01*
X176449D01*
Y460666D01*
X176467D01*
Y460630D01*
X176485D01*
Y460594D01*
X176503D01*
Y460575D01*
X176521D01*
Y460539D01*
X176540D01*
Y460502D01*
X176558D01*
Y460466D01*
X176576D01*
Y460448D01*
X176594D01*
Y460411D01*
X176612D01*
Y460375D01*
X176631D01*
Y460357D01*
X176649D01*
Y460320D01*
X176667D01*
Y460284D01*
X176685D01*
Y460266D01*
X176704D01*
Y460229D01*
X176722D01*
Y460193D01*
X176740D01*
Y460156D01*
X176758D01*
Y460138D01*
X176776D01*
Y460102D01*
X176795D01*
Y460065D01*
X176813D01*
Y460047D01*
X176831D01*
Y460011D01*
X176849D01*
Y460029D01*
X176867D01*
Y460083D01*
X176886D01*
Y460156D01*
X176904D01*
Y460211D01*
X176922D01*
Y460266D01*
X176940D01*
Y460338D01*
X176959D01*
Y460393D01*
X176977D01*
Y460448D01*
X176995D01*
Y460521D01*
X177013D01*
Y460575D01*
X177031D01*
Y460630D01*
X177050D01*
Y460703D01*
X177068D01*
Y460757D01*
X177086D01*
Y460812D01*
X177104D01*
Y460830D01*
X177815D01*
Y460794D01*
D02*
G37*
G36*
X175046Y460812D02*
X175173D01*
Y460794D01*
X175246D01*
Y460776D01*
X175319D01*
Y460757D01*
X175356D01*
Y460739D01*
X175392D01*
Y460721D01*
X175428D01*
Y460703D01*
X175465D01*
Y460685D01*
X175483D01*
Y460666D01*
X175501D01*
Y460648D01*
X175520D01*
Y460630D01*
X175538D01*
Y460612D01*
X175556D01*
Y460594D01*
X175574D01*
Y460575D01*
X175592D01*
Y460557D01*
X175611D01*
Y460539D01*
X175629D01*
Y460502D01*
X175647D01*
Y460484D01*
X175665D01*
Y460448D01*
X175683D01*
Y460411D01*
X175702D01*
Y460393D01*
X175720D01*
Y460357D01*
X175738D01*
Y460320D01*
X175756D01*
Y460302D01*
X175775D01*
Y460266D01*
X175793D01*
Y460229D01*
X175811D01*
Y460193D01*
X175829D01*
Y460175D01*
X175847D01*
Y460138D01*
X175866D01*
Y460102D01*
X175884D01*
Y460083D01*
X175902D01*
Y460047D01*
X175920D01*
Y460011D01*
X175938D01*
Y459992D01*
X175957D01*
Y459956D01*
X175975D01*
Y459920D01*
X175993D01*
Y459883D01*
X176011D01*
Y459865D01*
X176030D01*
Y459829D01*
X176048D01*
Y459810D01*
X176066D01*
Y459774D01*
X176084D01*
Y459737D01*
X176102D01*
Y459701D01*
X176121D01*
Y459683D01*
X176139D01*
Y459646D01*
X176157D01*
Y459610D01*
X176175D01*
Y459574D01*
X176193D01*
Y459555D01*
X176212D01*
Y459519D01*
X176230D01*
Y459482D01*
X176248D01*
Y459446D01*
X176266D01*
Y459391D01*
X176285D01*
Y459318D01*
X176266D01*
Y459282D01*
X176248D01*
Y459246D01*
X176212D01*
Y459227D01*
X176175D01*
Y459209D01*
X176121D01*
Y459191D01*
X176030D01*
Y459173D01*
X174299D01*
Y459191D01*
X174281D01*
Y459209D01*
X174263D01*
Y459246D01*
X174244D01*
Y459282D01*
X174226D01*
Y459318D01*
X174208D01*
Y459337D01*
X174190D01*
Y459373D01*
X174172D01*
Y459410D01*
X174153D01*
Y459428D01*
X174135D01*
Y459464D01*
X174117D01*
Y459501D01*
X174099D01*
Y459519D01*
X174081D01*
Y459555D01*
X174062D01*
Y459592D01*
X174044D01*
Y459610D01*
X174026D01*
Y459646D01*
X174008D01*
Y459683D01*
X173989D01*
Y459719D01*
X173971D01*
Y459737D01*
X173953D01*
Y459774D01*
X173935D01*
Y459792D01*
X173917D01*
Y459829D01*
X173898D01*
Y459865D01*
X173880D01*
Y459883D01*
X173862D01*
Y459920D01*
X173844D01*
Y459956D01*
X173826D01*
Y459992D01*
X173807D01*
Y460011D01*
X173789D01*
Y460047D01*
X173771D01*
Y460083D01*
X173753D01*
Y460102D01*
X173734D01*
Y460138D01*
X173716D01*
Y460175D01*
X173698D01*
Y460193D01*
X173680D01*
Y460211D01*
X174937D01*
Y460193D01*
X174955D01*
Y460156D01*
X174973D01*
Y460138D01*
X174991D01*
Y460102D01*
X175010D01*
Y460065D01*
X175028D01*
Y460029D01*
X175046D01*
Y460011D01*
X175064D01*
Y459974D01*
X175082D01*
Y459938D01*
X175101D01*
Y459920D01*
X175119D01*
Y459883D01*
X175137D01*
Y459847D01*
X175155D01*
Y459829D01*
X175173D01*
Y459792D01*
X174591D01*
Y459774D01*
X174609D01*
Y459737D01*
X174627D01*
Y459719D01*
X174645D01*
Y459683D01*
X174663D01*
Y459646D01*
X174682D01*
Y459628D01*
X174700D01*
Y459592D01*
X175392D01*
Y459610D01*
X175447D01*
Y459628D01*
X175465D01*
Y459646D01*
X175447D01*
Y459701D01*
X175428D01*
Y459719D01*
X175410D01*
Y459756D01*
X175392D01*
Y459792D01*
X175374D01*
Y459810D01*
X175356D01*
Y459847D01*
X175337D01*
Y459883D01*
X175319D01*
Y459920D01*
X175301D01*
Y459938D01*
X175283D01*
Y459974D01*
X175265D01*
Y460011D01*
X175246D01*
Y460029D01*
X175228D01*
Y460065D01*
X175210D01*
Y460102D01*
X175192D01*
Y460120D01*
X175173D01*
Y460156D01*
X175155D01*
Y460193D01*
X175137D01*
Y460211D01*
X175119D01*
Y460247D01*
X175101D01*
Y460284D01*
X175082D01*
Y460302D01*
X175064D01*
Y460338D01*
X175046D01*
Y460357D01*
X175028D01*
Y460375D01*
X174991D01*
Y460393D01*
X174918D01*
Y460411D01*
X173552D01*
Y460448D01*
X173534D01*
Y460484D01*
X173516D01*
Y460521D01*
X173498D01*
Y460539D01*
X173479D01*
Y460575D01*
X173461D01*
Y460612D01*
X173443D01*
Y460630D01*
X173425D01*
Y460666D01*
X173407D01*
Y460703D01*
X173388D01*
Y460721D01*
X173370D01*
Y460757D01*
X173352D01*
Y460794D01*
X173334D01*
Y460812D01*
X173316D01*
Y460830D01*
X175046D01*
Y460812D01*
D02*
G37*
G36*
X185592Y460794D02*
X185610D01*
Y460757D01*
X185629D01*
Y460739D01*
X185647D01*
Y460703D01*
X185665D01*
Y460666D01*
X185683D01*
Y460648D01*
X185702D01*
Y460612D01*
X185720D01*
Y460575D01*
X185738D01*
Y460557D01*
X185756D01*
Y460521D01*
X185775D01*
Y460484D01*
X185793D01*
Y460448D01*
X185811D01*
Y460430D01*
X185829D01*
Y460393D01*
X185847D01*
Y460357D01*
X185865D01*
Y460338D01*
X185884D01*
Y460302D01*
X185902D01*
Y460266D01*
X185920D01*
Y460247D01*
X185938D01*
Y460211D01*
X185957D01*
Y460175D01*
X185975D01*
Y460138D01*
X185993D01*
Y460120D01*
X186011D01*
Y460083D01*
X186030D01*
Y460047D01*
X186048D01*
Y460029D01*
X186066D01*
Y459992D01*
X186084D01*
Y459956D01*
X186102D01*
Y459938D01*
X186121D01*
Y459901D01*
X186139D01*
Y459865D01*
X186157D01*
Y459847D01*
X186175D01*
Y459810D01*
X186193D01*
Y459774D01*
X186212D01*
Y459737D01*
X186230D01*
Y459719D01*
X186248D01*
Y459683D01*
X186266D01*
Y459646D01*
X186284D01*
Y459628D01*
X186303D01*
Y459592D01*
X186321D01*
Y459555D01*
X186339D01*
Y459537D01*
X186357D01*
Y459501D01*
X186376D01*
Y459464D01*
X186394D01*
Y459446D01*
X186412D01*
Y459410D01*
X186430D01*
Y459373D01*
X186448D01*
Y459337D01*
X186467D01*
Y459318D01*
X186485D01*
Y459282D01*
X186503D01*
Y459246D01*
X186521D01*
Y459227D01*
X186539D01*
Y459191D01*
X186558D01*
Y459173D01*
X185865D01*
Y459209D01*
X185847D01*
Y459227D01*
X185829D01*
Y459264D01*
X185811D01*
Y459300D01*
X185793D01*
Y459337D01*
X185775D01*
Y459355D01*
X185756D01*
Y459391D01*
X185738D01*
Y459428D01*
X185720D01*
Y459464D01*
X185702D01*
Y459482D01*
X185683D01*
Y459519D01*
X185665D01*
Y459537D01*
X185647D01*
Y459574D01*
X185629D01*
Y459610D01*
X185610D01*
Y459646D01*
X185592D01*
Y459664D01*
X185574D01*
Y459701D01*
X185556D01*
Y459737D01*
X184864D01*
Y459719D01*
X184827D01*
Y459646D01*
X184845D01*
Y459610D01*
X184864D01*
Y459574D01*
X184882D01*
Y459537D01*
X184900D01*
Y459519D01*
X184918D01*
Y459482D01*
X184937D01*
Y459446D01*
X184955D01*
Y459428D01*
X184973D01*
Y459391D01*
X184991D01*
Y459355D01*
X185009D01*
Y459337D01*
X185028D01*
Y459300D01*
X185046D01*
Y459264D01*
X185064D01*
Y459227D01*
X185082D01*
Y459209D01*
X185100D01*
Y459173D01*
X184427D01*
Y459191D01*
X184408D01*
Y459227D01*
X184390D01*
Y459246D01*
X184372D01*
Y459282D01*
X184354D01*
Y459318D01*
X184335D01*
Y459355D01*
X184317D01*
Y459373D01*
X184299D01*
Y459410D01*
X184281D01*
Y459446D01*
X184263D01*
Y459464D01*
X184244D01*
Y459501D01*
X184226D01*
Y459537D01*
X184208D01*
Y459574D01*
X184190D01*
Y459592D01*
X184172D01*
Y459628D01*
X184153D01*
Y459664D01*
X184135D01*
Y459683D01*
X184117D01*
Y459719D01*
X184099D01*
Y459774D01*
X184081D01*
Y459847D01*
X184099D01*
Y459883D01*
X184117D01*
Y459901D01*
X184135D01*
Y459920D01*
X184153D01*
Y459938D01*
X184117D01*
Y459956D01*
X184081D01*
Y459974D01*
X184044D01*
Y459992D01*
X184008D01*
Y460011D01*
X183989D01*
Y460029D01*
X183971D01*
Y460047D01*
X183953D01*
Y460065D01*
X183935D01*
Y460083D01*
X183917D01*
Y460102D01*
X183898D01*
Y460120D01*
X183880D01*
Y460138D01*
X183862D01*
Y460175D01*
X183844D01*
Y460193D01*
X183826D01*
Y460229D01*
X183807D01*
Y460266D01*
X183789D01*
Y460302D01*
X183771D01*
Y460320D01*
X183753D01*
Y460357D01*
X183734D01*
Y460393D01*
X183716D01*
Y460411D01*
X183698D01*
Y460448D01*
X183680D01*
Y460484D01*
X183662D01*
Y460521D01*
X183643D01*
Y460557D01*
X183625D01*
Y460594D01*
X183607D01*
Y460721D01*
X183625D01*
Y460739D01*
X183643D01*
Y460757D01*
X183662D01*
Y460776D01*
X183680D01*
Y460794D01*
X183734D01*
Y460812D01*
X183826D01*
Y460830D01*
X185592D01*
Y460794D01*
D02*
G37*
G36*
X182641Y460812D02*
X182660D01*
Y460794D01*
X182678D01*
Y460776D01*
X182696D01*
Y460757D01*
X182714D01*
Y460739D01*
X182733D01*
Y460721D01*
X182751D01*
Y460703D01*
X182787D01*
Y460685D01*
X182805D01*
Y460666D01*
X182824D01*
Y460648D01*
X182842D01*
Y460630D01*
X182860D01*
Y460612D01*
X182878D01*
Y460594D01*
X182896D01*
Y460575D01*
X182915D01*
Y460557D01*
X182933D01*
Y460539D01*
X182951D01*
Y460521D01*
X182969D01*
Y460502D01*
X182988D01*
Y460484D01*
X183006D01*
Y460466D01*
X183024D01*
Y460448D01*
X183042D01*
Y460430D01*
X183061D01*
Y460411D01*
X183079D01*
Y460393D01*
X183097D01*
Y460375D01*
X183115D01*
Y460357D01*
X183133D01*
Y460338D01*
X183151D01*
Y460320D01*
X183170D01*
Y460302D01*
X183188D01*
Y460284D01*
X183206D01*
Y460266D01*
X183224D01*
Y460247D01*
X183243D01*
Y460229D01*
X183261D01*
Y460211D01*
X183279D01*
Y460193D01*
X183297D01*
Y460175D01*
X183316D01*
Y460156D01*
X183334D01*
Y460138D01*
X183352D01*
Y460120D01*
X183370D01*
Y460102D01*
X183388D01*
Y460083D01*
X183406D01*
Y460065D01*
X183425D01*
Y460047D01*
X183443D01*
Y460029D01*
X183461D01*
Y460011D01*
X183479D01*
Y459992D01*
X183498D01*
Y459974D01*
X183516D01*
Y459956D01*
X183534D01*
Y459938D01*
X183552D01*
Y459920D01*
X183589D01*
Y459901D01*
X183607D01*
Y459883D01*
X183625D01*
Y459865D01*
X183643D01*
Y459847D01*
X183662D01*
Y459829D01*
X183680D01*
Y459810D01*
X183698D01*
Y459792D01*
X183716D01*
Y459774D01*
X183734D01*
Y459756D01*
X183753D01*
Y459737D01*
X183771D01*
Y459719D01*
X183789D01*
Y459701D01*
X183807D01*
Y459683D01*
X183826D01*
Y459664D01*
X183844D01*
Y459646D01*
X183862D01*
Y459628D01*
X183880D01*
Y459610D01*
X183898D01*
Y459592D01*
X183917D01*
Y459574D01*
X183935D01*
Y459555D01*
X183953D01*
Y459537D01*
X183971D01*
Y459519D01*
X183989D01*
Y459501D01*
X184008D01*
Y459482D01*
X184026D01*
Y459464D01*
X184044D01*
Y459446D01*
X184062D01*
Y459428D01*
X184081D01*
Y459410D01*
X184099D01*
Y459391D01*
X184117D01*
Y459373D01*
X184135D01*
Y459355D01*
X184153D01*
Y459337D01*
X184172D01*
Y459318D01*
X184190D01*
Y459300D01*
X184208D01*
Y459282D01*
X184226D01*
Y459264D01*
X184244D01*
Y459246D01*
X184263D01*
Y459227D01*
X184281D01*
Y459209D01*
X184299D01*
Y459191D01*
X184317D01*
Y459173D01*
X183571D01*
Y459191D01*
X183552D01*
Y459209D01*
X183534D01*
Y459227D01*
X183516D01*
Y459246D01*
X183498D01*
Y459282D01*
X183479D01*
Y459300D01*
X183461D01*
Y459318D01*
X183443D01*
Y459337D01*
X183425D01*
Y459355D01*
X183406D01*
Y459373D01*
X183388D01*
Y459391D01*
X183370D01*
Y459410D01*
X182696D01*
Y459391D01*
X182714D01*
Y459300D01*
X182733D01*
Y459227D01*
X182751D01*
Y459173D01*
X182022D01*
Y459264D01*
X182004D01*
Y459391D01*
X181986D01*
Y459501D01*
X181968D01*
Y459610D01*
X181949D01*
Y459756D01*
X181931D01*
Y459847D01*
X181913D01*
Y459956D01*
X181895D01*
Y460083D01*
X181877D01*
Y460193D01*
X181858D01*
Y460320D01*
X181840D01*
Y460430D01*
X181822D01*
Y460539D01*
X181804D01*
Y460666D01*
X181785D01*
Y460776D01*
X181767D01*
Y460830D01*
X182641D01*
Y460812D01*
D02*
G37*
G36*
X180601D02*
X180711D01*
Y460794D01*
X180784D01*
Y460776D01*
X180857D01*
Y460757D01*
X180893D01*
Y460739D01*
X180929D01*
Y460721D01*
X180966D01*
Y460703D01*
X181002D01*
Y460685D01*
X181020D01*
Y460666D01*
X181039D01*
Y460648D01*
X181057D01*
Y460630D01*
X181075D01*
Y460612D01*
X181093D01*
Y460594D01*
X181112D01*
Y460575D01*
X181130D01*
Y460557D01*
X181148D01*
Y460539D01*
X181166D01*
Y460502D01*
X181184D01*
Y460484D01*
X181202D01*
Y460448D01*
X181221D01*
Y460411D01*
X181239D01*
Y460393D01*
X181257D01*
Y460357D01*
X181275D01*
Y460320D01*
X181294D01*
Y460302D01*
X181312D01*
Y460266D01*
X181330D01*
Y460229D01*
X181348D01*
Y460193D01*
X181367D01*
Y460175D01*
X181385D01*
Y460138D01*
X181403D01*
Y460102D01*
X181421D01*
Y460083D01*
X181439D01*
Y460047D01*
X181457D01*
Y460029D01*
Y460011D01*
X181476D01*
Y459992D01*
X181494D01*
Y459956D01*
X181512D01*
Y459920D01*
X181530D01*
Y459883D01*
X181549D01*
Y459865D01*
X181567D01*
Y459829D01*
X181585D01*
Y459810D01*
X181603D01*
Y459774D01*
X181622D01*
Y459737D01*
X181640D01*
Y459701D01*
X181658D01*
Y459683D01*
X181676D01*
Y459646D01*
X181694D01*
Y459610D01*
X181713D01*
Y459574D01*
X181731D01*
Y459555D01*
X181749D01*
Y459519D01*
X181767D01*
Y459482D01*
X181785D01*
Y459446D01*
X181804D01*
Y459391D01*
X181822D01*
Y459318D01*
X181804D01*
Y459282D01*
X181785D01*
Y459246D01*
X181749D01*
Y459227D01*
X181713D01*
Y459209D01*
X181658D01*
Y459191D01*
X181567D01*
Y459173D01*
X179909D01*
Y459191D01*
X179891D01*
Y459227D01*
X179873D01*
Y459264D01*
X179855D01*
Y459282D01*
X179836D01*
Y459318D01*
X179818D01*
Y459355D01*
X179800D01*
Y459391D01*
X179782D01*
Y459410D01*
X179764D01*
Y459446D01*
X179745D01*
Y459482D01*
X179727D01*
Y459501D01*
X179709D01*
Y459537D01*
X179691D01*
Y459574D01*
X179673D01*
Y459592D01*
X180911D01*
Y459610D01*
X180966D01*
Y459628D01*
X180984D01*
Y459683D01*
X180966D01*
Y459719D01*
X180947D01*
Y459737D01*
X180929D01*
Y459774D01*
X180911D01*
Y459810D01*
X180893D01*
Y459829D01*
X180875D01*
Y459865D01*
X180857D01*
Y459901D01*
X180838D01*
Y459920D01*
X180820D01*
Y459956D01*
X180802D01*
Y459992D01*
X180784D01*
Y460029D01*
X180765D01*
Y460047D01*
X180747D01*
Y460083D01*
X180729D01*
Y460120D01*
X180711D01*
Y460138D01*
X180693D01*
Y460175D01*
X180674D01*
Y460211D01*
X180656D01*
Y460229D01*
X180638D01*
Y460266D01*
X180620D01*
Y460302D01*
X180601D01*
Y460320D01*
X180583D01*
Y460338D01*
X180565D01*
Y460357D01*
X180547D01*
Y460375D01*
X180510D01*
Y460393D01*
X180438D01*
Y460411D01*
X179181D01*
Y460430D01*
X179163D01*
Y460466D01*
X179144D01*
Y460502D01*
X179126D01*
Y460521D01*
X179108D01*
Y460557D01*
X179090D01*
Y460594D01*
X179071D01*
Y460612D01*
X179053D01*
Y460648D01*
X179035D01*
Y460685D01*
X179017D01*
Y460703D01*
X178999D01*
Y460739D01*
X178980D01*
Y460776D01*
X178962D01*
Y460794D01*
X178944D01*
Y460830D01*
X180601D01*
Y460812D01*
D02*
G37*
G36*
X178744Y460794D02*
X178762D01*
Y460757D01*
X178780D01*
Y460739D01*
X178798D01*
Y460703D01*
X178816D01*
Y460666D01*
X178835D01*
Y460648D01*
X178853D01*
Y460612D01*
X178871D01*
Y460575D01*
X178889D01*
Y460557D01*
X178908D01*
Y460521D01*
X178926D01*
Y460484D01*
X178944D01*
Y460448D01*
X178962D01*
Y460430D01*
X178980D01*
Y460393D01*
X178999D01*
Y460357D01*
X179017D01*
Y460338D01*
X179035D01*
Y460302D01*
X179053D01*
Y460266D01*
X179071D01*
Y460247D01*
X179090D01*
Y460211D01*
X179108D01*
Y460175D01*
X179126D01*
Y460138D01*
X179144D01*
Y460120D01*
X179163D01*
Y460083D01*
X179181D01*
Y460047D01*
X179199D01*
Y460029D01*
X179217D01*
Y459992D01*
X179235D01*
Y459956D01*
X179254D01*
Y459938D01*
X179272D01*
Y459901D01*
X179290D01*
Y459865D01*
X179308D01*
Y459847D01*
X179326D01*
Y459810D01*
X179345D01*
Y459774D01*
X179363D01*
Y459737D01*
X179381D01*
Y459719D01*
X179399D01*
Y459683D01*
X179418D01*
Y459646D01*
X179436D01*
Y459628D01*
X179454D01*
Y459592D01*
X179472D01*
Y459555D01*
X179490D01*
Y459537D01*
X179509D01*
Y459501D01*
X179527D01*
Y459464D01*
X179545D01*
Y459446D01*
X179563D01*
Y459410D01*
X179581D01*
Y459373D01*
X179600D01*
Y459337D01*
X179618D01*
Y459318D01*
X179636D01*
Y459282D01*
X179654D01*
Y459246D01*
X179673D01*
Y459227D01*
X179691D01*
Y459191D01*
X179709D01*
Y459173D01*
X179017D01*
Y459209D01*
X178999D01*
Y459227D01*
X178980D01*
Y459264D01*
X178962D01*
Y459300D01*
X178944D01*
Y459337D01*
X178926D01*
Y459355D01*
X178908D01*
Y459391D01*
X178889D01*
Y459428D01*
X178871D01*
Y459446D01*
X178853D01*
Y459482D01*
X178835D01*
Y459519D01*
X178816D01*
Y459537D01*
X178798D01*
Y459574D01*
X178780D01*
Y459610D01*
X178762D01*
Y459628D01*
X178744D01*
Y459664D01*
X178725D01*
Y459701D01*
X178707D01*
Y459737D01*
X178689D01*
Y459756D01*
X178671D01*
Y459792D01*
X178653D01*
Y459829D01*
X178634D01*
Y459847D01*
X178616D01*
Y459883D01*
X178598D01*
Y459920D01*
X178580D01*
Y459938D01*
X178561D01*
Y459974D01*
X178543D01*
Y460011D01*
X178525D01*
Y460029D01*
X178507D01*
Y460065D01*
X178489D01*
Y460102D01*
X178470D01*
Y460138D01*
X178452D01*
Y460156D01*
X178434D01*
Y460193D01*
X178416D01*
Y460229D01*
X178398D01*
Y460247D01*
X178379D01*
Y460284D01*
X178361D01*
Y460320D01*
X178343D01*
Y460338D01*
X178325D01*
Y460375D01*
X178306D01*
Y460411D01*
X178288D01*
Y460430D01*
X178270D01*
Y460466D01*
X178252D01*
Y460502D01*
X178234D01*
Y460539D01*
X178215D01*
Y460557D01*
X178197D01*
Y460594D01*
X178179D01*
Y460630D01*
X178161D01*
Y460648D01*
X178142D01*
Y460685D01*
X178124D01*
Y460721D01*
X178106D01*
Y460739D01*
X178088D01*
Y460776D01*
X178070D01*
Y460812D01*
X178051D01*
Y460830D01*
X178744D01*
Y460794D01*
D02*
G37*
G36*
X198598Y461067D02*
X198616D01*
Y461049D01*
X198634D01*
Y461012D01*
X198652D01*
Y460976D01*
X198671D01*
Y460958D01*
X198689D01*
Y460921D01*
X198707D01*
Y460885D01*
X198725D01*
Y460849D01*
X198743D01*
Y460830D01*
X198762D01*
Y460794D01*
X198780D01*
Y460757D01*
X198798D01*
Y460739D01*
X198816D01*
Y460703D01*
X198835D01*
Y460666D01*
X198853D01*
Y460630D01*
X198871D01*
Y460612D01*
X198889D01*
Y460575D01*
X198907D01*
Y460539D01*
X198926D01*
Y460521D01*
X198944D01*
Y460484D01*
X198962D01*
Y460448D01*
X198980D01*
Y460411D01*
X198998D01*
Y460393D01*
X199017D01*
Y460357D01*
X199035D01*
Y460320D01*
X199053D01*
Y460284D01*
X199071D01*
Y460266D01*
X199090D01*
Y460229D01*
X199108D01*
Y460193D01*
X199126D01*
Y460175D01*
X199144D01*
Y460138D01*
X199162D01*
Y460102D01*
X199181D01*
Y460065D01*
X199199D01*
Y460047D01*
X199217D01*
Y460011D01*
X199235D01*
Y459974D01*
X199253D01*
Y459938D01*
X199272D01*
Y459920D01*
X199290D01*
Y459883D01*
X199308D01*
Y459847D01*
X199326D01*
Y459829D01*
X199345D01*
Y459792D01*
X199363D01*
Y459756D01*
X199381D01*
Y459719D01*
X199399D01*
Y459701D01*
X199417D01*
Y459664D01*
X199436D01*
Y459628D01*
X199454D01*
Y459610D01*
X199472D01*
Y459574D01*
X199490D01*
Y459537D01*
X199509D01*
Y459501D01*
X199527D01*
Y459482D01*
X199545D01*
Y459446D01*
X199563D01*
Y459410D01*
X199581D01*
Y459391D01*
X199600D01*
Y459355D01*
X199618D01*
Y459318D01*
X199636D01*
Y459282D01*
X199654D01*
Y459264D01*
X199672D01*
Y459227D01*
X199691D01*
Y459191D01*
X199709D01*
Y459173D01*
X199727D01*
Y459136D01*
X199745D01*
Y459100D01*
X199764D01*
Y459063D01*
X199782D01*
Y459045D01*
X199800D01*
Y459009D01*
X199818D01*
Y458972D01*
X199836D01*
Y458936D01*
X199855D01*
Y458899D01*
X186940D01*
Y458936D01*
X186922D01*
Y458954D01*
X186904D01*
Y458991D01*
X186886D01*
Y459027D01*
X186867D01*
Y459063D01*
X186849D01*
Y459100D01*
X186831D01*
Y459118D01*
X186813D01*
Y459155D01*
X186794D01*
Y459191D01*
X186776D01*
Y459227D01*
X186758D01*
Y459246D01*
X186740D01*
Y459282D01*
X186722D01*
Y459318D01*
X186703D01*
Y459355D01*
X186685D01*
Y459373D01*
X186667D01*
Y459410D01*
X186649D01*
Y459446D01*
X186631D01*
Y459482D01*
X186612D01*
Y459501D01*
X186594D01*
Y459537D01*
X186576D01*
Y459574D01*
X186558D01*
Y459610D01*
X186539D01*
Y459646D01*
X186521D01*
Y459664D01*
X186503D01*
Y459701D01*
X186485D01*
Y459737D01*
X186467D01*
Y459756D01*
X186448D01*
Y459792D01*
X186430D01*
Y459829D01*
X186412D01*
Y459865D01*
X186394D01*
Y459901D01*
X186376D01*
Y459920D01*
X186357D01*
Y459956D01*
X186339D01*
Y459992D01*
X186321D01*
Y460029D01*
X186303D01*
Y460047D01*
X186284D01*
Y460083D01*
X186266D01*
Y460120D01*
X186248D01*
Y460156D01*
X186230D01*
Y460175D01*
X186212D01*
Y460211D01*
X186193D01*
Y460247D01*
X186175D01*
Y460284D01*
X186157D01*
Y460302D01*
X186139D01*
Y460338D01*
X186121D01*
Y460375D01*
X186102D01*
Y460411D01*
X186084D01*
Y460430D01*
X186066D01*
Y460466D01*
X186048D01*
Y460502D01*
X186030D01*
Y460539D01*
X186011D01*
Y460557D01*
X185993D01*
Y460594D01*
X185975D01*
Y460630D01*
X185957D01*
Y460666D01*
X185938D01*
Y460703D01*
X185920D01*
Y460721D01*
X185902D01*
Y460757D01*
X185884D01*
Y460794D01*
X185865D01*
Y460830D01*
X185847D01*
Y460849D01*
X185829D01*
Y460885D01*
X185811D01*
Y460921D01*
X185793D01*
Y460958D01*
X185775D01*
Y460994D01*
X185756D01*
Y461012D01*
X185738D01*
Y461049D01*
X185720D01*
Y461085D01*
X185702D01*
Y461103D01*
X198598D01*
Y461067D01*
D02*
G37*
G36*
X199272Y458699D02*
X199290D01*
Y458663D01*
X199308D01*
Y458626D01*
X199326D01*
Y458590D01*
X199345D01*
Y458572D01*
X199363D01*
Y458535D01*
X199381D01*
Y458499D01*
X199399D01*
Y458481D01*
X199417D01*
Y458444D01*
X199436D01*
Y458408D01*
X199454D01*
Y458371D01*
X199472D01*
Y458353D01*
X199490D01*
Y458317D01*
X199509D01*
Y458280D01*
X199527D01*
Y458244D01*
X199545D01*
Y458226D01*
X199563D01*
Y458189D01*
X199581D01*
Y458171D01*
X200310D01*
Y458135D01*
X200328D01*
Y458098D01*
X200346D01*
Y458080D01*
X200365D01*
Y458043D01*
X200383D01*
Y458007D01*
X200401D01*
Y457971D01*
X200419D01*
Y457952D01*
X200437D01*
Y457916D01*
X200456D01*
Y457879D01*
X200474D01*
Y457843D01*
X200492D01*
Y457825D01*
X200510D01*
Y457788D01*
X200529D01*
Y457752D01*
X200547D01*
Y457734D01*
X200565D01*
Y457697D01*
X200583D01*
Y457661D01*
X200601D01*
Y457624D01*
X199891D01*
Y457643D01*
X199873D01*
Y457661D01*
X199855D01*
Y457697D01*
X199836D01*
Y457734D01*
X199818D01*
Y457770D01*
X199800D01*
Y457807D01*
X199782D01*
Y457825D01*
X199764D01*
Y457861D01*
X199745D01*
Y457898D01*
X199727D01*
Y457916D01*
X199709D01*
Y457952D01*
X199691D01*
Y457989D01*
X199672D01*
Y458025D01*
X199654D01*
Y458043D01*
X199636D01*
Y458080D01*
X199618D01*
Y458116D01*
X199600D01*
Y458135D01*
X199581D01*
Y458171D01*
X198871D01*
Y458153D01*
X198889D01*
Y458116D01*
X198907D01*
Y458080D01*
X198926D01*
Y458043D01*
X198944D01*
Y458025D01*
X198962D01*
Y457989D01*
X198980D01*
Y457952D01*
X198998D01*
Y457934D01*
X199017D01*
Y457898D01*
X199035D01*
Y457861D01*
X199053D01*
Y457825D01*
X199071D01*
Y457807D01*
X199090D01*
Y457770D01*
X199108D01*
Y457734D01*
X199126D01*
Y457697D01*
X199144D01*
Y457679D01*
X199162D01*
Y457643D01*
X199181D01*
Y457624D01*
X198452D01*
Y457643D01*
X198434D01*
Y457661D01*
Y457679D01*
X198416D01*
Y457716D01*
X198397D01*
Y457752D01*
X198379D01*
Y457770D01*
X198361D01*
Y457807D01*
X198343D01*
Y457843D01*
X198325D01*
Y457861D01*
X198306D01*
Y457898D01*
X198288D01*
Y457934D01*
X198270D01*
Y457971D01*
X198252D01*
Y457989D01*
X198233D01*
Y458025D01*
X198215D01*
Y458062D01*
X198197D01*
Y458080D01*
X198179D01*
Y458116D01*
X198161D01*
Y458153D01*
X198142D01*
Y458171D01*
X197450D01*
Y458135D01*
X197468D01*
Y458098D01*
X197487D01*
Y458062D01*
X197505D01*
Y458025D01*
X197523D01*
Y458007D01*
X197541D01*
Y457971D01*
X197559D01*
Y457934D01*
X197578D01*
Y457898D01*
X197596D01*
Y457879D01*
X197614D01*
Y457843D01*
X197632D01*
Y457807D01*
X197651D01*
Y457788D01*
X197669D01*
Y457752D01*
X197687D01*
Y457716D01*
X197705D01*
Y457679D01*
X197723D01*
Y457661D01*
X197742D01*
Y457624D01*
X197013D01*
Y457661D01*
X196995D01*
Y457697D01*
X196977D01*
Y457734D01*
X196958D01*
Y457752D01*
X196940D01*
Y457788D01*
X196922D01*
Y457825D01*
X196904D01*
Y457861D01*
X196886D01*
Y457879D01*
X196867D01*
Y457916D01*
X196849D01*
Y457952D01*
X196831D01*
Y457971D01*
X196813D01*
Y458007D01*
X196794D01*
Y458043D01*
X196776D01*
Y458062D01*
X196758D01*
Y458098D01*
X196740D01*
Y458135D01*
X196722D01*
Y458171D01*
X197414D01*
Y458207D01*
X197396D01*
Y458244D01*
X197377D01*
Y458262D01*
X197359D01*
Y458298D01*
X197341D01*
Y458335D01*
X197323D01*
Y458371D01*
X197304D01*
Y458390D01*
X197286D01*
Y458426D01*
X197268D01*
Y458462D01*
X197250D01*
Y458481D01*
X197232D01*
Y458517D01*
X197213D01*
Y458553D01*
X197195D01*
Y458590D01*
X197177D01*
Y458608D01*
X197159D01*
Y458644D01*
X197141D01*
Y458681D01*
X197122D01*
Y458717D01*
X197833D01*
Y458699D01*
X197851D01*
Y458663D01*
X197869D01*
Y458644D01*
X197887D01*
Y458608D01*
X197906D01*
Y458572D01*
X197924D01*
Y458535D01*
X197942D01*
Y458517D01*
X197960D01*
Y458481D01*
X197978D01*
Y458444D01*
X197997D01*
Y458408D01*
X198015D01*
Y458390D01*
X198033D01*
Y458353D01*
X198051D01*
Y458317D01*
X198070D01*
Y458298D01*
X198088D01*
Y458262D01*
X198106D01*
Y458226D01*
X198124D01*
Y458207D01*
X198142D01*
Y458171D01*
X198853D01*
Y458189D01*
X198835D01*
Y458226D01*
X198816D01*
Y458262D01*
X198798D01*
Y458280D01*
X198780D01*
Y458317D01*
X198762D01*
Y458353D01*
X198743D01*
Y458390D01*
X198725D01*
Y458408D01*
X198707D01*
Y458444D01*
X198689D01*
Y458481D01*
X198671D01*
Y458517D01*
X198652D01*
Y458535D01*
X198634D01*
Y458572D01*
X198616D01*
Y458608D01*
X198598D01*
Y458626D01*
X198580D01*
Y458663D01*
X198561D01*
Y458699D01*
X198543D01*
Y458717D01*
X199272D01*
Y458699D01*
D02*
G37*
G36*
X196412Y458681D02*
X196430D01*
Y458644D01*
X196448D01*
Y458626D01*
X196467D01*
Y458590D01*
X196485D01*
Y458553D01*
X196503D01*
Y458517D01*
X196521D01*
Y458499D01*
X196539D01*
Y458462D01*
X196558D01*
Y458426D01*
X196576D01*
Y458408D01*
X196594D01*
Y458371D01*
X196612D01*
Y458335D01*
X196631D01*
Y458298D01*
X196649D01*
Y458280D01*
X196667D01*
Y458244D01*
X196685D01*
Y458207D01*
X196703D01*
Y458171D01*
X196011D01*
Y458135D01*
X196029D01*
Y458098D01*
X196048D01*
Y458080D01*
X196066D01*
Y458043D01*
X196084D01*
Y458007D01*
X196102D01*
Y457971D01*
X196121D01*
Y457952D01*
X196139D01*
Y457916D01*
X196157D01*
Y457879D01*
X196175D01*
Y457861D01*
X196193D01*
Y457825D01*
X196212D01*
Y457788D01*
X196230D01*
Y457752D01*
X196248D01*
Y457734D01*
X196266D01*
Y457697D01*
X196284D01*
Y457661D01*
X196303D01*
Y457643D01*
X196321D01*
Y457624D01*
X195592D01*
Y457643D01*
X195574D01*
Y457679D01*
X195556D01*
Y457697D01*
X195538D01*
Y457734D01*
X195519D01*
Y457770D01*
X195501D01*
Y457807D01*
X195483D01*
Y457825D01*
X195465D01*
Y457861D01*
X195447D01*
Y457898D01*
X195428D01*
Y457916D01*
X195410D01*
Y457952D01*
X195392D01*
Y457989D01*
X195374D01*
Y458025D01*
X195355D01*
Y458043D01*
X195337D01*
Y458080D01*
X195319D01*
Y458116D01*
X195301D01*
Y458153D01*
X195283D01*
Y458171D01*
X194572D01*
Y458153D01*
X194590D01*
Y458116D01*
X194609D01*
Y458080D01*
X194627D01*
Y458062D01*
X194645D01*
Y458025D01*
X194663D01*
Y457989D01*
X194682D01*
Y457952D01*
X194700D01*
Y457934D01*
X194718D01*
Y457898D01*
X194736D01*
Y457861D01*
X194754D01*
Y457825D01*
X194773D01*
Y457807D01*
X194791D01*
Y457770D01*
X194809D01*
Y457734D01*
X194827D01*
Y457716D01*
X194845D01*
Y457679D01*
X194864D01*
Y457643D01*
X194882D01*
Y457624D01*
X194153D01*
Y457661D01*
X194135D01*
Y457679D01*
X194117D01*
Y457716D01*
X194099D01*
Y457752D01*
X194080D01*
Y457770D01*
X194062D01*
Y457807D01*
X194044D01*
Y457843D01*
X194026D01*
Y457879D01*
X194008D01*
Y457898D01*
X193989D01*
Y457934D01*
X193971D01*
Y457971D01*
X193953D01*
Y457989D01*
X193935D01*
Y458025D01*
X193916D01*
Y458062D01*
X193898D01*
Y458098D01*
X193880D01*
Y458116D01*
X193862D01*
Y458153D01*
X193844D01*
Y458171D01*
X193151D01*
Y458135D01*
X193170D01*
Y458098D01*
X193188D01*
Y458062D01*
X193206D01*
Y458043D01*
X193224D01*
Y458007D01*
X193243D01*
Y457971D01*
X193261D01*
Y457934D01*
X193279D01*
Y457916D01*
X193297D01*
Y457879D01*
X193315D01*
Y457843D01*
X193334D01*
Y457807D01*
X193352D01*
Y457788D01*
X193370D01*
Y457752D01*
X193388D01*
Y457716D01*
X193406D01*
Y457697D01*
X193425D01*
Y457661D01*
X193443D01*
Y457624D01*
X192714D01*
Y457661D01*
X192696D01*
Y457697D01*
X192678D01*
Y457734D01*
X192660D01*
Y457752D01*
X192641D01*
Y457788D01*
X192623D01*
Y457825D01*
X192605D01*
Y457861D01*
X192587D01*
Y457879D01*
X192569D01*
Y457916D01*
X192550D01*
Y457952D01*
X192532D01*
Y457971D01*
X192514D01*
Y458007D01*
X192496D01*
Y458043D01*
X192478D01*
Y458080D01*
X192459D01*
Y458098D01*
X192441D01*
Y458135D01*
X192423D01*
Y458171D01*
X191712D01*
Y458135D01*
X191731D01*
Y458098D01*
X191749D01*
Y458080D01*
X191767D01*
Y458043D01*
X191785D01*
Y458007D01*
X191804D01*
Y457989D01*
X191822D01*
Y457952D01*
X191840D01*
Y457916D01*
X191858D01*
Y457879D01*
X191876D01*
Y457861D01*
X191895D01*
Y457825D01*
X191913D01*
Y457788D01*
X191931D01*
Y457752D01*
X191949D01*
Y457734D01*
X191967D01*
Y457697D01*
X191986D01*
Y457661D01*
X192004D01*
Y457643D01*
X192022D01*
Y457624D01*
X191294D01*
Y457643D01*
X191275D01*
Y457679D01*
X191257D01*
Y457716D01*
X191239D01*
Y457734D01*
X191221D01*
Y457770D01*
X191202D01*
Y457788D01*
Y457807D01*
X191184D01*
Y457825D01*
X191166D01*
Y457861D01*
X191148D01*
Y457898D01*
X191130D01*
Y457916D01*
X191111D01*
Y457952D01*
X191093D01*
Y457989D01*
X191075D01*
Y458025D01*
X191057D01*
Y458043D01*
X191039D01*
Y458080D01*
X191020D01*
Y458116D01*
X191002D01*
Y458153D01*
X190984D01*
Y458171D01*
X190273D01*
Y458153D01*
X190292D01*
Y458116D01*
X190310D01*
Y458080D01*
X190328D01*
Y458062D01*
X190346D01*
Y458025D01*
X190365D01*
Y457989D01*
X190383D01*
Y457952D01*
X190401D01*
Y457934D01*
X190419D01*
Y457898D01*
X190437D01*
Y457861D01*
X190456D01*
Y457825D01*
X190474D01*
Y457807D01*
X190492D01*
Y457770D01*
X190510D01*
Y457734D01*
X190529D01*
Y457716D01*
X190547D01*
Y457679D01*
X190565D01*
Y457643D01*
X190583D01*
Y457624D01*
X189855D01*
Y457643D01*
X189836D01*
Y457679D01*
X189818D01*
Y457716D01*
X189800D01*
Y457752D01*
X189782D01*
Y457770D01*
X189763D01*
Y457807D01*
X189745D01*
Y457843D01*
X189727D01*
Y457879D01*
X189709D01*
Y457898D01*
X189691D01*
Y457934D01*
X189672D01*
Y457971D01*
X189654D01*
Y457989D01*
X189636D01*
Y458025D01*
X189618D01*
Y458062D01*
X189600D01*
Y458098D01*
X189581D01*
Y458116D01*
X189563D01*
Y458153D01*
X189545D01*
Y458171D01*
X188853D01*
Y458135D01*
X188871D01*
Y458098D01*
X188889D01*
Y458062D01*
X188907D01*
Y458043D01*
X188926D01*
Y458007D01*
X188944D01*
Y457971D01*
X188962D01*
Y457934D01*
X188980D01*
Y457916D01*
X188998D01*
Y457879D01*
X189017D01*
Y457843D01*
X189035D01*
Y457807D01*
X189053D01*
Y457788D01*
X189071D01*
Y457752D01*
X189090D01*
Y457716D01*
X189108D01*
Y457697D01*
X189126D01*
Y457661D01*
X189144D01*
Y457624D01*
X188416D01*
Y457661D01*
X188397D01*
Y457697D01*
X188379D01*
Y457734D01*
X188361D01*
Y457752D01*
X188343D01*
Y457788D01*
X188324D01*
Y457825D01*
X188306D01*
Y457861D01*
X188288D01*
Y457879D01*
X188270D01*
Y457916D01*
X188252D01*
Y457952D01*
X188233D01*
Y457989D01*
X188215D01*
Y458007D01*
X188197D01*
Y458043D01*
X188179D01*
Y458080D01*
X188161D01*
Y458098D01*
X188142D01*
Y458135D01*
X188124D01*
Y458171D01*
X187396D01*
Y458189D01*
X187377D01*
Y458226D01*
X187359D01*
Y458244D01*
X187341D01*
Y458280D01*
X187323D01*
Y458317D01*
X187304D01*
Y458353D01*
X187286D01*
Y458371D01*
X187268D01*
Y458408D01*
X187250D01*
Y458444D01*
X187232D01*
Y458481D01*
X187213D01*
Y458499D01*
X187195D01*
Y458535D01*
X187177D01*
Y458572D01*
X187159D01*
Y458608D01*
X187141D01*
Y458626D01*
X187122D01*
Y458663D01*
X187104D01*
Y458699D01*
X187086D01*
Y458717D01*
X187814D01*
Y458681D01*
X187833D01*
Y458663D01*
X187851D01*
Y458626D01*
X187869D01*
Y458590D01*
X187887D01*
Y458553D01*
X187906D01*
Y458535D01*
X187924D01*
Y458499D01*
X187942D01*
Y458462D01*
X187960D01*
Y458444D01*
X187978D01*
Y458408D01*
X187997D01*
Y458371D01*
X188015D01*
Y458335D01*
X188033D01*
Y458298D01*
X188051D01*
Y458280D01*
X188069D01*
Y458244D01*
X188088D01*
Y458207D01*
X188106D01*
Y458189D01*
X188124D01*
Y458171D01*
X188816D01*
Y458207D01*
X188798D01*
Y458244D01*
X188780D01*
Y458262D01*
X188762D01*
Y458298D01*
X188743D01*
Y458335D01*
X188725D01*
Y458371D01*
X188707D01*
Y458408D01*
X188689D01*
Y458426D01*
X188671D01*
Y458462D01*
X188652D01*
Y458499D01*
X188634D01*
Y458517D01*
X188616D01*
Y458553D01*
X188598D01*
Y458590D01*
X188579D01*
Y458626D01*
X188561D01*
Y458644D01*
X188543D01*
Y458681D01*
X188525D01*
Y458717D01*
X189235D01*
Y458699D01*
X189253D01*
Y458681D01*
X189272D01*
Y458644D01*
X189290D01*
Y458608D01*
X189308D01*
Y458572D01*
X189326D01*
Y458553D01*
X189345D01*
Y458517D01*
X189363D01*
Y458481D01*
X189381D01*
Y458462D01*
X189399D01*
Y458426D01*
X189417D01*
Y458390D01*
X189436D01*
Y458353D01*
X189454D01*
Y458335D01*
X189472D01*
Y458298D01*
X189490D01*
Y458262D01*
X189508D01*
Y458226D01*
X189527D01*
Y458207D01*
X189545D01*
Y458171D01*
X190255D01*
Y458189D01*
X190237D01*
Y458226D01*
X190219D01*
Y458262D01*
X190201D01*
Y458298D01*
X190182D01*
Y458317D01*
X190164D01*
Y458353D01*
X190146D01*
Y458390D01*
X190128D01*
Y458426D01*
X190110D01*
Y458444D01*
X190091D01*
Y458481D01*
X190073D01*
Y458517D01*
X190055D01*
Y458535D01*
X190037D01*
Y458572D01*
X190018D01*
Y458608D01*
X190000D01*
Y458644D01*
X189982D01*
Y458663D01*
X189964D01*
Y458699D01*
X189946D01*
Y458717D01*
X190674D01*
Y458699D01*
X190692D01*
Y458663D01*
X190711D01*
Y458626D01*
X190729D01*
Y458590D01*
X190747D01*
Y458572D01*
X190765D01*
Y458535D01*
X190784D01*
Y458499D01*
X190802D01*
Y458481D01*
X190820D01*
Y458444D01*
X190838D01*
Y458408D01*
X190856D01*
Y458371D01*
X190875D01*
Y458353D01*
X190893D01*
Y458317D01*
X190911D01*
Y458280D01*
X190929D01*
Y458244D01*
X190947D01*
Y458226D01*
X190966D01*
Y458189D01*
X190984D01*
Y458171D01*
X191694D01*
Y458189D01*
X191676D01*
Y458226D01*
X191658D01*
Y458244D01*
X191640D01*
Y458280D01*
X191621D01*
Y458317D01*
X191603D01*
Y458353D01*
X191585D01*
Y458371D01*
X191567D01*
Y458408D01*
X191549D01*
Y458444D01*
X191530D01*
Y458481D01*
X191512D01*
Y458499D01*
X191494D01*
Y458535D01*
X191476D01*
Y458572D01*
X191457D01*
Y458590D01*
X191439D01*
Y458626D01*
X191421D01*
Y458663D01*
X191403D01*
Y458699D01*
X191385D01*
Y458717D01*
X192113D01*
Y458681D01*
X192131D01*
Y458663D01*
X192150D01*
Y458626D01*
X192168D01*
Y458590D01*
X192186D01*
Y458553D01*
X192204D01*
Y458535D01*
X192222D01*
Y458499D01*
X192241D01*
Y458462D01*
X192259D01*
Y458444D01*
X192277D01*
Y458408D01*
X192295D01*
Y458371D01*
X192314D01*
Y458335D01*
X192332D01*
Y458317D01*
X192350D01*
Y458280D01*
X192368D01*
Y458244D01*
X192386D01*
Y458207D01*
X192405D01*
Y458189D01*
X192423D01*
Y458171D01*
X193115D01*
Y458207D01*
X193097D01*
Y458244D01*
X193079D01*
Y458262D01*
X193060D01*
Y458298D01*
X193042D01*
Y458335D01*
X193024D01*
Y458371D01*
X193006D01*
Y458390D01*
X192988D01*
Y458426D01*
X192969D01*
Y458462D01*
X192951D01*
Y458499D01*
X192933D01*
Y458535D01*
X192915D01*
Y458553D01*
X192896D01*
Y458590D01*
X192878D01*
Y458626D01*
X192860D01*
Y458644D01*
X192842D01*
Y458681D01*
X192824D01*
Y458717D01*
X193534D01*
Y458699D01*
X193552D01*
Y458681D01*
X193570D01*
Y458644D01*
X193589D01*
Y458608D01*
X193607D01*
Y458572D01*
X193625D01*
Y458553D01*
X193643D01*
Y458517D01*
X193661D01*
Y458481D01*
X193680D01*
Y458462D01*
X193698D01*
Y458426D01*
X193716D01*
Y458390D01*
X193734D01*
Y458353D01*
X193753D01*
Y458335D01*
X193771D01*
Y458298D01*
X193789D01*
Y458262D01*
X193807D01*
Y458226D01*
X193825D01*
Y458207D01*
X193844D01*
Y458171D01*
X194554D01*
Y458189D01*
X194536D01*
Y458226D01*
X194518D01*
Y458262D01*
X194499D01*
Y458298D01*
X194481D01*
Y458317D01*
X194463D01*
Y458353D01*
X194445D01*
Y458390D01*
X194427D01*
Y458426D01*
X194408D01*
Y458444D01*
X194390D01*
Y458481D01*
X194372D01*
Y458517D01*
X194354D01*
Y458535D01*
X194335D01*
Y458572D01*
X194317D01*
Y458608D01*
X194299D01*
Y458644D01*
X194281D01*
Y458663D01*
X194263D01*
Y458699D01*
X194244D01*
Y458717D01*
X194973D01*
Y458699D01*
X194991D01*
Y458663D01*
X195009D01*
Y458626D01*
X195028D01*
Y458590D01*
X195046D01*
Y458572D01*
X195064D01*
Y458535D01*
X195082D01*
Y458499D01*
X195100D01*
Y458481D01*
X195119D01*
Y458444D01*
X195137D01*
Y458408D01*
X195155D01*
Y458371D01*
X195173D01*
Y458353D01*
X195192D01*
Y458317D01*
X195210D01*
Y458280D01*
X195228D01*
Y458262D01*
X195246D01*
Y458226D01*
X195264D01*
Y458189D01*
X195283D01*
Y458171D01*
X195993D01*
Y458189D01*
X195975D01*
Y458226D01*
X195957D01*
Y458244D01*
X195938D01*
Y458280D01*
X195920D01*
Y458317D01*
X195902D01*
Y458335D01*
X195884D01*
Y458371D01*
X195865D01*
Y458408D01*
X195847D01*
Y458444D01*
X195829D01*
Y458462D01*
X195811D01*
Y458499D01*
X195793D01*
Y458535D01*
X195774D01*
Y458572D01*
X195756D01*
Y458590D01*
X195738D01*
Y458626D01*
X195720D01*
Y458663D01*
X195702D01*
Y458699D01*
X195683D01*
Y458717D01*
X196412D01*
Y458681D01*
D02*
G37*
G36*
X177159Y458717D02*
X186831D01*
Y458699D01*
X186849D01*
Y458663D01*
X186867D01*
Y458626D01*
X186886D01*
Y458608D01*
X186904D01*
Y458572D01*
X186922D01*
Y458535D01*
X186940D01*
Y458499D01*
X186958D01*
Y458481D01*
X186977D01*
Y458444D01*
X186995D01*
Y458408D01*
X187013D01*
Y458390D01*
X187031D01*
Y458353D01*
X187049D01*
Y458317D01*
X187068D01*
Y458280D01*
X187086D01*
Y458262D01*
X187104D01*
Y458226D01*
X187122D01*
Y458189D01*
X187141D01*
Y458171D01*
X187159D01*
Y458135D01*
X187177D01*
Y458098D01*
X187195D01*
Y458062D01*
X187213D01*
Y458043D01*
X187232D01*
Y458007D01*
X187250D01*
Y457971D01*
X187268D01*
Y457952D01*
X187286D01*
Y457916D01*
X187304D01*
Y457879D01*
X187323D01*
Y457843D01*
X187341D01*
Y457825D01*
X187359D01*
Y457788D01*
X187377D01*
Y457752D01*
X187396D01*
Y457734D01*
X187414D01*
Y457697D01*
X187432D01*
Y457661D01*
X187450D01*
Y457624D01*
X175192D01*
Y457643D01*
X175173D01*
Y457679D01*
X175155D01*
Y457716D01*
X175137D01*
Y457734D01*
X175119D01*
Y457770D01*
X175101D01*
Y457807D01*
X175082D01*
Y457843D01*
X175064D01*
Y457861D01*
X175046D01*
Y457898D01*
X175028D01*
Y457934D01*
X175010D01*
Y457952D01*
X174991D01*
Y457989D01*
X174973D01*
Y458025D01*
X174955D01*
Y458062D01*
X174937D01*
Y458080D01*
X174918D01*
Y458116D01*
X174900D01*
Y458153D01*
X174882D01*
Y458189D01*
X174864D01*
Y458207D01*
X174846D01*
Y458244D01*
X174827D01*
Y458280D01*
X174809D01*
Y458298D01*
X174791D01*
Y458335D01*
X174773D01*
Y458371D01*
X174755D01*
Y458390D01*
X174736D01*
Y458426D01*
X174718D01*
Y458462D01*
X174700D01*
Y458499D01*
X174682D01*
Y458517D01*
X174663D01*
Y458553D01*
X174645D01*
Y458590D01*
X174627D01*
Y458608D01*
X174609D01*
Y458644D01*
X174591D01*
Y458681D01*
X174572D01*
Y458717D01*
X174591D01*
Y458736D01*
X177159D01*
Y458717D01*
D02*
G37*
G36*
X200674Y457424D02*
X200492D01*
Y457406D01*
X200474D01*
Y457424D01*
X200437D01*
Y457406D01*
X200128D01*
Y457388D01*
X199745D01*
Y457370D01*
X199381D01*
Y457351D01*
X199017D01*
Y457333D01*
X198634D01*
Y457315D01*
X198270D01*
Y457297D01*
X197541D01*
Y457278D01*
X196722D01*
Y457260D01*
X196703D01*
Y457278D01*
X196685D01*
Y457260D01*
X196667D01*
Y457278D01*
X196539D01*
Y457260D01*
X195938D01*
Y457242D01*
X195119D01*
Y457224D01*
X195064D01*
Y457242D01*
X195046D01*
Y457224D01*
X195009D01*
Y457242D01*
X194991D01*
Y457224D01*
X194973D01*
Y457242D01*
X194955D01*
Y457224D01*
X194317D01*
Y457205D01*
X193516D01*
Y457187D01*
X192714D01*
Y457169D01*
X191913D01*
Y457151D01*
X191785D01*
Y457169D01*
X191749D01*
Y457151D01*
X191111D01*
Y457133D01*
X190182D01*
Y457115D01*
X190164D01*
Y457133D01*
X190128D01*
Y457115D01*
X189508D01*
Y457096D01*
X188707D01*
Y457078D01*
X188652D01*
Y457096D01*
X188634D01*
Y457078D01*
X188598D01*
Y457096D01*
X188579D01*
Y457078D01*
X188561D01*
Y457096D01*
X188543D01*
Y457078D01*
X187906D01*
Y457060D01*
X187104D01*
Y457042D01*
X186303D01*
Y457023D01*
X185501D01*
Y457005D01*
X185392D01*
Y457023D01*
X185374D01*
Y457005D01*
X184827D01*
Y456987D01*
X184044D01*
Y456969D01*
X184026D01*
Y456987D01*
X184008D01*
Y456969D01*
X183479D01*
Y456951D01*
X182805D01*
Y456932D01*
X182132D01*
Y456914D01*
X182077D01*
Y456932D01*
X182059D01*
Y456914D01*
X182004D01*
Y456932D01*
X181986D01*
Y456914D01*
X181457D01*
Y456896D01*
X180784D01*
Y456878D01*
X180110D01*
Y456859D01*
X179454D01*
Y456841D01*
X178780D01*
Y456823D01*
X178744D01*
Y456841D01*
X178707D01*
Y456859D01*
X178671D01*
Y456878D01*
X178634D01*
Y456896D01*
X178598D01*
Y456914D01*
X178580D01*
Y456932D01*
X178543D01*
Y456951D01*
X178507D01*
Y456969D01*
X178470D01*
Y456987D01*
X178434D01*
Y457005D01*
X178398D01*
Y457023D01*
X178361D01*
Y457042D01*
X178325D01*
Y457060D01*
X178288D01*
Y457078D01*
X178252D01*
Y457096D01*
X178215D01*
Y457115D01*
X178197D01*
Y457133D01*
X178142D01*
Y457151D01*
X178124D01*
Y457169D01*
X178088D01*
Y457187D01*
X178051D01*
Y457205D01*
X178015D01*
Y457224D01*
X177979D01*
Y457242D01*
X177942D01*
Y457260D01*
X177906D01*
Y457278D01*
X177869D01*
Y457297D01*
X177833D01*
Y457315D01*
X177796D01*
Y457333D01*
X177760D01*
Y457351D01*
X177724D01*
Y457370D01*
X177687D01*
Y457388D01*
X177651D01*
Y457406D01*
X177632D01*
Y457424D01*
X177614D01*
Y457442D01*
X177742D01*
Y457424D01*
X177760D01*
Y457442D01*
X198689D01*
Y457424D01*
X198725D01*
Y457442D01*
X198798D01*
Y457424D01*
X198816D01*
Y457442D01*
X198835D01*
Y457424D01*
X198853D01*
Y457442D01*
X198907D01*
Y457424D01*
X198926D01*
Y457442D01*
X199199D01*
Y457424D01*
X199217D01*
Y457442D01*
X199290D01*
Y457424D01*
X199308D01*
Y457442D01*
X199509D01*
Y457424D01*
X199527D01*
Y457442D01*
X199545D01*
Y457424D01*
X199563D01*
Y457442D01*
X199764D01*
Y457424D01*
X199782D01*
Y457442D01*
X200091D01*
Y457424D01*
X200110D01*
Y457442D01*
X200674D01*
Y457424D01*
D02*
G37*
G36*
X177177D02*
X177232D01*
Y457406D01*
X177250D01*
Y457388D01*
X177286D01*
Y457370D01*
X177323D01*
Y457351D01*
X177359D01*
Y457333D01*
X177396D01*
Y457315D01*
X177432D01*
Y457297D01*
X177469D01*
Y457278D01*
X177505D01*
Y457260D01*
X177541D01*
Y457242D01*
X177578D01*
Y457224D01*
X177614D01*
Y457205D01*
X177651D01*
Y457187D01*
X177687D01*
Y457169D01*
X177705D01*
Y457151D01*
X177742D01*
Y457133D01*
X177778D01*
Y457115D01*
X177815D01*
Y457096D01*
X177851D01*
Y457078D01*
X177887D01*
Y457060D01*
X177924D01*
Y457042D01*
X177960D01*
Y457023D01*
X177997D01*
Y457005D01*
X178033D01*
Y456987D01*
X178070D01*
Y456969D01*
X178106D01*
Y456951D01*
X178142D01*
Y456932D01*
X178161D01*
Y456914D01*
X178197D01*
Y456896D01*
X178234D01*
Y456878D01*
X178270D01*
Y456859D01*
X178306D01*
Y456841D01*
X178325D01*
Y456823D01*
X178288D01*
Y456841D01*
X178234D01*
Y456823D01*
X178215D01*
Y456841D01*
X178142D01*
Y456823D01*
X178124D01*
Y456841D01*
X178070D01*
Y456823D01*
X178051D01*
Y456841D01*
X177578D01*
Y456859D01*
X177541D01*
Y456878D01*
X177505D01*
Y456896D01*
X177487D01*
Y456914D01*
X177450D01*
Y456932D01*
X177414D01*
Y456951D01*
X177377D01*
Y456969D01*
X177341D01*
Y456987D01*
X177305D01*
Y457005D01*
X177268D01*
Y457023D01*
X177232D01*
Y457042D01*
X177195D01*
Y457060D01*
X177159D01*
Y457078D01*
X177122D01*
Y457096D01*
X177086D01*
Y457115D01*
X177050D01*
Y457133D01*
X177013D01*
Y457151D01*
X176977D01*
Y457169D01*
X176940D01*
Y457187D01*
X176904D01*
Y457205D01*
X176867D01*
Y457224D01*
X176831D01*
Y457242D01*
X176795D01*
Y457260D01*
X176776D01*
Y457278D01*
X176740D01*
Y457297D01*
X176704D01*
Y457315D01*
X176667D01*
Y457333D01*
X176631D01*
Y457351D01*
X176594D01*
Y457370D01*
X176558D01*
Y457388D01*
X176521D01*
Y457406D01*
X176485D01*
Y457424D01*
X176467D01*
Y457442D01*
X176576D01*
Y457424D01*
X176594D01*
Y457442D01*
X177177D01*
Y457424D01*
D02*
G37*
G36*
X176030D02*
X176084D01*
Y457406D01*
X176102D01*
Y457388D01*
X176157D01*
Y457370D01*
X176193D01*
Y457351D01*
X176212D01*
Y457333D01*
X176248D01*
Y457315D01*
X176285D01*
Y457297D01*
X176321D01*
Y457278D01*
X176357D01*
Y457260D01*
X176394D01*
Y457242D01*
X176430D01*
Y457224D01*
X176467D01*
Y457205D01*
X176503D01*
Y457187D01*
X176540D01*
Y457169D01*
X176576D01*
Y457151D01*
X176612D01*
Y457133D01*
X176649D01*
Y457115D01*
X176667D01*
Y457096D01*
X176704D01*
Y457078D01*
X176740D01*
Y457060D01*
X176776D01*
Y457042D01*
X176813D01*
Y457023D01*
X176849D01*
Y457005D01*
X176886D01*
Y456987D01*
X176922D01*
Y456969D01*
X176959D01*
Y456951D01*
X176995D01*
Y456932D01*
X177031D01*
Y456914D01*
X177068D01*
Y456896D01*
X177104D01*
Y456878D01*
X177122D01*
Y456859D01*
X177159D01*
Y456841D01*
X177177D01*
Y456823D01*
X177086D01*
Y456841D01*
X177050D01*
Y456823D01*
X177031D01*
Y456841D01*
X177013D01*
Y456823D01*
X176995D01*
Y456841D01*
X176977D01*
Y456823D01*
X176904D01*
Y456841D01*
X176449D01*
Y456859D01*
X176412D01*
Y456878D01*
X176376D01*
Y456896D01*
X176339D01*
Y456914D01*
X176303D01*
Y456932D01*
X176266D01*
Y456951D01*
X176230D01*
Y456969D01*
X176193D01*
Y456987D01*
X176157D01*
Y457005D01*
X176121D01*
Y457023D01*
X176084D01*
Y457042D01*
X176048D01*
Y457060D01*
X176011D01*
Y457078D01*
X175975D01*
Y457096D01*
X175938D01*
Y457115D01*
X175902D01*
Y457133D01*
X175866D01*
Y457151D01*
X175829D01*
Y457169D01*
X175793D01*
Y457187D01*
X175775D01*
Y457205D01*
X175738D01*
Y457224D01*
X175702D01*
Y457242D01*
X175665D01*
Y457260D01*
X175629D01*
Y457278D01*
X175592D01*
Y457297D01*
X175556D01*
Y457315D01*
X175520D01*
Y457333D01*
X175483D01*
Y457351D01*
X175447D01*
Y457370D01*
X175410D01*
Y457388D01*
X175374D01*
Y457406D01*
X175337D01*
Y457424D01*
X175319D01*
Y457442D01*
X175392D01*
Y457424D01*
X175410D01*
Y457442D01*
X175501D01*
Y457424D01*
X175520D01*
Y457442D01*
X175975D01*
Y457424D01*
X175993D01*
Y457442D01*
X176030D01*
Y457424D01*
D02*
G37*
%LPC*%
G36*
X185155Y460411D02*
X184445D01*
Y460393D01*
X184427D01*
Y460375D01*
X184408D01*
Y460357D01*
X184427D01*
Y460320D01*
X184445D01*
Y460284D01*
X184463D01*
Y460247D01*
X184481D01*
Y460229D01*
X184499D01*
Y460193D01*
X184518D01*
Y460175D01*
X184536D01*
Y460156D01*
X184554D01*
Y460138D01*
X184609D01*
Y460120D01*
X185319D01*
Y460138D01*
X185301D01*
Y460156D01*
X185283D01*
Y460193D01*
X185265D01*
Y460229D01*
X185246D01*
Y460247D01*
X185228D01*
Y460284D01*
X185210D01*
Y460320D01*
X185192D01*
Y460357D01*
X185173D01*
Y460375D01*
X185155D01*
Y460411D01*
D02*
G37*
G36*
X182514Y460320D02*
X182496D01*
Y460247D01*
X182514D01*
Y460175D01*
X182532D01*
Y460102D01*
X182550D01*
Y460029D01*
X182569D01*
Y459938D01*
X182587D01*
Y459865D01*
X182605D01*
Y459810D01*
X182969D01*
Y459829D01*
X182951D01*
Y459847D01*
X182933D01*
Y459865D01*
X182915D01*
Y459883D01*
X182896D01*
Y459920D01*
X182878D01*
Y459938D01*
X182860D01*
Y459956D01*
X182842D01*
Y459974D01*
X182824D01*
Y459992D01*
X182805D01*
Y460011D01*
X182787D01*
Y460029D01*
X182769D01*
Y460047D01*
X182751D01*
Y460065D01*
X182733D01*
Y460083D01*
X182714D01*
Y460102D01*
X182696D01*
Y460120D01*
X182678D01*
Y460138D01*
X182660D01*
Y460156D01*
X182641D01*
Y460175D01*
X182623D01*
Y460193D01*
X182605D01*
Y460229D01*
X182587D01*
Y460247D01*
X182569D01*
Y460266D01*
X182550D01*
Y460284D01*
X182532D01*
Y460302D01*
X182514D01*
Y460320D01*
D02*
G37*
G36*
X196904Y460648D02*
X196886D01*
Y460630D01*
X196867D01*
Y460594D01*
X196886D01*
Y460557D01*
X196904D01*
Y460539D01*
X196922D01*
Y460502D01*
X196940D01*
Y460466D01*
X196958D01*
Y460448D01*
X196977D01*
Y460411D01*
X196995D01*
Y460375D01*
X197013D01*
Y460357D01*
X197031D01*
Y460320D01*
X198015D01*
Y460302D01*
X198070D01*
Y460284D01*
X198106D01*
Y460266D01*
X198124D01*
Y460247D01*
X198142D01*
Y460211D01*
X198161D01*
Y460175D01*
X198179D01*
Y460138D01*
X198197D01*
Y460120D01*
X198215D01*
Y460083D01*
X198233D01*
Y460047D01*
X198252D01*
Y460029D01*
X198270D01*
Y459992D01*
X198288D01*
Y459956D01*
X198306D01*
Y459938D01*
X198325D01*
Y459901D01*
X198343D01*
Y459865D01*
X198361D01*
Y459847D01*
X198379D01*
Y459810D01*
X198397D01*
Y459774D01*
X198416D01*
Y459701D01*
X198343D01*
Y459683D01*
X197432D01*
Y459646D01*
X197450D01*
Y459610D01*
X197468D01*
Y459574D01*
X197487D01*
Y459555D01*
X197505D01*
Y459519D01*
X197523D01*
Y459482D01*
X197541D01*
Y459464D01*
X197559D01*
Y459428D01*
X197578D01*
Y459391D01*
X197596D01*
Y459373D01*
X198871D01*
Y459391D01*
X198962D01*
Y459410D01*
X198998D01*
Y459428D01*
X199035D01*
Y459464D01*
X199053D01*
Y459555D01*
X199035D01*
Y459592D01*
X199017D01*
Y459628D01*
X198998D01*
Y459664D01*
X198980D01*
Y459701D01*
X198962D01*
Y459719D01*
X198944D01*
Y459756D01*
X198926D01*
Y459792D01*
X198907D01*
Y459810D01*
X198889D01*
Y459847D01*
X198871D01*
Y459883D01*
X198853D01*
Y459920D01*
X198835D01*
Y459938D01*
X198816D01*
Y459974D01*
X198798D01*
Y460011D01*
X198780D01*
Y460029D01*
X198762D01*
Y460065D01*
X198743D01*
Y460102D01*
X198725D01*
Y460120D01*
X198707D01*
Y460156D01*
X198689D01*
Y460193D01*
X198671D01*
Y460211D01*
X198652D01*
Y460247D01*
X198634D01*
Y460284D01*
X198616D01*
Y460320D01*
X198598D01*
Y460338D01*
X198580D01*
Y460375D01*
X198561D01*
Y460393D01*
X198543D01*
Y460430D01*
X198525D01*
Y460448D01*
X198507D01*
Y460466D01*
X198488D01*
Y460484D01*
X198470D01*
Y460502D01*
X198452D01*
Y460521D01*
X198416D01*
Y460539D01*
X198397D01*
Y460557D01*
X198361D01*
Y460575D01*
X198325D01*
Y460594D01*
X198270D01*
Y460612D01*
X198179D01*
Y460630D01*
X196904D01*
Y460648D01*
D02*
G37*
G36*
X196212Y460630D02*
X195556D01*
Y460502D01*
X195574D01*
Y460393D01*
X195592D01*
Y460284D01*
X195610D01*
Y460156D01*
X195629D01*
Y460047D01*
X195647D01*
Y459920D01*
X195665D01*
Y459810D01*
X195683D01*
Y459683D01*
X195702D01*
Y459574D01*
X195720D01*
Y459464D01*
X195738D01*
Y459373D01*
X196284D01*
Y459428D01*
X196266D01*
Y459501D01*
X196248D01*
Y459555D01*
X196776D01*
Y459537D01*
X196794D01*
Y459519D01*
X196813D01*
Y459501D01*
X196831D01*
Y459482D01*
X196849D01*
Y459464D01*
X196867D01*
Y459428D01*
X196886D01*
Y459410D01*
X196904D01*
Y459391D01*
X196922D01*
Y459373D01*
X197487D01*
Y459391D01*
X197468D01*
Y459410D01*
X197450D01*
Y459428D01*
X197432D01*
Y459446D01*
X197414D01*
Y459464D01*
X197396D01*
Y459482D01*
X197377D01*
Y459501D01*
X197359D01*
Y459519D01*
X197341D01*
Y459537D01*
X197323D01*
Y459555D01*
X197304D01*
Y459574D01*
X197286D01*
Y459592D01*
X197268D01*
Y459610D01*
X197250D01*
Y459628D01*
X197232D01*
Y459646D01*
X197213D01*
Y459664D01*
X197195D01*
Y459683D01*
X197177D01*
Y459701D01*
X197159D01*
Y459719D01*
X197141D01*
Y459737D01*
X197122D01*
Y459756D01*
X197104D01*
Y459774D01*
X197086D01*
Y459792D01*
X197049D01*
Y459810D01*
X197031D01*
Y459829D01*
X197013D01*
Y459847D01*
X196995D01*
Y459865D01*
X196977D01*
Y459883D01*
X196958D01*
Y459901D01*
X196940D01*
Y459920D01*
X196922D01*
Y459938D01*
X196904D01*
Y459956D01*
X196886D01*
Y459974D01*
X196867D01*
Y459992D01*
X196849D01*
Y460011D01*
X196831D01*
Y460029D01*
X196813D01*
Y460047D01*
X196794D01*
Y460065D01*
X196776D01*
Y460083D01*
X196758D01*
Y460102D01*
X196740D01*
Y460120D01*
X196722D01*
Y460138D01*
X196703D01*
Y460156D01*
X196685D01*
Y460175D01*
X196667D01*
Y460193D01*
X196649D01*
Y460211D01*
X196631D01*
Y460229D01*
X196612D01*
Y460247D01*
X196594D01*
Y460266D01*
X196576D01*
Y460284D01*
X196558D01*
Y460302D01*
X196539D01*
Y460320D01*
X196521D01*
Y460338D01*
X196503D01*
Y460357D01*
X196485D01*
Y460375D01*
X196467D01*
Y460393D01*
X196448D01*
Y460411D01*
X196430D01*
Y460430D01*
X196412D01*
Y460448D01*
X196394D01*
Y460466D01*
X196376D01*
Y460484D01*
X196357D01*
Y460502D01*
X196339D01*
Y460521D01*
X196303D01*
Y460539D01*
X196284D01*
Y460557D01*
X196266D01*
Y460575D01*
X196248D01*
Y460594D01*
X196230D01*
Y460612D01*
X196212D01*
Y460630D01*
D02*
G37*
G36*
X194882D02*
X194372D01*
Y460594D01*
X194390D01*
Y460557D01*
X194408D01*
Y460539D01*
X194427D01*
Y460502D01*
X194445D01*
Y460466D01*
X194463D01*
Y460430D01*
X194481D01*
Y460411D01*
X194499D01*
Y460375D01*
X194518D01*
Y460357D01*
X194536D01*
Y460320D01*
X194554D01*
Y460284D01*
X194572D01*
Y460247D01*
X194590D01*
Y460229D01*
X194609D01*
Y460193D01*
X194627D01*
Y460156D01*
X194645D01*
Y460138D01*
X194663D01*
Y460102D01*
X194682D01*
Y460065D01*
X194700D01*
Y460047D01*
X194718D01*
Y460011D01*
X194736D01*
Y459974D01*
X194754D01*
Y459956D01*
X194773D01*
Y459920D01*
X194791D01*
Y459883D01*
X194809D01*
Y459847D01*
X194827D01*
Y459829D01*
X194845D01*
Y459792D01*
X194864D01*
Y459756D01*
X194882D01*
Y459737D01*
X194900D01*
Y459701D01*
X194918D01*
Y459683D01*
X194226D01*
Y459646D01*
X194244D01*
Y459610D01*
X194263D01*
Y459592D01*
X194281D01*
Y459555D01*
X194299D01*
Y459519D01*
X194317D01*
Y459501D01*
X194335D01*
Y459464D01*
X194354D01*
Y459428D01*
X194372D01*
Y459410D01*
X194390D01*
Y459373D01*
X195610D01*
Y459391D01*
X195592D01*
Y459428D01*
X195574D01*
Y459464D01*
X195556D01*
Y459482D01*
X195538D01*
Y459519D01*
X195519D01*
Y459555D01*
X195501D01*
Y459592D01*
X195483D01*
Y459610D01*
X195465D01*
Y459646D01*
X195447D01*
Y459683D01*
X195428D01*
Y459701D01*
X195410D01*
Y459737D01*
X195392D01*
Y459774D01*
X195374D01*
Y459792D01*
X195355D01*
Y459829D01*
X195337D01*
Y459865D01*
X195319D01*
Y459883D01*
X195301D01*
Y459920D01*
X195283D01*
Y459956D01*
X195264D01*
Y459992D01*
X195246D01*
Y460011D01*
X195228D01*
Y460047D01*
X195210D01*
Y460083D01*
X195192D01*
Y460102D01*
X195173D01*
Y460138D01*
X195155D01*
Y460175D01*
X195137D01*
Y460193D01*
X195119D01*
Y460229D01*
X195100D01*
Y460266D01*
X195082D01*
Y460284D01*
X195064D01*
Y460320D01*
X195046D01*
Y460357D01*
X195028D01*
Y460393D01*
X195009D01*
Y460411D01*
X194991D01*
Y460448D01*
X194973D01*
Y460484D01*
X194955D01*
Y460502D01*
X194937D01*
Y460539D01*
X194918D01*
Y460575D01*
X194900D01*
Y460594D01*
X194882D01*
Y460630D01*
D02*
G37*
G36*
X192824D02*
X191439D01*
Y460612D01*
X191385D01*
Y460594D01*
X191348D01*
Y460575D01*
X191330D01*
Y460557D01*
X191312D01*
Y460448D01*
X191330D01*
Y460411D01*
X191348D01*
Y460375D01*
X191366D01*
Y460338D01*
X191385D01*
Y460320D01*
X191403D01*
Y460284D01*
X191421D01*
Y460247D01*
X191439D01*
Y460211D01*
X191457D01*
Y460193D01*
X191476D01*
Y460156D01*
X191494D01*
Y460120D01*
X191512D01*
Y460102D01*
X191530D01*
Y460065D01*
X191549D01*
Y460029D01*
X191567D01*
Y460011D01*
X191585D01*
Y459992D01*
X191603D01*
Y459974D01*
X191621D01*
Y459938D01*
X191640D01*
Y459920D01*
X191676D01*
Y459901D01*
X191694D01*
Y459883D01*
X191712D01*
Y459865D01*
X191749D01*
Y459847D01*
X191804D01*
Y459829D01*
X191858D01*
Y459810D01*
X191949D01*
Y459792D01*
X192787D01*
Y459774D01*
X192824D01*
Y459756D01*
X192842D01*
Y459719D01*
X192860D01*
Y459683D01*
X192878D01*
Y459664D01*
X192896D01*
Y459628D01*
X192915D01*
Y459592D01*
X192933D01*
Y459574D01*
X192951D01*
Y459537D01*
X192969D01*
Y459501D01*
X192988D01*
Y459482D01*
X193006D01*
Y459446D01*
X193024D01*
Y459410D01*
X193042D01*
Y459373D01*
X193570D01*
Y459391D01*
X193552D01*
Y459410D01*
X193534D01*
Y459446D01*
X193516D01*
Y459482D01*
X193498D01*
Y459501D01*
X193479D01*
Y459537D01*
X193461D01*
Y459574D01*
X193443D01*
Y459610D01*
X193425D01*
Y459628D01*
X193406D01*
Y459664D01*
X193388D01*
Y459701D01*
X193370D01*
Y459719D01*
X193352D01*
Y459756D01*
X193334D01*
Y459792D01*
X193315D01*
Y459810D01*
X193297D01*
Y459847D01*
X193279D01*
Y459883D01*
X193261D01*
Y459920D01*
X193243D01*
Y459938D01*
X193224D01*
Y459974D01*
X193206D01*
Y460011D01*
X193188D01*
Y460029D01*
X193170D01*
Y460065D01*
X193151D01*
Y460102D01*
X193133D01*
Y460120D01*
X193115D01*
Y460156D01*
X193097D01*
Y460193D01*
X193079D01*
Y460211D01*
X193060D01*
Y460247D01*
X193042D01*
Y460284D01*
X193024D01*
Y460302D01*
X193006D01*
Y460338D01*
X192988D01*
Y460375D01*
X192969D01*
Y460411D01*
X192951D01*
Y460430D01*
X192933D01*
Y460466D01*
X192915D01*
Y460502D01*
X192896D01*
Y460521D01*
X192878D01*
Y460557D01*
X192860D01*
Y460594D01*
X192842D01*
Y460612D01*
X192824D01*
Y460630D01*
D02*
G37*
G36*
X190547Y460648D02*
X190529D01*
Y460630D01*
X189581D01*
Y460612D01*
X189527D01*
Y460594D01*
X189490D01*
Y460575D01*
X189472D01*
Y460557D01*
X189454D01*
Y460430D01*
X189472D01*
Y460393D01*
X189490D01*
Y460357D01*
X189508D01*
Y460320D01*
X189527D01*
Y460302D01*
X189545D01*
Y460266D01*
X189563D01*
Y460229D01*
X189581D01*
Y460211D01*
X189600D01*
Y460175D01*
X189618D01*
Y460138D01*
X189636D01*
Y460102D01*
X189654D01*
Y460083D01*
X189672D01*
Y460047D01*
X189691D01*
Y460011D01*
X189709D01*
Y459992D01*
X189727D01*
Y459956D01*
X189745D01*
Y459920D01*
X189763D01*
Y459901D01*
X189782D01*
Y459865D01*
X189800D01*
Y459829D01*
X189818D01*
Y459792D01*
X189836D01*
Y459774D01*
X189855D01*
Y459737D01*
X189873D01*
Y459701D01*
X189891D01*
Y459683D01*
X189909D01*
Y459646D01*
X189927D01*
Y459628D01*
X189946D01*
Y459592D01*
X189964D01*
Y459574D01*
X189982D01*
Y459555D01*
X190000D01*
Y459537D01*
X190018D01*
Y459519D01*
X190037D01*
Y459501D01*
X190055D01*
Y459482D01*
X190073D01*
Y459464D01*
X190110D01*
Y459446D01*
X190128D01*
Y459428D01*
X190182D01*
Y459410D01*
X190237D01*
Y459391D01*
X190346D01*
Y459373D01*
X191530D01*
Y459391D01*
X191603D01*
Y459410D01*
X191658D01*
Y459428D01*
X191676D01*
Y459446D01*
X191694D01*
Y459555D01*
X191676D01*
Y459592D01*
X191658D01*
Y459628D01*
X191640D01*
Y459664D01*
X191621D01*
Y459701D01*
X191603D01*
Y459719D01*
X191585D01*
Y459756D01*
X191567D01*
Y459792D01*
X191549D01*
Y459829D01*
X191530D01*
Y459847D01*
X191512D01*
Y459883D01*
X191494D01*
Y459920D01*
X191476D01*
Y459938D01*
X191457D01*
Y459974D01*
X191439D01*
Y460011D01*
X191421D01*
Y460029D01*
X191403D01*
Y460065D01*
X191385D01*
Y460102D01*
X191366D01*
Y460120D01*
X191348D01*
Y460156D01*
X191330D01*
Y460193D01*
X191312D01*
Y460229D01*
X191294D01*
Y460247D01*
X191275D01*
Y460284D01*
X191257D01*
Y460320D01*
X191239D01*
Y460338D01*
X191221D01*
Y460375D01*
X191202D01*
Y460393D01*
X191184D01*
Y460430D01*
X191166D01*
Y460448D01*
X191148D01*
Y460466D01*
X191130D01*
Y460484D01*
X191111D01*
Y460502D01*
X191093D01*
Y460521D01*
X191075D01*
Y460539D01*
X191039D01*
Y460557D01*
X191002D01*
Y460575D01*
X190966D01*
Y460594D01*
X190911D01*
Y460612D01*
X190838D01*
Y460630D01*
X190547D01*
Y460648D01*
D02*
G37*
G36*
X189144Y460630D02*
X188634D01*
Y460612D01*
X188652D01*
Y460575D01*
X188671D01*
Y460539D01*
X188689D01*
Y460521D01*
X188707D01*
Y460484D01*
X188725D01*
Y460448D01*
X188743D01*
Y460411D01*
X188762D01*
Y460393D01*
X188780D01*
Y460357D01*
X188798D01*
Y460320D01*
X188816D01*
Y460302D01*
X188835D01*
Y460266D01*
X188853D01*
Y460229D01*
X188871D01*
Y460193D01*
X188889D01*
Y460175D01*
X188907D01*
Y460138D01*
X188926D01*
Y460120D01*
X188944D01*
Y460083D01*
X188962D01*
Y460047D01*
X188980D01*
Y460011D01*
X188998D01*
Y459992D01*
X189017D01*
Y459956D01*
X189035D01*
Y459920D01*
X189053D01*
Y459901D01*
X189071D01*
Y459865D01*
X189090D01*
Y459829D01*
X189108D01*
Y459810D01*
X189126D01*
Y459774D01*
X189144D01*
Y459737D01*
X189162D01*
Y459719D01*
X189181D01*
Y459683D01*
X188488D01*
Y459664D01*
X188507D01*
Y459628D01*
X188525D01*
Y459592D01*
X188543D01*
Y459574D01*
X188561D01*
Y459537D01*
X188579D01*
Y459501D01*
X188598D01*
Y459464D01*
X188616D01*
Y459446D01*
X188634D01*
Y459410D01*
X188652D01*
Y459373D01*
X189873D01*
Y459410D01*
X189855D01*
Y459446D01*
X189836D01*
Y459464D01*
X189818D01*
Y459501D01*
X189800D01*
Y459537D01*
X189782D01*
Y459555D01*
X189763D01*
Y459592D01*
X189745D01*
Y459628D01*
X189727D01*
Y459646D01*
X189709D01*
Y459683D01*
X189691D01*
Y459719D01*
X189672D01*
Y459756D01*
X189654D01*
Y459774D01*
X189636D01*
Y459810D01*
X189618D01*
Y459847D01*
X189600D01*
Y459865D01*
X189581D01*
Y459901D01*
X189563D01*
Y459938D01*
X189545D01*
Y459956D01*
X189527D01*
Y459992D01*
X189508D01*
Y460029D01*
X189490D01*
Y460065D01*
X189472D01*
Y460083D01*
X189454D01*
Y460120D01*
X189436D01*
Y460156D01*
X189417D01*
Y460175D01*
X189399D01*
Y460211D01*
X189381D01*
Y460247D01*
X189363D01*
Y460266D01*
X189345D01*
Y460302D01*
X189326D01*
Y460338D01*
X189308D01*
Y460357D01*
X189290D01*
Y460393D01*
X189272D01*
Y460430D01*
X189253D01*
Y460448D01*
X189235D01*
Y460484D01*
X189217D01*
Y460521D01*
X189199D01*
Y460557D01*
X189181D01*
Y460575D01*
X189162D01*
Y460612D01*
X189144D01*
Y460630D01*
D02*
G37*
G36*
X186576Y460648D02*
X186558D01*
Y460630D01*
X186539D01*
Y460612D01*
X186558D01*
Y460594D01*
X186594D01*
Y460575D01*
X186612D01*
Y460557D01*
X186649D01*
Y460539D01*
X186667D01*
Y460521D01*
X186685D01*
Y460502D01*
X186722D01*
Y460484D01*
X186740D01*
Y460466D01*
X186758D01*
Y460448D01*
X186794D01*
Y460430D01*
X186813D01*
Y460411D01*
X186831D01*
Y460393D01*
X186867D01*
Y460375D01*
X186886D01*
Y460357D01*
X186922D01*
Y460338D01*
X186940D01*
Y460320D01*
X186958D01*
Y460302D01*
X186995D01*
Y460284D01*
X187013D01*
Y460266D01*
X187031D01*
Y460247D01*
X187068D01*
Y460229D01*
X187086D01*
Y460211D01*
X187104D01*
Y460193D01*
X187141D01*
Y460175D01*
X187159D01*
Y460156D01*
X187195D01*
Y460138D01*
X187213D01*
Y460120D01*
X187232D01*
Y460102D01*
X187268D01*
Y460083D01*
X187286D01*
Y460065D01*
X187304D01*
Y460047D01*
X187341D01*
Y460029D01*
X187359D01*
Y460011D01*
X187377D01*
Y459992D01*
X187414D01*
Y459974D01*
X187432D01*
Y459956D01*
X187469D01*
Y459938D01*
X187487D01*
Y459920D01*
X187505D01*
Y459901D01*
X187541D01*
Y459865D01*
X187559D01*
Y459847D01*
X187578D01*
Y459810D01*
X187596D01*
Y459774D01*
X187614D01*
Y459756D01*
X187632D01*
Y459719D01*
X187651D01*
Y459683D01*
X187669D01*
Y459646D01*
X187687D01*
Y459628D01*
X187705D01*
Y459592D01*
X187724D01*
Y459555D01*
X187742D01*
Y459537D01*
X187760D01*
Y459501D01*
X187778D01*
Y459464D01*
X187796D01*
Y459428D01*
X187814D01*
Y459410D01*
X187833D01*
Y459373D01*
X188343D01*
Y459410D01*
X188324D01*
Y459446D01*
X188306D01*
Y459464D01*
X188288D01*
Y459501D01*
X188270D01*
Y459537D01*
X188252D01*
Y459555D01*
X188233D01*
Y459592D01*
X188215D01*
Y459628D01*
X188197D01*
Y459646D01*
X188179D01*
Y459683D01*
X188161D01*
Y459719D01*
X188142D01*
Y459756D01*
X188124D01*
Y459774D01*
X188106D01*
Y459810D01*
X188088D01*
Y459847D01*
X188069D01*
Y459865D01*
X188051D01*
Y459938D01*
X188069D01*
Y460029D01*
X188088D01*
Y460138D01*
X188106D01*
Y460247D01*
X188124D01*
Y460338D01*
X188142D01*
Y460448D01*
X188161D01*
Y460539D01*
X188179D01*
Y460630D01*
X187596D01*
Y460521D01*
X187578D01*
Y460284D01*
X187523D01*
Y460302D01*
X187505D01*
Y460320D01*
X187487D01*
Y460338D01*
X187469D01*
Y460357D01*
X187432D01*
Y460375D01*
X187414D01*
Y460393D01*
X187396D01*
Y460411D01*
X187359D01*
Y460430D01*
X187341D01*
Y460448D01*
X187323D01*
Y460466D01*
X187304D01*
Y460484D01*
X187268D01*
Y460502D01*
X187250D01*
Y460521D01*
X187232D01*
Y460539D01*
X187213D01*
Y460557D01*
X187177D01*
Y460575D01*
X187159D01*
Y460594D01*
X187141D01*
Y460612D01*
X187122D01*
Y460630D01*
X186576D01*
Y460648D01*
D02*
G37*
G36*
X187195Y459701D02*
X187049D01*
Y459683D01*
X187013D01*
Y459664D01*
X186995D01*
Y459646D01*
X186977D01*
Y459628D01*
X186958D01*
Y459574D01*
X186940D01*
Y459555D01*
X186958D01*
Y459537D01*
Y459464D01*
X186977D01*
Y459428D01*
X186995D01*
Y459410D01*
X187031D01*
Y459391D01*
X187068D01*
Y459373D01*
X187177D01*
Y459391D01*
X187213D01*
Y459410D01*
X187250D01*
Y459428D01*
X187268D01*
Y459464D01*
X187286D01*
Y459610D01*
X187268D01*
Y459646D01*
X187250D01*
Y459664D01*
X187232D01*
Y459683D01*
X187195D01*
Y459701D01*
D02*
G37*
%LPD*%
G36*
X196102Y460247D02*
X196121D01*
Y460229D01*
X196139D01*
Y460211D01*
X196157D01*
Y460193D01*
X196175D01*
Y460175D01*
X196193D01*
Y460156D01*
X196212D01*
Y460138D01*
X196230D01*
Y460120D01*
X196248D01*
Y460102D01*
X196266D01*
Y460083D01*
X196284D01*
Y460047D01*
X196303D01*
Y460029D01*
X196321D01*
Y460011D01*
X196339D01*
Y459992D01*
X196357D01*
Y459974D01*
X196376D01*
Y459956D01*
X196394D01*
Y459938D01*
X196412D01*
Y459920D01*
X196430D01*
Y459901D01*
X196448D01*
Y459883D01*
X196467D01*
Y459865D01*
X196175D01*
Y459901D01*
X196157D01*
Y459992D01*
X196139D01*
Y460065D01*
X196121D01*
Y460138D01*
X196102D01*
Y460211D01*
X196084D01*
Y460266D01*
X196102D01*
Y460247D01*
D02*
G37*
G36*
X192496Y460302D02*
X192514D01*
Y460284D01*
X192532D01*
Y460247D01*
X192550D01*
Y460211D01*
X192569D01*
Y460193D01*
X192587D01*
Y460156D01*
X192605D01*
Y460120D01*
X192623D01*
Y460083D01*
X192095D01*
Y460102D01*
X192040D01*
Y460120D01*
X192022D01*
Y460138D01*
X192004D01*
Y460156D01*
X191986D01*
Y460193D01*
X191967D01*
Y460211D01*
X191949D01*
Y460247D01*
X191931D01*
Y460302D01*
X191949D01*
Y460320D01*
X192496D01*
Y460302D01*
D02*
G37*
G36*
X190674D02*
X190729D01*
Y460284D01*
X190747D01*
Y460266D01*
X190765D01*
Y460247D01*
X190784D01*
Y460211D01*
X190802D01*
Y460193D01*
X190820D01*
Y460156D01*
X190838D01*
Y460120D01*
X190856D01*
Y460102D01*
X190875D01*
Y460065D01*
X190893D01*
Y460029D01*
X190911D01*
Y460011D01*
X190929D01*
Y459974D01*
X190947D01*
Y459938D01*
X190966D01*
Y459920D01*
X190984D01*
Y459883D01*
X191002D01*
Y459847D01*
X191020D01*
Y459810D01*
X191039D01*
Y459792D01*
X191057D01*
Y459756D01*
X191075D01*
Y459719D01*
X191057D01*
Y459701D01*
X191020D01*
Y459683D01*
X190474D01*
Y459701D01*
X190419D01*
Y459719D01*
X190383D01*
Y459737D01*
X190365D01*
Y459774D01*
X190346D01*
Y459792D01*
X190328D01*
Y459829D01*
X190310D01*
Y459865D01*
X190292D01*
Y459883D01*
X190273D01*
Y459920D01*
X190255D01*
Y459956D01*
X190237D01*
Y459974D01*
X190219D01*
Y460011D01*
X190201D01*
Y460047D01*
X190182D01*
Y460065D01*
X190164D01*
Y460102D01*
X190146D01*
Y460138D01*
X190128D01*
Y460175D01*
X190110D01*
Y460193D01*
X190091D01*
Y460229D01*
X190073D01*
Y460266D01*
X190055D01*
Y460284D01*
X190073D01*
Y460302D01*
X190110D01*
Y460320D01*
X190674D01*
Y460302D01*
D02*
G37*
G36*
X187177Y459664D02*
X187213D01*
Y459646D01*
X187232D01*
Y459610D01*
X187250D01*
Y459555D01*
X187268D01*
Y459537D01*
X187250D01*
Y459464D01*
X187232D01*
Y459446D01*
X187213D01*
Y459428D01*
X187195D01*
Y459410D01*
X187049D01*
Y459428D01*
X187031D01*
Y459446D01*
X187013D01*
Y459464D01*
X186995D01*
Y459537D01*
X186977D01*
Y459555D01*
X186995D01*
Y459610D01*
X187013D01*
Y459646D01*
X187031D01*
Y459664D01*
X187068D01*
Y459683D01*
X187177D01*
Y459664D01*
D02*
G37*
%LPC*%
G36*
Y459628D02*
X187068D01*
Y459592D01*
X187049D01*
Y459574D01*
Y459555D01*
X187068D01*
Y459501D01*
X187049D01*
Y459464D01*
X187086D01*
Y459501D01*
X187104D01*
Y459519D01*
X187159D01*
Y459501D01*
X187141D01*
Y459482D01*
X187159D01*
Y459464D01*
X187177D01*
Y459628D01*
D02*
G37*
%LPD*%
G36*
X187141Y459592D02*
X187159D01*
Y459555D01*
X187141D01*
Y459537D01*
X187122D01*
Y459555D01*
X187086D01*
Y459592D01*
X187104D01*
Y459610D01*
X187141D01*
Y459592D01*
D02*
G37*
%LPC*%
G36*
X184317Y458444D02*
X184172D01*
Y458426D01*
X184153D01*
Y458371D01*
X184135D01*
Y458317D01*
X184117D01*
Y458262D01*
X184099D01*
Y458226D01*
X184081D01*
Y458171D01*
X184062D01*
Y458116D01*
X184044D01*
Y458080D01*
X184026D01*
Y458043D01*
X183989D01*
Y458080D01*
X183971D01*
Y458116D01*
X183953D01*
Y458153D01*
X183935D01*
Y458171D01*
X183917D01*
Y458207D01*
X183898D01*
Y458244D01*
X183880D01*
Y458262D01*
X183862D01*
Y458298D01*
X183844D01*
Y458335D01*
X183826D01*
Y458353D01*
X183807D01*
Y458390D01*
X183789D01*
Y458426D01*
X183771D01*
Y458444D01*
X183662D01*
Y458426D01*
X183680D01*
Y458390D01*
X183698D01*
Y458353D01*
X183716D01*
Y458335D01*
X183734D01*
Y458298D01*
X183753D01*
Y458262D01*
X183771D01*
Y458244D01*
X183789D01*
Y458207D01*
X183807D01*
Y458171D01*
X183826D01*
Y458135D01*
X183844D01*
Y458116D01*
X183862D01*
Y458080D01*
X183880D01*
Y458043D01*
X183898D01*
Y458025D01*
X183917D01*
Y457989D01*
X183935D01*
Y457952D01*
X183953D01*
Y457934D01*
X183971D01*
Y457898D01*
X184099D01*
Y457916D01*
X184117D01*
Y457952D01*
X184135D01*
Y457989D01*
X184153D01*
Y458043D01*
X184172D01*
Y458080D01*
X184190D01*
Y458116D01*
X184208D01*
Y458171D01*
X184226D01*
Y458207D01*
X184244D01*
Y458262D01*
X184263D01*
Y458298D01*
X184281D01*
Y458280D01*
X184299D01*
Y458244D01*
X184317D01*
Y458226D01*
X184335D01*
Y458189D01*
X184354D01*
Y458153D01*
X184372D01*
Y458116D01*
X184390D01*
Y458098D01*
X184408D01*
Y458062D01*
X184427D01*
Y458025D01*
X184445D01*
Y458007D01*
X184463D01*
Y457971D01*
X184481D01*
Y457934D01*
X184499D01*
Y457916D01*
X184518D01*
Y457898D01*
X184609D01*
Y457934D01*
X184590D01*
Y457971D01*
X184572D01*
Y458007D01*
X184554D01*
Y458025D01*
X184536D01*
Y458062D01*
X184518D01*
Y458098D01*
X184499D01*
Y458116D01*
X184481D01*
Y458153D01*
X184463D01*
Y458189D01*
X184445D01*
Y458207D01*
X184427D01*
Y458244D01*
X184408D01*
Y458280D01*
X184390D01*
Y458317D01*
X184372D01*
Y458335D01*
X184354D01*
Y458371D01*
X184335D01*
Y458408D01*
X184317D01*
Y458444D01*
D02*
G37*
G36*
X182459D02*
X182332D01*
Y458426D01*
X182350D01*
Y458408D01*
X182368D01*
Y458371D01*
X182387D01*
Y458335D01*
X182405D01*
Y458317D01*
X182423D01*
Y458280D01*
X182441D01*
Y458244D01*
X182459D01*
Y458226D01*
X182478D01*
Y458189D01*
X182496D01*
Y458153D01*
X182514D01*
Y458116D01*
X182532D01*
Y458098D01*
X182550D01*
Y458062D01*
X182569D01*
Y458025D01*
X182587D01*
Y457989D01*
X182569D01*
Y457971D01*
X182168D01*
Y457989D01*
X182150D01*
Y458007D01*
X182132D01*
Y458025D01*
X182113D01*
Y458062D01*
X182095D01*
Y458080D01*
X182077D01*
Y458116D01*
X182059D01*
Y458153D01*
X182040D01*
Y458189D01*
X182022D01*
Y458207D01*
X182004D01*
Y458244D01*
X181986D01*
Y458280D01*
X181968D01*
Y458298D01*
X181949D01*
Y458335D01*
X181931D01*
Y458371D01*
X181913D01*
Y458408D01*
X181895D01*
Y458426D01*
X181877D01*
Y458444D01*
X181767D01*
Y458426D01*
X181785D01*
Y458390D01*
X181804D01*
Y458353D01*
X181822D01*
Y458335D01*
X181840D01*
Y458298D01*
X181858D01*
Y458262D01*
X181877D01*
Y458244D01*
X181895D01*
Y458207D01*
X181913D01*
Y458171D01*
X181931D01*
Y458153D01*
X181949D01*
Y458116D01*
X181968D01*
Y458080D01*
X181986D01*
Y458043D01*
X182004D01*
Y458025D01*
X182022D01*
Y457989D01*
X182040D01*
Y457971D01*
X182059D01*
Y457952D01*
X182077D01*
Y457934D01*
X182095D01*
Y457916D01*
X182150D01*
Y457898D01*
X182569D01*
Y457879D01*
X182587D01*
Y457898D01*
X182714D01*
Y457916D01*
X182733D01*
Y457971D01*
X182714D01*
Y458007D01*
X182696D01*
Y458043D01*
X182678D01*
Y458080D01*
X182660D01*
Y458098D01*
X182641D01*
Y458135D01*
X182623D01*
Y458171D01*
X182605D01*
Y458189D01*
X182587D01*
Y458226D01*
X182569D01*
Y458262D01*
X182550D01*
Y458298D01*
X182532D01*
Y458317D01*
X182514D01*
Y458353D01*
X182496D01*
Y458390D01*
X182478D01*
Y458408D01*
X182459D01*
Y458444D01*
D02*
G37*
G36*
X184900D02*
X184736D01*
Y458390D01*
X184754D01*
Y458189D01*
X184773D01*
Y457989D01*
X184791D01*
Y457971D01*
X184773D01*
Y457952D01*
X184791D01*
Y457898D01*
X184918D01*
Y457934D01*
X184900D01*
Y458007D01*
X185265D01*
Y457989D01*
X185283D01*
Y457971D01*
X185301D01*
Y457952D01*
X185319D01*
Y457934D01*
X185337D01*
Y457916D01*
X185355D01*
Y457898D01*
X185483D01*
Y457916D01*
X185465D01*
Y457934D01*
X185428D01*
Y457952D01*
X185410D01*
Y457971D01*
X185392D01*
Y457989D01*
X185374D01*
Y458007D01*
X185355D01*
Y458025D01*
X185337D01*
Y458043D01*
X185319D01*
Y458062D01*
X185301D01*
Y458080D01*
X185283D01*
Y458098D01*
X185265D01*
Y458116D01*
X185246D01*
Y458135D01*
X185228D01*
Y458153D01*
X185192D01*
Y458171D01*
X185173D01*
Y458189D01*
X185155D01*
Y458207D01*
X185137D01*
Y458226D01*
X185119D01*
Y458244D01*
X185100D01*
Y458262D01*
X185082D01*
Y458280D01*
X185064D01*
Y458298D01*
X185046D01*
Y458317D01*
X185028D01*
Y458335D01*
X185009D01*
Y458353D01*
X184991D01*
Y458371D01*
X184955D01*
Y458390D01*
X184937D01*
Y458408D01*
X184918D01*
Y458426D01*
X184900D01*
Y458444D01*
D02*
G37*
G36*
X183097D02*
X182988D01*
Y458408D01*
X183006D01*
Y458390D01*
X183024D01*
Y458353D01*
X183042D01*
Y458317D01*
X183061D01*
Y458298D01*
X183079D01*
Y458262D01*
X183097D01*
Y458226D01*
X183115D01*
Y458207D01*
X183133D01*
Y458171D01*
X183151D01*
Y458135D01*
X183170D01*
Y458098D01*
X183188D01*
Y458080D01*
X183206D01*
Y458043D01*
X183224D01*
Y458007D01*
X183243D01*
Y457989D01*
X183261D01*
Y457971D01*
X182896D01*
Y457934D01*
X182915D01*
Y457898D01*
X183406D01*
Y457916D01*
Y457934D01*
X183388D01*
Y457952D01*
X183370D01*
Y457989D01*
X183352D01*
Y458025D01*
X183334D01*
Y458043D01*
X183316D01*
Y458080D01*
X183297D01*
Y458116D01*
X183279D01*
Y458153D01*
X183261D01*
Y458171D01*
X183243D01*
Y458207D01*
X183224D01*
Y458244D01*
X183206D01*
Y458262D01*
X183188D01*
Y458298D01*
X183170D01*
Y458335D01*
X183151D01*
Y458353D01*
X183133D01*
Y458390D01*
X183115D01*
Y458426D01*
X183097D01*
Y458444D01*
D02*
G37*
G36*
X181585D02*
X181457D01*
Y458426D01*
X181476D01*
Y458390D01*
X181494D01*
Y458371D01*
X181512D01*
Y458335D01*
X181530D01*
Y458298D01*
X181549D01*
Y458262D01*
X181567D01*
Y458244D01*
X181585D01*
Y458207D01*
X181603D01*
Y458171D01*
X181622D01*
Y458153D01*
X181640D01*
Y458135D01*
Y458116D01*
X181658D01*
Y458080D01*
X181676D01*
Y458062D01*
X181694D01*
Y458025D01*
X181713D01*
Y457989D01*
X181731D01*
Y457952D01*
X181749D01*
Y457934D01*
X181767D01*
Y457898D01*
X181877D01*
Y457934D01*
X181858D01*
Y457971D01*
X181840D01*
Y458007D01*
X181822D01*
Y458025D01*
X181804D01*
Y458062D01*
X181785D01*
Y458098D01*
X181767D01*
Y458116D01*
X181749D01*
Y458153D01*
X181731D01*
Y458189D01*
X181713D01*
Y458207D01*
X181694D01*
Y458244D01*
X181676D01*
Y458280D01*
X181658D01*
Y458317D01*
X181640D01*
Y458335D01*
X181622D01*
Y458371D01*
X181603D01*
Y458408D01*
X181585D01*
Y458444D01*
D02*
G37*
G36*
X181221D02*
X180656D01*
Y458426D01*
X180674D01*
Y458390D01*
X180693D01*
Y458371D01*
X181202D01*
Y458353D01*
X181221D01*
Y458335D01*
X181239D01*
Y458298D01*
X181257D01*
Y458280D01*
X181275D01*
Y458207D01*
X180838D01*
Y458189D01*
X180802D01*
Y458116D01*
X180820D01*
Y458080D01*
X180838D01*
Y458062D01*
X180857D01*
Y458025D01*
X180875D01*
Y457989D01*
X180893D01*
Y457971D01*
X180911D01*
Y457952D01*
X180929D01*
Y457934D01*
X180947D01*
Y457916D01*
X180984D01*
Y457898D01*
X181585D01*
Y457916D01*
X181567D01*
Y457952D01*
X181549D01*
Y457971D01*
X181020D01*
Y457989D01*
X180984D01*
Y458025D01*
X180966D01*
Y458043D01*
X180947D01*
Y458080D01*
X180929D01*
Y458116D01*
X180947D01*
Y458135D01*
X181385D01*
Y458153D01*
X181403D01*
Y458244D01*
X181385D01*
Y458262D01*
X181367D01*
Y458298D01*
X181348D01*
Y458335D01*
X181330D01*
Y458353D01*
X181312D01*
Y458371D01*
X181294D01*
Y458390D01*
X181275D01*
Y458408D01*
X181257D01*
Y458426D01*
X181221D01*
Y458444D01*
D02*
G37*
G36*
X180019D02*
X179454D01*
Y458426D01*
X179436D01*
Y458335D01*
X179454D01*
Y458298D01*
X179472D01*
Y458280D01*
X179490D01*
Y458244D01*
X179509D01*
Y458207D01*
X179527D01*
Y458171D01*
X179545D01*
Y458153D01*
X179563D01*
Y458116D01*
X179581D01*
Y458098D01*
X179600D01*
Y458062D01*
X179618D01*
Y458025D01*
X179636D01*
Y457989D01*
X179654D01*
Y457971D01*
X179673D01*
Y457952D01*
X179691D01*
Y457934D01*
X179727D01*
Y457916D01*
X179764D01*
Y457898D01*
X180328D01*
Y457916D01*
X180347D01*
Y457934D01*
X180365D01*
Y457952D01*
X180347D01*
Y457989D01*
X180328D01*
Y458025D01*
X180310D01*
Y458062D01*
X180292D01*
Y458098D01*
X180274D01*
Y458116D01*
X180255D01*
Y458153D01*
X180237D01*
Y458189D01*
X180219D01*
Y458207D01*
X180201D01*
Y458244D01*
X180183D01*
Y458280D01*
X180164D01*
Y458298D01*
X180146D01*
Y458335D01*
X180128D01*
Y458353D01*
X180110D01*
Y458371D01*
Y458390D01*
X180091D01*
Y458408D01*
X180055D01*
Y458426D01*
X180019D01*
Y458444D01*
D02*
G37*
G36*
X178343D02*
X178234D01*
Y458426D01*
X178252D01*
Y458390D01*
X178270D01*
Y458371D01*
X178288D01*
Y458335D01*
X178306D01*
Y458298D01*
X178325D01*
Y458280D01*
X178343D01*
Y458244D01*
X178361D01*
Y458207D01*
X178379D01*
Y458171D01*
X178398D01*
Y458153D01*
X178416D01*
Y458116D01*
X178434D01*
Y458080D01*
X178452D01*
Y458062D01*
X178470D01*
Y458025D01*
X178489D01*
Y457989D01*
X178507D01*
Y457952D01*
X178525D01*
Y457934D01*
X178543D01*
Y457898D01*
X178671D01*
Y457916D01*
X178653D01*
Y457934D01*
X178634D01*
Y457971D01*
X178616D01*
Y458007D01*
X178598D01*
Y458025D01*
X178580D01*
Y458062D01*
X178561D01*
Y458080D01*
Y458098D01*
X178543D01*
Y458116D01*
X178525D01*
Y458153D01*
X178507D01*
Y458189D01*
X178489D01*
Y458226D01*
X178470D01*
Y458244D01*
X178452D01*
Y458280D01*
X178434D01*
Y458317D01*
X178416D01*
Y458335D01*
X178398D01*
Y458371D01*
X178379D01*
Y458408D01*
X178361D01*
Y458426D01*
X178343D01*
Y458444D01*
D02*
G37*
G36*
X177997D02*
X177432D01*
Y458426D01*
X177450D01*
Y458408D01*
X177469D01*
Y458371D01*
X177979D01*
Y458353D01*
X177997D01*
Y458335D01*
X178015D01*
Y458298D01*
X178033D01*
Y458280D01*
X178051D01*
Y458207D01*
X177614D01*
Y458189D01*
X177578D01*
Y458116D01*
X177596D01*
Y458080D01*
X177614D01*
Y458062D01*
X177632D01*
Y458025D01*
X177651D01*
Y457989D01*
X177669D01*
Y457971D01*
X177687D01*
Y457952D01*
X177705D01*
Y457934D01*
X177724D01*
Y457916D01*
X177760D01*
Y457898D01*
X178361D01*
Y457916D01*
X178343D01*
Y457952D01*
X178325D01*
Y457971D01*
X177796D01*
Y457989D01*
X177760D01*
Y458025D01*
X177742D01*
Y458043D01*
X177724D01*
Y458080D01*
X177705D01*
Y458116D01*
X177724D01*
Y458135D01*
X178161D01*
Y458153D01*
X178179D01*
Y458171D01*
X178197D01*
Y458189D01*
X178179D01*
Y458244D01*
X178161D01*
Y458262D01*
X178142D01*
Y458298D01*
X178124D01*
Y458335D01*
X178106D01*
Y458353D01*
X178088D01*
Y458390D01*
X178070D01*
Y458408D01*
X178033D01*
Y458426D01*
X177997D01*
Y458444D01*
D02*
G37*
G36*
X185902D02*
X185355D01*
Y458408D01*
X185374D01*
Y458371D01*
X185884D01*
Y458353D01*
X185902D01*
Y458335D01*
X185920D01*
Y458317D01*
X185938D01*
Y458280D01*
X185957D01*
Y458244D01*
X185975D01*
Y458226D01*
X185957D01*
Y458207D01*
X185520D01*
Y458189D01*
X185501D01*
Y458171D01*
X185483D01*
Y458135D01*
X185501D01*
Y458098D01*
X185520D01*
Y458062D01*
X185538D01*
Y458025D01*
X185556D01*
Y458007D01*
X185574D01*
Y457971D01*
X185592D01*
Y457952D01*
X185610D01*
Y457934D01*
X185629D01*
Y457916D01*
X185665D01*
Y457898D01*
X185793D01*
Y457879D01*
X185811D01*
Y457898D01*
X186212D01*
Y457879D01*
X186230D01*
Y457898D01*
X186266D01*
Y457916D01*
X186248D01*
Y457952D01*
X186230D01*
Y457971D01*
X185702D01*
Y457989D01*
X185683D01*
Y458007D01*
X185665D01*
Y458025D01*
X185647D01*
Y458062D01*
X185629D01*
Y458098D01*
X185610D01*
Y458116D01*
X185629D01*
Y458135D01*
X186066D01*
Y458153D01*
X186084D01*
Y458171D01*
X186102D01*
Y458207D01*
X186084D01*
Y458244D01*
X186066D01*
Y458280D01*
X186048D01*
Y458298D01*
X186030D01*
Y458335D01*
X186011D01*
Y458371D01*
X185993D01*
Y458390D01*
X185975D01*
Y458408D01*
X185938D01*
Y458426D01*
X185902D01*
Y458444D01*
D02*
G37*
G36*
X179199D02*
X178616D01*
Y458426D01*
X178598D01*
Y458408D01*
X178580D01*
Y458371D01*
X178598D01*
Y458335D01*
X178616D01*
Y458298D01*
X178634D01*
Y458262D01*
X178653D01*
Y458244D01*
X178671D01*
Y458226D01*
X178689D01*
Y458207D01*
X178707D01*
Y458189D01*
X178744D01*
Y458153D01*
X178725D01*
Y458116D01*
X178744D01*
Y458080D01*
X178762D01*
Y458043D01*
X178780D01*
Y458007D01*
X178798D01*
Y457989D01*
X178816D01*
Y457971D01*
X178835D01*
Y457952D01*
X178853D01*
Y457934D01*
X178871D01*
Y457916D01*
X178908D01*
Y457898D01*
X179490D01*
Y457879D01*
X179509D01*
Y457916D01*
X179490D01*
Y457952D01*
X179472D01*
Y457989D01*
X179454D01*
Y458007D01*
X179436D01*
Y458043D01*
X179418D01*
Y458080D01*
X179399D01*
Y458098D01*
X179381D01*
Y458135D01*
X179363D01*
Y458171D01*
X179345D01*
Y458207D01*
X179326D01*
Y458226D01*
X179308D01*
Y458262D01*
X179290D01*
Y458298D01*
X179272D01*
Y458317D01*
X179254D01*
Y458353D01*
X179235D01*
Y458390D01*
X179217D01*
Y458408D01*
X179199D01*
Y458444D01*
D02*
G37*
G36*
X177214D02*
X176631D01*
Y458426D01*
X176612D01*
Y458353D01*
X176631D01*
Y458317D01*
X176649D01*
Y458280D01*
X176667D01*
Y458244D01*
X176685D01*
Y458226D01*
X176704D01*
Y458189D01*
X176722D01*
Y458171D01*
X176740D01*
Y458153D01*
X176758D01*
Y458135D01*
X176776D01*
Y458116D01*
X176831D01*
Y458098D01*
X176922D01*
Y458080D01*
X176940D01*
Y458098D01*
X177232D01*
Y458080D01*
X177250D01*
Y458098D01*
X177305D01*
Y458080D01*
X177323D01*
Y458043D01*
X177341D01*
Y458025D01*
X177359D01*
Y457989D01*
X177377D01*
Y457952D01*
X177396D01*
Y457934D01*
X177414D01*
Y457898D01*
X177450D01*
Y457879D01*
X177469D01*
Y457898D01*
X177523D01*
Y457934D01*
X177505D01*
Y457971D01*
X177487D01*
Y457989D01*
X177469D01*
Y458025D01*
X177450D01*
Y458062D01*
X177432D01*
Y458098D01*
X177414D01*
Y458116D01*
X177396D01*
Y458153D01*
X177377D01*
Y458189D01*
X177359D01*
Y458207D01*
X177341D01*
Y458244D01*
X177323D01*
Y458280D01*
X177305D01*
Y458317D01*
X177286D01*
Y458335D01*
X177268D01*
Y458371D01*
X177250D01*
Y458408D01*
X177232D01*
Y458426D01*
X177214D01*
Y458444D01*
D02*
G37*
G36*
X176321D02*
X175775D01*
Y458426D01*
X175756D01*
Y458408D01*
X175738D01*
Y458371D01*
X175756D01*
Y458335D01*
X175775D01*
Y458298D01*
X175793D01*
Y458262D01*
X175811D01*
Y458244D01*
X175829D01*
Y458207D01*
X175847D01*
Y458171D01*
X175866D01*
Y458153D01*
X175884D01*
Y458116D01*
X175902D01*
Y458080D01*
X175920D01*
Y458062D01*
X175938D01*
Y458025D01*
X175957D01*
Y457989D01*
X175975D01*
Y457971D01*
X175993D01*
Y457952D01*
X176011D01*
Y457934D01*
X176030D01*
Y457916D01*
X176084D01*
Y457898D01*
X176175D01*
Y457879D01*
X176193D01*
Y457898D01*
X176649D01*
Y457916D01*
X176667D01*
Y457989D01*
X176649D01*
Y458025D01*
X176631D01*
Y458062D01*
X176612D01*
Y458080D01*
X176594D01*
Y458116D01*
X176576D01*
Y458153D01*
X176558D01*
Y458171D01*
X176540D01*
Y458207D01*
X176521D01*
Y458244D01*
X176503D01*
Y458262D01*
X176485D01*
Y458298D01*
X176467D01*
Y458335D01*
X176449D01*
Y458353D01*
X176430D01*
Y458371D01*
X176412D01*
Y458390D01*
X176394D01*
Y458408D01*
X176376D01*
Y458426D01*
X176321D01*
Y458444D01*
D02*
G37*
%LPD*%
G36*
X184882Y458353D02*
X184900D01*
Y458335D01*
X184918D01*
Y458317D01*
X184937D01*
Y458298D01*
X184955D01*
Y458280D01*
X184973D01*
Y458262D01*
X184991D01*
Y458244D01*
X185009D01*
Y458226D01*
X185028D01*
Y458207D01*
X185046D01*
Y458189D01*
X185064D01*
Y458171D01*
X185082D01*
Y458153D01*
X185100D01*
Y458135D01*
X185119D01*
Y458116D01*
X185137D01*
Y458098D01*
X185155D01*
Y458080D01*
X184882D01*
Y458226D01*
X184864D01*
Y458244D01*
Y458371D01*
X184882D01*
Y458353D01*
D02*
G37*
G36*
X179982D02*
X180000D01*
Y458335D01*
X180019D01*
Y458317D01*
X180037D01*
Y458298D01*
X180055D01*
Y458262D01*
X180073D01*
Y458244D01*
X180091D01*
Y458207D01*
X180110D01*
Y458171D01*
X180128D01*
Y458153D01*
X180146D01*
Y458116D01*
X180164D01*
Y458080D01*
X180183D01*
Y458043D01*
X180201D01*
Y458007D01*
X180219D01*
Y457989D01*
X180201D01*
Y457971D01*
X179800D01*
Y457989D01*
X179764D01*
Y458007D01*
X179745D01*
Y458025D01*
X179727D01*
Y458062D01*
X179709D01*
Y458098D01*
X179691D01*
Y458116D01*
Y458135D01*
X179673D01*
Y458153D01*
X179654D01*
Y458189D01*
X179636D01*
Y458226D01*
X179618D01*
Y458244D01*
X179600D01*
Y458280D01*
X179581D01*
Y458317D01*
X179563D01*
Y458353D01*
X179581D01*
Y458371D01*
X179982D01*
Y458353D01*
D02*
G37*
G36*
X179126Y458335D02*
X179144D01*
Y458317D01*
X179163D01*
Y458280D01*
X179181D01*
Y458244D01*
X179199D01*
Y458226D01*
X179217D01*
Y458207D01*
X178798D01*
Y458226D01*
X178780D01*
Y458244D01*
X178762D01*
Y458262D01*
X178744D01*
Y458298D01*
X178725D01*
Y458371D01*
X179126D01*
Y458335D01*
D02*
G37*
G36*
X179272Y458098D02*
X179290D01*
Y458062D01*
X179308D01*
Y458025D01*
X179326D01*
Y458007D01*
X179345D01*
Y457971D01*
X178944D01*
Y457989D01*
X178926D01*
Y458007D01*
X178908D01*
Y458025D01*
X178889D01*
Y458043D01*
X178871D01*
Y458080D01*
X178853D01*
Y458135D01*
X179272D01*
Y458098D01*
D02*
G37*
G36*
X177141Y458353D02*
X177159D01*
Y458335D01*
X177177D01*
Y458298D01*
X177195D01*
Y458262D01*
X177214D01*
Y458244D01*
X177232D01*
Y458207D01*
X177250D01*
Y458153D01*
X177214D01*
Y458171D01*
X177195D01*
Y458153D01*
X176940D01*
Y458171D01*
X176849D01*
Y458189D01*
X176831D01*
Y458207D01*
X176813D01*
Y458226D01*
X176795D01*
Y458262D01*
X176776D01*
Y458298D01*
X176758D01*
Y458335D01*
X176740D01*
Y458353D01*
X176758D01*
Y458371D01*
X177141D01*
Y458353D01*
D02*
G37*
G36*
X176285D02*
X176321D01*
Y458335D01*
X176339D01*
Y458317D01*
X176357D01*
Y458298D01*
X176376D01*
Y458262D01*
X176394D01*
Y458226D01*
X176412D01*
Y458207D01*
X176430D01*
Y458171D01*
X176449D01*
Y458135D01*
X176467D01*
Y458098D01*
X176485D01*
Y458080D01*
X176503D01*
Y458043D01*
X176521D01*
Y458007D01*
Y457989D01*
Y457971D01*
X176121D01*
Y457989D01*
X176084D01*
Y458007D01*
X176066D01*
Y458025D01*
X176048D01*
Y458062D01*
X176030D01*
Y458098D01*
X176011D01*
Y458116D01*
X175993D01*
Y458153D01*
X175975D01*
Y458189D01*
X175957D01*
Y458207D01*
X175938D01*
Y458244D01*
X175920D01*
Y458280D01*
X175902D01*
Y458317D01*
X175884D01*
Y458353D01*
X175902D01*
Y458371D01*
X176285D01*
Y458353D01*
D02*
G37*
D32*
X200295Y455739D02*
Y453771D01*
X199311D01*
X198983Y454099D01*
Y455411D01*
X199311Y455739D01*
X200295D01*
X197344Y453771D02*
X197999D01*
X198327Y454099D01*
Y454755D01*
X197999Y455083D01*
X197344D01*
X197016Y454755D01*
Y454427D01*
X198327D01*
X196360Y453771D02*
X195376D01*
X195048Y454099D01*
X195376Y454427D01*
X196032D01*
X196360Y454755D01*
X196032Y455083D01*
X195048D01*
X194392Y453771D02*
X193736D01*
X194064D01*
Y455083D01*
X194392D01*
X192096Y453115D02*
X191768D01*
X191440Y453443D01*
Y455083D01*
X192424D01*
X192752Y454755D01*
Y454099D01*
X192424Y453771D01*
X191440D01*
X190784D02*
Y455083D01*
X189800D01*
X189472Y454755D01*
Y453771D01*
X186848Y455739D02*
Y453771D01*
X185864D01*
X185536Y454099D01*
Y454427D01*
Y454755D01*
X185864Y455083D01*
X186848D01*
X184880D02*
Y454099D01*
X184552Y453771D01*
X183569D01*
Y453443D01*
X183896Y453115D01*
X184224D01*
X183569Y453771D02*
Y455083D01*
X180945Y455739D02*
Y453771D01*
X180289Y454427D01*
X179633Y453771D01*
Y455739D01*
X178977Y455083D02*
Y454099D01*
X178649Y453771D01*
X177665D01*
Y453443D01*
X177993Y453115D01*
X178321D01*
X177665Y453771D02*
Y455083D01*
X176681D02*
X176025D01*
X175697Y454755D01*
Y453771D01*
X176681D01*
X177009Y454099D01*
X176681Y454427D01*
X175697D01*
X174713Y455411D02*
Y455083D01*
X175041D01*
X174385D01*
X174713D01*
Y454099D01*
X174385Y453771D01*
X173073Y455411D02*
Y455083D01*
X173401D01*
X172745D01*
X173073D01*
Y454099D01*
X172745Y453771D01*
X169793Y455739D02*
X168482D01*
X169138D01*
Y453771D01*
X200295Y451540D02*
Y449573D01*
X198983D01*
X197999Y450884D02*
X197344D01*
X197016Y450556D01*
Y449573D01*
X197999D01*
X198327Y449900D01*
X197999Y450228D01*
X197016D01*
X196360Y450884D02*
Y449900D01*
X196032Y449573D01*
X195048D01*
Y449244D01*
X195376Y448916D01*
X195704D01*
X195048Y449573D02*
Y450884D01*
X194064Y449573D02*
X193408D01*
X193080Y449900D01*
Y450556D01*
X193408Y450884D01*
X194064D01*
X194392Y450556D01*
Y449900D01*
X194064Y449573D01*
X192424Y450884D02*
Y449900D01*
X192096Y449573D01*
X191112D01*
Y450884D01*
X190128Y451212D02*
Y450884D01*
X190456D01*
X189800D01*
X190128D01*
Y449900D01*
X189800Y449573D01*
X186848Y451540D02*
Y449573D01*
X185864D01*
X185536Y449900D01*
Y450228D01*
Y450556D01*
X185864Y450884D01*
X186848D01*
X184880D02*
Y449900D01*
X184552Y449573D01*
X183569D01*
Y449244D01*
X183896Y448916D01*
X184224D01*
X183569Y449573D02*
Y450884D01*
X180945Y451540D02*
Y449573D01*
X180289Y450228D01*
X179633Y449573D01*
Y451540D01*
X178977Y449573D02*
X178321D01*
X178649D01*
Y450884D01*
X178977D01*
X177337Y449573D02*
X176681D01*
X177009D01*
Y451540D01*
X177337D01*
X175697Y449573D02*
X175041D01*
X175369D01*
Y451540D01*
X175697D01*
X172089D02*
Y449573D01*
X171105D01*
X170777Y449900D01*
Y450228D01*
X171105Y450556D01*
X172089D01*
X171105D01*
X170777Y450884D01*
Y451212D01*
X171105Y451540D01*
X172089D01*
X200295Y445374D02*
X199639D01*
X199967D01*
Y447342D01*
X200295Y447014D01*
X198655D02*
X198327Y447342D01*
X197671D01*
X197344Y447014D01*
Y445702D01*
X197671Y445374D01*
X198327D01*
X198655Y445702D01*
Y447014D01*
X196687Y445374D02*
X195376Y446686D01*
X193408Y445374D02*
X194720D01*
X193408Y446686D01*
Y447014D01*
X193736Y447342D01*
X194392D01*
X194720Y447014D01*
X192752D02*
X192424Y447342D01*
X191768D01*
X191440Y447014D01*
Y445702D01*
X191768Y445374D01*
X192424D01*
X192752Y445702D01*
Y447014D01*
X189472Y445374D02*
X190784D01*
X189472Y446686D01*
Y447014D01*
X189800Y447342D01*
X190456D01*
X190784Y447014D01*
X187504Y447342D02*
X188816D01*
Y446358D01*
X188160Y446686D01*
X187832D01*
X187504Y446358D01*
Y445702D01*
X187832Y445374D01*
X188488D01*
X188816Y445702D01*
M02*
