G04*
G04 #@! TF.GenerationSoftware,Altium Limited,Altium Designer,25.8.1 (18)*
G04*
G04 Layer_Color=65535*
%FSLAX25Y25*%
%MOIN*%
G70*
G04*
G04 #@! TF.SameCoordinates,CEB4CDF7-1973-4ED8-B396-1C5FF8A1C19E*
G04*
G04*
G04 #@! TF.FilePolarity,Positive*
G04*
G01*
G75*
%ADD10C,0.00984*%
%ADD11C,0.00500*%
%ADD12C,0.00591*%
%ADD13C,0.01000*%
%ADD14C,0.00787*%
D10*
X135728Y478346D02*
G03*
X135728Y478346I-492J0D01*
G01*
D11*
X130118Y472579D02*
X132756D01*
Y454587D02*
Y472579D01*
X130118Y454587D02*
X132756D01*
X117244Y472579D02*
X119882D01*
X117244Y454587D02*
Y472579D01*
Y454587D02*
X119882D01*
D12*
X137008Y449835D02*
Y450591D01*
X142717Y445079D02*
Y450591D01*
X148425Y449835D02*
Y450591D01*
X137008D02*
X148425D01*
Y445079D02*
Y445835D01*
X137008Y445079D02*
Y445835D01*
Y445079D02*
X148425D01*
X137008Y461811D02*
X137764D01*
X137008Y467520D02*
X142520D01*
X137008Y473228D02*
X137764D01*
X137008Y461811D02*
Y473228D01*
X141764D02*
X142520D01*
X141764Y461811D02*
X142520D01*
Y473228D01*
D13*
X150197Y472441D02*
X156890D01*
X164370Y462205D02*
Y468898D01*
X150069Y442836D02*
Y448834D01*
X153068D01*
X154068Y447834D01*
Y445835D01*
X153068Y444835D01*
X150069D01*
X152069D02*
X154068Y442836D01*
X156067D02*
X158067D01*
X157067D01*
Y448834D01*
X156067Y447834D01*
X161066Y448834D02*
X165065D01*
Y447834D01*
X161066Y443835D01*
Y442836D01*
X163370Y497251D02*
X161371D01*
X162371D01*
Y492253D01*
X161371Y491253D01*
X160371D01*
X159372Y492253D01*
X169369Y491253D02*
X165370D01*
X169369Y495252D01*
Y496251D01*
X168369Y497251D01*
X166369D01*
X165370Y496251D01*
X125984Y497251D02*
X123985D01*
X124985D01*
Y492253D01*
X123985Y491253D01*
X122985D01*
X121985Y492253D01*
X127984Y491253D02*
X129983D01*
X128983D01*
Y497251D01*
X127984Y496251D01*
X134266Y454521D02*
Y460519D01*
X137265D01*
X138265Y459519D01*
Y457520D01*
X137265Y456520D01*
X134266D01*
X136266D02*
X138265Y454521D01*
X140264D02*
X142264D01*
X141264D01*
Y460519D01*
X140264Y459519D01*
X145263D02*
X146262Y460519D01*
X148262D01*
X149261Y459519D01*
Y458519D01*
X148262Y457520D01*
X149261Y456520D01*
Y455520D01*
X148262Y454521D01*
X146262D01*
X145263Y455520D01*
Y456520D01*
X146262Y457520D01*
X145263Y458519D01*
Y459519D01*
X146262Y457520D02*
X148262D01*
X141717Y492186D02*
Y496185D01*
X140717Y497185D01*
X138718D01*
X137718Y496185D01*
Y492186D01*
X138718Y491187D01*
X140717D01*
X139717Y493186D02*
X141717Y491187D01*
X140717D02*
X141717Y492186D01*
X147715Y491187D02*
X143716D01*
X147715Y495185D01*
Y496185D01*
X146715Y497185D01*
X144716D01*
X143716Y496185D01*
X158545Y477282D02*
Y471284D01*
X161544D01*
X162544Y472284D01*
Y476283D01*
X161544Y477282D01*
X158545D01*
X167542Y471284D02*
Y477282D01*
X164543Y474284D01*
X168542D01*
X163527Y460550D02*
X157528D01*
Y457550D01*
X158528Y456551D01*
X162527D01*
X163527Y457550D01*
Y460550D01*
X162527Y454552D02*
X163527Y453552D01*
Y451552D01*
X162527Y450553D01*
X161527D01*
X160528Y451552D01*
Y452552D01*
Y451552D01*
X159528Y450553D01*
X158528D01*
X157528Y451552D01*
Y453552D01*
X158528Y454552D01*
X120620Y450582D02*
Y444584D01*
X123619D01*
X124618Y445583D01*
Y449582D01*
X123619Y450582D01*
X120620D01*
X130617Y444584D02*
X126618D01*
X130617Y448582D01*
Y449582D01*
X129617Y450582D01*
X127618D01*
X126618Y449582D01*
X181041Y454755D02*
X180041Y455755D01*
X178042D01*
X177042Y454755D01*
Y450757D01*
X178042Y449757D01*
X180041D01*
X181041Y450757D01*
X187039Y449757D02*
X183040D01*
X187039Y453756D01*
Y454755D01*
X186039Y455755D01*
X184040D01*
X183040Y454755D01*
X193037Y449757D02*
X189038D01*
X193037Y453756D01*
Y454755D01*
X192037Y455755D01*
X190038D01*
X189038Y454755D01*
D14*
X191831Y492224D02*
X195522D01*
X200394Y487352D01*
X173622D02*
X178494Y492224D01*
X182185D01*
X200394Y465453D02*
Y487352D01*
X191831Y465453D02*
X200394D01*
X173622D02*
X182185D01*
X173622D02*
Y487352D01*
X145866Y485039D02*
X148622D01*
Y481102D02*
Y485039D01*
X136811D02*
X139567D01*
X136811Y481102D02*
Y485039D01*
M02*
