G04*
G04 #@! TF.GenerationSoftware,Altium Limited,Altium Designer,25.8.1 (18)*
G04*
G04 Layer_Color=8388736*
%FSLAX25Y25*%
%MOIN*%
G70*
G04*
G04 #@! TF.SameCoordinates,7D9F33CA-476B-410A-A55E-DCFD45E977FB*
G04*
G04*
G04 #@! TF.FilePolarity,Negative*
G04*
G01*
G75*
G04:AMPARAMS|DCode=22|XSize=45.28mil|YSize=43.31mil|CornerRadius=7.63mil|HoleSize=0mil|Usage=FLASHONLY|Rotation=90.000|XOffset=0mil|YOffset=0mil|HoleType=Round|Shape=RoundedRectangle|*
%AMROUNDEDRECTD22*
21,1,0.04528,0.02805,0,0,90.0*
21,1,0.03002,0.04331,0,0,90.0*
1,1,0.01526,0.01403,0.01501*
1,1,0.01526,0.01403,-0.01501*
1,1,0.01526,-0.01403,-0.01501*
1,1,0.01526,-0.01403,0.01501*
%
%ADD22ROUNDEDRECTD22*%
%ADD23R,0.03740X0.05315*%
G04:AMPARAMS|DCode=24|XSize=43.31mil|YSize=41.34mil|CornerRadius=5.61mil|HoleSize=0mil|Usage=FLASHONLY|Rotation=180.000|XOffset=0mil|YOffset=0mil|HoleType=Round|Shape=RoundedRectangle|*
%AMROUNDEDRECTD24*
21,1,0.04331,0.03012,0,0,180.0*
21,1,0.03209,0.04134,0,0,180.0*
1,1,0.01122,-0.01604,0.01506*
1,1,0.01122,0.01604,0.01506*
1,1,0.01122,0.01604,-0.01506*
1,1,0.01122,-0.01604,-0.01506*
%
%ADD24ROUNDEDRECTD24*%
G04:AMPARAMS|DCode=25|XSize=43.31mil|YSize=41.34mil|CornerRadius=5.61mil|HoleSize=0mil|Usage=FLASHONLY|Rotation=270.000|XOffset=0mil|YOffset=0mil|HoleType=Round|Shape=RoundedRectangle|*
%AMROUNDEDRECTD25*
21,1,0.04331,0.03012,0,0,270.0*
21,1,0.03209,0.04134,0,0,270.0*
1,1,0.01122,-0.01506,-0.01604*
1,1,0.01122,-0.01506,0.01604*
1,1,0.01122,0.01506,0.01604*
1,1,0.01122,0.01506,-0.01604*
%
%ADD25ROUNDEDRECTD25*%
%ADD26R,0.07874X0.14567*%
G04:AMPARAMS|DCode=27|XSize=45.28mil|YSize=43.31mil|CornerRadius=7.63mil|HoleSize=0mil|Usage=FLASHONLY|Rotation=180.000|XOffset=0mil|YOffset=0mil|HoleType=Round|Shape=RoundedRectangle|*
%AMROUNDEDRECTD27*
21,1,0.04528,0.02805,0,0,180.0*
21,1,0.03002,0.04331,0,0,180.0*
1,1,0.01526,-0.01501,0.01403*
1,1,0.01526,0.01501,0.01403*
1,1,0.01526,0.01501,-0.01403*
1,1,0.01526,-0.01501,-0.01403*
%
%ADD27ROUNDEDRECTD27*%
G04:AMPARAMS|DCode=28|XSize=93.31mil|YSize=89.76mil|CornerRadius=9.24mil|HoleSize=0mil|Usage=FLASHONLY|Rotation=90.000|XOffset=0mil|YOffset=0mil|HoleType=Round|Shape=RoundedRectangle|*
%AMROUNDEDRECTD28*
21,1,0.09331,0.07128,0,0,90.0*
21,1,0.07482,0.08976,0,0,90.0*
1,1,0.01848,0.03564,0.03741*
1,1,0.01848,0.03564,-0.03741*
1,1,0.01848,-0.03564,-0.03741*
1,1,0.01848,-0.03564,0.03741*
%
%ADD28ROUNDEDRECTD28*%
%ADD29C,0.07677*%
D22*
X145866Y455709D02*
D03*
X139567D02*
D03*
D23*
X145652Y480905D02*
D03*
X138172D02*
D03*
X141912Y489567D02*
D03*
D24*
X152559Y479724D02*
D03*
Y492126D02*
D03*
D25*
X164665Y470251D02*
D03*
X152264D02*
D03*
D26*
X185039Y488189D02*
D03*
Y467520D02*
D03*
D27*
X139764Y470669D02*
D03*
Y464370D02*
D03*
D28*
X125000Y456968D02*
D03*
Y470197D02*
D03*
D29*
X173228Y519685D02*
D03*
X137795D02*
D03*
Y543307D02*
D03*
X173228D02*
D03*
X137795Y531496D02*
D03*
X173228D02*
D03*
Y507874D02*
D03*
X137795D02*
D03*
X165354Y484252D02*
D03*
X125984D02*
D03*
M02*
