G04*
G04 #@! TF.GenerationSoftware,Altium Limited,Altium Designer,25.8.1 (18)*
G04*
G04 Layer_Color=32896*
%FSLAX25Y25*%
%MOIN*%
G70*
G04*
G04 #@! TF.SameCoordinates,7D9F33CA-476B-410A-A55E-DCFD45E977FB*
G04*
G04*
G04 #@! TF.FilePolarity,Positive*
G04*
G01*
G75*
%ADD33C,0.00492*%
G36*
X133903Y545674D02*
X133947D01*
Y545585D01*
X133991D01*
Y545541D01*
X134035D01*
Y545452D01*
X134079D01*
Y545364D01*
X134124D01*
Y545320D01*
X134168D01*
Y545231D01*
X134212D01*
Y545143D01*
X134256D01*
Y545099D01*
X134301D01*
Y545010D01*
X134345D01*
Y544922D01*
X134389D01*
Y544833D01*
X134433D01*
Y544789D01*
X134478D01*
Y544700D01*
X134522D01*
Y544612D01*
X134566D01*
Y544568D01*
X134610D01*
Y544479D01*
X134654D01*
Y544391D01*
X134699D01*
Y544347D01*
X134743D01*
Y544258D01*
X134787D01*
Y544170D01*
X134832D01*
Y544081D01*
X134876D01*
Y544037D01*
X134920D01*
Y543949D01*
X134964D01*
Y543860D01*
X135008D01*
Y543816D01*
X135053D01*
Y543727D01*
X135097D01*
Y543639D01*
X135141D01*
Y543595D01*
X135185D01*
Y543506D01*
X135230D01*
Y543418D01*
X135274D01*
Y543373D01*
X135318D01*
Y543285D01*
X135362D01*
Y543196D01*
X135406D01*
Y543108D01*
X135451D01*
Y543064D01*
X135495D01*
Y542975D01*
X135539D01*
Y542887D01*
X135583D01*
Y542843D01*
X135628D01*
Y542754D01*
X135672D01*
Y542666D01*
X135716D01*
Y542621D01*
X135760D01*
Y542533D01*
X135805D01*
Y542445D01*
X135849D01*
Y542400D01*
X135893D01*
Y542312D01*
X135937D01*
Y542223D01*
X135982D01*
Y542135D01*
X136026D01*
Y542091D01*
X136070D01*
Y542002D01*
X136114D01*
Y541914D01*
X136159D01*
Y541869D01*
X136203D01*
Y541781D01*
X136247D01*
Y541737D01*
X134654D01*
Y541825D01*
X134610D01*
Y541869D01*
X134566D01*
Y541958D01*
X134522D01*
Y542002D01*
X134478D01*
Y542091D01*
X134433D01*
Y542179D01*
X134389D01*
Y542268D01*
X134345D01*
Y542312D01*
X134301D01*
Y542400D01*
X134256D01*
Y542489D01*
X134212D01*
Y542533D01*
X134168D01*
Y542621D01*
X134124D01*
Y542710D01*
X134079D01*
Y542798D01*
X134035D01*
Y542843D01*
X133991D01*
Y542931D01*
X133947D01*
Y543020D01*
X133903D01*
Y543064D01*
X133858D01*
Y543152D01*
X133814D01*
Y543241D01*
X133770D01*
Y543285D01*
X133726D01*
Y543373D01*
X133681D01*
Y543462D01*
X133637D01*
Y543506D01*
X133593D01*
Y543595D01*
X133504D01*
Y543506D01*
X133460D01*
Y543373D01*
X133416D01*
Y543285D01*
X133372D01*
Y543152D01*
X133327D01*
Y543064D01*
X133283D01*
Y542931D01*
X133239D01*
Y542843D01*
X133195D01*
Y542710D01*
X133150D01*
Y542621D01*
X133106D01*
Y542489D01*
X133062D01*
Y542400D01*
X133018D01*
Y542268D01*
X132974D01*
Y542179D01*
X132929D01*
Y542046D01*
X132885D01*
Y541958D01*
X132841D01*
Y541825D01*
X132797D01*
Y541737D01*
X131116D01*
Y541825D01*
X131071D01*
Y541914D01*
X131027D01*
Y541958D01*
X130983D01*
Y542046D01*
X130939D01*
Y542135D01*
X130894D01*
Y542223D01*
X130850D01*
Y542268D01*
X130806D01*
Y542356D01*
X130762D01*
Y542445D01*
X130718D01*
Y542489D01*
X130673D01*
Y542577D01*
X130629D01*
Y542666D01*
X130585D01*
Y542710D01*
X130541D01*
Y542798D01*
X130496D01*
Y542887D01*
X130452D01*
Y542931D01*
X130408D01*
Y543020D01*
X130364D01*
Y543108D01*
X130319D01*
Y543196D01*
X130275D01*
Y543241D01*
X130231D01*
Y543329D01*
X130187D01*
Y543418D01*
X130142D01*
Y543506D01*
X130098D01*
Y543550D01*
X130054D01*
Y543639D01*
X130010D01*
Y543727D01*
X129965D01*
Y543772D01*
X129921D01*
Y543860D01*
X129877D01*
Y543949D01*
X129833D01*
Y543993D01*
X129789D01*
Y544081D01*
X129744D01*
Y544170D01*
X129700D01*
Y544214D01*
X129656D01*
Y544302D01*
X129612D01*
Y544391D01*
X129567D01*
Y544479D01*
X129523D01*
Y544524D01*
X129479D01*
Y544612D01*
X129435D01*
Y544656D01*
X129390D01*
Y544745D01*
X129346D01*
Y544833D01*
X129302D01*
Y544922D01*
X129258D01*
Y544966D01*
X129214D01*
Y545054D01*
X129169D01*
Y545143D01*
X129125D01*
Y545187D01*
X129081D01*
Y545276D01*
X129036D01*
Y545364D01*
X128992D01*
Y545408D01*
X128948D01*
Y545497D01*
X128904D01*
Y545585D01*
X128860D01*
Y545674D01*
X128815D01*
Y545718D01*
X128771D01*
Y545762D01*
X130364D01*
Y545718D01*
X130408D01*
Y545630D01*
X130452D01*
Y545585D01*
X130496D01*
Y545497D01*
X130541D01*
Y545408D01*
X130585D01*
Y545364D01*
X130629D01*
Y545276D01*
X130673D01*
Y545187D01*
X130718D01*
Y545143D01*
X130762D01*
Y545054D01*
X130806D01*
Y544966D01*
X130850D01*
Y544877D01*
X130894D01*
Y544833D01*
X130939D01*
Y544745D01*
X130983D01*
Y544656D01*
X131027D01*
Y544612D01*
X131071D01*
Y544524D01*
X131116D01*
Y544435D01*
X131160D01*
Y544391D01*
X131204D01*
Y544302D01*
X131248D01*
Y544214D01*
X131293D01*
Y544126D01*
X131337D01*
Y544081D01*
X131381D01*
Y543993D01*
X131425D01*
Y543904D01*
X131470D01*
Y543860D01*
X131514D01*
Y543772D01*
X131558D01*
Y543816D01*
X131602D01*
Y543949D01*
X131647D01*
Y544126D01*
X131691D01*
Y544258D01*
X131735D01*
Y544391D01*
X131779D01*
Y544568D01*
X131823D01*
Y544700D01*
X131868D01*
Y544833D01*
X131912D01*
Y545010D01*
X131956D01*
Y545143D01*
X132000D01*
Y545276D01*
X132045D01*
Y545452D01*
X132089D01*
Y545585D01*
X132133D01*
Y545718D01*
X132177D01*
Y545762D01*
X133903D01*
Y545674D01*
D02*
G37*
G36*
X127179Y545718D02*
X127488D01*
Y545674D01*
X127665D01*
Y545630D01*
X127842D01*
Y545585D01*
X127931D01*
Y545541D01*
X128019D01*
Y545497D01*
X128108D01*
Y545452D01*
X128196D01*
Y545408D01*
X128240D01*
Y545364D01*
X128285D01*
Y545320D01*
X128329D01*
Y545276D01*
X128373D01*
Y545231D01*
X128417D01*
Y545187D01*
X128462D01*
Y545143D01*
X128506D01*
Y545099D01*
X128550D01*
Y545054D01*
X128594D01*
Y544966D01*
X128638D01*
Y544922D01*
X128683D01*
Y544833D01*
X128727D01*
Y544745D01*
X128771D01*
Y544700D01*
X128815D01*
Y544612D01*
X128860D01*
Y544524D01*
X128904D01*
Y544479D01*
X128948D01*
Y544391D01*
X128992D01*
Y544302D01*
X129036D01*
Y544214D01*
X129081D01*
Y544170D01*
X129125D01*
Y544081D01*
X129169D01*
Y543993D01*
X129214D01*
Y543949D01*
X129258D01*
Y543860D01*
X129302D01*
Y543772D01*
X129346D01*
Y543727D01*
X129390D01*
Y543639D01*
X129435D01*
Y543550D01*
X129479D01*
Y543462D01*
X129523D01*
Y543418D01*
X129567D01*
Y543329D01*
X129612D01*
Y543285D01*
X129656D01*
Y543196D01*
X129700D01*
Y543108D01*
X129744D01*
Y543020D01*
X129789D01*
Y542975D01*
X129833D01*
Y542887D01*
X129877D01*
Y542798D01*
X129921D01*
Y542710D01*
X129965D01*
Y542666D01*
X130010D01*
Y542577D01*
X130054D01*
Y542489D01*
X130098D01*
Y542400D01*
X130142D01*
Y542268D01*
X130187D01*
Y542091D01*
X130142D01*
Y542002D01*
X130098D01*
Y541914D01*
X130010D01*
Y541869D01*
X129921D01*
Y541825D01*
X129789D01*
Y541781D01*
X129567D01*
Y541737D01*
X125365D01*
Y541781D01*
X125321D01*
Y541825D01*
X125277D01*
Y541914D01*
X125232D01*
Y542002D01*
X125188D01*
Y542091D01*
X125144D01*
Y542135D01*
X125100D01*
Y542223D01*
X125055D01*
Y542312D01*
X125011D01*
Y542356D01*
X124967D01*
Y542445D01*
X124923D01*
Y542533D01*
X124878D01*
Y542577D01*
X124834D01*
Y542666D01*
X124790D01*
Y542754D01*
X124746D01*
Y542798D01*
X124701D01*
Y542887D01*
X124657D01*
Y542975D01*
X124613D01*
Y543064D01*
X124569D01*
Y543108D01*
X124524D01*
Y543196D01*
X124480D01*
Y543241D01*
X124436D01*
Y543329D01*
X124392D01*
Y543418D01*
X124347D01*
Y543462D01*
X124303D01*
Y543550D01*
X124259D01*
Y543639D01*
X124215D01*
Y543727D01*
X124171D01*
Y543772D01*
X124126D01*
Y543860D01*
X124082D01*
Y543949D01*
X124038D01*
Y543993D01*
X123994D01*
Y544081D01*
X123949D01*
Y544170D01*
X123905D01*
Y544214D01*
X123861D01*
Y544258D01*
X126913D01*
Y544214D01*
X126957D01*
Y544126D01*
X127002D01*
Y544081D01*
X127046D01*
Y543993D01*
X127090D01*
Y543904D01*
X127134D01*
Y543816D01*
X127179D01*
Y543772D01*
X127223D01*
Y543683D01*
X127267D01*
Y543595D01*
X127311D01*
Y543550D01*
X127356D01*
Y543462D01*
X127400D01*
Y543373D01*
X127444D01*
Y543329D01*
X127488D01*
Y543241D01*
X126073D01*
Y543196D01*
X126117D01*
Y543108D01*
X126161D01*
Y543064D01*
X126205D01*
Y542975D01*
X126250D01*
Y542887D01*
X126294D01*
Y542843D01*
X126338D01*
Y542754D01*
X128019D01*
Y542798D01*
X128152D01*
Y542843D01*
X128196D01*
Y542887D01*
X128152D01*
Y543020D01*
X128108D01*
Y543064D01*
X128063D01*
Y543152D01*
X128019D01*
Y543241D01*
X127975D01*
Y543285D01*
X127931D01*
Y543373D01*
X127886D01*
Y543462D01*
X127842D01*
Y543550D01*
X127798D01*
Y543595D01*
X127754D01*
Y543683D01*
X127709D01*
Y543772D01*
X127665D01*
Y543816D01*
X127621D01*
Y543904D01*
X127577D01*
Y543993D01*
X127532D01*
Y544037D01*
X127488D01*
Y544126D01*
X127444D01*
Y544214D01*
X127400D01*
Y544258D01*
X127356D01*
Y544347D01*
X127311D01*
Y544435D01*
X127267D01*
Y544479D01*
X127223D01*
Y544568D01*
X127179D01*
Y544612D01*
X127134D01*
Y544656D01*
X127046D01*
Y544700D01*
X126869D01*
Y544745D01*
X123551D01*
Y544833D01*
X123507D01*
Y544922D01*
X123463D01*
Y545010D01*
X123419D01*
Y545054D01*
X123374D01*
Y545143D01*
X123330D01*
Y545231D01*
X123286D01*
Y545276D01*
X123242D01*
Y545364D01*
X123197D01*
Y545452D01*
X123153D01*
Y545497D01*
X123109D01*
Y545585D01*
X123065D01*
Y545674D01*
X123020D01*
Y545718D01*
X122976D01*
Y545762D01*
X127179D01*
Y545718D01*
D02*
G37*
G36*
X152791Y545674D02*
X152836D01*
Y545585D01*
X152880D01*
Y545541D01*
X152924D01*
Y545452D01*
X152968D01*
Y545364D01*
X153013D01*
Y545320D01*
X153057D01*
Y545231D01*
X153101D01*
Y545143D01*
X153145D01*
Y545099D01*
X153189D01*
Y545010D01*
X153234D01*
Y544922D01*
X153278D01*
Y544833D01*
X153322D01*
Y544789D01*
X153366D01*
Y544700D01*
X153411D01*
Y544612D01*
X153455D01*
Y544568D01*
X153499D01*
Y544479D01*
X153543D01*
Y544391D01*
X153587D01*
Y544347D01*
X153632D01*
Y544258D01*
X153676D01*
Y544170D01*
X153720D01*
Y544081D01*
X153764D01*
Y544037D01*
X153809D01*
Y543949D01*
X153853D01*
Y543860D01*
X153897D01*
Y543816D01*
X153941D01*
Y543727D01*
X153986D01*
Y543639D01*
X154030D01*
Y543595D01*
X154074D01*
Y543506D01*
X154118D01*
Y543418D01*
X154163D01*
Y543373D01*
X154207D01*
Y543285D01*
X154251D01*
Y543196D01*
X154295D01*
Y543108D01*
X154340D01*
Y543064D01*
X154384D01*
Y542975D01*
X154428D01*
Y542887D01*
X154472D01*
Y542843D01*
X154516D01*
Y542754D01*
X154561D01*
Y542666D01*
X154605D01*
Y542621D01*
X154649D01*
Y542533D01*
X154693D01*
Y542445D01*
X154738D01*
Y542400D01*
X154782D01*
Y542312D01*
X154826D01*
Y542223D01*
X154870D01*
Y542135D01*
X154915D01*
Y542091D01*
X154959D01*
Y542002D01*
X155003D01*
Y541914D01*
X155047D01*
Y541869D01*
X155092D01*
Y541781D01*
X155136D01*
Y541737D01*
X153455D01*
Y541825D01*
X153411D01*
Y541869D01*
X153366D01*
Y541958D01*
X153322D01*
Y542046D01*
X153278D01*
Y542135D01*
X153234D01*
Y542179D01*
X153189D01*
Y542268D01*
X153145D01*
Y542356D01*
X153101D01*
Y542445D01*
X153057D01*
Y542489D01*
X153013D01*
Y542577D01*
X152968D01*
Y542621D01*
X152924D01*
Y542710D01*
X152880D01*
Y542798D01*
X152836D01*
Y542887D01*
X152791D01*
Y542931D01*
X152747D01*
Y543020D01*
X152703D01*
Y543108D01*
X151022D01*
Y543064D01*
X150933D01*
Y542887D01*
X150978D01*
Y542798D01*
X151022D01*
Y542710D01*
X151066D01*
Y542621D01*
X151110D01*
Y542577D01*
X151155D01*
Y542489D01*
X151199D01*
Y542400D01*
X151243D01*
Y542356D01*
X151287D01*
Y542268D01*
X151331D01*
Y542179D01*
X151376D01*
Y542135D01*
X151420D01*
Y542046D01*
X151464D01*
Y541958D01*
X151508D01*
Y541869D01*
X151553D01*
Y541825D01*
X151597D01*
Y541737D01*
X149960D01*
Y541781D01*
X149916D01*
Y541869D01*
X149872D01*
Y541914D01*
X149828D01*
Y542002D01*
X149783D01*
Y542091D01*
X149739D01*
Y542179D01*
X149695D01*
Y542223D01*
X149651D01*
Y542312D01*
X149606D01*
Y542400D01*
X149562D01*
Y542445D01*
X149518D01*
Y542533D01*
X149474D01*
Y542621D01*
X149429D01*
Y542710D01*
X149385D01*
Y542754D01*
X149341D01*
Y542843D01*
X149297D01*
Y542931D01*
X149252D01*
Y542975D01*
X149208D01*
Y543064D01*
X149164D01*
Y543196D01*
X149120D01*
Y543373D01*
X149164D01*
Y543462D01*
X149208D01*
Y543506D01*
X149252D01*
Y543550D01*
X149297D01*
Y543595D01*
X149208D01*
Y543639D01*
X149120D01*
Y543683D01*
X149031D01*
Y543727D01*
X148943D01*
Y543772D01*
X148898D01*
Y543816D01*
X148854D01*
Y543860D01*
X148810D01*
Y543904D01*
X148766D01*
Y543949D01*
X148722D01*
Y543993D01*
X148677D01*
Y544037D01*
X148633D01*
Y544081D01*
X148589D01*
Y544170D01*
X148545D01*
Y544214D01*
X148500D01*
Y544302D01*
X148456D01*
Y544391D01*
X148412D01*
Y544479D01*
X148368D01*
Y544524D01*
X148324D01*
Y544612D01*
X148279D01*
Y544700D01*
X148235D01*
Y544745D01*
X148191D01*
Y544833D01*
X148146D01*
Y544922D01*
X148102D01*
Y545010D01*
X148058D01*
Y545099D01*
X148014D01*
Y545187D01*
X147970D01*
Y545497D01*
X148014D01*
Y545541D01*
X148058D01*
Y545585D01*
X148102D01*
Y545630D01*
X148146D01*
Y545674D01*
X148279D01*
Y545718D01*
X148500D01*
Y545762D01*
X152791D01*
Y545674D01*
D02*
G37*
G36*
X145625Y545718D02*
X145669D01*
Y545674D01*
X145713D01*
Y545630D01*
X145758D01*
Y545585D01*
X145802D01*
Y545541D01*
X145846D01*
Y545497D01*
X145890D01*
Y545452D01*
X145979D01*
Y545408D01*
X146023D01*
Y545364D01*
X146067D01*
Y545320D01*
X146112D01*
Y545276D01*
X146156D01*
Y545231D01*
X146200D01*
Y545187D01*
X146244D01*
Y545143D01*
X146289D01*
Y545099D01*
X146333D01*
Y545054D01*
X146377D01*
Y545010D01*
X146421D01*
Y544966D01*
X146466D01*
Y544922D01*
X146510D01*
Y544877D01*
X146554D01*
Y544833D01*
X146598D01*
Y544789D01*
X146642D01*
Y544745D01*
X146687D01*
Y544700D01*
X146731D01*
Y544656D01*
X146775D01*
Y544612D01*
X146819D01*
Y544568D01*
X146864D01*
Y544524D01*
X146908D01*
Y544479D01*
X146952D01*
Y544435D01*
X146996D01*
Y544391D01*
X147041D01*
Y544347D01*
X147085D01*
Y544302D01*
X147129D01*
Y544258D01*
X147173D01*
Y544214D01*
X147218D01*
Y544170D01*
X147262D01*
Y544126D01*
X147306D01*
Y544081D01*
X147350D01*
Y544037D01*
X147395D01*
Y543993D01*
X147439D01*
Y543949D01*
X147483D01*
Y543904D01*
X147527D01*
Y543860D01*
X147571D01*
Y543816D01*
X147616D01*
Y543772D01*
X147660D01*
Y543727D01*
X147704D01*
Y543683D01*
X147748D01*
Y543639D01*
X147793D01*
Y543595D01*
X147837D01*
Y543550D01*
X147925D01*
Y543506D01*
X147970D01*
Y543462D01*
X148014D01*
Y543418D01*
X148058D01*
Y543373D01*
X148102D01*
Y543329D01*
X148146D01*
Y543285D01*
X148191D01*
Y543241D01*
X148235D01*
Y543196D01*
X148279D01*
Y543152D01*
X148324D01*
Y543108D01*
X148368D01*
Y543064D01*
X148412D01*
Y543020D01*
X148456D01*
Y542975D01*
X148500D01*
Y542931D01*
X148545D01*
Y542887D01*
X148589D01*
Y542843D01*
X148633D01*
Y542798D01*
X148677D01*
Y542754D01*
X148722D01*
Y542710D01*
X148766D01*
Y542666D01*
X148810D01*
Y542621D01*
X148854D01*
Y542577D01*
X148898D01*
Y542533D01*
X148943D01*
Y542489D01*
X148987D01*
Y542445D01*
X149031D01*
Y542400D01*
X149075D01*
Y542356D01*
X149120D01*
Y542312D01*
X149164D01*
Y542268D01*
X149208D01*
Y542223D01*
X149252D01*
Y542179D01*
X149297D01*
Y542135D01*
X149341D01*
Y542091D01*
X149385D01*
Y542046D01*
X149429D01*
Y542002D01*
X149474D01*
Y541958D01*
X149518D01*
Y541914D01*
X149562D01*
Y541869D01*
X149606D01*
Y541825D01*
X149651D01*
Y541781D01*
X149695D01*
Y541737D01*
X147881D01*
Y541781D01*
X147837D01*
Y541825D01*
X147793D01*
Y541869D01*
X147748D01*
Y541914D01*
X147704D01*
Y542002D01*
X147660D01*
Y542046D01*
X147616D01*
Y542091D01*
X147571D01*
Y542135D01*
X147527D01*
Y542179D01*
X147483D01*
Y542223D01*
X147439D01*
Y542268D01*
X147395D01*
Y542312D01*
X145758D01*
Y542268D01*
X145802D01*
Y542046D01*
X145846D01*
Y541869D01*
X145890D01*
Y541737D01*
X144121D01*
Y541958D01*
X144077D01*
Y542268D01*
X144033D01*
Y542533D01*
X143988D01*
Y542798D01*
X143944D01*
Y543152D01*
X143900D01*
Y543373D01*
X143856D01*
Y543639D01*
X143811D01*
Y543949D01*
X143767D01*
Y544214D01*
X143723D01*
Y544524D01*
X143679D01*
Y544789D01*
X143634D01*
Y545054D01*
X143590D01*
Y545364D01*
X143546D01*
Y545630D01*
X143502D01*
Y545762D01*
X145625D01*
Y545718D01*
D02*
G37*
G36*
X140671D02*
X140936D01*
Y545674D01*
X141113D01*
Y545630D01*
X141290D01*
Y545585D01*
X141378D01*
Y545541D01*
X141467D01*
Y545497D01*
X141555D01*
Y545452D01*
X141644D01*
Y545408D01*
X141688D01*
Y545364D01*
X141732D01*
Y545320D01*
X141777D01*
Y545276D01*
X141821D01*
Y545231D01*
X141865D01*
Y545187D01*
X141909D01*
Y545143D01*
X141954D01*
Y545099D01*
X141998D01*
Y545054D01*
X142042D01*
Y544966D01*
X142086D01*
Y544922D01*
X142130D01*
Y544833D01*
X142175D01*
Y544745D01*
X142219D01*
Y544700D01*
X142263D01*
Y544612D01*
X142307D01*
Y544524D01*
X142352D01*
Y544479D01*
X142396D01*
Y544391D01*
X142440D01*
Y544302D01*
X142484D01*
Y544214D01*
X142528D01*
Y544170D01*
X142573D01*
Y544081D01*
X142617D01*
Y543993D01*
X142661D01*
Y543949D01*
X142706D01*
Y543860D01*
X142750D01*
Y543816D01*
Y543772D01*
X142794D01*
Y543727D01*
X142838D01*
Y543639D01*
X142882D01*
Y543550D01*
X142927D01*
Y543462D01*
X142971D01*
Y543418D01*
X143015D01*
Y543329D01*
X143059D01*
Y543285D01*
X143104D01*
Y543196D01*
X143148D01*
Y543108D01*
X143192D01*
Y543020D01*
X143236D01*
Y542975D01*
X143280D01*
Y542887D01*
X143325D01*
Y542798D01*
X143369D01*
Y542710D01*
X143413D01*
Y542666D01*
X143457D01*
Y542577D01*
X143502D01*
Y542489D01*
X143546D01*
Y542400D01*
X143590D01*
Y542268D01*
X143634D01*
Y542091D01*
X143590D01*
Y542002D01*
X143546D01*
Y541914D01*
X143457D01*
Y541869D01*
X143369D01*
Y541825D01*
X143236D01*
Y541781D01*
X143015D01*
Y541737D01*
X138990D01*
Y541781D01*
X138945D01*
Y541869D01*
X138901D01*
Y541958D01*
X138857D01*
Y542002D01*
X138813D01*
Y542091D01*
X138768D01*
Y542179D01*
X138724D01*
Y542268D01*
X138680D01*
Y542312D01*
X138636D01*
Y542400D01*
X138592D01*
Y542489D01*
X138547D01*
Y542533D01*
X138503D01*
Y542621D01*
X138459D01*
Y542710D01*
X138415D01*
Y542754D01*
X141423D01*
Y542798D01*
X141555D01*
Y542843D01*
X141600D01*
Y542975D01*
X141555D01*
Y543064D01*
X141511D01*
Y543108D01*
X141467D01*
Y543196D01*
X141423D01*
Y543285D01*
X141378D01*
Y543329D01*
X141334D01*
Y543418D01*
X141290D01*
Y543506D01*
X141246D01*
Y543550D01*
X141201D01*
Y543639D01*
X141157D01*
Y543727D01*
X141113D01*
Y543816D01*
X141069D01*
Y543860D01*
X141024D01*
Y543949D01*
X140980D01*
Y544037D01*
X140936D01*
Y544081D01*
X140892D01*
Y544170D01*
X140848D01*
Y544258D01*
X140803D01*
Y544302D01*
X140759D01*
Y544391D01*
X140715D01*
Y544479D01*
X140671D01*
Y544524D01*
X140626D01*
Y544568D01*
X140582D01*
Y544612D01*
X140538D01*
Y544656D01*
X140449D01*
Y544700D01*
X140272D01*
Y544745D01*
X137220D01*
Y544789D01*
X137176D01*
Y544877D01*
X137132D01*
Y544966D01*
X137088D01*
Y545010D01*
X137043D01*
Y545099D01*
X136999D01*
Y545187D01*
X136955D01*
Y545231D01*
X136910D01*
Y545320D01*
X136866D01*
Y545408D01*
X136822D01*
Y545452D01*
X136778D01*
Y545541D01*
X136734D01*
Y545630D01*
X136689D01*
Y545674D01*
X136645D01*
Y545762D01*
X140671D01*
Y545718D01*
D02*
G37*
G36*
X136159Y545674D02*
X136203D01*
Y545585D01*
X136247D01*
Y545541D01*
X136291D01*
Y545452D01*
X136336D01*
Y545364D01*
X136380D01*
Y545320D01*
X136424D01*
Y545231D01*
X136468D01*
Y545143D01*
X136512D01*
Y545099D01*
X136557D01*
Y545010D01*
X136601D01*
Y544922D01*
X136645D01*
Y544833D01*
X136689D01*
Y544789D01*
X136734D01*
Y544700D01*
X136778D01*
Y544612D01*
X136822D01*
Y544568D01*
X136866D01*
Y544479D01*
X136910D01*
Y544391D01*
X136955D01*
Y544347D01*
X136999D01*
Y544258D01*
X137043D01*
Y544170D01*
X137088D01*
Y544081D01*
X137132D01*
Y544037D01*
X137176D01*
Y543949D01*
X137220D01*
Y543860D01*
X137264D01*
Y543816D01*
X137309D01*
Y543727D01*
X137353D01*
Y543639D01*
X137397D01*
Y543595D01*
X137441D01*
Y543506D01*
X137486D01*
Y543418D01*
X137530D01*
Y543373D01*
X137574D01*
Y543285D01*
X137618D01*
Y543196D01*
X137663D01*
Y543108D01*
X137707D01*
Y543064D01*
X137751D01*
Y542975D01*
X137795D01*
Y542887D01*
X137839D01*
Y542843D01*
X137884D01*
Y542754D01*
X137928D01*
Y542666D01*
X137972D01*
Y542621D01*
X138016D01*
Y542533D01*
X138061D01*
Y542445D01*
X138105D01*
Y542400D01*
X138149D01*
Y542312D01*
X138193D01*
Y542223D01*
X138238D01*
Y542135D01*
X138282D01*
Y542091D01*
X138326D01*
Y542002D01*
X138370D01*
Y541914D01*
X138415D01*
Y541869D01*
X138459D01*
Y541781D01*
X138503D01*
Y541737D01*
X136822D01*
Y541825D01*
X136778D01*
Y541869D01*
X136734D01*
Y541958D01*
X136689D01*
Y542046D01*
X136645D01*
Y542135D01*
X136601D01*
Y542179D01*
X136557D01*
Y542268D01*
X136512D01*
Y542356D01*
X136468D01*
Y542400D01*
X136424D01*
Y542489D01*
X136380D01*
Y542577D01*
X136336D01*
Y542621D01*
X136291D01*
Y542710D01*
X136247D01*
Y542798D01*
X136203D01*
Y542843D01*
X136159D01*
Y542931D01*
X136114D01*
Y543020D01*
X136070D01*
Y543108D01*
X136026D01*
Y543152D01*
X135982D01*
Y543241D01*
X135937D01*
Y543329D01*
X135893D01*
Y543373D01*
X135849D01*
Y543462D01*
X135805D01*
Y543550D01*
X135760D01*
Y543595D01*
X135716D01*
Y543683D01*
X135672D01*
Y543772D01*
X135628D01*
Y543816D01*
X135583D01*
Y543904D01*
X135539D01*
Y543993D01*
X135495D01*
Y544081D01*
X135451D01*
Y544126D01*
X135406D01*
Y544214D01*
X135362D01*
Y544302D01*
X135318D01*
Y544347D01*
X135274D01*
Y544435D01*
X135230D01*
Y544524D01*
X135185D01*
Y544568D01*
X135141D01*
Y544656D01*
X135097D01*
Y544745D01*
X135053D01*
Y544789D01*
X135008D01*
Y544877D01*
X134964D01*
Y544966D01*
X134920D01*
Y545054D01*
X134876D01*
Y545099D01*
X134832D01*
Y545187D01*
X134787D01*
Y545276D01*
X134743D01*
Y545320D01*
X134699D01*
Y545408D01*
X134654D01*
Y545497D01*
X134610D01*
Y545541D01*
X134566D01*
Y545630D01*
X134522D01*
Y545718D01*
X134478D01*
Y545762D01*
X136159D01*
Y545674D01*
D02*
G37*
G36*
X184376Y546337D02*
X184420D01*
Y546293D01*
X184464D01*
Y546205D01*
X184509D01*
Y546116D01*
X184553D01*
Y546072D01*
X184597D01*
Y545983D01*
X184641D01*
Y545895D01*
X184686D01*
Y545806D01*
X184730D01*
Y545762D01*
X184774D01*
Y545674D01*
X184818D01*
Y545585D01*
X184862D01*
Y545541D01*
X184907D01*
Y545452D01*
X184951D01*
Y545364D01*
X184995D01*
Y545276D01*
X185039D01*
Y545231D01*
X185084D01*
Y545143D01*
X185128D01*
Y545054D01*
X185172D01*
Y545010D01*
X185216D01*
Y544922D01*
X185260D01*
Y544833D01*
X185305D01*
Y544745D01*
X185349D01*
Y544700D01*
X185393D01*
Y544612D01*
X185438D01*
Y544524D01*
X185482D01*
Y544435D01*
X185526D01*
Y544391D01*
X185570D01*
Y544302D01*
X185614D01*
Y544214D01*
X185659D01*
Y544170D01*
X185703D01*
Y544081D01*
X185747D01*
Y543993D01*
X185791D01*
Y543904D01*
X185836D01*
Y543860D01*
X185880D01*
Y543772D01*
X185924D01*
Y543683D01*
X185968D01*
Y543595D01*
X186013D01*
Y543550D01*
X186057D01*
Y543462D01*
X186101D01*
Y543373D01*
X186145D01*
Y543329D01*
X186189D01*
Y543241D01*
X186234D01*
Y543152D01*
X186278D01*
Y543064D01*
X186322D01*
Y543020D01*
X186366D01*
Y542931D01*
X186411D01*
Y542843D01*
X186455D01*
Y542798D01*
X186499D01*
Y542710D01*
X186543D01*
Y542621D01*
X186588D01*
Y542533D01*
X186632D01*
Y542489D01*
X186676D01*
Y542400D01*
X186720D01*
Y542312D01*
X186765D01*
Y542268D01*
X186809D01*
Y542179D01*
X186853D01*
Y542091D01*
X186897D01*
Y542002D01*
X186942D01*
Y541958D01*
X186986D01*
Y541869D01*
X187030D01*
Y541781D01*
X187074D01*
Y541737D01*
X187118D01*
Y541648D01*
X187163D01*
Y541560D01*
X187207D01*
Y541471D01*
X187251D01*
Y541427D01*
X187295D01*
Y541339D01*
X187340D01*
Y541250D01*
X187384D01*
Y541162D01*
X187428D01*
Y541073D01*
X156065D01*
Y541162D01*
X156020D01*
Y541206D01*
X155976D01*
Y541294D01*
X155932D01*
Y541383D01*
X155888D01*
Y541471D01*
X155844D01*
Y541560D01*
X155799D01*
Y541604D01*
X155755D01*
Y541692D01*
X155711D01*
Y541781D01*
X155667D01*
Y541869D01*
X155622D01*
Y541914D01*
X155578D01*
Y542002D01*
X155534D01*
Y542091D01*
X155490D01*
Y542179D01*
X155446D01*
Y542223D01*
X155401D01*
Y542312D01*
X155357D01*
Y542400D01*
X155313D01*
Y542489D01*
X155269D01*
Y542533D01*
X155224D01*
Y542621D01*
X155180D01*
Y542710D01*
X155136D01*
Y542798D01*
X155092D01*
Y542887D01*
X155047D01*
Y542931D01*
X155003D01*
Y543020D01*
X154959D01*
Y543108D01*
X154915D01*
Y543152D01*
X154870D01*
Y543241D01*
X154826D01*
Y543329D01*
X154782D01*
Y543418D01*
X154738D01*
Y543506D01*
X154693D01*
Y543550D01*
X154649D01*
Y543639D01*
X154605D01*
Y543727D01*
X154561D01*
Y543816D01*
X154516D01*
Y543860D01*
X154472D01*
Y543949D01*
X154428D01*
Y544037D01*
X154384D01*
Y544126D01*
X154340D01*
Y544170D01*
X154295D01*
Y544258D01*
X154251D01*
Y544347D01*
X154207D01*
Y544435D01*
X154163D01*
Y544479D01*
X154118D01*
Y544568D01*
X154074D01*
Y544656D01*
X154030D01*
Y544745D01*
X153986D01*
Y544789D01*
X153941D01*
Y544877D01*
X153897D01*
Y544966D01*
X153853D01*
Y545054D01*
X153809D01*
Y545099D01*
X153764D01*
Y545187D01*
X153720D01*
Y545276D01*
X153676D01*
Y545364D01*
X153632D01*
Y545452D01*
X153587D01*
Y545497D01*
X153543D01*
Y545585D01*
X153499D01*
Y545674D01*
X153455D01*
Y545762D01*
X153411D01*
Y545806D01*
X153366D01*
Y545895D01*
X153322D01*
Y545983D01*
X153278D01*
Y546072D01*
X153234D01*
Y546160D01*
X153189D01*
Y546205D01*
X153145D01*
Y546293D01*
X153101D01*
Y546382D01*
X153057D01*
Y546426D01*
X184376D01*
Y546337D01*
D02*
G37*
G36*
X186013Y540587D02*
X186057D01*
Y540498D01*
X186101D01*
Y540410D01*
X186145D01*
Y540321D01*
X186189D01*
Y540277D01*
X186234D01*
Y540189D01*
X186278D01*
Y540100D01*
X186322D01*
Y540056D01*
X186366D01*
Y539967D01*
X186411D01*
Y539879D01*
X186455D01*
Y539790D01*
X186499D01*
Y539746D01*
X186543D01*
Y539658D01*
X186588D01*
Y539569D01*
X186632D01*
Y539481D01*
X186676D01*
Y539436D01*
X186720D01*
Y539348D01*
X186765D01*
Y539304D01*
X188534D01*
Y539215D01*
X188578D01*
Y539127D01*
X188622D01*
Y539082D01*
X188667D01*
Y538994D01*
X188711D01*
Y538906D01*
X188755D01*
Y538817D01*
X188799D01*
Y538773D01*
X188844D01*
Y538684D01*
X188888D01*
Y538596D01*
X188932D01*
Y538508D01*
X188976D01*
Y538463D01*
X189021D01*
Y538375D01*
X189065D01*
Y538286D01*
X189109D01*
Y538242D01*
X189153D01*
Y538154D01*
X189198D01*
Y538065D01*
X189242D01*
Y537977D01*
X187517D01*
Y538021D01*
X187472D01*
Y538065D01*
X187428D01*
Y538154D01*
X187384D01*
Y538242D01*
X187340D01*
Y538331D01*
X187295D01*
Y538419D01*
X187251D01*
Y538463D01*
X187207D01*
Y538552D01*
X187163D01*
Y538640D01*
X187118D01*
Y538684D01*
X187074D01*
Y538773D01*
X187030D01*
Y538861D01*
X186986D01*
Y538950D01*
X186942D01*
Y538994D01*
X186897D01*
Y539082D01*
X186853D01*
Y539171D01*
X186809D01*
Y539215D01*
X186765D01*
Y539304D01*
X185039D01*
Y539259D01*
X185084D01*
Y539171D01*
X185128D01*
Y539082D01*
X185172D01*
Y538994D01*
X185216D01*
Y538950D01*
X185260D01*
Y538861D01*
X185305D01*
Y538773D01*
X185349D01*
Y538729D01*
X185393D01*
Y538640D01*
X185438D01*
Y538552D01*
X185482D01*
Y538463D01*
X185526D01*
Y538419D01*
X185570D01*
Y538331D01*
X185614D01*
Y538242D01*
X185659D01*
Y538154D01*
X185703D01*
Y538109D01*
X185747D01*
Y538021D01*
X185791D01*
Y537977D01*
X184022D01*
Y538021D01*
X183978D01*
Y538065D01*
Y538109D01*
X183933D01*
Y538198D01*
X183889D01*
Y538286D01*
X183845D01*
Y538331D01*
X183801D01*
Y538419D01*
X183756D01*
Y538508D01*
X183712D01*
Y538552D01*
X183668D01*
Y538640D01*
X183624D01*
Y538729D01*
X183580D01*
Y538817D01*
X183535D01*
Y538861D01*
X183491D01*
Y538950D01*
X183447D01*
Y539038D01*
X183403D01*
Y539082D01*
X183358D01*
Y539171D01*
X183314D01*
Y539259D01*
X183270D01*
Y539304D01*
X181589D01*
Y539215D01*
X181633D01*
Y539127D01*
X181677D01*
Y539038D01*
X181722D01*
Y538950D01*
X181766D01*
Y538906D01*
X181810D01*
Y538817D01*
X181854D01*
Y538729D01*
X181899D01*
Y538640D01*
X181943D01*
Y538596D01*
X181987D01*
Y538508D01*
X182031D01*
Y538419D01*
X182076D01*
Y538375D01*
X182120D01*
Y538286D01*
X182164D01*
Y538198D01*
X182208D01*
Y538109D01*
X182253D01*
Y538065D01*
X182297D01*
Y537977D01*
X180527D01*
Y538065D01*
X180483D01*
Y538154D01*
X180439D01*
Y538242D01*
X180395D01*
Y538286D01*
X180350D01*
Y538375D01*
X180306D01*
Y538463D01*
X180262D01*
Y538552D01*
X180218D01*
Y538596D01*
X180173D01*
Y538684D01*
X180129D01*
Y538773D01*
X180085D01*
Y538817D01*
X180041D01*
Y538906D01*
X179997D01*
Y538994D01*
X179952D01*
Y539038D01*
X179908D01*
Y539127D01*
X179864D01*
Y539215D01*
X179820D01*
Y539304D01*
X181500D01*
Y539392D01*
X181456D01*
Y539481D01*
X181412D01*
Y539525D01*
X181368D01*
Y539613D01*
X181324D01*
Y539702D01*
X181279D01*
Y539790D01*
X181235D01*
Y539835D01*
X181191D01*
Y539923D01*
X181147D01*
Y540012D01*
X181102D01*
Y540056D01*
X181058D01*
Y540144D01*
X181014D01*
Y540233D01*
X180970D01*
Y540321D01*
X180925D01*
Y540365D01*
X180881D01*
Y540454D01*
X180837D01*
Y540542D01*
X180793D01*
Y540631D01*
X182518D01*
Y540587D01*
X182562D01*
Y540498D01*
X182606D01*
Y540454D01*
X182651D01*
Y540365D01*
X182695D01*
Y540277D01*
X182739D01*
Y540189D01*
X182783D01*
Y540144D01*
X182828D01*
Y540056D01*
X182872D01*
Y539967D01*
X182916D01*
Y539879D01*
X182960D01*
Y539835D01*
X183004D01*
Y539746D01*
X183049D01*
Y539658D01*
X183093D01*
Y539613D01*
X183137D01*
Y539525D01*
X183182D01*
Y539436D01*
X183226D01*
Y539392D01*
X183270D01*
Y539304D01*
X184995D01*
Y539348D01*
X184951D01*
Y539436D01*
X184907D01*
Y539525D01*
X184862D01*
Y539569D01*
X184818D01*
Y539658D01*
X184774D01*
Y539746D01*
X184730D01*
Y539835D01*
X184686D01*
Y539879D01*
X184641D01*
Y539967D01*
X184597D01*
Y540056D01*
X184553D01*
Y540144D01*
X184509D01*
Y540189D01*
X184464D01*
Y540277D01*
X184420D01*
Y540365D01*
X184376D01*
Y540410D01*
X184332D01*
Y540498D01*
X184287D01*
Y540587D01*
X184243D01*
Y540631D01*
X186013D01*
Y540587D01*
D02*
G37*
G36*
X179068Y540542D02*
X179112D01*
Y540454D01*
X179156D01*
Y540410D01*
X179200D01*
Y540321D01*
X179244D01*
Y540233D01*
X179289D01*
Y540144D01*
X179333D01*
Y540100D01*
X179377D01*
Y540012D01*
X179421D01*
Y539923D01*
X179466D01*
Y539879D01*
X179510D01*
Y539790D01*
X179554D01*
Y539702D01*
X179598D01*
Y539613D01*
X179643D01*
Y539569D01*
X179687D01*
Y539481D01*
X179731D01*
Y539392D01*
X179775D01*
Y539304D01*
X178094D01*
Y539215D01*
X178139D01*
Y539127D01*
X178183D01*
Y539082D01*
X178227D01*
Y538994D01*
X178271D01*
Y538906D01*
X178315D01*
Y538817D01*
X178360D01*
Y538773D01*
X178404D01*
Y538684D01*
X178448D01*
Y538596D01*
X178492D01*
Y538552D01*
X178537D01*
Y538463D01*
X178581D01*
Y538375D01*
X178625D01*
Y538286D01*
X178669D01*
Y538242D01*
X178714D01*
Y538154D01*
X178758D01*
Y538065D01*
X178802D01*
Y538021D01*
X178846D01*
Y537977D01*
X177077D01*
Y538021D01*
X177033D01*
Y538109D01*
X176988D01*
Y538154D01*
X176944D01*
Y538242D01*
X176900D01*
Y538331D01*
X176856D01*
Y538419D01*
X176812D01*
Y538463D01*
X176767D01*
Y538552D01*
X176723D01*
Y538640D01*
X176679D01*
Y538684D01*
X176635D01*
Y538773D01*
X176590D01*
Y538861D01*
X176546D01*
Y538950D01*
X176502D01*
Y538994D01*
X176458D01*
Y539082D01*
X176413D01*
Y539171D01*
X176369D01*
Y539259D01*
X176325D01*
Y539304D01*
X174600D01*
Y539259D01*
X174644D01*
Y539171D01*
X174688D01*
Y539082D01*
X174732D01*
Y539038D01*
X174777D01*
Y538950D01*
X174821D01*
Y538861D01*
X174865D01*
Y538773D01*
X174909D01*
Y538729D01*
X174953D01*
Y538640D01*
X174998D01*
Y538552D01*
X175042D01*
Y538463D01*
X175086D01*
Y538419D01*
X175130D01*
Y538331D01*
X175175D01*
Y538242D01*
X175219D01*
Y538198D01*
X175263D01*
Y538109D01*
X175307D01*
Y538021D01*
X175352D01*
Y537977D01*
X173582D01*
Y538065D01*
X173538D01*
Y538109D01*
X173494D01*
Y538198D01*
X173450D01*
Y538286D01*
X173405D01*
Y538331D01*
X173361D01*
Y538419D01*
X173317D01*
Y538508D01*
X173273D01*
Y538596D01*
X173228D01*
Y538640D01*
X173184D01*
Y538729D01*
X173140D01*
Y538817D01*
X173096D01*
Y538861D01*
X173051D01*
Y538950D01*
X173007D01*
Y539038D01*
X172963D01*
Y539127D01*
X172919D01*
Y539171D01*
X172874D01*
Y539259D01*
X172830D01*
Y539304D01*
X171149D01*
Y539215D01*
X171194D01*
Y539127D01*
X171238D01*
Y539038D01*
X171282D01*
Y538994D01*
X171326D01*
Y538906D01*
X171370D01*
Y538817D01*
X171415D01*
Y538729D01*
X171459D01*
Y538684D01*
X171503D01*
Y538596D01*
X171547D01*
Y538508D01*
X171592D01*
Y538419D01*
X171636D01*
Y538375D01*
X171680D01*
Y538286D01*
X171724D01*
Y538198D01*
X171769D01*
Y538154D01*
X171813D01*
Y538065D01*
X171857D01*
Y537977D01*
X170088D01*
Y538065D01*
X170043D01*
Y538154D01*
X169999D01*
Y538242D01*
X169955D01*
Y538286D01*
X169911D01*
Y538375D01*
X169866D01*
Y538463D01*
X169822D01*
Y538552D01*
X169778D01*
Y538596D01*
X169734D01*
Y538684D01*
X169690D01*
Y538773D01*
X169645D01*
Y538817D01*
X169601D01*
Y538906D01*
X169557D01*
Y538994D01*
X169512D01*
Y539082D01*
X169468D01*
Y539127D01*
X169424D01*
Y539215D01*
X169380D01*
Y539304D01*
X167655D01*
Y539215D01*
X167699D01*
Y539127D01*
X167743D01*
Y539082D01*
X167787D01*
Y538994D01*
X167832D01*
Y538906D01*
X167876D01*
Y538861D01*
X167920D01*
Y538773D01*
X167964D01*
Y538684D01*
X168008D01*
Y538596D01*
X168053D01*
Y538552D01*
X168097D01*
Y538463D01*
X168141D01*
Y538375D01*
X168185D01*
Y538286D01*
X168230D01*
Y538242D01*
X168274D01*
Y538154D01*
X168318D01*
Y538065D01*
X168362D01*
Y538021D01*
X168407D01*
Y537977D01*
X166637D01*
Y538021D01*
X166593D01*
Y538109D01*
X166549D01*
Y538198D01*
X166505D01*
Y538242D01*
X166460D01*
Y538331D01*
X166416D01*
Y538375D01*
Y538419D01*
X166372D01*
Y538463D01*
X166328D01*
Y538552D01*
X166283D01*
Y538640D01*
X166239D01*
Y538684D01*
X166195D01*
Y538773D01*
X166151D01*
Y538861D01*
X166106D01*
Y538950D01*
X166062D01*
Y538994D01*
X166018D01*
Y539082D01*
X165974D01*
Y539171D01*
X165929D01*
Y539259D01*
X165885D01*
Y539304D01*
X164160D01*
Y539259D01*
X164204D01*
Y539171D01*
X164248D01*
Y539082D01*
X164293D01*
Y539038D01*
X164337D01*
Y538950D01*
X164381D01*
Y538861D01*
X164425D01*
Y538773D01*
X164470D01*
Y538729D01*
X164514D01*
Y538640D01*
X164558D01*
Y538552D01*
X164602D01*
Y538463D01*
X164647D01*
Y538419D01*
X164691D01*
Y538331D01*
X164735D01*
Y538242D01*
X164779D01*
Y538198D01*
X164823D01*
Y538109D01*
X164868D01*
Y538021D01*
X164912D01*
Y537977D01*
X163143D01*
Y538021D01*
X163098D01*
Y538109D01*
X163054D01*
Y538198D01*
X163010D01*
Y538286D01*
X162966D01*
Y538331D01*
X162921D01*
Y538419D01*
X162877D01*
Y538508D01*
X162833D01*
Y538596D01*
X162789D01*
Y538640D01*
X162744D01*
Y538729D01*
X162700D01*
Y538817D01*
X162656D01*
Y538861D01*
X162612D01*
Y538950D01*
X162567D01*
Y539038D01*
X162523D01*
Y539127D01*
X162479D01*
Y539171D01*
X162435D01*
Y539259D01*
X162390D01*
Y539304D01*
X160710D01*
Y539215D01*
X160754D01*
Y539127D01*
X160798D01*
Y539038D01*
X160842D01*
Y538994D01*
X160887D01*
Y538906D01*
X160931D01*
Y538817D01*
X160975D01*
Y538729D01*
X161019D01*
Y538684D01*
X161063D01*
Y538596D01*
X161108D01*
Y538508D01*
X161152D01*
Y538419D01*
X161196D01*
Y538375D01*
X161240D01*
Y538286D01*
X161285D01*
Y538198D01*
X161329D01*
Y538154D01*
X161373D01*
Y538065D01*
X161417D01*
Y537977D01*
X159648D01*
Y538065D01*
X159604D01*
Y538154D01*
X159559D01*
Y538242D01*
X159515D01*
Y538286D01*
X159471D01*
Y538375D01*
X159427D01*
Y538463D01*
X159382D01*
Y538552D01*
X159338D01*
Y538596D01*
X159294D01*
Y538684D01*
X159250D01*
Y538773D01*
X159205D01*
Y538861D01*
X159161D01*
Y538906D01*
X159117D01*
Y538994D01*
X159073D01*
Y539082D01*
X159029D01*
Y539127D01*
X158984D01*
Y539215D01*
X158940D01*
Y539304D01*
X157171D01*
Y539348D01*
X157126D01*
Y539436D01*
X157082D01*
Y539481D01*
X157038D01*
Y539569D01*
X156994D01*
Y539658D01*
X156949D01*
Y539746D01*
X156905D01*
Y539790D01*
X156861D01*
Y539879D01*
X156817D01*
Y539967D01*
X156772D01*
Y540056D01*
X156728D01*
Y540100D01*
X156684D01*
Y540189D01*
X156640D01*
Y540277D01*
X156596D01*
Y540365D01*
X156551D01*
Y540410D01*
X156507D01*
Y540498D01*
X156463D01*
Y540587D01*
X156419D01*
Y540631D01*
X158188D01*
Y540542D01*
X158232D01*
Y540498D01*
X158277D01*
Y540410D01*
X158321D01*
Y540321D01*
X158365D01*
Y540233D01*
X158409D01*
Y540189D01*
X158454D01*
Y540100D01*
X158498D01*
Y540012D01*
X158542D01*
Y539967D01*
X158586D01*
Y539879D01*
X158630D01*
Y539790D01*
X158675D01*
Y539702D01*
X158719D01*
Y539613D01*
X158763D01*
Y539569D01*
X158807D01*
Y539481D01*
X158852D01*
Y539392D01*
X158896D01*
Y539348D01*
X158940D01*
Y539304D01*
X160621D01*
Y539392D01*
X160577D01*
Y539481D01*
X160533D01*
Y539525D01*
X160488D01*
Y539613D01*
X160444D01*
Y539702D01*
X160400D01*
Y539790D01*
X160356D01*
Y539879D01*
X160311D01*
Y539923D01*
X160267D01*
Y540012D01*
X160223D01*
Y540100D01*
X160179D01*
Y540144D01*
X160134D01*
Y540233D01*
X160090D01*
Y540321D01*
X160046D01*
Y540410D01*
X160002D01*
Y540454D01*
X159958D01*
Y540542D01*
X159913D01*
Y540631D01*
X161638D01*
Y540587D01*
X161683D01*
Y540542D01*
X161727D01*
Y540454D01*
X161771D01*
Y540365D01*
X161816D01*
Y540277D01*
X161860D01*
Y540233D01*
X161904D01*
Y540144D01*
X161948D01*
Y540056D01*
X161992D01*
Y540012D01*
X162037D01*
Y539923D01*
X162081D01*
Y539835D01*
X162125D01*
Y539746D01*
X162169D01*
Y539702D01*
X162214D01*
Y539613D01*
X162258D01*
Y539525D01*
X162302D01*
Y539436D01*
X162346D01*
Y539392D01*
X162390D01*
Y539304D01*
X164116D01*
Y539348D01*
X164072D01*
Y539436D01*
X164027D01*
Y539525D01*
X163983D01*
Y539613D01*
X163939D01*
Y539658D01*
X163894D01*
Y539746D01*
X163850D01*
Y539835D01*
X163806D01*
Y539923D01*
X163762D01*
Y539967D01*
X163718D01*
Y540056D01*
X163673D01*
Y540144D01*
X163629D01*
Y540189D01*
X163585D01*
Y540277D01*
X163541D01*
Y540365D01*
X163496D01*
Y540454D01*
X163452D01*
Y540498D01*
X163408D01*
Y540587D01*
X163364D01*
Y540631D01*
X165133D01*
Y540587D01*
X165177D01*
Y540498D01*
X165222D01*
Y540410D01*
X165266D01*
Y540321D01*
X165310D01*
Y540277D01*
X165354D01*
Y540189D01*
X165399D01*
Y540100D01*
X165443D01*
Y540056D01*
X165487D01*
Y539967D01*
X165531D01*
Y539879D01*
X165576D01*
Y539790D01*
X165620D01*
Y539746D01*
X165664D01*
Y539658D01*
X165708D01*
Y539569D01*
X165752D01*
Y539481D01*
X165797D01*
Y539436D01*
X165841D01*
Y539348D01*
X165885D01*
Y539304D01*
X167610D01*
Y539348D01*
X167566D01*
Y539436D01*
X167522D01*
Y539481D01*
X167478D01*
Y539569D01*
X167433D01*
Y539658D01*
X167389D01*
Y539746D01*
X167345D01*
Y539790D01*
X167301D01*
Y539879D01*
X167256D01*
Y539967D01*
X167212D01*
Y540056D01*
X167168D01*
Y540100D01*
X167124D01*
Y540189D01*
X167079D01*
Y540277D01*
X167035D01*
Y540321D01*
X166991D01*
Y540410D01*
X166947D01*
Y540498D01*
X166903D01*
Y540587D01*
X166858D01*
Y540631D01*
X168628D01*
Y540542D01*
X168672D01*
Y540498D01*
X168716D01*
Y540410D01*
X168761D01*
Y540321D01*
X168805D01*
Y540233D01*
X168849D01*
Y540189D01*
X168893D01*
Y540100D01*
X168937D01*
Y540012D01*
X168982D01*
Y539967D01*
X169026D01*
Y539879D01*
X169070D01*
Y539790D01*
X169114D01*
Y539702D01*
X169159D01*
Y539658D01*
X169203D01*
Y539569D01*
X169247D01*
Y539481D01*
X169291D01*
Y539392D01*
X169336D01*
Y539348D01*
X169380D01*
Y539304D01*
X171061D01*
Y539392D01*
X171017D01*
Y539481D01*
X170972D01*
Y539525D01*
X170928D01*
Y539613D01*
X170884D01*
Y539702D01*
X170840D01*
Y539790D01*
X170795D01*
Y539835D01*
X170751D01*
Y539923D01*
X170707D01*
Y540012D01*
X170663D01*
Y540100D01*
X170618D01*
Y540189D01*
X170574D01*
Y540233D01*
X170530D01*
Y540321D01*
X170486D01*
Y540410D01*
X170441D01*
Y540454D01*
X170397D01*
Y540542D01*
X170353D01*
Y540631D01*
X172078D01*
Y540587D01*
X172123D01*
Y540542D01*
X172167D01*
Y540454D01*
X172211D01*
Y540365D01*
X172255D01*
Y540277D01*
X172299D01*
Y540233D01*
X172344D01*
Y540144D01*
X172388D01*
Y540056D01*
X172432D01*
Y540012D01*
X172476D01*
Y539923D01*
X172521D01*
Y539835D01*
X172565D01*
Y539746D01*
X172609D01*
Y539702D01*
X172653D01*
Y539613D01*
X172697D01*
Y539525D01*
X172742D01*
Y539436D01*
X172786D01*
Y539392D01*
X172830D01*
Y539304D01*
X174555D01*
Y539348D01*
X174511D01*
Y539436D01*
X174467D01*
Y539525D01*
X174423D01*
Y539613D01*
X174379D01*
Y539658D01*
X174334D01*
Y539746D01*
X174290D01*
Y539835D01*
X174246D01*
Y539923D01*
X174202D01*
Y539967D01*
X174157D01*
Y540056D01*
X174113D01*
Y540144D01*
X174069D01*
Y540189D01*
X174025D01*
Y540277D01*
X173980D01*
Y540365D01*
X173936D01*
Y540454D01*
X173892D01*
Y540498D01*
X173848D01*
Y540587D01*
X173803D01*
Y540631D01*
X175573D01*
Y540587D01*
X175617D01*
Y540498D01*
X175661D01*
Y540410D01*
X175706D01*
Y540321D01*
X175750D01*
Y540277D01*
X175794D01*
Y540189D01*
X175838D01*
Y540100D01*
X175882D01*
Y540056D01*
X175927D01*
Y539967D01*
X175971D01*
Y539879D01*
X176015D01*
Y539790D01*
X176059D01*
Y539746D01*
X176104D01*
Y539658D01*
X176148D01*
Y539569D01*
X176192D01*
Y539525D01*
X176236D01*
Y539436D01*
X176281D01*
Y539348D01*
X176325D01*
Y539304D01*
X178050D01*
Y539348D01*
X178006D01*
Y539436D01*
X177962D01*
Y539481D01*
X177917D01*
Y539569D01*
X177873D01*
Y539658D01*
X177829D01*
Y539702D01*
X177785D01*
Y539790D01*
X177740D01*
Y539879D01*
X177696D01*
Y539967D01*
X177652D01*
Y540012D01*
X177608D01*
Y540100D01*
X177564D01*
Y540189D01*
X177519D01*
Y540277D01*
X177475D01*
Y540321D01*
X177431D01*
Y540410D01*
X177386D01*
Y540498D01*
X177342D01*
Y540587D01*
X177298D01*
Y540631D01*
X179068D01*
Y540542D01*
D02*
G37*
G36*
X132310Y540631D02*
X155799D01*
Y540587D01*
X155844D01*
Y540498D01*
X155888D01*
Y540410D01*
X155932D01*
Y540365D01*
X155976D01*
Y540277D01*
X156020D01*
Y540189D01*
X156065D01*
Y540100D01*
X156109D01*
Y540056D01*
X156153D01*
Y539967D01*
X156198D01*
Y539879D01*
X156242D01*
Y539835D01*
X156286D01*
Y539746D01*
X156330D01*
Y539658D01*
X156374D01*
Y539569D01*
X156419D01*
Y539525D01*
X156463D01*
Y539436D01*
X156507D01*
Y539348D01*
X156551D01*
Y539304D01*
X156596D01*
Y539215D01*
X156640D01*
Y539127D01*
X156684D01*
Y539038D01*
X156728D01*
Y538994D01*
X156772D01*
Y538906D01*
X156817D01*
Y538817D01*
X156861D01*
Y538773D01*
X156905D01*
Y538684D01*
X156949D01*
Y538596D01*
X156994D01*
Y538508D01*
X157038D01*
Y538463D01*
X157082D01*
Y538375D01*
X157126D01*
Y538286D01*
X157171D01*
Y538242D01*
X157215D01*
Y538154D01*
X157259D01*
Y538065D01*
X157303D01*
Y537977D01*
X127532D01*
Y538021D01*
X127488D01*
Y538109D01*
X127444D01*
Y538198D01*
X127400D01*
Y538242D01*
X127356D01*
Y538331D01*
X127311D01*
Y538419D01*
X127267D01*
Y538508D01*
X127223D01*
Y538552D01*
X127179D01*
Y538640D01*
X127134D01*
Y538729D01*
X127090D01*
Y538773D01*
X127046D01*
Y538861D01*
X127002D01*
Y538950D01*
X126957D01*
Y539038D01*
X126913D01*
Y539082D01*
X126869D01*
Y539171D01*
X126825D01*
Y539259D01*
X126780D01*
Y539348D01*
X126736D01*
Y539392D01*
X126692D01*
Y539481D01*
X126648D01*
Y539569D01*
X126603D01*
Y539613D01*
X126559D01*
Y539702D01*
X126515D01*
Y539790D01*
X126471D01*
Y539835D01*
X126427D01*
Y539923D01*
X126382D01*
Y540012D01*
X126338D01*
Y540100D01*
X126294D01*
Y540144D01*
X126250D01*
Y540233D01*
X126205D01*
Y540321D01*
X126161D01*
Y540365D01*
X126117D01*
Y540454D01*
X126073D01*
Y540542D01*
X126029D01*
Y540631D01*
X126073D01*
Y540675D01*
X132310D01*
Y540631D01*
D02*
G37*
G36*
X189419Y537490D02*
X188976D01*
Y537446D01*
X188932D01*
Y537490D01*
X188844D01*
Y537446D01*
X188092D01*
Y537402D01*
X187163D01*
Y537357D01*
X186278D01*
Y537313D01*
X185393D01*
Y537269D01*
X184464D01*
Y537225D01*
X183580D01*
Y537180D01*
X181810D01*
Y537136D01*
X179820D01*
Y537092D01*
X179775D01*
Y537136D01*
X179731D01*
Y537092D01*
X179687D01*
Y537136D01*
X179377D01*
Y537092D01*
X177917D01*
Y537048D01*
X175927D01*
Y537003D01*
X175794D01*
Y537048D01*
X175750D01*
Y537003D01*
X175661D01*
Y537048D01*
X175617D01*
Y537003D01*
X175573D01*
Y537048D01*
X175529D01*
Y537003D01*
X173980D01*
Y536959D01*
X172034D01*
Y536915D01*
X170088D01*
Y536871D01*
X168141D01*
Y536827D01*
X167832D01*
Y536871D01*
X167743D01*
Y536827D01*
X166195D01*
Y536782D01*
X163939D01*
Y536738D01*
X163894D01*
Y536782D01*
X163806D01*
Y536738D01*
X162302D01*
Y536694D01*
X160356D01*
Y536650D01*
X160223D01*
Y536694D01*
X160179D01*
Y536650D01*
X160090D01*
Y536694D01*
X160046D01*
Y536650D01*
X160002D01*
Y536694D01*
X159958D01*
Y536650D01*
X158409D01*
Y536605D01*
X156463D01*
Y536561D01*
X154516D01*
Y536517D01*
X152570D01*
Y536473D01*
X152305D01*
Y536517D01*
X152260D01*
Y536473D01*
X150933D01*
Y536428D01*
X149031D01*
Y536384D01*
X148987D01*
Y536428D01*
X148943D01*
Y536384D01*
X147660D01*
Y536340D01*
X146023D01*
Y536296D01*
X144386D01*
Y536251D01*
X144254D01*
Y536296D01*
X144210D01*
Y536251D01*
X144077D01*
Y536296D01*
X144033D01*
Y536251D01*
X142750D01*
Y536207D01*
X141113D01*
Y536163D01*
X139476D01*
Y536119D01*
X137884D01*
Y536074D01*
X136247D01*
Y536030D01*
X136159D01*
Y536074D01*
X136070D01*
Y536119D01*
X135982D01*
Y536163D01*
X135893D01*
Y536207D01*
X135805D01*
Y536251D01*
X135760D01*
Y536296D01*
X135672D01*
Y536340D01*
X135583D01*
Y536384D01*
X135495D01*
Y536428D01*
X135406D01*
Y536473D01*
X135318D01*
Y536517D01*
X135230D01*
Y536561D01*
X135141D01*
Y536605D01*
X135053D01*
Y536650D01*
X134964D01*
Y536694D01*
X134876D01*
Y536738D01*
X134832D01*
Y536782D01*
X134699D01*
Y536827D01*
X134654D01*
Y536871D01*
X134566D01*
Y536915D01*
X134478D01*
Y536959D01*
X134389D01*
Y537003D01*
X134301D01*
Y537048D01*
X134212D01*
Y537092D01*
X134124D01*
Y537136D01*
X134035D01*
Y537180D01*
X133947D01*
Y537225D01*
X133858D01*
Y537269D01*
X133770D01*
Y537313D01*
X133681D01*
Y537357D01*
X133593D01*
Y537402D01*
X133504D01*
Y537446D01*
X133460D01*
Y537490D01*
X133416D01*
Y537534D01*
X133726D01*
Y537490D01*
X133770D01*
Y537534D01*
X184597D01*
Y537490D01*
X184686D01*
Y537534D01*
X184862D01*
Y537490D01*
X184907D01*
Y537534D01*
X184951D01*
Y537490D01*
X184995D01*
Y537534D01*
X185128D01*
Y537490D01*
X185172D01*
Y537534D01*
X185836D01*
Y537490D01*
X185880D01*
Y537534D01*
X186057D01*
Y537490D01*
X186101D01*
Y537534D01*
X186588D01*
Y537490D01*
X186632D01*
Y537534D01*
X186676D01*
Y537490D01*
X186720D01*
Y537534D01*
X187207D01*
Y537490D01*
X187251D01*
Y537534D01*
X188003D01*
Y537490D01*
X188047D01*
Y537534D01*
X189419D01*
Y537490D01*
D02*
G37*
G36*
X132354D02*
X132487D01*
Y537446D01*
X132531D01*
Y537402D01*
X132620D01*
Y537357D01*
X132708D01*
Y537313D01*
X132797D01*
Y537269D01*
X132885D01*
Y537225D01*
X132974D01*
Y537180D01*
X133062D01*
Y537136D01*
X133150D01*
Y537092D01*
X133239D01*
Y537048D01*
X133327D01*
Y537003D01*
X133416D01*
Y536959D01*
X133504D01*
Y536915D01*
X133593D01*
Y536871D01*
X133637D01*
Y536827D01*
X133726D01*
Y536782D01*
X133814D01*
Y536738D01*
X133903D01*
Y536694D01*
X133991D01*
Y536650D01*
X134079D01*
Y536605D01*
X134168D01*
Y536561D01*
X134256D01*
Y536517D01*
X134345D01*
Y536473D01*
X134433D01*
Y536428D01*
X134522D01*
Y536384D01*
X134610D01*
Y536340D01*
X134699D01*
Y536296D01*
X134743D01*
Y536251D01*
X134832D01*
Y536207D01*
X134920D01*
Y536163D01*
X135008D01*
Y536119D01*
X135097D01*
Y536074D01*
X135141D01*
Y536030D01*
X135053D01*
Y536074D01*
X134920D01*
Y536030D01*
X134876D01*
Y536074D01*
X134699D01*
Y536030D01*
X134654D01*
Y536074D01*
X134522D01*
Y536030D01*
X134478D01*
Y536074D01*
X133327D01*
Y536119D01*
X133239D01*
Y536163D01*
X133150D01*
Y536207D01*
X133106D01*
Y536251D01*
X133018D01*
Y536296D01*
X132929D01*
Y536340D01*
X132841D01*
Y536384D01*
X132752D01*
Y536428D01*
X132664D01*
Y536473D01*
X132575D01*
Y536517D01*
X132487D01*
Y536561D01*
X132398D01*
Y536605D01*
X132310D01*
Y536650D01*
X132221D01*
Y536694D01*
X132133D01*
Y536738D01*
X132045D01*
Y536782D01*
X131956D01*
Y536827D01*
X131868D01*
Y536871D01*
X131779D01*
Y536915D01*
X131691D01*
Y536959D01*
X131602D01*
Y537003D01*
X131514D01*
Y537048D01*
X131425D01*
Y537092D01*
X131381D01*
Y537136D01*
X131293D01*
Y537180D01*
X131204D01*
Y537225D01*
X131116D01*
Y537269D01*
X131027D01*
Y537313D01*
X130939D01*
Y537357D01*
X130850D01*
Y537402D01*
X130762D01*
Y537446D01*
X130673D01*
Y537490D01*
X130629D01*
Y537534D01*
X130894D01*
Y537490D01*
X130939D01*
Y537534D01*
X132354D01*
Y537490D01*
D02*
G37*
G36*
X129567D02*
X129700D01*
Y537446D01*
X129744D01*
Y537402D01*
X129877D01*
Y537357D01*
X129965D01*
Y537313D01*
X130010D01*
Y537269D01*
X130098D01*
Y537225D01*
X130187D01*
Y537180D01*
X130275D01*
Y537136D01*
X130364D01*
Y537092D01*
X130452D01*
Y537048D01*
X130541D01*
Y537003D01*
X130629D01*
Y536959D01*
X130718D01*
Y536915D01*
X130806D01*
Y536871D01*
X130894D01*
Y536827D01*
X130983D01*
Y536782D01*
X131071D01*
Y536738D01*
X131116D01*
Y536694D01*
X131204D01*
Y536650D01*
X131293D01*
Y536605D01*
X131381D01*
Y536561D01*
X131470D01*
Y536517D01*
X131558D01*
Y536473D01*
X131647D01*
Y536428D01*
X131735D01*
Y536384D01*
X131823D01*
Y536340D01*
X131912D01*
Y536296D01*
X132000D01*
Y536251D01*
X132089D01*
Y536207D01*
X132177D01*
Y536163D01*
X132221D01*
Y536119D01*
X132310D01*
Y536074D01*
X132354D01*
Y536030D01*
X132133D01*
Y536074D01*
X132045D01*
Y536030D01*
X132000D01*
Y536074D01*
X131956D01*
Y536030D01*
X131912D01*
Y536074D01*
X131868D01*
Y536030D01*
X131691D01*
Y536074D01*
X130585D01*
Y536119D01*
X130496D01*
Y536163D01*
X130408D01*
Y536207D01*
X130319D01*
Y536251D01*
X130231D01*
Y536296D01*
X130142D01*
Y536340D01*
X130054D01*
Y536384D01*
X129965D01*
Y536428D01*
X129877D01*
Y536473D01*
X129789D01*
Y536517D01*
X129700D01*
Y536561D01*
X129612D01*
Y536605D01*
X129523D01*
Y536650D01*
X129435D01*
Y536694D01*
X129346D01*
Y536738D01*
X129258D01*
Y536782D01*
X129169D01*
Y536827D01*
X129081D01*
Y536871D01*
X128992D01*
Y536915D01*
X128948D01*
Y536959D01*
X128860D01*
Y537003D01*
X128771D01*
Y537048D01*
X128683D01*
Y537092D01*
X128594D01*
Y537136D01*
X128506D01*
Y537180D01*
X128417D01*
Y537225D01*
X128329D01*
Y537269D01*
X128240D01*
Y537313D01*
X128152D01*
Y537357D01*
X128063D01*
Y537402D01*
X127975D01*
Y537446D01*
X127886D01*
Y537490D01*
X127842D01*
Y537534D01*
X128019D01*
Y537490D01*
X128063D01*
Y537534D01*
X128285D01*
Y537490D01*
X128329D01*
Y537534D01*
X129435D01*
Y537490D01*
X129479D01*
Y537534D01*
X129567D01*
Y537490D01*
D02*
G37*
%LPC*%
G36*
X151730Y544745D02*
X150004D01*
Y544700D01*
X149960D01*
Y544656D01*
X149916D01*
Y544612D01*
X149960D01*
Y544524D01*
X150004D01*
Y544435D01*
X150049D01*
Y544347D01*
X150093D01*
Y544302D01*
X150137D01*
Y544214D01*
X150181D01*
Y544170D01*
X150226D01*
Y544126D01*
X150270D01*
Y544081D01*
X150402D01*
Y544037D01*
X152128D01*
Y544081D01*
X152084D01*
Y544126D01*
X152039D01*
Y544214D01*
X151995D01*
Y544302D01*
X151951D01*
Y544347D01*
X151907D01*
Y544435D01*
X151862D01*
Y544524D01*
X151818D01*
Y544612D01*
X151774D01*
Y544656D01*
X151730D01*
Y544745D01*
D02*
G37*
G36*
X145315Y544524D02*
X145271D01*
Y544347D01*
X145315D01*
Y544170D01*
X145360D01*
Y543993D01*
X145404D01*
Y543816D01*
X145448D01*
Y543595D01*
X145492D01*
Y543418D01*
X145537D01*
Y543285D01*
X146421D01*
Y543329D01*
X146377D01*
Y543373D01*
X146333D01*
Y543418D01*
X146289D01*
Y543462D01*
X146244D01*
Y543550D01*
X146200D01*
Y543595D01*
X146156D01*
Y543639D01*
X146112D01*
Y543683D01*
X146067D01*
Y543727D01*
X146023D01*
Y543772D01*
X145979D01*
Y543816D01*
X145935D01*
Y543860D01*
X145890D01*
Y543904D01*
X145846D01*
Y543949D01*
X145802D01*
Y543993D01*
X145758D01*
Y544037D01*
X145713D01*
Y544081D01*
X145669D01*
Y544126D01*
X145625D01*
Y544170D01*
X145581D01*
Y544214D01*
X145537D01*
Y544302D01*
X145492D01*
Y544347D01*
X145448D01*
Y544391D01*
X145404D01*
Y544435D01*
X145360D01*
Y544479D01*
X145315D01*
Y544524D01*
D02*
G37*
G36*
X180262Y545320D02*
X180218D01*
Y545276D01*
X180173D01*
Y545187D01*
X180218D01*
Y545099D01*
X180262D01*
Y545054D01*
X180306D01*
Y544966D01*
X180350D01*
Y544877D01*
X180395D01*
Y544833D01*
X180439D01*
Y544745D01*
X180483D01*
Y544656D01*
X180527D01*
Y544612D01*
X180571D01*
Y544524D01*
X182960D01*
Y544479D01*
X183093D01*
Y544435D01*
X183182D01*
Y544391D01*
X183226D01*
Y544347D01*
X183270D01*
Y544258D01*
X183314D01*
Y544170D01*
X183358D01*
Y544081D01*
X183403D01*
Y544037D01*
X183447D01*
Y543949D01*
X183491D01*
Y543860D01*
X183535D01*
Y543816D01*
X183580D01*
Y543727D01*
X183624D01*
Y543639D01*
X183668D01*
Y543595D01*
X183712D01*
Y543506D01*
X183756D01*
Y543418D01*
X183801D01*
Y543373D01*
X183845D01*
Y543285D01*
X183889D01*
Y543196D01*
X183933D01*
Y543020D01*
X183756D01*
Y542975D01*
X181545D01*
Y542887D01*
X181589D01*
Y542798D01*
X181633D01*
Y542710D01*
X181677D01*
Y542666D01*
X181722D01*
Y542577D01*
X181766D01*
Y542489D01*
X181810D01*
Y542445D01*
X181854D01*
Y542356D01*
X181899D01*
Y542268D01*
X181943D01*
Y542223D01*
X185039D01*
Y542268D01*
X185260D01*
Y542312D01*
X185349D01*
Y542356D01*
X185438D01*
Y542445D01*
X185482D01*
Y542666D01*
X185438D01*
Y542754D01*
X185393D01*
Y542843D01*
X185349D01*
Y542931D01*
X185305D01*
Y543020D01*
X185260D01*
Y543064D01*
X185216D01*
Y543152D01*
X185172D01*
Y543241D01*
X185128D01*
Y543285D01*
X185084D01*
Y543373D01*
X185039D01*
Y543462D01*
X184995D01*
Y543550D01*
X184951D01*
Y543595D01*
X184907D01*
Y543683D01*
X184862D01*
Y543772D01*
X184818D01*
Y543816D01*
X184774D01*
Y543904D01*
X184730D01*
Y543993D01*
X184686D01*
Y544037D01*
X184641D01*
Y544126D01*
X184597D01*
Y544214D01*
X184553D01*
Y544258D01*
X184509D01*
Y544347D01*
X184464D01*
Y544435D01*
X184420D01*
Y544524D01*
X184376D01*
Y544568D01*
X184332D01*
Y544656D01*
X184287D01*
Y544700D01*
X184243D01*
Y544789D01*
X184199D01*
Y544833D01*
X184155D01*
Y544877D01*
X184110D01*
Y544922D01*
X184066D01*
Y544966D01*
X184022D01*
Y545010D01*
X183933D01*
Y545054D01*
X183889D01*
Y545099D01*
X183801D01*
Y545143D01*
X183712D01*
Y545187D01*
X183580D01*
Y545231D01*
X183358D01*
Y545276D01*
X180262D01*
Y545320D01*
D02*
G37*
G36*
X178581Y545276D02*
X176988D01*
Y544966D01*
X177033D01*
Y544700D01*
X177077D01*
Y544435D01*
X177121D01*
Y544126D01*
X177165D01*
Y543860D01*
X177210D01*
Y543550D01*
X177254D01*
Y543285D01*
X177298D01*
Y542975D01*
X177342D01*
Y542710D01*
X177386D01*
Y542445D01*
X177431D01*
Y542223D01*
X178758D01*
Y542356D01*
X178714D01*
Y542533D01*
X178669D01*
Y542666D01*
X179952D01*
Y542621D01*
X179997D01*
Y542577D01*
X180041D01*
Y542533D01*
X180085D01*
Y542489D01*
X180129D01*
Y542445D01*
X180173D01*
Y542356D01*
X180218D01*
Y542312D01*
X180262D01*
Y542268D01*
X180306D01*
Y542223D01*
X181677D01*
Y542268D01*
X181633D01*
Y542312D01*
X181589D01*
Y542356D01*
X181545D01*
Y542400D01*
X181500D01*
Y542445D01*
X181456D01*
Y542489D01*
X181412D01*
Y542533D01*
X181368D01*
Y542577D01*
X181324D01*
Y542621D01*
X181279D01*
Y542666D01*
X181235D01*
Y542710D01*
X181191D01*
Y542754D01*
X181147D01*
Y542798D01*
X181102D01*
Y542843D01*
X181058D01*
Y542887D01*
X181014D01*
Y542931D01*
X180970D01*
Y542975D01*
X180925D01*
Y543020D01*
X180881D01*
Y543064D01*
X180837D01*
Y543108D01*
X180793D01*
Y543152D01*
X180748D01*
Y543196D01*
X180704D01*
Y543241D01*
X180616D01*
Y543285D01*
X180571D01*
Y543329D01*
X180527D01*
Y543373D01*
X180483D01*
Y543418D01*
X180439D01*
Y543462D01*
X180395D01*
Y543506D01*
X180350D01*
Y543550D01*
X180306D01*
Y543595D01*
X180262D01*
Y543639D01*
X180218D01*
Y543683D01*
X180173D01*
Y543727D01*
X180129D01*
Y543772D01*
X180085D01*
Y543816D01*
X180041D01*
Y543860D01*
X179997D01*
Y543904D01*
X179952D01*
Y543949D01*
X179908D01*
Y543993D01*
X179864D01*
Y544037D01*
X179820D01*
Y544081D01*
X179775D01*
Y544126D01*
X179731D01*
Y544170D01*
X179687D01*
Y544214D01*
X179643D01*
Y544258D01*
X179598D01*
Y544302D01*
X179554D01*
Y544347D01*
X179510D01*
Y544391D01*
X179466D01*
Y544435D01*
X179421D01*
Y544479D01*
X179377D01*
Y544524D01*
X179333D01*
Y544568D01*
X179289D01*
Y544612D01*
X179244D01*
Y544656D01*
X179200D01*
Y544700D01*
X179156D01*
Y544745D01*
X179112D01*
Y544789D01*
X179068D01*
Y544833D01*
X179023D01*
Y544877D01*
X178979D01*
Y544922D01*
X178935D01*
Y544966D01*
X178891D01*
Y545010D01*
X178802D01*
Y545054D01*
X178758D01*
Y545099D01*
X178714D01*
Y545143D01*
X178669D01*
Y545187D01*
X178625D01*
Y545231D01*
X178581D01*
Y545276D01*
D02*
G37*
G36*
X175352D02*
X174113D01*
Y545187D01*
X174157D01*
Y545099D01*
X174202D01*
Y545054D01*
X174246D01*
Y544966D01*
X174290D01*
Y544877D01*
X174334D01*
Y544789D01*
X174379D01*
Y544745D01*
X174423D01*
Y544656D01*
X174467D01*
Y544612D01*
X174511D01*
Y544524D01*
X174555D01*
Y544435D01*
X174600D01*
Y544347D01*
X174644D01*
Y544302D01*
X174688D01*
Y544214D01*
X174732D01*
Y544126D01*
X174777D01*
Y544081D01*
X174821D01*
Y543993D01*
X174865D01*
Y543904D01*
X174909D01*
Y543860D01*
X174953D01*
Y543772D01*
X174998D01*
Y543683D01*
X175042D01*
Y543639D01*
X175086D01*
Y543550D01*
X175130D01*
Y543462D01*
X175175D01*
Y543373D01*
X175219D01*
Y543329D01*
X175263D01*
Y543241D01*
X175307D01*
Y543152D01*
X175352D01*
Y543108D01*
X175396D01*
Y543020D01*
X175440D01*
Y542975D01*
X173759D01*
Y542887D01*
X173803D01*
Y542798D01*
X173848D01*
Y542754D01*
X173892D01*
Y542666D01*
X173936D01*
Y542577D01*
X173980D01*
Y542533D01*
X174025D01*
Y542445D01*
X174069D01*
Y542356D01*
X174113D01*
Y542312D01*
X174157D01*
Y542223D01*
X177121D01*
Y542268D01*
X177077D01*
Y542356D01*
X177033D01*
Y542445D01*
X176988D01*
Y542489D01*
X176944D01*
Y542577D01*
X176900D01*
Y542666D01*
X176856D01*
Y542754D01*
X176812D01*
Y542798D01*
X176767D01*
Y542887D01*
X176723D01*
Y542975D01*
X176679D01*
Y543020D01*
X176635D01*
Y543108D01*
X176590D01*
Y543196D01*
X176546D01*
Y543241D01*
X176502D01*
Y543329D01*
X176458D01*
Y543418D01*
X176413D01*
Y543462D01*
X176369D01*
Y543550D01*
X176325D01*
Y543639D01*
X176281D01*
Y543727D01*
X176236D01*
Y543772D01*
X176192D01*
Y543860D01*
X176148D01*
Y543949D01*
X176104D01*
Y543993D01*
X176059D01*
Y544081D01*
X176015D01*
Y544170D01*
X175971D01*
Y544214D01*
X175927D01*
Y544302D01*
X175882D01*
Y544391D01*
X175838D01*
Y544435D01*
X175794D01*
Y544524D01*
X175750D01*
Y544612D01*
X175706D01*
Y544700D01*
X175661D01*
Y544745D01*
X175617D01*
Y544833D01*
X175573D01*
Y544922D01*
X175529D01*
Y544966D01*
X175484D01*
Y545054D01*
X175440D01*
Y545143D01*
X175396D01*
Y545187D01*
X175352D01*
Y545276D01*
D02*
G37*
G36*
X170353D02*
X166991D01*
Y545231D01*
X166858D01*
Y545187D01*
X166770D01*
Y545143D01*
X166726D01*
Y545099D01*
X166681D01*
Y544833D01*
X166726D01*
Y544745D01*
X166770D01*
Y544656D01*
X166814D01*
Y544568D01*
X166858D01*
Y544524D01*
X166903D01*
Y544435D01*
X166947D01*
Y544347D01*
X166991D01*
Y544258D01*
X167035D01*
Y544214D01*
X167079D01*
Y544126D01*
X167124D01*
Y544037D01*
X167168D01*
Y543993D01*
X167212D01*
Y543904D01*
X167256D01*
Y543816D01*
X167301D01*
Y543772D01*
X167345D01*
Y543727D01*
X167389D01*
Y543683D01*
X167433D01*
Y543595D01*
X167478D01*
Y543550D01*
X167566D01*
Y543506D01*
X167610D01*
Y543462D01*
X167655D01*
Y543418D01*
X167743D01*
Y543373D01*
X167876D01*
Y543329D01*
X168008D01*
Y543285D01*
X168230D01*
Y543241D01*
X170264D01*
Y543196D01*
X170353D01*
Y543152D01*
X170397D01*
Y543064D01*
X170441D01*
Y542975D01*
X170486D01*
Y542931D01*
X170530D01*
Y542843D01*
X170574D01*
Y542754D01*
X170618D01*
Y542710D01*
X170663D01*
Y542621D01*
X170707D01*
Y542533D01*
X170751D01*
Y542489D01*
X170795D01*
Y542400D01*
X170840D01*
Y542312D01*
X170884D01*
Y542223D01*
X172167D01*
Y542268D01*
X172123D01*
Y542312D01*
X172078D01*
Y542400D01*
X172034D01*
Y542489D01*
X171990D01*
Y542533D01*
X171946D01*
Y542621D01*
X171901D01*
Y542710D01*
X171857D01*
Y542798D01*
X171813D01*
Y542843D01*
X171769D01*
Y542931D01*
X171724D01*
Y543020D01*
X171680D01*
Y543064D01*
X171636D01*
Y543152D01*
X171592D01*
Y543241D01*
X171547D01*
Y543285D01*
X171503D01*
Y543373D01*
X171459D01*
Y543462D01*
X171415D01*
Y543550D01*
X171370D01*
Y543595D01*
X171326D01*
Y543683D01*
X171282D01*
Y543772D01*
X171238D01*
Y543816D01*
X171194D01*
Y543904D01*
X171149D01*
Y543993D01*
X171105D01*
Y544037D01*
X171061D01*
Y544126D01*
X171017D01*
Y544214D01*
X170972D01*
Y544258D01*
X170928D01*
Y544347D01*
X170884D01*
Y544435D01*
X170840D01*
Y544479D01*
X170795D01*
Y544568D01*
X170751D01*
Y544656D01*
X170707D01*
Y544745D01*
X170663D01*
Y544789D01*
X170618D01*
Y544877D01*
X170574D01*
Y544966D01*
X170530D01*
Y545010D01*
X170486D01*
Y545099D01*
X170441D01*
Y545187D01*
X170397D01*
Y545231D01*
X170353D01*
Y545276D01*
D02*
G37*
G36*
X164823Y545320D02*
X164779D01*
Y545276D01*
X162479D01*
Y545231D01*
X162346D01*
Y545187D01*
X162258D01*
Y545143D01*
X162214D01*
Y545099D01*
X162169D01*
Y544789D01*
X162214D01*
Y544700D01*
X162258D01*
Y544612D01*
X162302D01*
Y544524D01*
X162346D01*
Y544479D01*
X162390D01*
Y544391D01*
X162435D01*
Y544302D01*
X162479D01*
Y544258D01*
X162523D01*
Y544170D01*
X162567D01*
Y544081D01*
X162612D01*
Y543993D01*
X162656D01*
Y543949D01*
X162700D01*
Y543860D01*
X162744D01*
Y543772D01*
X162789D01*
Y543727D01*
X162833D01*
Y543639D01*
X162877D01*
Y543550D01*
X162921D01*
Y543506D01*
X162966D01*
Y543418D01*
X163010D01*
Y543329D01*
X163054D01*
Y543241D01*
X163098D01*
Y543196D01*
X163143D01*
Y543108D01*
X163187D01*
Y543020D01*
X163231D01*
Y542975D01*
X163275D01*
Y542887D01*
X163320D01*
Y542843D01*
X163364D01*
Y542754D01*
X163408D01*
Y542710D01*
X163452D01*
Y542666D01*
X163496D01*
Y542621D01*
X163541D01*
Y542577D01*
X163585D01*
Y542533D01*
X163629D01*
Y542489D01*
X163673D01*
Y542445D01*
X163762D01*
Y542400D01*
X163806D01*
Y542356D01*
X163939D01*
Y542312D01*
X164072D01*
Y542268D01*
X164337D01*
Y542223D01*
X167212D01*
Y542268D01*
X167389D01*
Y542312D01*
X167522D01*
Y542356D01*
X167566D01*
Y542400D01*
X167610D01*
Y542666D01*
X167566D01*
Y542754D01*
X167522D01*
Y542843D01*
X167478D01*
Y542931D01*
X167433D01*
Y543020D01*
X167389D01*
Y543064D01*
X167345D01*
Y543152D01*
X167301D01*
Y543241D01*
X167256D01*
Y543329D01*
X167212D01*
Y543373D01*
X167168D01*
Y543462D01*
X167124D01*
Y543550D01*
X167079D01*
Y543595D01*
X167035D01*
Y543683D01*
X166991D01*
Y543772D01*
X166947D01*
Y543816D01*
X166903D01*
Y543904D01*
X166858D01*
Y543993D01*
X166814D01*
Y544037D01*
X166770D01*
Y544126D01*
X166726D01*
Y544214D01*
X166681D01*
Y544302D01*
X166637D01*
Y544347D01*
X166593D01*
Y544435D01*
X166549D01*
Y544524D01*
X166505D01*
Y544568D01*
X166460D01*
Y544656D01*
X166416D01*
Y544700D01*
X166372D01*
Y544789D01*
X166328D01*
Y544833D01*
X166283D01*
Y544877D01*
X166239D01*
Y544922D01*
X166195D01*
Y544966D01*
X166151D01*
Y545010D01*
X166106D01*
Y545054D01*
X166018D01*
Y545099D01*
X165929D01*
Y545143D01*
X165841D01*
Y545187D01*
X165708D01*
Y545231D01*
X165531D01*
Y545276D01*
X164823D01*
Y545320D01*
D02*
G37*
G36*
X161417Y545276D02*
X160179D01*
Y545231D01*
X160223D01*
Y545143D01*
X160267D01*
Y545054D01*
X160311D01*
Y545010D01*
X160356D01*
Y544922D01*
X160400D01*
Y544833D01*
X160444D01*
Y544745D01*
X160488D01*
Y544700D01*
X160533D01*
Y544612D01*
X160577D01*
Y544524D01*
X160621D01*
Y544479D01*
X160665D01*
Y544391D01*
X160710D01*
Y544302D01*
X160754D01*
Y544214D01*
X160798D01*
Y544170D01*
X160842D01*
Y544081D01*
X160887D01*
Y544037D01*
X160931D01*
Y543949D01*
X160975D01*
Y543860D01*
X161019D01*
Y543772D01*
X161063D01*
Y543727D01*
X161108D01*
Y543639D01*
X161152D01*
Y543550D01*
X161196D01*
Y543506D01*
X161240D01*
Y543418D01*
X161285D01*
Y543329D01*
X161329D01*
Y543285D01*
X161373D01*
Y543196D01*
X161417D01*
Y543108D01*
X161462D01*
Y543064D01*
X161506D01*
Y542975D01*
X159825D01*
Y542931D01*
X159869D01*
Y542843D01*
X159913D01*
Y542754D01*
X159958D01*
Y542710D01*
X160002D01*
Y542621D01*
X160046D01*
Y542533D01*
X160090D01*
Y542445D01*
X160134D01*
Y542400D01*
X160179D01*
Y542312D01*
X160223D01*
Y542223D01*
X163187D01*
Y542312D01*
X163143D01*
Y542400D01*
X163098D01*
Y542445D01*
X163054D01*
Y542533D01*
X163010D01*
Y542621D01*
X162966D01*
Y542666D01*
X162921D01*
Y542754D01*
X162877D01*
Y542843D01*
X162833D01*
Y542887D01*
X162789D01*
Y542975D01*
X162744D01*
Y543064D01*
X162700D01*
Y543152D01*
X162656D01*
Y543196D01*
X162612D01*
Y543285D01*
X162567D01*
Y543373D01*
X162523D01*
Y543418D01*
X162479D01*
Y543506D01*
X162435D01*
Y543595D01*
X162390D01*
Y543639D01*
X162346D01*
Y543727D01*
X162302D01*
Y543816D01*
X162258D01*
Y543904D01*
X162214D01*
Y543949D01*
X162169D01*
Y544037D01*
X162125D01*
Y544126D01*
X162081D01*
Y544170D01*
X162037D01*
Y544258D01*
X161992D01*
Y544347D01*
X161948D01*
Y544391D01*
X161904D01*
Y544479D01*
X161860D01*
Y544568D01*
X161816D01*
Y544612D01*
X161771D01*
Y544700D01*
X161727D01*
Y544789D01*
X161683D01*
Y544833D01*
X161638D01*
Y544922D01*
X161594D01*
Y545010D01*
X161550D01*
Y545099D01*
X161506D01*
Y545143D01*
X161462D01*
Y545231D01*
X161417D01*
Y545276D01*
D02*
G37*
G36*
X155180Y545320D02*
X155136D01*
Y545276D01*
X155092D01*
Y545231D01*
X155136D01*
Y545187D01*
X155224D01*
Y545143D01*
X155269D01*
Y545099D01*
X155357D01*
Y545054D01*
X155401D01*
Y545010D01*
X155446D01*
Y544966D01*
X155534D01*
Y544922D01*
X155578D01*
Y544877D01*
X155622D01*
Y544833D01*
X155711D01*
Y544789D01*
X155755D01*
Y544745D01*
X155799D01*
Y544700D01*
X155888D01*
Y544656D01*
X155932D01*
Y544612D01*
X156020D01*
Y544568D01*
X156065D01*
Y544524D01*
X156109D01*
Y544479D01*
X156198D01*
Y544435D01*
X156242D01*
Y544391D01*
X156286D01*
Y544347D01*
X156374D01*
Y544302D01*
X156419D01*
Y544258D01*
X156463D01*
Y544214D01*
X156551D01*
Y544170D01*
X156596D01*
Y544126D01*
X156684D01*
Y544081D01*
X156728D01*
Y544037D01*
X156772D01*
Y543993D01*
X156861D01*
Y543949D01*
X156905D01*
Y543904D01*
X156949D01*
Y543860D01*
X157038D01*
Y543816D01*
X157082D01*
Y543772D01*
X157126D01*
Y543727D01*
X157215D01*
Y543683D01*
X157259D01*
Y543639D01*
X157348D01*
Y543595D01*
X157392D01*
Y543550D01*
X157436D01*
Y543506D01*
X157525D01*
Y543418D01*
X157569D01*
Y543373D01*
X157613D01*
Y543285D01*
X157657D01*
Y543196D01*
X157702D01*
Y543152D01*
X157746D01*
Y543064D01*
X157790D01*
Y542975D01*
X157834D01*
Y542887D01*
X157878D01*
Y542843D01*
X157923D01*
Y542754D01*
X157967D01*
Y542666D01*
X158011D01*
Y542621D01*
X158055D01*
Y542533D01*
X158100D01*
Y542445D01*
X158144D01*
Y542356D01*
X158188D01*
Y542312D01*
X158232D01*
Y542223D01*
X159471D01*
Y542312D01*
X159427D01*
Y542400D01*
X159382D01*
Y542445D01*
X159338D01*
Y542533D01*
X159294D01*
Y542621D01*
X159250D01*
Y542666D01*
X159205D01*
Y542754D01*
X159161D01*
Y542843D01*
X159117D01*
Y542887D01*
X159073D01*
Y542975D01*
X159029D01*
Y543064D01*
X158984D01*
Y543152D01*
X158940D01*
Y543196D01*
X158896D01*
Y543285D01*
X158852D01*
Y543373D01*
X158807D01*
Y543418D01*
X158763D01*
Y543595D01*
X158807D01*
Y543816D01*
X158852D01*
Y544081D01*
X158896D01*
Y544347D01*
X158940D01*
Y544568D01*
X158984D01*
Y544833D01*
X159029D01*
Y545054D01*
X159073D01*
Y545276D01*
X157657D01*
Y545010D01*
X157613D01*
Y544435D01*
X157480D01*
Y544479D01*
X157436D01*
Y544524D01*
X157392D01*
Y544568D01*
X157348D01*
Y544612D01*
X157259D01*
Y544656D01*
X157215D01*
Y544700D01*
X157171D01*
Y544745D01*
X157082D01*
Y544789D01*
X157038D01*
Y544833D01*
X156994D01*
Y544877D01*
X156949D01*
Y544922D01*
X156861D01*
Y544966D01*
X156817D01*
Y545010D01*
X156772D01*
Y545054D01*
X156728D01*
Y545099D01*
X156640D01*
Y545143D01*
X156596D01*
Y545187D01*
X156551D01*
Y545231D01*
X156507D01*
Y545276D01*
X155180D01*
Y545320D01*
D02*
G37*
G36*
X156684Y543020D02*
X156330D01*
Y542975D01*
X156242D01*
Y542931D01*
X156198D01*
Y542887D01*
X156153D01*
Y542843D01*
X156109D01*
Y542710D01*
X156065D01*
Y542666D01*
X156109D01*
Y542621D01*
Y542445D01*
X156153D01*
Y542356D01*
X156198D01*
Y542312D01*
X156286D01*
Y542268D01*
X156374D01*
Y542223D01*
X156640D01*
Y542268D01*
X156728D01*
Y542312D01*
X156817D01*
Y542356D01*
X156861D01*
Y542445D01*
X156905D01*
Y542798D01*
X156861D01*
Y542887D01*
X156817D01*
Y542931D01*
X156772D01*
Y542975D01*
X156684D01*
Y543020D01*
D02*
G37*
%LPD*%
G36*
X178315Y544347D02*
X178360D01*
Y544302D01*
X178404D01*
Y544258D01*
X178448D01*
Y544214D01*
X178492D01*
Y544170D01*
X178537D01*
Y544126D01*
X178581D01*
Y544081D01*
X178625D01*
Y544037D01*
X178669D01*
Y543993D01*
X178714D01*
Y543949D01*
X178758D01*
Y543860D01*
X178802D01*
Y543816D01*
X178846D01*
Y543772D01*
X178891D01*
Y543727D01*
X178935D01*
Y543683D01*
X178979D01*
Y543639D01*
X179023D01*
Y543595D01*
X179068D01*
Y543550D01*
X179112D01*
Y543506D01*
X179156D01*
Y543462D01*
X179200D01*
Y543418D01*
X178492D01*
Y543506D01*
X178448D01*
Y543727D01*
X178404D01*
Y543904D01*
X178360D01*
Y544081D01*
X178315D01*
Y544258D01*
X178271D01*
Y544391D01*
X178315D01*
Y544347D01*
D02*
G37*
G36*
X169557Y544479D02*
X169601D01*
Y544435D01*
X169645D01*
Y544347D01*
X169690D01*
Y544258D01*
X169734D01*
Y544214D01*
X169778D01*
Y544126D01*
X169822D01*
Y544037D01*
X169866D01*
Y543949D01*
X168584D01*
Y543993D01*
X168451D01*
Y544037D01*
X168407D01*
Y544081D01*
X168362D01*
Y544126D01*
X168318D01*
Y544214D01*
X168274D01*
Y544258D01*
X168230D01*
Y544347D01*
X168185D01*
Y544479D01*
X168230D01*
Y544524D01*
X169557D01*
Y544479D01*
D02*
G37*
G36*
X165133D02*
X165266D01*
Y544435D01*
X165310D01*
Y544391D01*
X165354D01*
Y544347D01*
X165399D01*
Y544258D01*
X165443D01*
Y544214D01*
X165487D01*
Y544126D01*
X165531D01*
Y544037D01*
X165576D01*
Y543993D01*
X165620D01*
Y543904D01*
X165664D01*
Y543816D01*
X165708D01*
Y543772D01*
X165752D01*
Y543683D01*
X165797D01*
Y543595D01*
X165841D01*
Y543550D01*
X165885D01*
Y543462D01*
X165929D01*
Y543373D01*
X165974D01*
Y543285D01*
X166018D01*
Y543241D01*
X166062D01*
Y543152D01*
X166106D01*
Y543064D01*
X166062D01*
Y543020D01*
X165974D01*
Y542975D01*
X164647D01*
Y543020D01*
X164514D01*
Y543064D01*
X164425D01*
Y543108D01*
X164381D01*
Y543196D01*
X164337D01*
Y543241D01*
X164293D01*
Y543329D01*
X164248D01*
Y543418D01*
X164204D01*
Y543462D01*
X164160D01*
Y543550D01*
X164116D01*
Y543639D01*
X164072D01*
Y543683D01*
X164027D01*
Y543772D01*
X163983D01*
Y543860D01*
X163939D01*
Y543904D01*
X163894D01*
Y543993D01*
X163850D01*
Y544081D01*
X163806D01*
Y544170D01*
X163762D01*
Y544214D01*
X163718D01*
Y544302D01*
X163673D01*
Y544391D01*
X163629D01*
Y544435D01*
X163673D01*
Y544479D01*
X163762D01*
Y544524D01*
X165133D01*
Y544479D01*
D02*
G37*
G36*
X156640Y542931D02*
X156728D01*
Y542887D01*
X156772D01*
Y542798D01*
X156817D01*
Y542666D01*
X156861D01*
Y542621D01*
X156817D01*
Y542445D01*
X156772D01*
Y542400D01*
X156728D01*
Y542356D01*
X156684D01*
Y542312D01*
X156330D01*
Y542356D01*
X156286D01*
Y542400D01*
X156242D01*
Y542445D01*
X156198D01*
Y542621D01*
X156153D01*
Y542666D01*
X156198D01*
Y542798D01*
X156242D01*
Y542887D01*
X156286D01*
Y542931D01*
X156374D01*
Y542975D01*
X156640D01*
Y542931D01*
D02*
G37*
%LPC*%
G36*
Y542843D02*
X156374D01*
Y542754D01*
X156330D01*
Y542710D01*
Y542666D01*
X156374D01*
Y542533D01*
X156330D01*
Y542445D01*
X156419D01*
Y542533D01*
X156463D01*
Y542577D01*
X156596D01*
Y542533D01*
X156551D01*
Y542489D01*
X156596D01*
Y542445D01*
X156640D01*
Y542843D01*
D02*
G37*
%LPD*%
G36*
X156551Y542754D02*
X156596D01*
Y542666D01*
X156551D01*
Y542621D01*
X156507D01*
Y542666D01*
X156419D01*
Y542754D01*
X156463D01*
Y542798D01*
X156551D01*
Y542754D01*
D02*
G37*
%LPC*%
G36*
X149695Y539967D02*
X149341D01*
Y539923D01*
X149297D01*
Y539790D01*
X149252D01*
Y539658D01*
X149208D01*
Y539525D01*
X149164D01*
Y539436D01*
X149120D01*
Y539304D01*
X149075D01*
Y539171D01*
X149031D01*
Y539082D01*
X148987D01*
Y538994D01*
X148898D01*
Y539082D01*
X148854D01*
Y539171D01*
X148810D01*
Y539259D01*
X148766D01*
Y539304D01*
X148722D01*
Y539392D01*
X148677D01*
Y539481D01*
X148633D01*
Y539525D01*
X148589D01*
Y539613D01*
X148545D01*
Y539702D01*
X148500D01*
Y539746D01*
X148456D01*
Y539835D01*
X148412D01*
Y539923D01*
X148368D01*
Y539967D01*
X148102D01*
Y539923D01*
X148146D01*
Y539835D01*
X148191D01*
Y539746D01*
X148235D01*
Y539702D01*
X148279D01*
Y539613D01*
X148324D01*
Y539525D01*
X148368D01*
Y539481D01*
X148412D01*
Y539392D01*
X148456D01*
Y539304D01*
X148500D01*
Y539215D01*
X148545D01*
Y539171D01*
X148589D01*
Y539082D01*
X148633D01*
Y538994D01*
X148677D01*
Y538950D01*
X148722D01*
Y538861D01*
X148766D01*
Y538773D01*
X148810D01*
Y538729D01*
X148854D01*
Y538640D01*
X149164D01*
Y538684D01*
X149208D01*
Y538773D01*
X149252D01*
Y538861D01*
X149297D01*
Y538994D01*
X149341D01*
Y539082D01*
X149385D01*
Y539171D01*
X149429D01*
Y539304D01*
X149474D01*
Y539392D01*
X149518D01*
Y539525D01*
X149562D01*
Y539613D01*
X149606D01*
Y539569D01*
X149651D01*
Y539481D01*
X149695D01*
Y539436D01*
X149739D01*
Y539348D01*
X149783D01*
Y539259D01*
X149828D01*
Y539171D01*
X149872D01*
Y539127D01*
X149916D01*
Y539038D01*
X149960D01*
Y538950D01*
X150004D01*
Y538906D01*
X150049D01*
Y538817D01*
X150093D01*
Y538729D01*
X150137D01*
Y538684D01*
X150181D01*
Y538640D01*
X150402D01*
Y538729D01*
X150358D01*
Y538817D01*
X150314D01*
Y538906D01*
X150270D01*
Y538950D01*
X150226D01*
Y539038D01*
X150181D01*
Y539127D01*
X150137D01*
Y539171D01*
X150093D01*
Y539259D01*
X150049D01*
Y539348D01*
X150004D01*
Y539392D01*
X149960D01*
Y539481D01*
X149916D01*
Y539569D01*
X149872D01*
Y539658D01*
X149828D01*
Y539702D01*
X149783D01*
Y539790D01*
X149739D01*
Y539879D01*
X149695D01*
Y539967D01*
D02*
G37*
G36*
X145183D02*
X144873D01*
Y539923D01*
X144917D01*
Y539879D01*
X144962D01*
Y539790D01*
X145006D01*
Y539702D01*
X145050D01*
Y539658D01*
X145094D01*
Y539569D01*
X145139D01*
Y539481D01*
X145183D01*
Y539436D01*
X145227D01*
Y539348D01*
X145271D01*
Y539259D01*
X145315D01*
Y539171D01*
X145360D01*
Y539127D01*
X145404D01*
Y539038D01*
X145448D01*
Y538950D01*
X145492D01*
Y538861D01*
X145448D01*
Y538817D01*
X144475D01*
Y538861D01*
X144431D01*
Y538906D01*
X144386D01*
Y538950D01*
X144342D01*
Y539038D01*
X144298D01*
Y539082D01*
X144254D01*
Y539171D01*
X144210D01*
Y539259D01*
X144165D01*
Y539348D01*
X144121D01*
Y539392D01*
X144077D01*
Y539481D01*
X144033D01*
Y539569D01*
X143988D01*
Y539613D01*
X143944D01*
Y539702D01*
X143900D01*
Y539790D01*
X143856D01*
Y539879D01*
X143811D01*
Y539923D01*
X143767D01*
Y539967D01*
X143502D01*
Y539923D01*
X143546D01*
Y539835D01*
X143590D01*
Y539746D01*
X143634D01*
Y539702D01*
X143679D01*
Y539613D01*
X143723D01*
Y539525D01*
X143767D01*
Y539481D01*
X143811D01*
Y539392D01*
X143856D01*
Y539304D01*
X143900D01*
Y539259D01*
X143944D01*
Y539171D01*
X143988D01*
Y539082D01*
X144033D01*
Y538994D01*
X144077D01*
Y538950D01*
X144121D01*
Y538861D01*
X144165D01*
Y538817D01*
X144210D01*
Y538773D01*
X144254D01*
Y538729D01*
X144298D01*
Y538684D01*
X144431D01*
Y538640D01*
X145448D01*
Y538596D01*
X145492D01*
Y538640D01*
X145802D01*
Y538684D01*
X145846D01*
Y538817D01*
X145802D01*
Y538906D01*
X145758D01*
Y538994D01*
X145713D01*
Y539082D01*
X145669D01*
Y539127D01*
X145625D01*
Y539215D01*
X145581D01*
Y539304D01*
X145537D01*
Y539348D01*
X145492D01*
Y539436D01*
X145448D01*
Y539525D01*
X145404D01*
Y539613D01*
X145360D01*
Y539658D01*
X145315D01*
Y539746D01*
X145271D01*
Y539835D01*
X145227D01*
Y539879D01*
X145183D01*
Y539967D01*
D02*
G37*
G36*
X151110D02*
X150712D01*
Y539835D01*
X150756D01*
Y539348D01*
X150801D01*
Y538861D01*
X150845D01*
Y538817D01*
X150801D01*
Y538773D01*
X150845D01*
Y538640D01*
X151155D01*
Y538729D01*
X151110D01*
Y538906D01*
X151995D01*
Y538861D01*
X152039D01*
Y538817D01*
X152084D01*
Y538773D01*
X152128D01*
Y538729D01*
X152172D01*
Y538684D01*
X152216D01*
Y538640D01*
X152526D01*
Y538684D01*
X152482D01*
Y538729D01*
X152393D01*
Y538773D01*
X152349D01*
Y538817D01*
X152305D01*
Y538861D01*
X152260D01*
Y538906D01*
X152216D01*
Y538950D01*
X152172D01*
Y538994D01*
X152128D01*
Y539038D01*
X152084D01*
Y539082D01*
X152039D01*
Y539127D01*
X151995D01*
Y539171D01*
X151951D01*
Y539215D01*
X151907D01*
Y539259D01*
X151818D01*
Y539304D01*
X151774D01*
Y539348D01*
X151730D01*
Y539392D01*
X151685D01*
Y539436D01*
X151641D01*
Y539481D01*
X151597D01*
Y539525D01*
X151553D01*
Y539569D01*
X151508D01*
Y539613D01*
X151464D01*
Y539658D01*
X151420D01*
Y539702D01*
X151376D01*
Y539746D01*
X151331D01*
Y539790D01*
X151243D01*
Y539835D01*
X151199D01*
Y539879D01*
X151155D01*
Y539923D01*
X151110D01*
Y539967D01*
D02*
G37*
G36*
X146731D02*
X146466D01*
Y539879D01*
X146510D01*
Y539835D01*
X146554D01*
Y539746D01*
X146598D01*
Y539658D01*
X146642D01*
Y539613D01*
X146687D01*
Y539525D01*
X146731D01*
Y539436D01*
X146775D01*
Y539392D01*
X146819D01*
Y539304D01*
X146864D01*
Y539215D01*
X146908D01*
Y539127D01*
X146952D01*
Y539082D01*
X146996D01*
Y538994D01*
X147041D01*
Y538906D01*
X147085D01*
Y538861D01*
X147129D01*
Y538817D01*
X146244D01*
Y538729D01*
X146289D01*
Y538640D01*
X147483D01*
Y538684D01*
Y538729D01*
X147439D01*
Y538773D01*
X147395D01*
Y538861D01*
X147350D01*
Y538950D01*
X147306D01*
Y538994D01*
X147262D01*
Y539082D01*
X147218D01*
Y539171D01*
X147173D01*
Y539259D01*
X147129D01*
Y539304D01*
X147085D01*
Y539392D01*
X147041D01*
Y539481D01*
X146996D01*
Y539525D01*
X146952D01*
Y539613D01*
X146908D01*
Y539702D01*
X146864D01*
Y539746D01*
X146819D01*
Y539835D01*
X146775D01*
Y539923D01*
X146731D01*
Y539967D01*
D02*
G37*
G36*
X143059D02*
X142750D01*
Y539923D01*
X142794D01*
Y539835D01*
X142838D01*
Y539790D01*
X142882D01*
Y539702D01*
X142927D01*
Y539613D01*
X142971D01*
Y539525D01*
X143015D01*
Y539481D01*
X143059D01*
Y539392D01*
X143104D01*
Y539304D01*
X143148D01*
Y539259D01*
X143192D01*
Y539215D01*
Y539171D01*
X143236D01*
Y539082D01*
X143280D01*
Y539038D01*
X143325D01*
Y538950D01*
X143369D01*
Y538861D01*
X143413D01*
Y538773D01*
X143457D01*
Y538729D01*
X143502D01*
Y538640D01*
X143767D01*
Y538729D01*
X143723D01*
Y538817D01*
X143679D01*
Y538906D01*
X143634D01*
Y538950D01*
X143590D01*
Y539038D01*
X143546D01*
Y539127D01*
X143502D01*
Y539171D01*
X143457D01*
Y539259D01*
X143413D01*
Y539348D01*
X143369D01*
Y539392D01*
X143325D01*
Y539481D01*
X143280D01*
Y539569D01*
X143236D01*
Y539658D01*
X143192D01*
Y539702D01*
X143148D01*
Y539790D01*
X143104D01*
Y539879D01*
X143059D01*
Y539967D01*
D02*
G37*
G36*
X142175D02*
X140803D01*
Y539923D01*
X140848D01*
Y539835D01*
X140892D01*
Y539790D01*
X142130D01*
Y539746D01*
X142175D01*
Y539702D01*
X142219D01*
Y539613D01*
X142263D01*
Y539569D01*
X142307D01*
Y539392D01*
X141246D01*
Y539348D01*
X141157D01*
Y539171D01*
X141201D01*
Y539082D01*
X141246D01*
Y539038D01*
X141290D01*
Y538950D01*
X141334D01*
Y538861D01*
X141378D01*
Y538817D01*
X141423D01*
Y538773D01*
X141467D01*
Y538729D01*
X141511D01*
Y538684D01*
X141600D01*
Y538640D01*
X143059D01*
Y538684D01*
X143015D01*
Y538773D01*
X142971D01*
Y538817D01*
X141688D01*
Y538861D01*
X141600D01*
Y538950D01*
X141555D01*
Y538994D01*
X141511D01*
Y539082D01*
X141467D01*
Y539171D01*
X141511D01*
Y539215D01*
X142573D01*
Y539259D01*
X142617D01*
Y539481D01*
X142573D01*
Y539525D01*
X142528D01*
Y539613D01*
X142484D01*
Y539702D01*
X142440D01*
Y539746D01*
X142396D01*
Y539790D01*
X142352D01*
Y539835D01*
X142307D01*
Y539879D01*
X142263D01*
Y539923D01*
X142175D01*
Y539967D01*
D02*
G37*
G36*
X139255D02*
X137884D01*
Y539923D01*
X137839D01*
Y539702D01*
X137884D01*
Y539613D01*
X137928D01*
Y539569D01*
X137972D01*
Y539481D01*
X138016D01*
Y539392D01*
X138061D01*
Y539304D01*
X138105D01*
Y539259D01*
X138149D01*
Y539171D01*
X138193D01*
Y539127D01*
X138238D01*
Y539038D01*
X138282D01*
Y538950D01*
X138326D01*
Y538861D01*
X138370D01*
Y538817D01*
X138415D01*
Y538773D01*
X138459D01*
Y538729D01*
X138547D01*
Y538684D01*
X138636D01*
Y538640D01*
X140007D01*
Y538684D01*
X140051D01*
Y538729D01*
X140096D01*
Y538773D01*
X140051D01*
Y538861D01*
X140007D01*
Y538950D01*
X139963D01*
Y539038D01*
X139919D01*
Y539127D01*
X139874D01*
Y539171D01*
X139830D01*
Y539259D01*
X139786D01*
Y539348D01*
X139742D01*
Y539392D01*
X139697D01*
Y539481D01*
X139653D01*
Y539569D01*
X139609D01*
Y539613D01*
X139565D01*
Y539702D01*
X139521D01*
Y539746D01*
X139476D01*
Y539790D01*
Y539835D01*
X139432D01*
Y539879D01*
X139344D01*
Y539923D01*
X139255D01*
Y539967D01*
D02*
G37*
G36*
X135185D02*
X134920D01*
Y539923D01*
X134964D01*
Y539835D01*
X135008D01*
Y539790D01*
X135053D01*
Y539702D01*
X135097D01*
Y539613D01*
X135141D01*
Y539569D01*
X135185D01*
Y539481D01*
X135230D01*
Y539392D01*
X135274D01*
Y539304D01*
X135318D01*
Y539259D01*
X135362D01*
Y539171D01*
X135406D01*
Y539082D01*
X135451D01*
Y539038D01*
X135495D01*
Y538950D01*
X135539D01*
Y538861D01*
X135583D01*
Y538773D01*
X135628D01*
Y538729D01*
X135672D01*
Y538640D01*
X135982D01*
Y538684D01*
X135937D01*
Y538729D01*
X135893D01*
Y538817D01*
X135849D01*
Y538906D01*
X135805D01*
Y538950D01*
X135760D01*
Y539038D01*
X135716D01*
Y539082D01*
Y539127D01*
X135672D01*
Y539171D01*
X135628D01*
Y539259D01*
X135583D01*
Y539348D01*
X135539D01*
Y539436D01*
X135495D01*
Y539481D01*
X135451D01*
Y539569D01*
X135406D01*
Y539658D01*
X135362D01*
Y539702D01*
X135318D01*
Y539790D01*
X135274D01*
Y539879D01*
X135230D01*
Y539923D01*
X135185D01*
Y539967D01*
D02*
G37*
G36*
X134345D02*
X132974D01*
Y539923D01*
X133018D01*
Y539879D01*
X133062D01*
Y539790D01*
X134301D01*
Y539746D01*
X134345D01*
Y539702D01*
X134389D01*
Y539613D01*
X134433D01*
Y539569D01*
X134478D01*
Y539392D01*
X133416D01*
Y539348D01*
X133327D01*
Y539171D01*
X133372D01*
Y539082D01*
X133416D01*
Y539038D01*
X133460D01*
Y538950D01*
X133504D01*
Y538861D01*
X133549D01*
Y538817D01*
X133593D01*
Y538773D01*
X133637D01*
Y538729D01*
X133681D01*
Y538684D01*
X133770D01*
Y538640D01*
X135230D01*
Y538684D01*
X135185D01*
Y538773D01*
X135141D01*
Y538817D01*
X133858D01*
Y538861D01*
X133770D01*
Y538950D01*
X133726D01*
Y538994D01*
X133681D01*
Y539082D01*
X133637D01*
Y539171D01*
X133681D01*
Y539215D01*
X134743D01*
Y539259D01*
X134787D01*
Y539304D01*
X134832D01*
Y539348D01*
X134787D01*
Y539481D01*
X134743D01*
Y539525D01*
X134699D01*
Y539613D01*
X134654D01*
Y539702D01*
X134610D01*
Y539746D01*
X134566D01*
Y539835D01*
X134522D01*
Y539879D01*
X134433D01*
Y539923D01*
X134345D01*
Y539967D01*
D02*
G37*
G36*
X153543D02*
X152216D01*
Y539879D01*
X152260D01*
Y539790D01*
X153499D01*
Y539746D01*
X153543D01*
Y539702D01*
X153587D01*
Y539658D01*
X153632D01*
Y539569D01*
X153676D01*
Y539481D01*
X153720D01*
Y539436D01*
X153676D01*
Y539392D01*
X152614D01*
Y539348D01*
X152570D01*
Y539304D01*
X152526D01*
Y539215D01*
X152570D01*
Y539127D01*
X152614D01*
Y539038D01*
X152659D01*
Y538950D01*
X152703D01*
Y538906D01*
X152747D01*
Y538817D01*
X152791D01*
Y538773D01*
X152836D01*
Y538729D01*
X152880D01*
Y538684D01*
X152968D01*
Y538640D01*
X153278D01*
Y538596D01*
X153322D01*
Y538640D01*
X154295D01*
Y538596D01*
X154340D01*
Y538640D01*
X154428D01*
Y538684D01*
X154384D01*
Y538773D01*
X154340D01*
Y538817D01*
X153057D01*
Y538861D01*
X153013D01*
Y538906D01*
X152968D01*
Y538950D01*
X152924D01*
Y539038D01*
X152880D01*
Y539127D01*
X152836D01*
Y539171D01*
X152880D01*
Y539215D01*
X153941D01*
Y539259D01*
X153986D01*
Y539304D01*
X154030D01*
Y539392D01*
X153986D01*
Y539481D01*
X153941D01*
Y539569D01*
X153897D01*
Y539613D01*
X153853D01*
Y539702D01*
X153809D01*
Y539790D01*
X153764D01*
Y539835D01*
X153720D01*
Y539879D01*
X153632D01*
Y539923D01*
X153543D01*
Y539967D01*
D02*
G37*
G36*
X137264D02*
X135849D01*
Y539923D01*
X135805D01*
Y539879D01*
X135760D01*
Y539790D01*
X135805D01*
Y539702D01*
X135849D01*
Y539613D01*
X135893D01*
Y539525D01*
X135937D01*
Y539481D01*
X135982D01*
Y539436D01*
X136026D01*
Y539392D01*
X136070D01*
Y539348D01*
X136159D01*
Y539259D01*
X136114D01*
Y539171D01*
X136159D01*
Y539082D01*
X136203D01*
Y538994D01*
X136247D01*
Y538906D01*
X136291D01*
Y538861D01*
X136336D01*
Y538817D01*
X136380D01*
Y538773D01*
X136424D01*
Y538729D01*
X136468D01*
Y538684D01*
X136557D01*
Y538640D01*
X137972D01*
Y538596D01*
X138016D01*
Y538684D01*
X137972D01*
Y538773D01*
X137928D01*
Y538861D01*
X137884D01*
Y538906D01*
X137839D01*
Y538994D01*
X137795D01*
Y539082D01*
X137751D01*
Y539127D01*
X137707D01*
Y539215D01*
X137663D01*
Y539304D01*
X137618D01*
Y539392D01*
X137574D01*
Y539436D01*
X137530D01*
Y539525D01*
X137486D01*
Y539613D01*
X137441D01*
Y539658D01*
X137397D01*
Y539746D01*
X137353D01*
Y539835D01*
X137309D01*
Y539879D01*
X137264D01*
Y539967D01*
D02*
G37*
G36*
X132443D02*
X131027D01*
Y539923D01*
X130983D01*
Y539746D01*
X131027D01*
Y539658D01*
X131071D01*
Y539569D01*
X131116D01*
Y539481D01*
X131160D01*
Y539436D01*
X131204D01*
Y539348D01*
X131248D01*
Y539304D01*
X131293D01*
Y539259D01*
X131337D01*
Y539215D01*
X131381D01*
Y539171D01*
X131514D01*
Y539127D01*
X131735D01*
Y539082D01*
X131779D01*
Y539127D01*
X132487D01*
Y539082D01*
X132531D01*
Y539127D01*
X132664D01*
Y539082D01*
X132708D01*
Y538994D01*
X132752D01*
Y538950D01*
X132797D01*
Y538861D01*
X132841D01*
Y538773D01*
X132885D01*
Y538729D01*
X132929D01*
Y538640D01*
X133018D01*
Y538596D01*
X133062D01*
Y538640D01*
X133195D01*
Y538729D01*
X133150D01*
Y538817D01*
X133106D01*
Y538861D01*
X133062D01*
Y538950D01*
X133018D01*
Y539038D01*
X132974D01*
Y539127D01*
X132929D01*
Y539171D01*
X132885D01*
Y539259D01*
X132841D01*
Y539348D01*
X132797D01*
Y539392D01*
X132752D01*
Y539481D01*
X132708D01*
Y539569D01*
X132664D01*
Y539658D01*
X132620D01*
Y539702D01*
X132575D01*
Y539790D01*
X132531D01*
Y539879D01*
X132487D01*
Y539923D01*
X132443D01*
Y539967D01*
D02*
G37*
G36*
X130275D02*
X128948D01*
Y539923D01*
X128904D01*
Y539879D01*
X128860D01*
Y539790D01*
X128904D01*
Y539702D01*
X128948D01*
Y539613D01*
X128992D01*
Y539525D01*
X129036D01*
Y539481D01*
X129081D01*
Y539392D01*
X129125D01*
Y539304D01*
X129169D01*
Y539259D01*
X129214D01*
Y539171D01*
X129258D01*
Y539082D01*
X129302D01*
Y539038D01*
X129346D01*
Y538950D01*
X129390D01*
Y538861D01*
X129435D01*
Y538817D01*
X129479D01*
Y538773D01*
X129523D01*
Y538729D01*
X129567D01*
Y538684D01*
X129700D01*
Y538640D01*
X129921D01*
Y538596D01*
X129965D01*
Y538640D01*
X131071D01*
Y538684D01*
X131116D01*
Y538861D01*
X131071D01*
Y538950D01*
X131027D01*
Y539038D01*
X130983D01*
Y539082D01*
X130939D01*
Y539171D01*
X130894D01*
Y539259D01*
X130850D01*
Y539304D01*
X130806D01*
Y539392D01*
X130762D01*
Y539481D01*
X130718D01*
Y539525D01*
X130673D01*
Y539613D01*
X130629D01*
Y539702D01*
X130585D01*
Y539746D01*
X130541D01*
Y539790D01*
X130496D01*
Y539835D01*
X130452D01*
Y539879D01*
X130408D01*
Y539923D01*
X130275D01*
Y539967D01*
D02*
G37*
%LPD*%
G36*
X151066Y539746D02*
X151110D01*
Y539702D01*
X151155D01*
Y539658D01*
X151199D01*
Y539613D01*
X151243D01*
Y539569D01*
X151287D01*
Y539525D01*
X151331D01*
Y539481D01*
X151376D01*
Y539436D01*
X151420D01*
Y539392D01*
X151464D01*
Y539348D01*
X151508D01*
Y539304D01*
X151553D01*
Y539259D01*
X151597D01*
Y539215D01*
X151641D01*
Y539171D01*
X151685D01*
Y539127D01*
X151730D01*
Y539082D01*
X151066D01*
Y539436D01*
X151022D01*
Y539481D01*
Y539790D01*
X151066D01*
Y539746D01*
D02*
G37*
G36*
X139167D02*
X139211D01*
Y539702D01*
X139255D01*
Y539658D01*
X139299D01*
Y539613D01*
X139344D01*
Y539525D01*
X139388D01*
Y539481D01*
X139432D01*
Y539392D01*
X139476D01*
Y539304D01*
X139521D01*
Y539259D01*
X139565D01*
Y539171D01*
X139609D01*
Y539082D01*
X139653D01*
Y538994D01*
X139697D01*
Y538906D01*
X139742D01*
Y538861D01*
X139697D01*
Y538817D01*
X138724D01*
Y538861D01*
X138636D01*
Y538906D01*
X138592D01*
Y538950D01*
X138547D01*
Y539038D01*
X138503D01*
Y539127D01*
X138459D01*
Y539171D01*
Y539215D01*
X138415D01*
Y539259D01*
X138370D01*
Y539348D01*
X138326D01*
Y539436D01*
X138282D01*
Y539481D01*
X138238D01*
Y539569D01*
X138193D01*
Y539658D01*
X138149D01*
Y539746D01*
X138193D01*
Y539790D01*
X139167D01*
Y539746D01*
D02*
G37*
G36*
X137088Y539702D02*
X137132D01*
Y539658D01*
X137176D01*
Y539569D01*
X137220D01*
Y539481D01*
X137264D01*
Y539436D01*
X137309D01*
Y539392D01*
X136291D01*
Y539436D01*
X136247D01*
Y539481D01*
X136203D01*
Y539525D01*
X136159D01*
Y539613D01*
X136114D01*
Y539790D01*
X137088D01*
Y539702D01*
D02*
G37*
G36*
X137441Y539127D02*
X137486D01*
Y539038D01*
X137530D01*
Y538950D01*
X137574D01*
Y538906D01*
X137618D01*
Y538817D01*
X136645D01*
Y538861D01*
X136601D01*
Y538906D01*
X136557D01*
Y538950D01*
X136512D01*
Y538994D01*
X136468D01*
Y539082D01*
X136424D01*
Y539215D01*
X137441D01*
Y539127D01*
D02*
G37*
G36*
X132266Y539746D02*
X132310D01*
Y539702D01*
X132354D01*
Y539613D01*
X132398D01*
Y539525D01*
X132443D01*
Y539481D01*
X132487D01*
Y539392D01*
X132531D01*
Y539259D01*
X132443D01*
Y539304D01*
X132398D01*
Y539259D01*
X131779D01*
Y539304D01*
X131558D01*
Y539348D01*
X131514D01*
Y539392D01*
X131470D01*
Y539436D01*
X131425D01*
Y539525D01*
X131381D01*
Y539613D01*
X131337D01*
Y539702D01*
X131293D01*
Y539746D01*
X131337D01*
Y539790D01*
X132266D01*
Y539746D01*
D02*
G37*
G36*
X130187D02*
X130275D01*
Y539702D01*
X130319D01*
Y539658D01*
X130364D01*
Y539613D01*
X130408D01*
Y539525D01*
X130452D01*
Y539436D01*
X130496D01*
Y539392D01*
X130541D01*
Y539304D01*
X130585D01*
Y539215D01*
X130629D01*
Y539127D01*
X130673D01*
Y539082D01*
X130718D01*
Y538994D01*
X130762D01*
Y538906D01*
Y538861D01*
Y538817D01*
X129789D01*
Y538861D01*
X129700D01*
Y538906D01*
X129656D01*
Y538950D01*
X129612D01*
Y539038D01*
X129567D01*
Y539127D01*
X129523D01*
Y539171D01*
X129479D01*
Y539259D01*
X129435D01*
Y539348D01*
X129390D01*
Y539392D01*
X129346D01*
Y539481D01*
X129302D01*
Y539569D01*
X129258D01*
Y539658D01*
X129214D01*
Y539746D01*
X129258D01*
Y539790D01*
X130187D01*
Y539746D01*
D02*
G37*
D33*
X188484Y534479D02*
Y532511D01*
X187500D01*
X187172Y532839D01*
Y534151D01*
X187500Y534479D01*
X188484D01*
X185532Y532511D02*
X186188D01*
X186516Y532839D01*
Y533495D01*
X186188Y533823D01*
X185532D01*
X185205Y533495D01*
Y533167D01*
X186516D01*
X184548Y532511D02*
X183565D01*
X183237Y532839D01*
X183565Y533167D01*
X184221D01*
X184548Y533495D01*
X184221Y533823D01*
X183237D01*
X182581Y532511D02*
X181925D01*
X182253D01*
Y533823D01*
X182581D01*
X180285Y531855D02*
X179957D01*
X179629Y532183D01*
Y533823D01*
X180613D01*
X180941Y533495D01*
Y532839D01*
X180613Y532511D01*
X179629D01*
X178973D02*
Y533823D01*
X177989D01*
X177661Y533495D01*
Y532511D01*
X175037Y534479D02*
Y532511D01*
X174053D01*
X173725Y532839D01*
Y533167D01*
Y533495D01*
X174053Y533823D01*
X175037D01*
X173069D02*
Y532839D01*
X172741Y532511D01*
X171757D01*
Y532183D01*
X172085Y531855D01*
X172413D01*
X171757Y532511D02*
Y533823D01*
X169134Y534479D02*
Y532511D01*
X168478Y533167D01*
X167822Y532511D01*
Y534479D01*
X167166Y533823D02*
Y532839D01*
X166838Y532511D01*
X165854D01*
Y532183D01*
X166182Y531855D01*
X166510D01*
X165854Y532511D02*
Y533823D01*
X164870D02*
X164214D01*
X163886Y533495D01*
Y532511D01*
X164870D01*
X165198Y532839D01*
X164870Y533167D01*
X163886D01*
X162902Y534151D02*
Y533823D01*
X163230D01*
X162574D01*
X162902D01*
Y532839D01*
X162574Y532511D01*
X161262Y534151D02*
Y533823D01*
X161590D01*
X160934D01*
X161262D01*
Y532839D01*
X160934Y532511D01*
X157982Y534479D02*
X156670D01*
X157326D01*
Y532511D01*
X188484Y530280D02*
Y528313D01*
X187172D01*
X186188Y529625D02*
X185532D01*
X185205Y529297D01*
Y528313D01*
X186188D01*
X186516Y528641D01*
X186188Y528969D01*
X185205D01*
X184548Y529625D02*
Y528641D01*
X184221Y528313D01*
X183237D01*
Y527985D01*
X183565Y527657D01*
X183893D01*
X183237Y528313D02*
Y529625D01*
X182253Y528313D02*
X181597D01*
X181269Y528641D01*
Y529297D01*
X181597Y529625D01*
X182253D01*
X182581Y529297D01*
Y528641D01*
X182253Y528313D01*
X180613Y529625D02*
Y528641D01*
X180285Y528313D01*
X179301D01*
Y529625D01*
X178317Y529952D02*
Y529625D01*
X178645D01*
X177989D01*
X178317D01*
Y528641D01*
X177989Y528313D01*
X175037Y530280D02*
Y528313D01*
X174053D01*
X173725Y528641D01*
Y528969D01*
Y529297D01*
X174053Y529625D01*
X175037D01*
X173069D02*
Y528641D01*
X172741Y528313D01*
X171757D01*
Y527985D01*
X172085Y527657D01*
X172413D01*
X171757Y528313D02*
Y529625D01*
X169134Y530280D02*
Y528313D01*
X168478Y528969D01*
X167822Y528313D01*
Y530280D01*
X167166Y528313D02*
X166510D01*
X166838D01*
Y529625D01*
X167166D01*
X165526Y528313D02*
X164870D01*
X165198D01*
Y530280D01*
X165526D01*
X163886Y528313D02*
X163230D01*
X163558D01*
Y530280D01*
X163886D01*
X160278D02*
Y528313D01*
X159294D01*
X158966Y528641D01*
Y528969D01*
X159294Y529297D01*
X160278D01*
X159294D01*
X158966Y529625D01*
Y529952D01*
X159294Y530280D01*
X160278D01*
X188484Y524114D02*
X187828D01*
X188156D01*
Y526082D01*
X188484Y525754D01*
X186844D02*
X186516Y526082D01*
X185860D01*
X185532Y525754D01*
Y524442D01*
X185860Y524114D01*
X186516D01*
X186844Y524442D01*
Y525754D01*
X184877Y524114D02*
X183565Y525426D01*
X181597Y524114D02*
X182909D01*
X181597Y525426D01*
Y525754D01*
X181925Y526082D01*
X182581D01*
X182909Y525754D01*
X180941D02*
X180613Y526082D01*
X179957D01*
X179629Y525754D01*
Y524442D01*
X179957Y524114D01*
X180613D01*
X180941Y524442D01*
Y525754D01*
X177661Y524114D02*
X178973D01*
X177661Y525426D01*
Y525754D01*
X177989Y526082D01*
X178645D01*
X178973Y525754D01*
X175693Y526082D02*
X177005D01*
Y525098D01*
X176349Y525426D01*
X176021D01*
X175693Y525098D01*
Y524442D01*
X176021Y524114D01*
X176677D01*
X177005Y524442D01*
M02*
