G04*
G04 #@! TF.GenerationSoftware,Altium Limited,Altium Designer,25.8.1 (18)*
G04*
G04 Layer_Physical_Order=1*
G04 Layer_Color=255*
%FSLAX25Y25*%
%MOIN*%
G70*
G04*
G04 #@! TF.SameCoordinates,CEB4CDF7-1973-4ED8-B396-1C5FF8A1C19E*
G04*
G04*
G04 #@! TF.FilePolarity,Positive*
G04*
G01*
G75*
%ADD13C,0.01000*%
G04:AMPARAMS|DCode=15|XSize=87.4mil|YSize=83.86mil|CornerRadius=6.29mil|HoleSize=0mil|Usage=FLASHONLY|Rotation=90.000|XOffset=0mil|YOffset=0mil|HoleType=Round|Shape=RoundedRectangle|*
%AMROUNDEDRECTD15*
21,1,0.08740,0.07128,0,0,90.0*
21,1,0.07482,0.08386,0,0,90.0*
1,1,0.01258,0.03564,0.03741*
1,1,0.01258,0.03564,-0.03741*
1,1,0.01258,-0.03564,-0.03741*
1,1,0.01258,-0.03564,0.03741*
%
%ADD15ROUNDEDRECTD15*%
G04:AMPARAMS|DCode=16|XSize=39.37mil|YSize=37.4mil|CornerRadius=4.68mil|HoleSize=0mil|Usage=FLASHONLY|Rotation=90.000|XOffset=0mil|YOffset=0mil|HoleType=Round|Shape=RoundedRectangle|*
%AMROUNDEDRECTD16*
21,1,0.03937,0.02805,0,0,90.0*
21,1,0.03002,0.03740,0,0,90.0*
1,1,0.00935,0.01403,0.01501*
1,1,0.00935,0.01403,-0.01501*
1,1,0.00935,-0.01403,-0.01501*
1,1,0.00935,-0.01403,0.01501*
%
%ADD16ROUNDEDRECTD16*%
G04:AMPARAMS|DCode=17|XSize=37.4mil|YSize=35.43mil|CornerRadius=2.66mil|HoleSize=0mil|Usage=FLASHONLY|Rotation=180.000|XOffset=0mil|YOffset=0mil|HoleType=Round|Shape=RoundedRectangle|*
%AMROUNDEDRECTD17*
21,1,0.03740,0.03012,0,0,180.0*
21,1,0.03209,0.03543,0,0,180.0*
1,1,0.00532,-0.01604,0.01506*
1,1,0.00532,0.01604,0.01506*
1,1,0.00532,0.01604,-0.01506*
1,1,0.00532,-0.01604,-0.01506*
%
%ADD17ROUNDEDRECTD17*%
%ADD18R,0.07284X0.13976*%
G04:AMPARAMS|DCode=19|XSize=37.4mil|YSize=35.43mil|CornerRadius=2.66mil|HoleSize=0mil|Usage=FLASHONLY|Rotation=270.000|XOffset=0mil|YOffset=0mil|HoleType=Round|Shape=RoundedRectangle|*
%AMROUNDEDRECTD19*
21,1,0.03740,0.03012,0,0,270.0*
21,1,0.03209,0.03543,0,0,270.0*
1,1,0.00532,-0.01506,-0.01604*
1,1,0.00532,-0.01506,0.01604*
1,1,0.00532,0.01506,0.01604*
1,1,0.00532,0.01506,-0.01604*
%
%ADD19ROUNDEDRECTD19*%
%ADD20R,0.03150X0.04724*%
G04:AMPARAMS|DCode=21|XSize=39.37mil|YSize=37.4mil|CornerRadius=4.68mil|HoleSize=0mil|Usage=FLASHONLY|Rotation=180.000|XOffset=0mil|YOffset=0mil|HoleType=Round|Shape=RoundedRectangle|*
%AMROUNDEDRECTD21*
21,1,0.03937,0.02805,0,0,180.0*
21,1,0.03002,0.03740,0,0,180.0*
1,1,0.00935,-0.01501,0.01403*
1,1,0.00935,0.01501,0.01403*
1,1,0.00935,0.01501,-0.01403*
1,1,0.00935,-0.01501,-0.01403*
%
%ADD21ROUNDEDRECTD21*%
%ADD30C,0.01500*%
%ADD31C,0.07087*%
G36*
X196850Y500000D02*
X197626D01*
X199147Y499697D01*
X200580Y499104D01*
X201870Y498242D01*
X202966Y497145D01*
X203828Y495856D01*
X204422Y494423D01*
X204724Y492902D01*
Y492126D01*
X204724D01*
X204724Y448819D01*
Y448043D01*
X204422Y446522D01*
X203828Y445089D01*
X202966Y443799D01*
X201870Y442703D01*
X200580Y441841D01*
X199147Y441248D01*
X197626Y440945D01*
X196850D01*
Y440945D01*
X122047D01*
X121272Y440945D01*
X119750Y441248D01*
X118317Y441841D01*
X117028Y442703D01*
X115931Y443799D01*
X115069Y445089D01*
X114476Y446522D01*
X114173Y448043D01*
X114173Y448819D01*
X114173Y448819D01*
X114173Y492126D01*
X114173Y492902D01*
X114476Y494423D01*
X115069Y495856D01*
X115931Y497145D01*
X117028Y498242D01*
X118317Y499104D01*
X119750Y499697D01*
X121272Y500000D01*
X122047D01*
X122047Y500000D01*
X196850Y500000D01*
D02*
G37*
%LPC*%
G36*
X155148Y491281D02*
X154043D01*
Y488984D01*
X156438D01*
Y489990D01*
X156340Y490484D01*
X156060Y490903D01*
X155641Y491182D01*
X155148Y491281D01*
D02*
G37*
G36*
X153043D02*
X151939D01*
X151445Y491182D01*
X151026Y490903D01*
X150747Y490484D01*
X150648Y489990D01*
Y488984D01*
X153043D01*
Y491281D01*
D02*
G37*
G36*
X191650Y497161D02*
X182366D01*
Y486036D01*
X168586D01*
X168006Y487042D01*
X167160Y487887D01*
X166124Y488486D01*
X164968Y488795D01*
X163772D01*
X162616Y488486D01*
X161580Y487887D01*
X160734Y487042D01*
X160154Y486036D01*
X157193D01*
X157124Y486072D01*
X156438Y486978D01*
Y487984D01*
X153543D01*
X150648D01*
Y486978D01*
X150747Y486484D01*
X151026Y486066D01*
X151445Y485786D01*
X151939Y485688D01*
X153010D01*
X153424Y484688D01*
X152282Y483545D01*
X151895Y482966D01*
X151759Y482283D01*
Y478843D01*
X151445Y478781D01*
X151026Y478501D01*
X150747Y478082D01*
X150704Y477867D01*
X149031D01*
Y481315D01*
X143882D01*
Y474590D01*
X146623D01*
X146856Y474434D01*
X147539Y474298D01*
X150704D01*
X150747Y474083D01*
X151026Y473664D01*
X151445Y473385D01*
X151939Y473286D01*
X155148D01*
X155641Y473385D01*
X156060Y473664D01*
X156340Y474083D01*
X156438Y474577D01*
Y477589D01*
X156340Y478082D01*
X156060Y478501D01*
X155641Y478781D01*
X155328Y478843D01*
Y481544D01*
X156251Y482468D01*
X160154D01*
X160734Y481462D01*
X161580Y480616D01*
X162586Y480036D01*
Y470030D01*
X161001Y468446D01*
X159222D01*
X158729Y468348D01*
X158310Y468068D01*
X158030Y467649D01*
X157932Y467156D01*
Y464577D01*
X157922Y464530D01*
Y462513D01*
X146242Y450832D01*
X144464D01*
X143891Y450718D01*
X143406Y450394D01*
X143272Y450194D01*
X143142Y450153D01*
X142291D01*
X142161Y450194D01*
X142027Y450394D01*
X141542Y450718D01*
X141351Y450756D01*
Y455453D01*
X141215Y456136D01*
X140829Y456714D01*
X130225Y467318D01*
Y473938D01*
X130098Y474574D01*
X129738Y475112D01*
X129200Y475472D01*
X128564Y475599D01*
X126784D01*
Y476623D01*
X127246Y477085D01*
X127633Y477664D01*
X127769Y478346D01*
X127769Y478346D01*
Y480036D01*
X128774Y480616D01*
X129620Y481462D01*
X130200Y482468D01*
X131890D01*
X132573Y482604D01*
X133151Y482990D01*
X134991Y484830D01*
X140142D01*
Y483252D01*
X145291D01*
Y489976D01*
X140142D01*
Y488398D01*
X134252D01*
X134252Y488399D01*
X133569Y488263D01*
X132990Y487876D01*
X132990Y487876D01*
X131151Y486036D01*
X130200D01*
X129620Y487042D01*
X128774Y487887D01*
X127738Y488486D01*
X126582Y488795D01*
X125386D01*
X124231Y488486D01*
X123195Y487887D01*
X122349Y487042D01*
X121751Y486006D01*
X121441Y484850D01*
Y483654D01*
X121751Y482498D01*
X122349Y481462D01*
X123195Y480616D01*
X124200Y480036D01*
Y479085D01*
X123738Y478624D01*
X123352Y478045D01*
X123216Y477362D01*
Y475599D01*
X121436D01*
X120800Y475472D01*
X120262Y475112D01*
X119902Y474574D01*
X119775Y473938D01*
Y466456D01*
X119902Y465820D01*
X120262Y465281D01*
X120800Y464921D01*
X121436Y464795D01*
X127701D01*
X129241Y463256D01*
X128748Y462334D01*
X128564Y462370D01*
X125500D01*
Y457469D01*
X130225D01*
Y460710D01*
X130188Y460894D01*
X131110Y461387D01*
X137783Y454714D01*
Y450756D01*
X137592Y450718D01*
X137106Y450394D01*
X136782Y449908D01*
X136668Y449336D01*
Y446334D01*
X136782Y445761D01*
X137106Y445276D01*
X137592Y444951D01*
X138164Y444837D01*
X140970D01*
X141542Y444951D01*
X142027Y445276D01*
X142161Y445475D01*
X142291Y445516D01*
X143142D01*
X143272Y445475D01*
X143406Y445276D01*
X143891Y444951D01*
X144464Y444837D01*
X147269D01*
X147841Y444951D01*
X148327Y445276D01*
X148651Y445761D01*
X148765Y446334D01*
Y448309D01*
X160968Y460512D01*
X161355Y461091D01*
X161491Y461774D01*
X161789Y462656D01*
X162234D01*
X162728Y462754D01*
X163147Y463034D01*
X163427Y463453D01*
X163525Y463947D01*
Y465923D01*
X165632Y468030D01*
X165632Y468030D01*
X166018Y468609D01*
X166154Y469291D01*
Y480036D01*
X167160Y480616D01*
X168006Y481462D01*
X168586Y482468D01*
X182366D01*
Y481185D01*
X191650D01*
Y497161D01*
D02*
G37*
G36*
Y476492D02*
X187508D01*
Y469004D01*
X191650D01*
Y476492D01*
D02*
G37*
G36*
X186508D02*
X182366D01*
Y469004D01*
X186508D01*
Y476492D01*
D02*
G37*
G36*
X141551Y481315D02*
X136402D01*
Y474590D01*
X137979D01*
Y473512D01*
X137690Y473454D01*
X137205Y473130D01*
X136880Y472645D01*
X136767Y472072D01*
Y469267D01*
X136880Y468694D01*
X137205Y468209D01*
X137405Y468075D01*
X137445Y467945D01*
Y467095D01*
X137405Y466964D01*
X137205Y466831D01*
X136880Y466345D01*
X136767Y465773D01*
Y464870D01*
X139764D01*
X142761D01*
Y465773D01*
X142647Y466345D01*
X142323Y466831D01*
X142674Y467797D01*
X143018Y468101D01*
X143413Y468040D01*
X145530Y465923D01*
Y463947D01*
X145629Y463453D01*
X145908Y463034D01*
X146327Y462754D01*
X146821Y462656D01*
X149833D01*
X150327Y462754D01*
X150745Y463034D01*
X151025Y463453D01*
X151123Y463947D01*
Y467156D01*
X151025Y467649D01*
X150745Y468068D01*
X150327Y468348D01*
X149833Y468446D01*
X148054D01*
X144569Y471931D01*
X143990Y472318D01*
X143307Y472454D01*
X142685D01*
X142647Y472645D01*
X142323Y473130D01*
X141837Y473454D01*
X141548Y473512D01*
Y474590D01*
X141551D01*
Y481315D01*
D02*
G37*
G36*
X142761Y463870D02*
X140264D01*
Y461471D01*
X141265D01*
X141837Y461585D01*
X142323Y461909D01*
X142647Y462395D01*
X142761Y462967D01*
Y463870D01*
D02*
G37*
G36*
X139264D02*
X136767D01*
Y462967D01*
X136880Y462395D01*
X137205Y461909D01*
X137690Y461585D01*
X138263Y461471D01*
X139264D01*
Y463870D01*
D02*
G37*
G36*
X191650Y468004D02*
X187508D01*
Y460516D01*
X191650D01*
Y468004D01*
D02*
G37*
G36*
X186508D02*
X182366D01*
Y460516D01*
X186508D01*
Y468004D01*
D02*
G37*
G36*
X124500Y462370D02*
X121436D01*
X120800Y462244D01*
X120262Y461884D01*
X119902Y461345D01*
X119775Y460710D01*
Y457469D01*
X124500D01*
Y462370D01*
D02*
G37*
G36*
X130225Y456468D02*
X125500D01*
Y451567D01*
X128564D01*
X129200Y451693D01*
X129738Y452053D01*
X130098Y452592D01*
X130225Y453227D01*
Y456468D01*
D02*
G37*
G36*
X124500D02*
X119775D01*
Y453227D01*
X119902Y452592D01*
X120262Y452053D01*
X120800Y451693D01*
X121436Y451567D01*
X124500D01*
Y456468D01*
D02*
G37*
%LPD*%
D13*
X146457Y477165D02*
Y477953D01*
X138976D02*
X139764Y477165D01*
D15*
X125000Y470197D02*
D03*
Y456968D02*
D03*
D16*
X145866Y447835D02*
D03*
X139567D02*
D03*
D17*
X153543Y488484D02*
D03*
Y476083D02*
D03*
D18*
X187008Y489173D02*
D03*
Y468504D02*
D03*
D19*
X160728Y465551D02*
D03*
X148327D02*
D03*
D20*
X146457Y477953D02*
D03*
X142717Y486614D02*
D03*
X138976Y477953D02*
D03*
D21*
X139764Y464370D02*
D03*
Y470669D02*
D03*
D30*
X187008Y487144D02*
Y489173D01*
X184116Y484252D02*
X187008Y487144D01*
X164370Y484252D02*
X184116D01*
X159707Y464530D02*
X160728Y465551D01*
X159707Y461774D02*
Y464530D01*
X145866Y447933D02*
X159707Y461774D01*
X145866Y447835D02*
Y447933D01*
X160728Y465650D02*
X164370Y469291D01*
Y484252D01*
X153543Y476083D02*
Y482283D01*
X155512Y484252D01*
X164370D01*
X146457Y477165D02*
X147539Y476083D01*
X153543D01*
X148327Y465551D02*
Y465650D01*
X143307Y470669D02*
X148327Y465650D01*
X139764Y470669D02*
X143307D01*
X139764D02*
Y477165D01*
X139567Y447835D02*
Y455453D01*
X125000Y470020D02*
X139567Y455453D01*
X125000Y470020D02*
Y470197D01*
X134252Y486614D02*
X142717D01*
X131890Y484252D02*
X134252Y486614D01*
X125984Y484252D02*
X131890D01*
X125000Y470197D02*
Y477362D01*
X125984Y478346D01*
Y484252D01*
D31*
X164370D02*
D03*
X125984D02*
D03*
M02*
